M48
; DRILL file {KiCad 8.0.6} date 2024-10-26T18:15:51+0200
; FORMAT={-:-/ absolute / inch / decimal}
; #@! TF.CreationDate,2024-10-26T18:15:51+02:00
; #@! TF.GenerationSoftware,Kicad,Pcbnew,8.0.6
; #@! TF.FileFunction,Plated,1,4,PTH
FMAT,2
INCH
; #@! TA.AperFunction,Plated,PTH,ViaDrill
T1C0.0118
; #@! TA.AperFunction,Plated,PTH,ComponentDrill
T2C0.1661
%
G90
G05
T1
X2.4488Y-4.5748
X2.5492Y-1.5145
X2.5492Y-1.7114
X2.5492Y-1.9082
X2.5492Y-2.1051
X2.5492Y-2.3019
X2.5492Y-2.4988
X2.5492Y-2.6956
X2.5492Y-2.8925
X2.5492Y-3.0893
X2.5492Y-3.6799
X2.5492Y-3.8767
X2.5492Y-4.2704
X2.5492Y-4.4673
X2.5492Y-4.861
X2.5492Y-5.0578
X2.6378Y-4.7008
X2.6772Y-4.8858
X2.7461Y-1.3177
X2.7461Y-1.7114
X2.7461Y-1.9082
X2.7461Y-2.1051
X2.7461Y-2.3019
X2.7461Y-2.4988
X2.7461Y-2.6956
X2.7461Y-2.8925
X2.7461Y-3.0893
X2.7461Y-4.2704
X2.7461Y-4.4673
X2.7461Y-5.0578
X2.7795Y-2.4508
X2.8346Y-4.8937
X2.8543Y-4.4587
X2.8543Y-4.6654
X2.874Y-3.4409
X2.874Y-3.5512
X2.8898Y-3.1181
X2.8898Y-3.2283
X2.9213Y-3.2402
X2.9213Y-3.2795
X2.9213Y-3.3189
X2.9291Y-3.374
X2.9429Y-1.7114
X2.9429Y-1.9082
X2.9429Y-2.1051
X2.9429Y-2.3019
X2.9429Y-2.4988
X2.9429Y-2.6956
X2.9429Y-4.2704
X2.9429Y-4.4673
X2.9429Y-5.0578
X2.9626Y-4.9114
X2.9685Y-3.4409
X2.9685Y-3.5512
X2.9843Y-3.1181
X2.9843Y-3.2283
X3.0157Y-4.2598
X3.0157Y-4.2913
X3.0157Y-4.3228
X3.0899Y-3.4455
X3.0945Y-3.5512
X3.1102Y-3.1181
X3.1102Y-3.2283
X3.1142Y-4.2913
X3.1398Y-1.3177
X3.1398Y-1.5145
X3.1398Y-1.7114
X3.1398Y-1.9082
X3.1398Y-2.1051
X3.1398Y-2.3019
X3.1398Y-2.4988
X3.1398Y-2.6956
X3.1398Y-2.8925
X3.1398Y-3.2862
X3.1398Y-3.8767
X3.1398Y-4.0736
X3.1398Y-4.4673
X3.1398Y-5.0578
X3.1417Y-4.2913
X3.1496Y-4.9311
X3.1749Y-3.3756
X3.1913Y-3.5625
X3.2087Y-3.3504
X3.2677Y-4.685
X3.315Y-3.4409
X3.315Y-3.5512
X3.3307Y-3.1181
X3.3307Y-3.2283
X3.3366Y-1.3177
X3.3366Y-1.5145
X3.3366Y-4.6641
X3.3366Y-5.0578
X3.3504Y-3.279
X3.3504Y-3.3858
X3.3563Y-4.872
X3.3957Y-4.5965
X3.4055Y-1.7717
X3.4055Y-3.3342
X3.4094Y-3.4409
X3.4094Y-3.5512
X3.4252Y-3.1181
X3.4252Y-3.2283
X3.4606Y-3.279
X3.4606Y-3.3858
X3.4646Y-4.6654
X3.4685Y-3.9685
X3.4941Y-4.9409
X3.5039Y-3.4409
X3.5039Y-3.5512
X3.5197Y-3.1181
X3.5197Y-3.2283
X3.5335Y-1.3177
X3.5335Y-4.2704
X3.5335Y-5.0578
X3.563Y-3.279
X3.563Y-3.3858
X3.5787Y-4.0512
X3.5827Y-1.6535
X3.5984Y-3.4409
X3.5984Y-3.5512
X3.6142Y-3.1181
X3.6142Y-3.2283
X3.6417Y-2.3031
X3.6496Y-3.3263
X3.6575Y-3.279
X3.6575Y-3.3858
X3.6713Y-4.9508
X3.6929Y-3.4409
X3.6929Y-3.5512
X3.7087Y-3.1181
X3.7087Y-3.2283
X3.7303Y-4.6641
X3.7303Y-5.0578
X3.7677Y-3.279
X3.7677Y-3.3858
X3.7874Y-3.4409
X3.7874Y-3.5512
X3.8031Y-3.1181
X3.8031Y-3.2283
X3.8189Y-2.1457
X3.8386Y-4.9311
X3.8701Y-3.279
X3.9173Y-2.5394
X3.9272Y-5.0578
X3.9764Y-4.252
X4.0354Y-3.7992
X4.0551Y-3.189
X4.1142Y-2.4606
X4.1142Y-4.311
X4.124Y-5.0578
X4.2323Y-1.7717
X4.311Y-3.3661
X4.3209Y-5.0578
X4.3701Y-1.3287
X4.3701Y-2.0571
X4.3701Y-2.7854
X4.3701Y-3.5138
X4.3701Y-4.2421
X4.5177Y-5.0578
X4.655Y-1.3287
X4.655Y-2.0571
X4.655Y-2.7854
X4.655Y-3.5138
X4.655Y-4.2421
X4.7047Y-3.878
X4.7146Y-5.0578
X4.8819Y-1.2402
X4.9114Y-1.7114
X4.9114Y-3.0893
X4.9114Y-3.2862
X4.9114Y-4.4673
X4.9114Y-4.6641
X4.9114Y-5.0578
X5.0Y-1.2402
X5.0394Y-2.7165
X5.0394Y-4.1929
T2
X2.8622Y-1.4424
X2.8622Y-1.4424
X3.815Y-1.4424
X3.815Y-1.4424
M30
