%TF.GenerationSoftware,KiCad,Pcbnew,8.0.6*%
%TF.CreationDate,2024-10-26T18:15:51+02:00*%
%TF.ProjectId,megacard5_reference_design,6d656761-6361-4726-9435-5f7265666572,1.0*%
%TF.SameCoordinates,Original*%
%TF.FileFunction,Legend,Top*%
%TF.FilePolarity,Positive*%
%FSLAX46Y46*%
G04 Gerber Fmt 4.6, Leading zero omitted, Abs format (unit mm)*
G04 Created by KiCad (PCBNEW 8.0.6) date 2024-10-26 18:15:51*
%MOMM*%
%LPD*%
G01*
G04 APERTURE LIST*
G04 Aperture macros list*
%AMRoundRect*
0 Rectangle with rounded corners*
0 $1 Rounding radius*
0 $2 $3 $4 $5 $6 $7 $8 $9 X,Y pos of 4 corners*
0 Add a 4 corners polygon primitive as box body*
4,1,4,$2,$3,$4,$5,$6,$7,$8,$9,$2,$3,0*
0 Add four circle primitives for the rounded corners*
1,1,$1+$1,$2,$3*
1,1,$1+$1,$4,$5*
1,1,$1+$1,$6,$7*
1,1,$1+$1,$8,$9*
0 Add four rect primitives between the rounded corners*
20,1,$1+$1,$2,$3,$4,$5,0*
20,1,$1+$1,$4,$5,$6,$7,0*
20,1,$1+$1,$6,$7,$8,$9,0*
20,1,$1+$1,$8,$9,$2,$3,0*%
G04 Aperture macros list end*
%ADD10C,0.250000*%
%ADD11C,0.150000*%
%ADD12C,0.200000*%
%ADD13C,0.120000*%
%ADD14C,0.100000*%
%ADD15C,0.950000*%
%ADD16RoundRect,0.550000X1.450000X0.550000X-1.450000X0.550000X-1.450000X-0.550000X1.450000X-0.550000X0*%
%ADD17C,3.200000*%
%ADD18RoundRect,0.250000X0.325000X0.650000X-0.325000X0.650000X-0.325000X-0.650000X0.325000X-0.650000X0*%
%ADD19C,1.600000*%
%ADD20C,1.100000*%
%ADD21R,0.600000X2.000000*%
%ADD22R,2.300000X3.850000*%
%ADD23R,2.250000X3.850000*%
%ADD24C,6.500000*%
%ADD25RoundRect,0.250000X0.312500X0.625000X-0.312500X0.625000X-0.312500X-0.625000X0.312500X-0.625000X0*%
%ADD26C,3.250000*%
%ADD27R,3.180000X0.760000*%
%ADD28R,2.540000X3.120000*%
%ADD29RoundRect,0.250000X0.625000X-0.375000X0.625000X0.375000X-0.625000X0.375000X-0.625000X-0.375000X0*%
%ADD30R,1.050000X0.650000*%
%ADD31C,1.800000*%
%ADD32RoundRect,0.300000X-1.100000X0.900000X-1.100000X-0.900000X1.100000X-0.900000X1.100000X0.900000X0*%
%ADD33RoundRect,0.250000X-0.250000X-1.500000X0.250000X-1.500000X0.250000X1.500000X-0.250000X1.500000X0*%
%ADD34RoundRect,0.250001X-0.499999X-1.449999X0.499999X-1.449999X0.499999X1.449999X-0.499999X1.449999X0*%
G04 APERTURE END LIST*
D10*
X106430928Y-46249999D02*
X104930928Y-46249999D01*
X104930928Y-46249999D02*
X104930928Y-45678570D01*
X104930928Y-45678570D02*
X105002357Y-45535713D01*
X105002357Y-45535713D02*
X105073785Y-45464284D01*
X105073785Y-45464284D02*
X105216642Y-45392856D01*
X105216642Y-45392856D02*
X105430928Y-45392856D01*
X105430928Y-45392856D02*
X105573785Y-45464284D01*
X105573785Y-45464284D02*
X105645214Y-45535713D01*
X105645214Y-45535713D02*
X105716642Y-45678570D01*
X105716642Y-45678570D02*
X105716642Y-46249999D01*
X106430928Y-44535713D02*
X106359500Y-44678570D01*
X106359500Y-44678570D02*
X106288071Y-44749999D01*
X106288071Y-44749999D02*
X106145214Y-44821427D01*
X106145214Y-44821427D02*
X105716642Y-44821427D01*
X105716642Y-44821427D02*
X105573785Y-44749999D01*
X105573785Y-44749999D02*
X105502357Y-44678570D01*
X105502357Y-44678570D02*
X105430928Y-44535713D01*
X105430928Y-44535713D02*
X105430928Y-44321427D01*
X105430928Y-44321427D02*
X105502357Y-44178570D01*
X105502357Y-44178570D02*
X105573785Y-44107142D01*
X105573785Y-44107142D02*
X105716642Y-44035713D01*
X105716642Y-44035713D02*
X106145214Y-44035713D01*
X106145214Y-44035713D02*
X106288071Y-44107142D01*
X106288071Y-44107142D02*
X106359500Y-44178570D01*
X106359500Y-44178570D02*
X106430928Y-44321427D01*
X106430928Y-44321427D02*
X106430928Y-44535713D01*
X106430928Y-43392856D02*
X105430928Y-43392856D01*
X105716642Y-43392856D02*
X105573785Y-43321427D01*
X105573785Y-43321427D02*
X105502357Y-43249999D01*
X105502357Y-43249999D02*
X105430928Y-43107141D01*
X105430928Y-43107141D02*
X105430928Y-42964284D01*
X105430928Y-42678570D02*
X105430928Y-42107142D01*
X104930928Y-42464285D02*
X106216642Y-42464285D01*
X106216642Y-42464285D02*
X106359500Y-42392856D01*
X106359500Y-42392856D02*
X106430928Y-42249999D01*
X106430928Y-42249999D02*
X106430928Y-42107142D01*
X104930928Y-40607142D02*
X104930928Y-39678570D01*
X104930928Y-39678570D02*
X105502357Y-40178570D01*
X105502357Y-40178570D02*
X105502357Y-39964285D01*
X105502357Y-39964285D02*
X105573785Y-39821428D01*
X105573785Y-39821428D02*
X105645214Y-39749999D01*
X105645214Y-39749999D02*
X105788071Y-39678570D01*
X105788071Y-39678570D02*
X106145214Y-39678570D01*
X106145214Y-39678570D02*
X106288071Y-39749999D01*
X106288071Y-39749999D02*
X106359500Y-39821428D01*
X106359500Y-39821428D02*
X106430928Y-39964285D01*
X106430928Y-39964285D02*
X106430928Y-40392856D01*
X106430928Y-40392856D02*
X106359500Y-40535713D01*
X106359500Y-40535713D02*
X106288071Y-40607142D01*
D11*
X80112295Y-118960839D02*
X79312295Y-118960839D01*
X79312295Y-118960839D02*
X79312295Y-118656077D01*
X79312295Y-118656077D02*
X79350390Y-118579887D01*
X79350390Y-118579887D02*
X79388485Y-118541792D01*
X79388485Y-118541792D02*
X79464676Y-118503696D01*
X79464676Y-118503696D02*
X79578961Y-118503696D01*
X79578961Y-118503696D02*
X79655152Y-118541792D01*
X79655152Y-118541792D02*
X79693247Y-118579887D01*
X79693247Y-118579887D02*
X79731342Y-118656077D01*
X79731342Y-118656077D02*
X79731342Y-118960839D01*
X79312295Y-118008458D02*
X79312295Y-117856077D01*
X79312295Y-117856077D02*
X79350390Y-117779887D01*
X79350390Y-117779887D02*
X79426580Y-117703696D01*
X79426580Y-117703696D02*
X79578961Y-117665601D01*
X79578961Y-117665601D02*
X79845628Y-117665601D01*
X79845628Y-117665601D02*
X79998009Y-117703696D01*
X79998009Y-117703696D02*
X80074200Y-117779887D01*
X80074200Y-117779887D02*
X80112295Y-117856077D01*
X80112295Y-117856077D02*
X80112295Y-118008458D01*
X80112295Y-118008458D02*
X80074200Y-118084649D01*
X80074200Y-118084649D02*
X79998009Y-118160839D01*
X79998009Y-118160839D02*
X79845628Y-118198935D01*
X79845628Y-118198935D02*
X79578961Y-118198935D01*
X79578961Y-118198935D02*
X79426580Y-118160839D01*
X79426580Y-118160839D02*
X79350390Y-118084649D01*
X79350390Y-118084649D02*
X79312295Y-118008458D01*
X79312295Y-117398935D02*
X80112295Y-117208459D01*
X80112295Y-117208459D02*
X79540866Y-117056078D01*
X79540866Y-117056078D02*
X80112295Y-116903697D01*
X80112295Y-116903697D02*
X79312295Y-116713221D01*
X79693247Y-116408458D02*
X79693247Y-116141792D01*
X80112295Y-116027506D02*
X80112295Y-116408458D01*
X80112295Y-116408458D02*
X79312295Y-116408458D01*
X79312295Y-116408458D02*
X79312295Y-116027506D01*
X80112295Y-115227505D02*
X79731342Y-115494172D01*
X80112295Y-115684648D02*
X79312295Y-115684648D01*
X79312295Y-115684648D02*
X79312295Y-115379886D01*
X79312295Y-115379886D02*
X79350390Y-115303696D01*
X79350390Y-115303696D02*
X79388485Y-115265601D01*
X79388485Y-115265601D02*
X79464676Y-115227505D01*
X79464676Y-115227505D02*
X79578961Y-115227505D01*
X79578961Y-115227505D02*
X79655152Y-115265601D01*
X79655152Y-115265601D02*
X79693247Y-115303696D01*
X79693247Y-115303696D02*
X79731342Y-115379886D01*
X79731342Y-115379886D02*
X79731342Y-115684648D01*
X80188485Y-115075125D02*
X80188485Y-114465601D01*
X79312295Y-114122743D02*
X79312295Y-113970362D01*
X79312295Y-113970362D02*
X79350390Y-113894172D01*
X79350390Y-113894172D02*
X79426580Y-113817981D01*
X79426580Y-113817981D02*
X79578961Y-113779886D01*
X79578961Y-113779886D02*
X79845628Y-113779886D01*
X79845628Y-113779886D02*
X79998009Y-113817981D01*
X79998009Y-113817981D02*
X80074200Y-113894172D01*
X80074200Y-113894172D02*
X80112295Y-113970362D01*
X80112295Y-113970362D02*
X80112295Y-114122743D01*
X80112295Y-114122743D02*
X80074200Y-114198934D01*
X80074200Y-114198934D02*
X79998009Y-114275124D01*
X79998009Y-114275124D02*
X79845628Y-114313220D01*
X79845628Y-114313220D02*
X79578961Y-114313220D01*
X79578961Y-114313220D02*
X79426580Y-114275124D01*
X79426580Y-114275124D02*
X79350390Y-114198934D01*
X79350390Y-114198934D02*
X79312295Y-114122743D01*
X79693247Y-113170363D02*
X79693247Y-113437029D01*
X80112295Y-113437029D02*
X79312295Y-113437029D01*
X79312295Y-113437029D02*
X79312295Y-113056077D01*
X79693247Y-112484649D02*
X79693247Y-112751315D01*
X80112295Y-112751315D02*
X79312295Y-112751315D01*
X79312295Y-112751315D02*
X79312295Y-112370363D01*
X79090200Y-119071316D02*
X79090200Y-112336078D01*
X81883723Y-118998935D02*
X81883723Y-118617982D01*
X82112295Y-119075125D02*
X81312295Y-118808458D01*
X81312295Y-118808458D02*
X82112295Y-118541792D01*
X81693247Y-118008459D02*
X81693247Y-118275125D01*
X82112295Y-118275125D02*
X81312295Y-118275125D01*
X81312295Y-118275125D02*
X81312295Y-117894173D01*
X81312295Y-117703697D02*
X81312295Y-117246554D01*
X82112295Y-117475126D02*
X81312295Y-117475126D01*
X78369047Y-31468318D02*
X78102380Y-31087365D01*
X77911904Y-31468318D02*
X77911904Y-30668318D01*
X77911904Y-30668318D02*
X78216666Y-30668318D01*
X78216666Y-30668318D02*
X78292856Y-30706413D01*
X78292856Y-30706413D02*
X78330951Y-30744508D01*
X78330951Y-30744508D02*
X78369047Y-30820699D01*
X78369047Y-30820699D02*
X78369047Y-30934984D01*
X78369047Y-30934984D02*
X78330951Y-31011175D01*
X78330951Y-31011175D02*
X78292856Y-31049270D01*
X78292856Y-31049270D02*
X78216666Y-31087365D01*
X78216666Y-31087365D02*
X77911904Y-31087365D01*
X79016666Y-31430223D02*
X78940475Y-31468318D01*
X78940475Y-31468318D02*
X78788094Y-31468318D01*
X78788094Y-31468318D02*
X78711904Y-31430223D01*
X78711904Y-31430223D02*
X78673808Y-31354032D01*
X78673808Y-31354032D02*
X78673808Y-31049270D01*
X78673808Y-31049270D02*
X78711904Y-30973080D01*
X78711904Y-30973080D02*
X78788094Y-30934984D01*
X78788094Y-30934984D02*
X78940475Y-30934984D01*
X78940475Y-30934984D02*
X79016666Y-30973080D01*
X79016666Y-30973080D02*
X79054761Y-31049270D01*
X79054761Y-31049270D02*
X79054761Y-31125461D01*
X79054761Y-31125461D02*
X78673808Y-31201651D01*
X79321427Y-30934984D02*
X79511903Y-31468318D01*
X79511903Y-31468318D02*
X79702380Y-30934984D01*
X80007142Y-31392127D02*
X80045237Y-31430223D01*
X80045237Y-31430223D02*
X80007142Y-31468318D01*
X80007142Y-31468318D02*
X79969046Y-31430223D01*
X79969046Y-31430223D02*
X80007142Y-31392127D01*
X80007142Y-31392127D02*
X80007142Y-31468318D01*
X81416665Y-31468318D02*
X80959522Y-31468318D01*
X81188094Y-31468318D02*
X81188094Y-30668318D01*
X81188094Y-30668318D02*
X81111903Y-30782603D01*
X81111903Y-30782603D02*
X81035713Y-30858794D01*
X81035713Y-30858794D02*
X80959522Y-30896889D01*
X81759523Y-31392127D02*
X81797618Y-31430223D01*
X81797618Y-31430223D02*
X81759523Y-31468318D01*
X81759523Y-31468318D02*
X81721427Y-31430223D01*
X81721427Y-31430223D02*
X81759523Y-31392127D01*
X81759523Y-31392127D02*
X81759523Y-31468318D01*
X82559522Y-31468318D02*
X82102379Y-31468318D01*
X82330951Y-31468318D02*
X82330951Y-30668318D01*
X82330951Y-30668318D02*
X82254760Y-30782603D01*
X82254760Y-30782603D02*
X82178570Y-30858794D01*
X82178570Y-30858794D02*
X82102379Y-30896889D01*
X83511904Y-31163556D02*
X84121428Y-31163556D01*
X85073808Y-30744508D02*
X85111904Y-30706413D01*
X85111904Y-30706413D02*
X85188094Y-30668318D01*
X85188094Y-30668318D02*
X85378570Y-30668318D01*
X85378570Y-30668318D02*
X85454761Y-30706413D01*
X85454761Y-30706413D02*
X85492856Y-30744508D01*
X85492856Y-30744508D02*
X85530951Y-30820699D01*
X85530951Y-30820699D02*
X85530951Y-30896889D01*
X85530951Y-30896889D02*
X85492856Y-31011175D01*
X85492856Y-31011175D02*
X85035713Y-31468318D01*
X85035713Y-31468318D02*
X85530951Y-31468318D01*
X86216666Y-30668318D02*
X86064285Y-30668318D01*
X86064285Y-30668318D02*
X85988094Y-30706413D01*
X85988094Y-30706413D02*
X85949999Y-30744508D01*
X85949999Y-30744508D02*
X85873809Y-30858794D01*
X85873809Y-30858794D02*
X85835713Y-31011175D01*
X85835713Y-31011175D02*
X85835713Y-31315937D01*
X85835713Y-31315937D02*
X85873809Y-31392127D01*
X85873809Y-31392127D02*
X85911904Y-31430223D01*
X85911904Y-31430223D02*
X85988094Y-31468318D01*
X85988094Y-31468318D02*
X86140475Y-31468318D01*
X86140475Y-31468318D02*
X86216666Y-31430223D01*
X86216666Y-31430223D02*
X86254761Y-31392127D01*
X86254761Y-31392127D02*
X86292856Y-31315937D01*
X86292856Y-31315937D02*
X86292856Y-31125461D01*
X86292856Y-31125461D02*
X86254761Y-31049270D01*
X86254761Y-31049270D02*
X86216666Y-31011175D01*
X86216666Y-31011175D02*
X86140475Y-30973080D01*
X86140475Y-30973080D02*
X85988094Y-30973080D01*
X85988094Y-30973080D02*
X85911904Y-31011175D01*
X85911904Y-31011175D02*
X85873809Y-31049270D01*
X85873809Y-31049270D02*
X85835713Y-31125461D01*
X86635714Y-31392127D02*
X86673809Y-31430223D01*
X86673809Y-31430223D02*
X86635714Y-31468318D01*
X86635714Y-31468318D02*
X86597618Y-31430223D01*
X86597618Y-31430223D02*
X86635714Y-31392127D01*
X86635714Y-31392127D02*
X86635714Y-31468318D01*
X87435713Y-31468318D02*
X86978570Y-31468318D01*
X87207142Y-31468318D02*
X87207142Y-30668318D01*
X87207142Y-30668318D02*
X87130951Y-30782603D01*
X87130951Y-30782603D02*
X87054761Y-30858794D01*
X87054761Y-30858794D02*
X86978570Y-30896889D01*
X87930952Y-30668318D02*
X88007142Y-30668318D01*
X88007142Y-30668318D02*
X88083333Y-30706413D01*
X88083333Y-30706413D02*
X88121428Y-30744508D01*
X88121428Y-30744508D02*
X88159523Y-30820699D01*
X88159523Y-30820699D02*
X88197618Y-30973080D01*
X88197618Y-30973080D02*
X88197618Y-31163556D01*
X88197618Y-31163556D02*
X88159523Y-31315937D01*
X88159523Y-31315937D02*
X88121428Y-31392127D01*
X88121428Y-31392127D02*
X88083333Y-31430223D01*
X88083333Y-31430223D02*
X88007142Y-31468318D01*
X88007142Y-31468318D02*
X87930952Y-31468318D01*
X87930952Y-31468318D02*
X87854761Y-31430223D01*
X87854761Y-31430223D02*
X87816666Y-31392127D01*
X87816666Y-31392127D02*
X87778571Y-31315937D01*
X87778571Y-31315937D02*
X87740475Y-31163556D01*
X87740475Y-31163556D02*
X87740475Y-30973080D01*
X87740475Y-30973080D02*
X87778571Y-30820699D01*
X87778571Y-30820699D02*
X87816666Y-30744508D01*
X87816666Y-30744508D02*
X87854761Y-30706413D01*
X87854761Y-30706413D02*
X87930952Y-30668318D01*
X88540476Y-31392127D02*
X88578571Y-31430223D01*
X88578571Y-31430223D02*
X88540476Y-31468318D01*
X88540476Y-31468318D02*
X88502380Y-31430223D01*
X88502380Y-31430223D02*
X88540476Y-31392127D01*
X88540476Y-31392127D02*
X88540476Y-31468318D01*
X88883332Y-30744508D02*
X88921428Y-30706413D01*
X88921428Y-30706413D02*
X88997618Y-30668318D01*
X88997618Y-30668318D02*
X89188094Y-30668318D01*
X89188094Y-30668318D02*
X89264285Y-30706413D01*
X89264285Y-30706413D02*
X89302380Y-30744508D01*
X89302380Y-30744508D02*
X89340475Y-30820699D01*
X89340475Y-30820699D02*
X89340475Y-30896889D01*
X89340475Y-30896889D02*
X89302380Y-31011175D01*
X89302380Y-31011175D02*
X88845237Y-31468318D01*
X88845237Y-31468318D02*
X89340475Y-31468318D01*
X89835714Y-30668318D02*
X89911904Y-30668318D01*
X89911904Y-30668318D02*
X89988095Y-30706413D01*
X89988095Y-30706413D02*
X90026190Y-30744508D01*
X90026190Y-30744508D02*
X90064285Y-30820699D01*
X90064285Y-30820699D02*
X90102380Y-30973080D01*
X90102380Y-30973080D02*
X90102380Y-31163556D01*
X90102380Y-31163556D02*
X90064285Y-31315937D01*
X90064285Y-31315937D02*
X90026190Y-31392127D01*
X90026190Y-31392127D02*
X89988095Y-31430223D01*
X89988095Y-31430223D02*
X89911904Y-31468318D01*
X89911904Y-31468318D02*
X89835714Y-31468318D01*
X89835714Y-31468318D02*
X89759523Y-31430223D01*
X89759523Y-31430223D02*
X89721428Y-31392127D01*
X89721428Y-31392127D02*
X89683333Y-31315937D01*
X89683333Y-31315937D02*
X89645237Y-31163556D01*
X89645237Y-31163556D02*
X89645237Y-30973080D01*
X89645237Y-30973080D02*
X89683333Y-30820699D01*
X89683333Y-30820699D02*
X89721428Y-30744508D01*
X89721428Y-30744508D02*
X89759523Y-30706413D01*
X89759523Y-30706413D02*
X89835714Y-30668318D01*
X90407142Y-30744508D02*
X90445238Y-30706413D01*
X90445238Y-30706413D02*
X90521428Y-30668318D01*
X90521428Y-30668318D02*
X90711904Y-30668318D01*
X90711904Y-30668318D02*
X90788095Y-30706413D01*
X90788095Y-30706413D02*
X90826190Y-30744508D01*
X90826190Y-30744508D02*
X90864285Y-30820699D01*
X90864285Y-30820699D02*
X90864285Y-30896889D01*
X90864285Y-30896889D02*
X90826190Y-31011175D01*
X90826190Y-31011175D02*
X90369047Y-31468318D01*
X90369047Y-31468318D02*
X90864285Y-31468318D01*
X91550000Y-30934984D02*
X91550000Y-31468318D01*
X91359524Y-30630223D02*
X91169047Y-31201651D01*
X91169047Y-31201651D02*
X91664286Y-31201651D01*
X75302379Y-32756273D02*
X75302379Y-31956273D01*
X75302379Y-31956273D02*
X75492855Y-31956273D01*
X75492855Y-31956273D02*
X75607141Y-31994368D01*
X75607141Y-31994368D02*
X75683331Y-32070558D01*
X75683331Y-32070558D02*
X75721426Y-32146749D01*
X75721426Y-32146749D02*
X75759522Y-32299130D01*
X75759522Y-32299130D02*
X75759522Y-32413416D01*
X75759522Y-32413416D02*
X75721426Y-32565797D01*
X75721426Y-32565797D02*
X75683331Y-32641987D01*
X75683331Y-32641987D02*
X75607141Y-32718178D01*
X75607141Y-32718178D02*
X75492855Y-32756273D01*
X75492855Y-32756273D02*
X75302379Y-32756273D01*
X76407141Y-32718178D02*
X76330950Y-32756273D01*
X76330950Y-32756273D02*
X76178569Y-32756273D01*
X76178569Y-32756273D02*
X76102379Y-32718178D01*
X76102379Y-32718178D02*
X76064283Y-32641987D01*
X76064283Y-32641987D02*
X76064283Y-32337225D01*
X76064283Y-32337225D02*
X76102379Y-32261035D01*
X76102379Y-32261035D02*
X76178569Y-32222939D01*
X76178569Y-32222939D02*
X76330950Y-32222939D01*
X76330950Y-32222939D02*
X76407141Y-32261035D01*
X76407141Y-32261035D02*
X76445236Y-32337225D01*
X76445236Y-32337225D02*
X76445236Y-32413416D01*
X76445236Y-32413416D02*
X76064283Y-32489606D01*
X76749997Y-32718178D02*
X76826188Y-32756273D01*
X76826188Y-32756273D02*
X76978569Y-32756273D01*
X76978569Y-32756273D02*
X77054759Y-32718178D01*
X77054759Y-32718178D02*
X77092855Y-32641987D01*
X77092855Y-32641987D02*
X77092855Y-32603892D01*
X77092855Y-32603892D02*
X77054759Y-32527701D01*
X77054759Y-32527701D02*
X76978569Y-32489606D01*
X76978569Y-32489606D02*
X76864283Y-32489606D01*
X76864283Y-32489606D02*
X76788093Y-32451511D01*
X76788093Y-32451511D02*
X76749997Y-32375320D01*
X76749997Y-32375320D02*
X76749997Y-32337225D01*
X76749997Y-32337225D02*
X76788093Y-32261035D01*
X76788093Y-32261035D02*
X76864283Y-32222939D01*
X76864283Y-32222939D02*
X76978569Y-32222939D01*
X76978569Y-32222939D02*
X77054759Y-32261035D01*
X77435712Y-32756273D02*
X77435712Y-32222939D01*
X77435712Y-31956273D02*
X77397616Y-31994368D01*
X77397616Y-31994368D02*
X77435712Y-32032463D01*
X77435712Y-32032463D02*
X77473807Y-31994368D01*
X77473807Y-31994368D02*
X77435712Y-31956273D01*
X77435712Y-31956273D02*
X77435712Y-32032463D01*
X78159521Y-32222939D02*
X78159521Y-32870558D01*
X78159521Y-32870558D02*
X78121426Y-32946749D01*
X78121426Y-32946749D02*
X78083330Y-32984844D01*
X78083330Y-32984844D02*
X78007140Y-33022939D01*
X78007140Y-33022939D02*
X77892854Y-33022939D01*
X77892854Y-33022939D02*
X77816664Y-32984844D01*
X78159521Y-32718178D02*
X78083330Y-32756273D01*
X78083330Y-32756273D02*
X77930949Y-32756273D01*
X77930949Y-32756273D02*
X77854759Y-32718178D01*
X77854759Y-32718178D02*
X77816664Y-32680082D01*
X77816664Y-32680082D02*
X77778568Y-32603892D01*
X77778568Y-32603892D02*
X77778568Y-32375320D01*
X77778568Y-32375320D02*
X77816664Y-32299130D01*
X77816664Y-32299130D02*
X77854759Y-32261035D01*
X77854759Y-32261035D02*
X77930949Y-32222939D01*
X77930949Y-32222939D02*
X78083330Y-32222939D01*
X78083330Y-32222939D02*
X78159521Y-32261035D01*
X78540474Y-32222939D02*
X78540474Y-32756273D01*
X78540474Y-32299130D02*
X78578569Y-32261035D01*
X78578569Y-32261035D02*
X78654759Y-32222939D01*
X78654759Y-32222939D02*
X78769045Y-32222939D01*
X78769045Y-32222939D02*
X78845236Y-32261035D01*
X78845236Y-32261035D02*
X78883331Y-32337225D01*
X78883331Y-32337225D02*
X78883331Y-32756273D01*
X79569046Y-32718178D02*
X79492855Y-32756273D01*
X79492855Y-32756273D02*
X79340474Y-32756273D01*
X79340474Y-32756273D02*
X79264284Y-32718178D01*
X79264284Y-32718178D02*
X79226188Y-32641987D01*
X79226188Y-32641987D02*
X79226188Y-32337225D01*
X79226188Y-32337225D02*
X79264284Y-32261035D01*
X79264284Y-32261035D02*
X79340474Y-32222939D01*
X79340474Y-32222939D02*
X79492855Y-32222939D01*
X79492855Y-32222939D02*
X79569046Y-32261035D01*
X79569046Y-32261035D02*
X79607141Y-32337225D01*
X79607141Y-32337225D02*
X79607141Y-32413416D01*
X79607141Y-32413416D02*
X79226188Y-32489606D01*
X80292855Y-32756273D02*
X80292855Y-31956273D01*
X80292855Y-32718178D02*
X80216664Y-32756273D01*
X80216664Y-32756273D02*
X80064283Y-32756273D01*
X80064283Y-32756273D02*
X79988093Y-32718178D01*
X79988093Y-32718178D02*
X79949998Y-32680082D01*
X79949998Y-32680082D02*
X79911902Y-32603892D01*
X79911902Y-32603892D02*
X79911902Y-32375320D01*
X79911902Y-32375320D02*
X79949998Y-32299130D01*
X79949998Y-32299130D02*
X79988093Y-32261035D01*
X79988093Y-32261035D02*
X80064283Y-32222939D01*
X80064283Y-32222939D02*
X80216664Y-32222939D01*
X80216664Y-32222939D02*
X80292855Y-32261035D01*
X81283332Y-32756273D02*
X81283332Y-31956273D01*
X81283332Y-32261035D02*
X81359522Y-32222939D01*
X81359522Y-32222939D02*
X81511903Y-32222939D01*
X81511903Y-32222939D02*
X81588094Y-32261035D01*
X81588094Y-32261035D02*
X81626189Y-32299130D01*
X81626189Y-32299130D02*
X81664284Y-32375320D01*
X81664284Y-32375320D02*
X81664284Y-32603892D01*
X81664284Y-32603892D02*
X81626189Y-32680082D01*
X81626189Y-32680082D02*
X81588094Y-32718178D01*
X81588094Y-32718178D02*
X81511903Y-32756273D01*
X81511903Y-32756273D02*
X81359522Y-32756273D01*
X81359522Y-32756273D02*
X81283332Y-32718178D01*
X81930951Y-32222939D02*
X82121427Y-32756273D01*
X82311904Y-32222939D02*
X82121427Y-32756273D01*
X82121427Y-32756273D02*
X82045237Y-32946749D01*
X82045237Y-32946749D02*
X82007142Y-32984844D01*
X82007142Y-32984844D02*
X81930951Y-33022939D01*
X83149999Y-31956273D02*
X83340475Y-32756273D01*
X83340475Y-32756273D02*
X83492856Y-32184844D01*
X83492856Y-32184844D02*
X83645237Y-32756273D01*
X83645237Y-32756273D02*
X83835714Y-31956273D01*
X84140476Y-32756273D02*
X84140476Y-32222939D01*
X84140476Y-31956273D02*
X84102380Y-31994368D01*
X84102380Y-31994368D02*
X84140476Y-32032463D01*
X84140476Y-32032463D02*
X84178571Y-31994368D01*
X84178571Y-31994368D02*
X84140476Y-31956273D01*
X84140476Y-31956273D02*
X84140476Y-32032463D01*
X84635713Y-32756273D02*
X84559523Y-32718178D01*
X84559523Y-32718178D02*
X84521428Y-32641987D01*
X84521428Y-32641987D02*
X84521428Y-31956273D01*
X84940476Y-32756273D02*
X84940476Y-31956273D01*
X85283333Y-32756273D02*
X85283333Y-32337225D01*
X85283333Y-32337225D02*
X85245238Y-32261035D01*
X85245238Y-32261035D02*
X85169047Y-32222939D01*
X85169047Y-32222939D02*
X85054761Y-32222939D01*
X85054761Y-32222939D02*
X84978571Y-32261035D01*
X84978571Y-32261035D02*
X84940476Y-32299130D01*
X85969048Y-32718178D02*
X85892857Y-32756273D01*
X85892857Y-32756273D02*
X85740476Y-32756273D01*
X85740476Y-32756273D02*
X85664286Y-32718178D01*
X85664286Y-32718178D02*
X85626190Y-32641987D01*
X85626190Y-32641987D02*
X85626190Y-32337225D01*
X85626190Y-32337225D02*
X85664286Y-32261035D01*
X85664286Y-32261035D02*
X85740476Y-32222939D01*
X85740476Y-32222939D02*
X85892857Y-32222939D01*
X85892857Y-32222939D02*
X85969048Y-32261035D01*
X85969048Y-32261035D02*
X86007143Y-32337225D01*
X86007143Y-32337225D02*
X86007143Y-32413416D01*
X86007143Y-32413416D02*
X85626190Y-32489606D01*
X86464285Y-32756273D02*
X86388095Y-32718178D01*
X86388095Y-32718178D02*
X86350000Y-32641987D01*
X86350000Y-32641987D02*
X86350000Y-31956273D01*
X86769048Y-32756273D02*
X86769048Y-32222939D01*
X86769048Y-32299130D02*
X86807143Y-32261035D01*
X86807143Y-32261035D02*
X86883333Y-32222939D01*
X86883333Y-32222939D02*
X86997619Y-32222939D01*
X86997619Y-32222939D02*
X87073810Y-32261035D01*
X87073810Y-32261035D02*
X87111905Y-32337225D01*
X87111905Y-32337225D02*
X87111905Y-32756273D01*
X87111905Y-32337225D02*
X87150000Y-32261035D01*
X87150000Y-32261035D02*
X87226191Y-32222939D01*
X87226191Y-32222939D02*
X87340476Y-32222939D01*
X87340476Y-32222939D02*
X87416667Y-32261035D01*
X87416667Y-32261035D02*
X87454762Y-32337225D01*
X87454762Y-32337225D02*
X87454762Y-32756273D01*
X88369048Y-31956273D02*
X88902382Y-31956273D01*
X88902382Y-31956273D02*
X88369048Y-32756273D01*
X88369048Y-32756273D02*
X88902382Y-32756273D01*
X89511906Y-32718178D02*
X89435715Y-32756273D01*
X89435715Y-32756273D02*
X89283334Y-32756273D01*
X89283334Y-32756273D02*
X89207144Y-32718178D01*
X89207144Y-32718178D02*
X89169048Y-32641987D01*
X89169048Y-32641987D02*
X89169048Y-32337225D01*
X89169048Y-32337225D02*
X89207144Y-32261035D01*
X89207144Y-32261035D02*
X89283334Y-32222939D01*
X89283334Y-32222939D02*
X89435715Y-32222939D01*
X89435715Y-32222939D02*
X89511906Y-32261035D01*
X89511906Y-32261035D02*
X89550001Y-32337225D01*
X89550001Y-32337225D02*
X89550001Y-32413416D01*
X89550001Y-32413416D02*
X89169048Y-32489606D01*
X90235715Y-32222939D02*
X90235715Y-32756273D01*
X89892858Y-32222939D02*
X89892858Y-32641987D01*
X89892858Y-32641987D02*
X89930953Y-32718178D01*
X89930953Y-32718178D02*
X90007143Y-32756273D01*
X90007143Y-32756273D02*
X90121429Y-32756273D01*
X90121429Y-32756273D02*
X90197620Y-32718178D01*
X90197620Y-32718178D02*
X90235715Y-32680082D01*
X90578572Y-32718178D02*
X90654763Y-32756273D01*
X90654763Y-32756273D02*
X90807144Y-32756273D01*
X90807144Y-32756273D02*
X90883334Y-32718178D01*
X90883334Y-32718178D02*
X90921430Y-32641987D01*
X90921430Y-32641987D02*
X90921430Y-32603892D01*
X90921430Y-32603892D02*
X90883334Y-32527701D01*
X90883334Y-32527701D02*
X90807144Y-32489606D01*
X90807144Y-32489606D02*
X90692858Y-32489606D01*
X90692858Y-32489606D02*
X90616668Y-32451511D01*
X90616668Y-32451511D02*
X90578572Y-32375320D01*
X90578572Y-32375320D02*
X90578572Y-32337225D01*
X90578572Y-32337225D02*
X90616668Y-32261035D01*
X90616668Y-32261035D02*
X90692858Y-32222939D01*
X90692858Y-32222939D02*
X90807144Y-32222939D01*
X90807144Y-32222939D02*
X90883334Y-32261035D01*
X91607144Y-32718178D02*
X91530953Y-32756273D01*
X91530953Y-32756273D02*
X91378572Y-32756273D01*
X91378572Y-32756273D02*
X91302382Y-32718178D01*
X91302382Y-32718178D02*
X91264287Y-32680082D01*
X91264287Y-32680082D02*
X91226191Y-32603892D01*
X91226191Y-32603892D02*
X91226191Y-32375320D01*
X91226191Y-32375320D02*
X91264287Y-32299130D01*
X91264287Y-32299130D02*
X91302382Y-32261035D01*
X91302382Y-32261035D02*
X91378572Y-32222939D01*
X91378572Y-32222939D02*
X91530953Y-32222939D01*
X91530953Y-32222939D02*
X91607144Y-32261035D01*
X91950001Y-32756273D02*
X91950001Y-31956273D01*
X92292858Y-32756273D02*
X92292858Y-32337225D01*
X92292858Y-32337225D02*
X92254763Y-32261035D01*
X92254763Y-32261035D02*
X92178572Y-32222939D01*
X92178572Y-32222939D02*
X92064286Y-32222939D01*
X92064286Y-32222939D02*
X91988096Y-32261035D01*
X91988096Y-32261035D02*
X91950001Y-32299130D01*
X92673811Y-32222939D02*
X92673811Y-32756273D01*
X92673811Y-32299130D02*
X92711906Y-32261035D01*
X92711906Y-32261035D02*
X92788096Y-32222939D01*
X92788096Y-32222939D02*
X92902382Y-32222939D01*
X92902382Y-32222939D02*
X92978573Y-32261035D01*
X92978573Y-32261035D02*
X93016668Y-32337225D01*
X93016668Y-32337225D02*
X93016668Y-32756273D01*
X93702383Y-32718178D02*
X93626192Y-32756273D01*
X93626192Y-32756273D02*
X93473811Y-32756273D01*
X93473811Y-32756273D02*
X93397621Y-32718178D01*
X93397621Y-32718178D02*
X93359525Y-32641987D01*
X93359525Y-32641987D02*
X93359525Y-32337225D01*
X93359525Y-32337225D02*
X93397621Y-32261035D01*
X93397621Y-32261035D02*
X93473811Y-32222939D01*
X93473811Y-32222939D02*
X93626192Y-32222939D01*
X93626192Y-32222939D02*
X93702383Y-32261035D01*
X93702383Y-32261035D02*
X93740478Y-32337225D01*
X93740478Y-32337225D02*
X93740478Y-32413416D01*
X93740478Y-32413416D02*
X93359525Y-32489606D01*
X94083335Y-32756273D02*
X94083335Y-32222939D01*
X94083335Y-32375320D02*
X94121430Y-32299130D01*
X94121430Y-32299130D02*
X94159525Y-32261035D01*
X94159525Y-32261035D02*
X94235716Y-32222939D01*
X94235716Y-32222939D02*
X94311906Y-32222939D01*
D10*
X106430928Y-83249999D02*
X104930928Y-83249999D01*
X104930928Y-83249999D02*
X104930928Y-82678570D01*
X104930928Y-82678570D02*
X105002357Y-82535713D01*
X105002357Y-82535713D02*
X105073785Y-82464284D01*
X105073785Y-82464284D02*
X105216642Y-82392856D01*
X105216642Y-82392856D02*
X105430928Y-82392856D01*
X105430928Y-82392856D02*
X105573785Y-82464284D01*
X105573785Y-82464284D02*
X105645214Y-82535713D01*
X105645214Y-82535713D02*
X105716642Y-82678570D01*
X105716642Y-82678570D02*
X105716642Y-83249999D01*
X106430928Y-81535713D02*
X106359500Y-81678570D01*
X106359500Y-81678570D02*
X106288071Y-81749999D01*
X106288071Y-81749999D02*
X106145214Y-81821427D01*
X106145214Y-81821427D02*
X105716642Y-81821427D01*
X105716642Y-81821427D02*
X105573785Y-81749999D01*
X105573785Y-81749999D02*
X105502357Y-81678570D01*
X105502357Y-81678570D02*
X105430928Y-81535713D01*
X105430928Y-81535713D02*
X105430928Y-81321427D01*
X105430928Y-81321427D02*
X105502357Y-81178570D01*
X105502357Y-81178570D02*
X105573785Y-81107142D01*
X105573785Y-81107142D02*
X105716642Y-81035713D01*
X105716642Y-81035713D02*
X106145214Y-81035713D01*
X106145214Y-81035713D02*
X106288071Y-81107142D01*
X106288071Y-81107142D02*
X106359500Y-81178570D01*
X106359500Y-81178570D02*
X106430928Y-81321427D01*
X106430928Y-81321427D02*
X106430928Y-81535713D01*
X106430928Y-80392856D02*
X105430928Y-80392856D01*
X105716642Y-80392856D02*
X105573785Y-80321427D01*
X105573785Y-80321427D02*
X105502357Y-80249999D01*
X105502357Y-80249999D02*
X105430928Y-80107141D01*
X105430928Y-80107141D02*
X105430928Y-79964284D01*
X105430928Y-79678570D02*
X105430928Y-79107142D01*
X104930928Y-79464285D02*
X106216642Y-79464285D01*
X106216642Y-79464285D02*
X106359500Y-79392856D01*
X106359500Y-79392856D02*
X106430928Y-79249999D01*
X106430928Y-79249999D02*
X106430928Y-79107142D01*
X105073785Y-77535713D02*
X105002357Y-77464285D01*
X105002357Y-77464285D02*
X104930928Y-77321428D01*
X104930928Y-77321428D02*
X104930928Y-76964285D01*
X104930928Y-76964285D02*
X105002357Y-76821428D01*
X105002357Y-76821428D02*
X105073785Y-76749999D01*
X105073785Y-76749999D02*
X105216642Y-76678570D01*
X105216642Y-76678570D02*
X105359500Y-76678570D01*
X105359500Y-76678570D02*
X105573785Y-76749999D01*
X105573785Y-76749999D02*
X106430928Y-77607142D01*
X106430928Y-77607142D02*
X106430928Y-76678570D01*
X106430928Y-64749999D02*
X104930928Y-64749999D01*
X104930928Y-64749999D02*
X104930928Y-64178570D01*
X104930928Y-64178570D02*
X105002357Y-64035713D01*
X105002357Y-64035713D02*
X105073785Y-63964284D01*
X105073785Y-63964284D02*
X105216642Y-63892856D01*
X105216642Y-63892856D02*
X105430928Y-63892856D01*
X105430928Y-63892856D02*
X105573785Y-63964284D01*
X105573785Y-63964284D02*
X105645214Y-64035713D01*
X105645214Y-64035713D02*
X105716642Y-64178570D01*
X105716642Y-64178570D02*
X105716642Y-64749999D01*
X106430928Y-63035713D02*
X106359500Y-63178570D01*
X106359500Y-63178570D02*
X106288071Y-63249999D01*
X106288071Y-63249999D02*
X106145214Y-63321427D01*
X106145214Y-63321427D02*
X105716642Y-63321427D01*
X105716642Y-63321427D02*
X105573785Y-63249999D01*
X105573785Y-63249999D02*
X105502357Y-63178570D01*
X105502357Y-63178570D02*
X105430928Y-63035713D01*
X105430928Y-63035713D02*
X105430928Y-62821427D01*
X105430928Y-62821427D02*
X105502357Y-62678570D01*
X105502357Y-62678570D02*
X105573785Y-62607142D01*
X105573785Y-62607142D02*
X105716642Y-62535713D01*
X105716642Y-62535713D02*
X106145214Y-62535713D01*
X106145214Y-62535713D02*
X106288071Y-62607142D01*
X106288071Y-62607142D02*
X106359500Y-62678570D01*
X106359500Y-62678570D02*
X106430928Y-62821427D01*
X106430928Y-62821427D02*
X106430928Y-63035713D01*
X106430928Y-61892856D02*
X105430928Y-61892856D01*
X105716642Y-61892856D02*
X105573785Y-61821427D01*
X105573785Y-61821427D02*
X105502357Y-61749999D01*
X105502357Y-61749999D02*
X105430928Y-61607141D01*
X105430928Y-61607141D02*
X105430928Y-61464284D01*
X105430928Y-61178570D02*
X105430928Y-60607142D01*
X104930928Y-60964285D02*
X106216642Y-60964285D01*
X106216642Y-60964285D02*
X106359500Y-60892856D01*
X106359500Y-60892856D02*
X106430928Y-60749999D01*
X106430928Y-60749999D02*
X106430928Y-60607142D01*
X105430928Y-58321428D02*
X106430928Y-58321428D01*
X104859500Y-58678570D02*
X105930928Y-59035713D01*
X105930928Y-59035713D02*
X105930928Y-58107142D01*
D11*
X73312295Y-118579887D02*
X73312295Y-118960839D01*
X73312295Y-118960839D02*
X73693247Y-118998935D01*
X73693247Y-118998935D02*
X73655152Y-118960839D01*
X73655152Y-118960839D02*
X73617057Y-118884649D01*
X73617057Y-118884649D02*
X73617057Y-118694173D01*
X73617057Y-118694173D02*
X73655152Y-118617982D01*
X73655152Y-118617982D02*
X73693247Y-118579887D01*
X73693247Y-118579887D02*
X73769438Y-118541792D01*
X73769438Y-118541792D02*
X73959914Y-118541792D01*
X73959914Y-118541792D02*
X74036104Y-118579887D01*
X74036104Y-118579887D02*
X74074200Y-118617982D01*
X74074200Y-118617982D02*
X74112295Y-118694173D01*
X74112295Y-118694173D02*
X74112295Y-118884649D01*
X74112295Y-118884649D02*
X74074200Y-118960839D01*
X74074200Y-118960839D02*
X74036104Y-118998935D01*
X73312295Y-118313220D02*
X74112295Y-118046553D01*
X74112295Y-118046553D02*
X73312295Y-117779887D01*
X77693247Y-118960839D02*
X77693247Y-118694173D01*
X78112295Y-118579887D02*
X78112295Y-118960839D01*
X78112295Y-118960839D02*
X77312295Y-118960839D01*
X77312295Y-118960839D02*
X77312295Y-118579887D01*
X77312295Y-118313220D02*
X78112295Y-117779886D01*
X77312295Y-117779886D02*
X78112295Y-118313220D01*
X77312295Y-117589410D02*
X77312295Y-117132267D01*
X78112295Y-117360839D02*
X77312295Y-117360839D01*
X78188485Y-117056077D02*
X78188485Y-116446553D01*
X78112295Y-115798933D02*
X77731342Y-116065600D01*
X78112295Y-116256076D02*
X77312295Y-116256076D01*
X77312295Y-116256076D02*
X77312295Y-115951314D01*
X77312295Y-115951314D02*
X77350390Y-115875124D01*
X77350390Y-115875124D02*
X77388485Y-115837029D01*
X77388485Y-115837029D02*
X77464676Y-115798933D01*
X77464676Y-115798933D02*
X77578961Y-115798933D01*
X77578961Y-115798933D02*
X77655152Y-115837029D01*
X77655152Y-115837029D02*
X77693247Y-115875124D01*
X77693247Y-115875124D02*
X77731342Y-115951314D01*
X77731342Y-115951314D02*
X77731342Y-116256076D01*
X77693247Y-115456076D02*
X77693247Y-115189410D01*
X78112295Y-115075124D02*
X78112295Y-115456076D01*
X78112295Y-115456076D02*
X77312295Y-115456076D01*
X77312295Y-115456076D02*
X77312295Y-115075124D01*
X78074200Y-114770362D02*
X78112295Y-114656076D01*
X78112295Y-114656076D02*
X78112295Y-114465600D01*
X78112295Y-114465600D02*
X78074200Y-114389409D01*
X78074200Y-114389409D02*
X78036104Y-114351314D01*
X78036104Y-114351314D02*
X77959914Y-114313219D01*
X77959914Y-114313219D02*
X77883723Y-114313219D01*
X77883723Y-114313219D02*
X77807533Y-114351314D01*
X77807533Y-114351314D02*
X77769438Y-114389409D01*
X77769438Y-114389409D02*
X77731342Y-114465600D01*
X77731342Y-114465600D02*
X77693247Y-114617981D01*
X77693247Y-114617981D02*
X77655152Y-114694171D01*
X77655152Y-114694171D02*
X77617057Y-114732266D01*
X77617057Y-114732266D02*
X77540866Y-114770362D01*
X77540866Y-114770362D02*
X77464676Y-114770362D01*
X77464676Y-114770362D02*
X77388485Y-114732266D01*
X77388485Y-114732266D02*
X77350390Y-114694171D01*
X77350390Y-114694171D02*
X77312295Y-114617981D01*
X77312295Y-114617981D02*
X77312295Y-114427504D01*
X77312295Y-114427504D02*
X77350390Y-114313219D01*
X77693247Y-113970361D02*
X77693247Y-113703695D01*
X78112295Y-113589409D02*
X78112295Y-113970361D01*
X78112295Y-113970361D02*
X77312295Y-113970361D01*
X77312295Y-113970361D02*
X77312295Y-113589409D01*
X77312295Y-113360837D02*
X77312295Y-112903694D01*
X78112295Y-113132266D02*
X77312295Y-113132266D01*
X77090200Y-119071316D02*
X77090200Y-112907504D01*
X101074200Y-118998935D02*
X101112295Y-118884649D01*
X101112295Y-118884649D02*
X101112295Y-118694173D01*
X101112295Y-118694173D02*
X101074200Y-118617982D01*
X101074200Y-118617982D02*
X101036104Y-118579887D01*
X101036104Y-118579887D02*
X100959914Y-118541792D01*
X100959914Y-118541792D02*
X100883723Y-118541792D01*
X100883723Y-118541792D02*
X100807533Y-118579887D01*
X100807533Y-118579887D02*
X100769438Y-118617982D01*
X100769438Y-118617982D02*
X100731342Y-118694173D01*
X100731342Y-118694173D02*
X100693247Y-118846554D01*
X100693247Y-118846554D02*
X100655152Y-118922744D01*
X100655152Y-118922744D02*
X100617057Y-118960839D01*
X100617057Y-118960839D02*
X100540866Y-118998935D01*
X100540866Y-118998935D02*
X100464676Y-118998935D01*
X100464676Y-118998935D02*
X100388485Y-118960839D01*
X100388485Y-118960839D02*
X100350390Y-118922744D01*
X100350390Y-118922744D02*
X100312295Y-118846554D01*
X100312295Y-118846554D02*
X100312295Y-118656077D01*
X100312295Y-118656077D02*
X100350390Y-118541792D01*
X100312295Y-118275125D02*
X101112295Y-118084649D01*
X101112295Y-118084649D02*
X100540866Y-117932268D01*
X100540866Y-117932268D02*
X101112295Y-117779887D01*
X101112295Y-117779887D02*
X100312295Y-117589411D01*
X101036104Y-116827505D02*
X101074200Y-116865601D01*
X101074200Y-116865601D02*
X101112295Y-116979886D01*
X101112295Y-116979886D02*
X101112295Y-117056077D01*
X101112295Y-117056077D02*
X101074200Y-117170363D01*
X101074200Y-117170363D02*
X100998009Y-117246553D01*
X100998009Y-117246553D02*
X100921819Y-117284648D01*
X100921819Y-117284648D02*
X100769438Y-117322744D01*
X100769438Y-117322744D02*
X100655152Y-117322744D01*
X100655152Y-117322744D02*
X100502771Y-117284648D01*
X100502771Y-117284648D02*
X100426580Y-117246553D01*
X100426580Y-117246553D02*
X100350390Y-117170363D01*
X100350390Y-117170363D02*
X100312295Y-117056077D01*
X100312295Y-117056077D02*
X100312295Y-116979886D01*
X100312295Y-116979886D02*
X100350390Y-116865601D01*
X100350390Y-116865601D02*
X100388485Y-116827505D01*
X101112295Y-116103696D02*
X101112295Y-116484648D01*
X101112295Y-116484648D02*
X100312295Y-116484648D01*
X101112295Y-115837029D02*
X100312295Y-115837029D01*
X101112295Y-115379886D02*
X100655152Y-115722744D01*
X100312295Y-115379886D02*
X100769438Y-115837029D01*
X88350390Y-118541792D02*
X88312295Y-118617982D01*
X88312295Y-118617982D02*
X88312295Y-118732268D01*
X88312295Y-118732268D02*
X88350390Y-118846554D01*
X88350390Y-118846554D02*
X88426580Y-118922744D01*
X88426580Y-118922744D02*
X88502771Y-118960839D01*
X88502771Y-118960839D02*
X88655152Y-118998935D01*
X88655152Y-118998935D02*
X88769438Y-118998935D01*
X88769438Y-118998935D02*
X88921819Y-118960839D01*
X88921819Y-118960839D02*
X88998009Y-118922744D01*
X88998009Y-118922744D02*
X89074200Y-118846554D01*
X89074200Y-118846554D02*
X89112295Y-118732268D01*
X89112295Y-118732268D02*
X89112295Y-118656077D01*
X89112295Y-118656077D02*
X89074200Y-118541792D01*
X89074200Y-118541792D02*
X89036104Y-118503696D01*
X89036104Y-118503696D02*
X88769438Y-118503696D01*
X88769438Y-118503696D02*
X88769438Y-118656077D01*
X89112295Y-118160839D02*
X88312295Y-118160839D01*
X88312295Y-118160839D02*
X89112295Y-117703696D01*
X89112295Y-117703696D02*
X88312295Y-117703696D01*
X89112295Y-117322744D02*
X88312295Y-117322744D01*
X88312295Y-117322744D02*
X88312295Y-117132268D01*
X88312295Y-117132268D02*
X88350390Y-117017982D01*
X88350390Y-117017982D02*
X88426580Y-116941792D01*
X88426580Y-116941792D02*
X88502771Y-116903697D01*
X88502771Y-116903697D02*
X88655152Y-116865601D01*
X88655152Y-116865601D02*
X88769438Y-116865601D01*
X88769438Y-116865601D02*
X88921819Y-116903697D01*
X88921819Y-116903697D02*
X88998009Y-116941792D01*
X88998009Y-116941792D02*
X89074200Y-117017982D01*
X89074200Y-117017982D02*
X89112295Y-117132268D01*
X89112295Y-117132268D02*
X89112295Y-117322744D01*
D10*
X106430928Y-101749999D02*
X104930928Y-101749999D01*
X104930928Y-101749999D02*
X104930928Y-101178570D01*
X104930928Y-101178570D02*
X105002357Y-101035713D01*
X105002357Y-101035713D02*
X105073785Y-100964284D01*
X105073785Y-100964284D02*
X105216642Y-100892856D01*
X105216642Y-100892856D02*
X105430928Y-100892856D01*
X105430928Y-100892856D02*
X105573785Y-100964284D01*
X105573785Y-100964284D02*
X105645214Y-101035713D01*
X105645214Y-101035713D02*
X105716642Y-101178570D01*
X105716642Y-101178570D02*
X105716642Y-101749999D01*
X106430928Y-100035713D02*
X106359500Y-100178570D01*
X106359500Y-100178570D02*
X106288071Y-100249999D01*
X106288071Y-100249999D02*
X106145214Y-100321427D01*
X106145214Y-100321427D02*
X105716642Y-100321427D01*
X105716642Y-100321427D02*
X105573785Y-100249999D01*
X105573785Y-100249999D02*
X105502357Y-100178570D01*
X105502357Y-100178570D02*
X105430928Y-100035713D01*
X105430928Y-100035713D02*
X105430928Y-99821427D01*
X105430928Y-99821427D02*
X105502357Y-99678570D01*
X105502357Y-99678570D02*
X105573785Y-99607142D01*
X105573785Y-99607142D02*
X105716642Y-99535713D01*
X105716642Y-99535713D02*
X106145214Y-99535713D01*
X106145214Y-99535713D02*
X106288071Y-99607142D01*
X106288071Y-99607142D02*
X106359500Y-99678570D01*
X106359500Y-99678570D02*
X106430928Y-99821427D01*
X106430928Y-99821427D02*
X106430928Y-100035713D01*
X106430928Y-98892856D02*
X105430928Y-98892856D01*
X105716642Y-98892856D02*
X105573785Y-98821427D01*
X105573785Y-98821427D02*
X105502357Y-98749999D01*
X105502357Y-98749999D02*
X105430928Y-98607141D01*
X105430928Y-98607141D02*
X105430928Y-98464284D01*
X105430928Y-98178570D02*
X105430928Y-97607142D01*
X104930928Y-97964285D02*
X106216642Y-97964285D01*
X106216642Y-97964285D02*
X106359500Y-97892856D01*
X106359500Y-97892856D02*
X106430928Y-97749999D01*
X106430928Y-97749999D02*
X106430928Y-97607142D01*
X106430928Y-95178570D02*
X106430928Y-96035713D01*
X106430928Y-95607142D02*
X104930928Y-95607142D01*
X104930928Y-95607142D02*
X105145214Y-95749999D01*
X105145214Y-95749999D02*
X105288071Y-95892856D01*
X105288071Y-95892856D02*
X105359500Y-96035713D01*
X62330613Y-55821427D02*
X62402042Y-55892855D01*
X62402042Y-55892855D02*
X62473470Y-56107141D01*
X62473470Y-56107141D02*
X62473470Y-56249998D01*
X62473470Y-56249998D02*
X62402042Y-56464284D01*
X62402042Y-56464284D02*
X62259184Y-56607141D01*
X62259184Y-56607141D02*
X62116327Y-56678570D01*
X62116327Y-56678570D02*
X61830613Y-56749998D01*
X61830613Y-56749998D02*
X61616327Y-56749998D01*
X61616327Y-56749998D02*
X61330613Y-56678570D01*
X61330613Y-56678570D02*
X61187756Y-56607141D01*
X61187756Y-56607141D02*
X61044899Y-56464284D01*
X61044899Y-56464284D02*
X60973470Y-56249998D01*
X60973470Y-56249998D02*
X60973470Y-56107141D01*
X60973470Y-56107141D02*
X61044899Y-55892855D01*
X61044899Y-55892855D02*
X61116327Y-55821427D01*
X62473470Y-54535713D02*
X61687756Y-54535713D01*
X61687756Y-54535713D02*
X61544899Y-54607141D01*
X61544899Y-54607141D02*
X61473470Y-54749998D01*
X61473470Y-54749998D02*
X61473470Y-55035713D01*
X61473470Y-55035713D02*
X61544899Y-55178570D01*
X62402042Y-54535713D02*
X62473470Y-54678570D01*
X62473470Y-54678570D02*
X62473470Y-55035713D01*
X62473470Y-55035713D02*
X62402042Y-55178570D01*
X62402042Y-55178570D02*
X62259184Y-55249998D01*
X62259184Y-55249998D02*
X62116327Y-55249998D01*
X62116327Y-55249998D02*
X61973470Y-55178570D01*
X61973470Y-55178570D02*
X61902042Y-55035713D01*
X61902042Y-55035713D02*
X61902042Y-54678570D01*
X61902042Y-54678570D02*
X61830613Y-54535713D01*
X62473470Y-53821427D02*
X61473470Y-53821427D01*
X61759184Y-53821427D02*
X61616327Y-53749998D01*
X61616327Y-53749998D02*
X61544899Y-53678570D01*
X61544899Y-53678570D02*
X61473470Y-53535712D01*
X61473470Y-53535712D02*
X61473470Y-53392855D01*
X62473470Y-52892856D02*
X61473470Y-52892856D01*
X61759184Y-52892856D02*
X61616327Y-52821427D01*
X61616327Y-52821427D02*
X61544899Y-52749999D01*
X61544899Y-52749999D02*
X61473470Y-52607141D01*
X61473470Y-52607141D02*
X61473470Y-52464284D01*
X62473470Y-51964285D02*
X61473470Y-51964285D01*
X60973470Y-51964285D02*
X61044899Y-52035713D01*
X61044899Y-52035713D02*
X61116327Y-51964285D01*
X61116327Y-51964285D02*
X61044899Y-51892856D01*
X61044899Y-51892856D02*
X60973470Y-51964285D01*
X60973470Y-51964285D02*
X61116327Y-51964285D01*
X62402042Y-50678570D02*
X62473470Y-50821427D01*
X62473470Y-50821427D02*
X62473470Y-51107142D01*
X62473470Y-51107142D02*
X62402042Y-51249999D01*
X62402042Y-51249999D02*
X62259184Y-51321427D01*
X62259184Y-51321427D02*
X61687756Y-51321427D01*
X61687756Y-51321427D02*
X61544899Y-51249999D01*
X61544899Y-51249999D02*
X61473470Y-51107142D01*
X61473470Y-51107142D02*
X61473470Y-50821427D01*
X61473470Y-50821427D02*
X61544899Y-50678570D01*
X61544899Y-50678570D02*
X61687756Y-50607142D01*
X61687756Y-50607142D02*
X61830613Y-50607142D01*
X61830613Y-50607142D02*
X61973470Y-51321427D01*
X62473470Y-49964285D02*
X61473470Y-49964285D01*
X61759184Y-49964285D02*
X61616327Y-49892856D01*
X61616327Y-49892856D02*
X61544899Y-49821428D01*
X61544899Y-49821428D02*
X61473470Y-49678570D01*
X61473470Y-49678570D02*
X61473470Y-49535713D01*
X61687756Y-47392857D02*
X61759184Y-47178571D01*
X61759184Y-47178571D02*
X61830613Y-47107142D01*
X61830613Y-47107142D02*
X61973470Y-47035714D01*
X61973470Y-47035714D02*
X62187756Y-47035714D01*
X62187756Y-47035714D02*
X62330613Y-47107142D01*
X62330613Y-47107142D02*
X62402042Y-47178571D01*
X62402042Y-47178571D02*
X62473470Y-47321428D01*
X62473470Y-47321428D02*
X62473470Y-47892857D01*
X62473470Y-47892857D02*
X60973470Y-47892857D01*
X60973470Y-47892857D02*
X60973470Y-47392857D01*
X60973470Y-47392857D02*
X61044899Y-47250000D01*
X61044899Y-47250000D02*
X61116327Y-47178571D01*
X61116327Y-47178571D02*
X61259184Y-47107142D01*
X61259184Y-47107142D02*
X61402042Y-47107142D01*
X61402042Y-47107142D02*
X61544899Y-47178571D01*
X61544899Y-47178571D02*
X61616327Y-47250000D01*
X61616327Y-47250000D02*
X61687756Y-47392857D01*
X61687756Y-47392857D02*
X61687756Y-47892857D01*
X62473470Y-46178571D02*
X62402042Y-46321428D01*
X62402042Y-46321428D02*
X62330613Y-46392857D01*
X62330613Y-46392857D02*
X62187756Y-46464285D01*
X62187756Y-46464285D02*
X61759184Y-46464285D01*
X61759184Y-46464285D02*
X61616327Y-46392857D01*
X61616327Y-46392857D02*
X61544899Y-46321428D01*
X61544899Y-46321428D02*
X61473470Y-46178571D01*
X61473470Y-46178571D02*
X61473470Y-45964285D01*
X61473470Y-45964285D02*
X61544899Y-45821428D01*
X61544899Y-45821428D02*
X61616327Y-45750000D01*
X61616327Y-45750000D02*
X61759184Y-45678571D01*
X61759184Y-45678571D02*
X62187756Y-45678571D01*
X62187756Y-45678571D02*
X62330613Y-45750000D01*
X62330613Y-45750000D02*
X62402042Y-45821428D01*
X62402042Y-45821428D02*
X62473470Y-45964285D01*
X62473470Y-45964285D02*
X62473470Y-46178571D01*
X62473470Y-44392857D02*
X61687756Y-44392857D01*
X61687756Y-44392857D02*
X61544899Y-44464285D01*
X61544899Y-44464285D02*
X61473470Y-44607142D01*
X61473470Y-44607142D02*
X61473470Y-44892857D01*
X61473470Y-44892857D02*
X61544899Y-45035714D01*
X62402042Y-44392857D02*
X62473470Y-44535714D01*
X62473470Y-44535714D02*
X62473470Y-44892857D01*
X62473470Y-44892857D02*
X62402042Y-45035714D01*
X62402042Y-45035714D02*
X62259184Y-45107142D01*
X62259184Y-45107142D02*
X62116327Y-45107142D01*
X62116327Y-45107142D02*
X61973470Y-45035714D01*
X61973470Y-45035714D02*
X61902042Y-44892857D01*
X61902042Y-44892857D02*
X61902042Y-44535714D01*
X61902042Y-44535714D02*
X61830613Y-44392857D01*
X62473470Y-43678571D02*
X61473470Y-43678571D01*
X61759184Y-43678571D02*
X61616327Y-43607142D01*
X61616327Y-43607142D02*
X61544899Y-43535714D01*
X61544899Y-43535714D02*
X61473470Y-43392856D01*
X61473470Y-43392856D02*
X61473470Y-43249999D01*
X62473470Y-42107143D02*
X60973470Y-42107143D01*
X62402042Y-42107143D02*
X62473470Y-42250000D01*
X62473470Y-42250000D02*
X62473470Y-42535714D01*
X62473470Y-42535714D02*
X62402042Y-42678571D01*
X62402042Y-42678571D02*
X62330613Y-42750000D01*
X62330613Y-42750000D02*
X62187756Y-42821428D01*
X62187756Y-42821428D02*
X61759184Y-42821428D01*
X61759184Y-42821428D02*
X61616327Y-42750000D01*
X61616327Y-42750000D02*
X61544899Y-42678571D01*
X61544899Y-42678571D02*
X61473470Y-42535714D01*
X61473470Y-42535714D02*
X61473470Y-42250000D01*
X61473470Y-42250000D02*
X61544899Y-42107143D01*
X61473470Y-40464285D02*
X61473470Y-39892857D01*
X62473470Y-40250000D02*
X61187756Y-40250000D01*
X61187756Y-40250000D02*
X61044899Y-40178571D01*
X61044899Y-40178571D02*
X60973470Y-40035714D01*
X60973470Y-40035714D02*
X60973470Y-39892857D01*
X62473470Y-39178571D02*
X62402042Y-39321428D01*
X62402042Y-39321428D02*
X62330613Y-39392857D01*
X62330613Y-39392857D02*
X62187756Y-39464285D01*
X62187756Y-39464285D02*
X61759184Y-39464285D01*
X61759184Y-39464285D02*
X61616327Y-39392857D01*
X61616327Y-39392857D02*
X61544899Y-39321428D01*
X61544899Y-39321428D02*
X61473470Y-39178571D01*
X61473470Y-39178571D02*
X61473470Y-38964285D01*
X61473470Y-38964285D02*
X61544899Y-38821428D01*
X61544899Y-38821428D02*
X61616327Y-38750000D01*
X61616327Y-38750000D02*
X61759184Y-38678571D01*
X61759184Y-38678571D02*
X62187756Y-38678571D01*
X62187756Y-38678571D02*
X62330613Y-38750000D01*
X62330613Y-38750000D02*
X62402042Y-38821428D01*
X62402042Y-38821428D02*
X62473470Y-38964285D01*
X62473470Y-38964285D02*
X62473470Y-39178571D01*
X62473470Y-38035714D02*
X61473470Y-38035714D01*
X61759184Y-38035714D02*
X61616327Y-37964285D01*
X61616327Y-37964285D02*
X61544899Y-37892857D01*
X61544899Y-37892857D02*
X61473470Y-37749999D01*
X61473470Y-37749999D02*
X61473470Y-37607142D01*
X64888386Y-53607142D02*
X63388386Y-53607142D01*
X63388386Y-53607142D02*
X64459815Y-53107142D01*
X64459815Y-53107142D02*
X63388386Y-52607142D01*
X63388386Y-52607142D02*
X64888386Y-52607142D01*
X64816958Y-51321427D02*
X64888386Y-51464284D01*
X64888386Y-51464284D02*
X64888386Y-51749999D01*
X64888386Y-51749999D02*
X64816958Y-51892856D01*
X64816958Y-51892856D02*
X64674100Y-51964284D01*
X64674100Y-51964284D02*
X64102672Y-51964284D01*
X64102672Y-51964284D02*
X63959815Y-51892856D01*
X63959815Y-51892856D02*
X63888386Y-51749999D01*
X63888386Y-51749999D02*
X63888386Y-51464284D01*
X63888386Y-51464284D02*
X63959815Y-51321427D01*
X63959815Y-51321427D02*
X64102672Y-51249999D01*
X64102672Y-51249999D02*
X64245529Y-51249999D01*
X64245529Y-51249999D02*
X64388386Y-51964284D01*
X63888386Y-49964285D02*
X65102672Y-49964285D01*
X65102672Y-49964285D02*
X65245529Y-50035713D01*
X65245529Y-50035713D02*
X65316958Y-50107142D01*
X65316958Y-50107142D02*
X65388386Y-50249999D01*
X65388386Y-50249999D02*
X65388386Y-50464285D01*
X65388386Y-50464285D02*
X65316958Y-50607142D01*
X64816958Y-49964285D02*
X64888386Y-50107142D01*
X64888386Y-50107142D02*
X64888386Y-50392856D01*
X64888386Y-50392856D02*
X64816958Y-50535713D01*
X64816958Y-50535713D02*
X64745529Y-50607142D01*
X64745529Y-50607142D02*
X64602672Y-50678570D01*
X64602672Y-50678570D02*
X64174100Y-50678570D01*
X64174100Y-50678570D02*
X64031243Y-50607142D01*
X64031243Y-50607142D02*
X63959815Y-50535713D01*
X63959815Y-50535713D02*
X63888386Y-50392856D01*
X63888386Y-50392856D02*
X63888386Y-50107142D01*
X63888386Y-50107142D02*
X63959815Y-49964285D01*
X64888386Y-48607142D02*
X64102672Y-48607142D01*
X64102672Y-48607142D02*
X63959815Y-48678570D01*
X63959815Y-48678570D02*
X63888386Y-48821427D01*
X63888386Y-48821427D02*
X63888386Y-49107142D01*
X63888386Y-49107142D02*
X63959815Y-49249999D01*
X64816958Y-48607142D02*
X64888386Y-48749999D01*
X64888386Y-48749999D02*
X64888386Y-49107142D01*
X64888386Y-49107142D02*
X64816958Y-49249999D01*
X64816958Y-49249999D02*
X64674100Y-49321427D01*
X64674100Y-49321427D02*
X64531243Y-49321427D01*
X64531243Y-49321427D02*
X64388386Y-49249999D01*
X64388386Y-49249999D02*
X64316958Y-49107142D01*
X64316958Y-49107142D02*
X64316958Y-48749999D01*
X64316958Y-48749999D02*
X64245529Y-48607142D01*
X64745529Y-47035713D02*
X64816958Y-47107141D01*
X64816958Y-47107141D02*
X64888386Y-47321427D01*
X64888386Y-47321427D02*
X64888386Y-47464284D01*
X64888386Y-47464284D02*
X64816958Y-47678570D01*
X64816958Y-47678570D02*
X64674100Y-47821427D01*
X64674100Y-47821427D02*
X64531243Y-47892856D01*
X64531243Y-47892856D02*
X64245529Y-47964284D01*
X64245529Y-47964284D02*
X64031243Y-47964284D01*
X64031243Y-47964284D02*
X63745529Y-47892856D01*
X63745529Y-47892856D02*
X63602672Y-47821427D01*
X63602672Y-47821427D02*
X63459815Y-47678570D01*
X63459815Y-47678570D02*
X63388386Y-47464284D01*
X63388386Y-47464284D02*
X63388386Y-47321427D01*
X63388386Y-47321427D02*
X63459815Y-47107141D01*
X63459815Y-47107141D02*
X63531243Y-47035713D01*
X64888386Y-45749999D02*
X64102672Y-45749999D01*
X64102672Y-45749999D02*
X63959815Y-45821427D01*
X63959815Y-45821427D02*
X63888386Y-45964284D01*
X63888386Y-45964284D02*
X63888386Y-46249999D01*
X63888386Y-46249999D02*
X63959815Y-46392856D01*
X64816958Y-45749999D02*
X64888386Y-45892856D01*
X64888386Y-45892856D02*
X64888386Y-46249999D01*
X64888386Y-46249999D02*
X64816958Y-46392856D01*
X64816958Y-46392856D02*
X64674100Y-46464284D01*
X64674100Y-46464284D02*
X64531243Y-46464284D01*
X64531243Y-46464284D02*
X64388386Y-46392856D01*
X64388386Y-46392856D02*
X64316958Y-46249999D01*
X64316958Y-46249999D02*
X64316958Y-45892856D01*
X64316958Y-45892856D02*
X64245529Y-45749999D01*
X64888386Y-45035713D02*
X63888386Y-45035713D01*
X64174100Y-45035713D02*
X64031243Y-44964284D01*
X64031243Y-44964284D02*
X63959815Y-44892856D01*
X63959815Y-44892856D02*
X63888386Y-44749998D01*
X63888386Y-44749998D02*
X63888386Y-44607141D01*
X64888386Y-43464285D02*
X63388386Y-43464285D01*
X64816958Y-43464285D02*
X64888386Y-43607142D01*
X64888386Y-43607142D02*
X64888386Y-43892856D01*
X64888386Y-43892856D02*
X64816958Y-44035713D01*
X64816958Y-44035713D02*
X64745529Y-44107142D01*
X64745529Y-44107142D02*
X64602672Y-44178570D01*
X64602672Y-44178570D02*
X64174100Y-44178570D01*
X64174100Y-44178570D02*
X64031243Y-44107142D01*
X64031243Y-44107142D02*
X63959815Y-44035713D01*
X63959815Y-44035713D02*
X63888386Y-43892856D01*
X63888386Y-43892856D02*
X63888386Y-43607142D01*
X63888386Y-43607142D02*
X63959815Y-43464285D01*
X63388386Y-40892856D02*
X63388386Y-41607142D01*
X63388386Y-41607142D02*
X64102672Y-41678570D01*
X64102672Y-41678570D02*
X64031243Y-41607142D01*
X64031243Y-41607142D02*
X63959815Y-41464285D01*
X63959815Y-41464285D02*
X63959815Y-41107142D01*
X63959815Y-41107142D02*
X64031243Y-40964285D01*
X64031243Y-40964285D02*
X64102672Y-40892856D01*
X64102672Y-40892856D02*
X64245529Y-40821427D01*
X64245529Y-40821427D02*
X64602672Y-40821427D01*
X64602672Y-40821427D02*
X64745529Y-40892856D01*
X64745529Y-40892856D02*
X64816958Y-40964285D01*
X64816958Y-40964285D02*
X64888386Y-41107142D01*
X64888386Y-41107142D02*
X64888386Y-41464285D01*
X64888386Y-41464285D02*
X64816958Y-41607142D01*
X64816958Y-41607142D02*
X64745529Y-41678570D01*
D11*
X96350390Y-118541792D02*
X96312295Y-118617982D01*
X96312295Y-118617982D02*
X96312295Y-118732268D01*
X96312295Y-118732268D02*
X96350390Y-118846554D01*
X96350390Y-118846554D02*
X96426580Y-118922744D01*
X96426580Y-118922744D02*
X96502771Y-118960839D01*
X96502771Y-118960839D02*
X96655152Y-118998935D01*
X96655152Y-118998935D02*
X96769438Y-118998935D01*
X96769438Y-118998935D02*
X96921819Y-118960839D01*
X96921819Y-118960839D02*
X96998009Y-118922744D01*
X96998009Y-118922744D02*
X97074200Y-118846554D01*
X97074200Y-118846554D02*
X97112295Y-118732268D01*
X97112295Y-118732268D02*
X97112295Y-118656077D01*
X97112295Y-118656077D02*
X97074200Y-118541792D01*
X97074200Y-118541792D02*
X97036104Y-118503696D01*
X97036104Y-118503696D02*
X96769438Y-118503696D01*
X96769438Y-118503696D02*
X96769438Y-118656077D01*
X97112295Y-118160839D02*
X96312295Y-118160839D01*
X96312295Y-118160839D02*
X96312295Y-117856077D01*
X96312295Y-117856077D02*
X96350390Y-117779887D01*
X96350390Y-117779887D02*
X96388485Y-117741792D01*
X96388485Y-117741792D02*
X96464676Y-117703696D01*
X96464676Y-117703696D02*
X96578961Y-117703696D01*
X96578961Y-117703696D02*
X96655152Y-117741792D01*
X96655152Y-117741792D02*
X96693247Y-117779887D01*
X96693247Y-117779887D02*
X96731342Y-117856077D01*
X96731342Y-117856077D02*
X96731342Y-118160839D01*
X97112295Y-117360839D02*
X96312295Y-117360839D01*
X96312295Y-116827506D02*
X96312295Y-116675125D01*
X96312295Y-116675125D02*
X96350390Y-116598935D01*
X96350390Y-116598935D02*
X96426580Y-116522744D01*
X96426580Y-116522744D02*
X96578961Y-116484649D01*
X96578961Y-116484649D02*
X96845628Y-116484649D01*
X96845628Y-116484649D02*
X96998009Y-116522744D01*
X96998009Y-116522744D02*
X97074200Y-116598935D01*
X97074200Y-116598935D02*
X97112295Y-116675125D01*
X97112295Y-116675125D02*
X97112295Y-116827506D01*
X97112295Y-116827506D02*
X97074200Y-116903697D01*
X97074200Y-116903697D02*
X96998009Y-116979887D01*
X96998009Y-116979887D02*
X96845628Y-117017983D01*
X96845628Y-117017983D02*
X96578961Y-117017983D01*
X96578961Y-117017983D02*
X96426580Y-116979887D01*
X96426580Y-116979887D02*
X96350390Y-116903697D01*
X96350390Y-116903697D02*
X96312295Y-116827506D01*
X97112295Y-115722745D02*
X97112295Y-116179888D01*
X97112295Y-115951316D02*
X96312295Y-115951316D01*
X96312295Y-115951316D02*
X96426580Y-116027507D01*
X96426580Y-116027507D02*
X96502771Y-116103697D01*
X96502771Y-116103697D02*
X96540866Y-116179888D01*
D10*
X106430928Y-120249999D02*
X104930928Y-120249999D01*
X104930928Y-120249999D02*
X104930928Y-119678570D01*
X104930928Y-119678570D02*
X105002357Y-119535713D01*
X105002357Y-119535713D02*
X105073785Y-119464284D01*
X105073785Y-119464284D02*
X105216642Y-119392856D01*
X105216642Y-119392856D02*
X105430928Y-119392856D01*
X105430928Y-119392856D02*
X105573785Y-119464284D01*
X105573785Y-119464284D02*
X105645214Y-119535713D01*
X105645214Y-119535713D02*
X105716642Y-119678570D01*
X105716642Y-119678570D02*
X105716642Y-120249999D01*
X106430928Y-118535713D02*
X106359500Y-118678570D01*
X106359500Y-118678570D02*
X106288071Y-118749999D01*
X106288071Y-118749999D02*
X106145214Y-118821427D01*
X106145214Y-118821427D02*
X105716642Y-118821427D01*
X105716642Y-118821427D02*
X105573785Y-118749999D01*
X105573785Y-118749999D02*
X105502357Y-118678570D01*
X105502357Y-118678570D02*
X105430928Y-118535713D01*
X105430928Y-118535713D02*
X105430928Y-118321427D01*
X105430928Y-118321427D02*
X105502357Y-118178570D01*
X105502357Y-118178570D02*
X105573785Y-118107142D01*
X105573785Y-118107142D02*
X105716642Y-118035713D01*
X105716642Y-118035713D02*
X106145214Y-118035713D01*
X106145214Y-118035713D02*
X106288071Y-118107142D01*
X106288071Y-118107142D02*
X106359500Y-118178570D01*
X106359500Y-118178570D02*
X106430928Y-118321427D01*
X106430928Y-118321427D02*
X106430928Y-118535713D01*
X106430928Y-117392856D02*
X105430928Y-117392856D01*
X105716642Y-117392856D02*
X105573785Y-117321427D01*
X105573785Y-117321427D02*
X105502357Y-117249999D01*
X105502357Y-117249999D02*
X105430928Y-117107141D01*
X105430928Y-117107141D02*
X105430928Y-116964284D01*
X105430928Y-116678570D02*
X105430928Y-116107142D01*
X104930928Y-116464285D02*
X106216642Y-116464285D01*
X106216642Y-116464285D02*
X106359500Y-116392856D01*
X106359500Y-116392856D02*
X106430928Y-116249999D01*
X106430928Y-116249999D02*
X106430928Y-116107142D01*
X104930928Y-114178570D02*
X104930928Y-114035713D01*
X104930928Y-114035713D02*
X105002357Y-113892856D01*
X105002357Y-113892856D02*
X105073785Y-113821428D01*
X105073785Y-113821428D02*
X105216642Y-113749999D01*
X105216642Y-113749999D02*
X105502357Y-113678570D01*
X105502357Y-113678570D02*
X105859500Y-113678570D01*
X105859500Y-113678570D02*
X106145214Y-113749999D01*
X106145214Y-113749999D02*
X106288071Y-113821428D01*
X106288071Y-113821428D02*
X106359500Y-113892856D01*
X106359500Y-113892856D02*
X106430928Y-114035713D01*
X106430928Y-114035713D02*
X106430928Y-114178570D01*
X106430928Y-114178570D02*
X106359500Y-114321428D01*
X106359500Y-114321428D02*
X106288071Y-114392856D01*
X106288071Y-114392856D02*
X106145214Y-114464285D01*
X106145214Y-114464285D02*
X105859500Y-114535713D01*
X105859500Y-114535713D02*
X105502357Y-114535713D01*
X105502357Y-114535713D02*
X105216642Y-114464285D01*
X105216642Y-114464285D02*
X105073785Y-114392856D01*
X105073785Y-114392856D02*
X105002357Y-114321428D01*
X105002357Y-114321428D02*
X104930928Y-114178570D01*
D11*
X71350390Y-118541792D02*
X71312295Y-118617982D01*
X71312295Y-118617982D02*
X71312295Y-118732268D01*
X71312295Y-118732268D02*
X71350390Y-118846554D01*
X71350390Y-118846554D02*
X71426580Y-118922744D01*
X71426580Y-118922744D02*
X71502771Y-118960839D01*
X71502771Y-118960839D02*
X71655152Y-118998935D01*
X71655152Y-118998935D02*
X71769438Y-118998935D01*
X71769438Y-118998935D02*
X71921819Y-118960839D01*
X71921819Y-118960839D02*
X71998009Y-118922744D01*
X71998009Y-118922744D02*
X72074200Y-118846554D01*
X72074200Y-118846554D02*
X72112295Y-118732268D01*
X72112295Y-118732268D02*
X72112295Y-118656077D01*
X72112295Y-118656077D02*
X72074200Y-118541792D01*
X72074200Y-118541792D02*
X72036104Y-118503696D01*
X72036104Y-118503696D02*
X71769438Y-118503696D01*
X71769438Y-118503696D02*
X71769438Y-118656077D01*
X72112295Y-118160839D02*
X71312295Y-118160839D01*
X71312295Y-118160839D02*
X72112295Y-117703696D01*
X72112295Y-117703696D02*
X71312295Y-117703696D01*
X72112295Y-117322744D02*
X71312295Y-117322744D01*
X71312295Y-117322744D02*
X71312295Y-117132268D01*
X71312295Y-117132268D02*
X71350390Y-117017982D01*
X71350390Y-117017982D02*
X71426580Y-116941792D01*
X71426580Y-116941792D02*
X71502771Y-116903697D01*
X71502771Y-116903697D02*
X71655152Y-116865601D01*
X71655152Y-116865601D02*
X71769438Y-116865601D01*
X71769438Y-116865601D02*
X71921819Y-116903697D01*
X71921819Y-116903697D02*
X71998009Y-116941792D01*
X71998009Y-116941792D02*
X72074200Y-117017982D01*
X72074200Y-117017982D02*
X72112295Y-117132268D01*
X72112295Y-117132268D02*
X72112295Y-117322744D01*
D12*
X66035552Y-58178571D02*
X66702219Y-57988095D01*
X66702219Y-57988095D02*
X66226028Y-57797619D01*
X66226028Y-57797619D02*
X66702219Y-57607143D01*
X66702219Y-57607143D02*
X66035552Y-57416667D01*
X66702219Y-57035714D02*
X66035552Y-57035714D01*
X65702219Y-57035714D02*
X65749838Y-57083333D01*
X65749838Y-57083333D02*
X65797457Y-57035714D01*
X65797457Y-57035714D02*
X65749838Y-56988095D01*
X65749838Y-56988095D02*
X65702219Y-57035714D01*
X65702219Y-57035714D02*
X65797457Y-57035714D01*
X66035552Y-56654762D02*
X66035552Y-56130953D01*
X66035552Y-56130953D02*
X66702219Y-56654762D01*
X66702219Y-56654762D02*
X66702219Y-56130953D01*
X66654600Y-55369048D02*
X66702219Y-55464286D01*
X66702219Y-55464286D02*
X66702219Y-55654762D01*
X66702219Y-55654762D02*
X66654600Y-55750000D01*
X66654600Y-55750000D02*
X66559361Y-55797619D01*
X66559361Y-55797619D02*
X66178409Y-55797619D01*
X66178409Y-55797619D02*
X66083171Y-55750000D01*
X66083171Y-55750000D02*
X66035552Y-55654762D01*
X66035552Y-55654762D02*
X66035552Y-55464286D01*
X66035552Y-55464286D02*
X66083171Y-55369048D01*
X66083171Y-55369048D02*
X66178409Y-55321429D01*
X66178409Y-55321429D02*
X66273647Y-55321429D01*
X66273647Y-55321429D02*
X66368885Y-55797619D01*
X66035552Y-54464286D02*
X66702219Y-54464286D01*
X66035552Y-54892857D02*
X66559361Y-54892857D01*
X66559361Y-54892857D02*
X66654600Y-54845238D01*
X66654600Y-54845238D02*
X66702219Y-54750000D01*
X66702219Y-54750000D02*
X66702219Y-54607143D01*
X66702219Y-54607143D02*
X66654600Y-54511905D01*
X66654600Y-54511905D02*
X66606980Y-54464286D01*
X66654600Y-54035714D02*
X66702219Y-53940476D01*
X66702219Y-53940476D02*
X66702219Y-53750000D01*
X66702219Y-53750000D02*
X66654600Y-53654762D01*
X66654600Y-53654762D02*
X66559361Y-53607143D01*
X66559361Y-53607143D02*
X66511742Y-53607143D01*
X66511742Y-53607143D02*
X66416504Y-53654762D01*
X66416504Y-53654762D02*
X66368885Y-53750000D01*
X66368885Y-53750000D02*
X66368885Y-53892857D01*
X66368885Y-53892857D02*
X66321266Y-53988095D01*
X66321266Y-53988095D02*
X66226028Y-54035714D01*
X66226028Y-54035714D02*
X66178409Y-54035714D01*
X66178409Y-54035714D02*
X66083171Y-53988095D01*
X66083171Y-53988095D02*
X66035552Y-53892857D01*
X66035552Y-53892857D02*
X66035552Y-53750000D01*
X66035552Y-53750000D02*
X66083171Y-53654762D01*
X66606980Y-53178571D02*
X66654600Y-53130952D01*
X66654600Y-53130952D02*
X66702219Y-53178571D01*
X66702219Y-53178571D02*
X66654600Y-53226190D01*
X66654600Y-53226190D02*
X66606980Y-53178571D01*
X66606980Y-53178571D02*
X66702219Y-53178571D01*
X66702219Y-52273810D02*
X65702219Y-52273810D01*
X66654600Y-52273810D02*
X66702219Y-52369048D01*
X66702219Y-52369048D02*
X66702219Y-52559524D01*
X66702219Y-52559524D02*
X66654600Y-52654762D01*
X66654600Y-52654762D02*
X66606980Y-52702381D01*
X66606980Y-52702381D02*
X66511742Y-52750000D01*
X66511742Y-52750000D02*
X66226028Y-52750000D01*
X66226028Y-52750000D02*
X66130790Y-52702381D01*
X66130790Y-52702381D02*
X66083171Y-52654762D01*
X66083171Y-52654762D02*
X66035552Y-52559524D01*
X66035552Y-52559524D02*
X66035552Y-52369048D01*
X66035552Y-52369048D02*
X66083171Y-52273810D01*
X66654600Y-51416667D02*
X66702219Y-51511905D01*
X66702219Y-51511905D02*
X66702219Y-51702381D01*
X66702219Y-51702381D02*
X66654600Y-51797619D01*
X66654600Y-51797619D02*
X66559361Y-51845238D01*
X66559361Y-51845238D02*
X66178409Y-51845238D01*
X66178409Y-51845238D02*
X66083171Y-51797619D01*
X66083171Y-51797619D02*
X66035552Y-51702381D01*
X66035552Y-51702381D02*
X66035552Y-51511905D01*
X66035552Y-51511905D02*
X66083171Y-51416667D01*
X66083171Y-51416667D02*
X66178409Y-51369048D01*
X66178409Y-51369048D02*
X66273647Y-51369048D01*
X66273647Y-51369048D02*
X66368885Y-51845238D01*
X65654600Y-50226191D02*
X66940314Y-51083333D01*
X66702219Y-49892857D02*
X66035552Y-49892857D01*
X66130790Y-49892857D02*
X66083171Y-49845238D01*
X66083171Y-49845238D02*
X66035552Y-49750000D01*
X66035552Y-49750000D02*
X66035552Y-49607143D01*
X66035552Y-49607143D02*
X66083171Y-49511905D01*
X66083171Y-49511905D02*
X66178409Y-49464286D01*
X66178409Y-49464286D02*
X66702219Y-49464286D01*
X66178409Y-49464286D02*
X66083171Y-49416667D01*
X66083171Y-49416667D02*
X66035552Y-49321429D01*
X66035552Y-49321429D02*
X66035552Y-49178572D01*
X66035552Y-49178572D02*
X66083171Y-49083333D01*
X66083171Y-49083333D02*
X66178409Y-49035714D01*
X66178409Y-49035714D02*
X66702219Y-49035714D01*
X66654600Y-48178572D02*
X66702219Y-48273810D01*
X66702219Y-48273810D02*
X66702219Y-48464286D01*
X66702219Y-48464286D02*
X66654600Y-48559524D01*
X66654600Y-48559524D02*
X66559361Y-48607143D01*
X66559361Y-48607143D02*
X66178409Y-48607143D01*
X66178409Y-48607143D02*
X66083171Y-48559524D01*
X66083171Y-48559524D02*
X66035552Y-48464286D01*
X66035552Y-48464286D02*
X66035552Y-48273810D01*
X66035552Y-48273810D02*
X66083171Y-48178572D01*
X66083171Y-48178572D02*
X66178409Y-48130953D01*
X66178409Y-48130953D02*
X66273647Y-48130953D01*
X66273647Y-48130953D02*
X66368885Y-48607143D01*
X66035552Y-47273810D02*
X66845076Y-47273810D01*
X66845076Y-47273810D02*
X66940314Y-47321429D01*
X66940314Y-47321429D02*
X66987933Y-47369048D01*
X66987933Y-47369048D02*
X67035552Y-47464286D01*
X67035552Y-47464286D02*
X67035552Y-47607143D01*
X67035552Y-47607143D02*
X66987933Y-47702381D01*
X66654600Y-47273810D02*
X66702219Y-47369048D01*
X66702219Y-47369048D02*
X66702219Y-47559524D01*
X66702219Y-47559524D02*
X66654600Y-47654762D01*
X66654600Y-47654762D02*
X66606980Y-47702381D01*
X66606980Y-47702381D02*
X66511742Y-47750000D01*
X66511742Y-47750000D02*
X66226028Y-47750000D01*
X66226028Y-47750000D02*
X66130790Y-47702381D01*
X66130790Y-47702381D02*
X66083171Y-47654762D01*
X66083171Y-47654762D02*
X66035552Y-47559524D01*
X66035552Y-47559524D02*
X66035552Y-47369048D01*
X66035552Y-47369048D02*
X66083171Y-47273810D01*
X66702219Y-46369048D02*
X66178409Y-46369048D01*
X66178409Y-46369048D02*
X66083171Y-46416667D01*
X66083171Y-46416667D02*
X66035552Y-46511905D01*
X66035552Y-46511905D02*
X66035552Y-46702381D01*
X66035552Y-46702381D02*
X66083171Y-46797619D01*
X66654600Y-46369048D02*
X66702219Y-46464286D01*
X66702219Y-46464286D02*
X66702219Y-46702381D01*
X66702219Y-46702381D02*
X66654600Y-46797619D01*
X66654600Y-46797619D02*
X66559361Y-46845238D01*
X66559361Y-46845238D02*
X66464123Y-46845238D01*
X66464123Y-46845238D02*
X66368885Y-46797619D01*
X66368885Y-46797619D02*
X66321266Y-46702381D01*
X66321266Y-46702381D02*
X66321266Y-46464286D01*
X66321266Y-46464286D02*
X66273647Y-46369048D01*
X66654600Y-45464286D02*
X66702219Y-45559524D01*
X66702219Y-45559524D02*
X66702219Y-45750000D01*
X66702219Y-45750000D02*
X66654600Y-45845238D01*
X66654600Y-45845238D02*
X66606980Y-45892857D01*
X66606980Y-45892857D02*
X66511742Y-45940476D01*
X66511742Y-45940476D02*
X66226028Y-45940476D01*
X66226028Y-45940476D02*
X66130790Y-45892857D01*
X66130790Y-45892857D02*
X66083171Y-45845238D01*
X66083171Y-45845238D02*
X66035552Y-45750000D01*
X66035552Y-45750000D02*
X66035552Y-45559524D01*
X66035552Y-45559524D02*
X66083171Y-45464286D01*
X66702219Y-44607143D02*
X66178409Y-44607143D01*
X66178409Y-44607143D02*
X66083171Y-44654762D01*
X66083171Y-44654762D02*
X66035552Y-44750000D01*
X66035552Y-44750000D02*
X66035552Y-44940476D01*
X66035552Y-44940476D02*
X66083171Y-45035714D01*
X66654600Y-44607143D02*
X66702219Y-44702381D01*
X66702219Y-44702381D02*
X66702219Y-44940476D01*
X66702219Y-44940476D02*
X66654600Y-45035714D01*
X66654600Y-45035714D02*
X66559361Y-45083333D01*
X66559361Y-45083333D02*
X66464123Y-45083333D01*
X66464123Y-45083333D02*
X66368885Y-45035714D01*
X66368885Y-45035714D02*
X66321266Y-44940476D01*
X66321266Y-44940476D02*
X66321266Y-44702381D01*
X66321266Y-44702381D02*
X66273647Y-44607143D01*
X66702219Y-44130952D02*
X66035552Y-44130952D01*
X66226028Y-44130952D02*
X66130790Y-44083333D01*
X66130790Y-44083333D02*
X66083171Y-44035714D01*
X66083171Y-44035714D02*
X66035552Y-43940476D01*
X66035552Y-43940476D02*
X66035552Y-43845238D01*
X66702219Y-43083333D02*
X65702219Y-43083333D01*
X66654600Y-43083333D02*
X66702219Y-43178571D01*
X66702219Y-43178571D02*
X66702219Y-43369047D01*
X66702219Y-43369047D02*
X66654600Y-43464285D01*
X66654600Y-43464285D02*
X66606980Y-43511904D01*
X66606980Y-43511904D02*
X66511742Y-43559523D01*
X66511742Y-43559523D02*
X66226028Y-43559523D01*
X66226028Y-43559523D02*
X66130790Y-43511904D01*
X66130790Y-43511904D02*
X66083171Y-43464285D01*
X66083171Y-43464285D02*
X66035552Y-43369047D01*
X66035552Y-43369047D02*
X66035552Y-43178571D01*
X66035552Y-43178571D02*
X66083171Y-43083333D01*
X65702219Y-42130952D02*
X65702219Y-42607142D01*
X65702219Y-42607142D02*
X66178409Y-42654761D01*
X66178409Y-42654761D02*
X66130790Y-42607142D01*
X66130790Y-42607142D02*
X66083171Y-42511904D01*
X66083171Y-42511904D02*
X66083171Y-42273809D01*
X66083171Y-42273809D02*
X66130790Y-42178571D01*
X66130790Y-42178571D02*
X66178409Y-42130952D01*
X66178409Y-42130952D02*
X66273647Y-42083333D01*
X66273647Y-42083333D02*
X66511742Y-42083333D01*
X66511742Y-42083333D02*
X66606980Y-42130952D01*
X66606980Y-42130952D02*
X66654600Y-42178571D01*
X66654600Y-42178571D02*
X66702219Y-42273809D01*
X66702219Y-42273809D02*
X66702219Y-42511904D01*
X66702219Y-42511904D02*
X66654600Y-42607142D01*
X66654600Y-42607142D02*
X66606980Y-42654761D01*
X66797457Y-41892857D02*
X66797457Y-41130952D01*
X66654600Y-40464285D02*
X66702219Y-40559523D01*
X66702219Y-40559523D02*
X66702219Y-40749999D01*
X66702219Y-40749999D02*
X66654600Y-40845237D01*
X66654600Y-40845237D02*
X66606980Y-40892856D01*
X66606980Y-40892856D02*
X66511742Y-40940475D01*
X66511742Y-40940475D02*
X66226028Y-40940475D01*
X66226028Y-40940475D02*
X66130790Y-40892856D01*
X66130790Y-40892856D02*
X66083171Y-40845237D01*
X66083171Y-40845237D02*
X66035552Y-40749999D01*
X66035552Y-40749999D02*
X66035552Y-40559523D01*
X66035552Y-40559523D02*
X66083171Y-40464285D01*
X66702219Y-39607142D02*
X66178409Y-39607142D01*
X66178409Y-39607142D02*
X66083171Y-39654761D01*
X66083171Y-39654761D02*
X66035552Y-39749999D01*
X66035552Y-39749999D02*
X66035552Y-39940475D01*
X66035552Y-39940475D02*
X66083171Y-40035713D01*
X66654600Y-39607142D02*
X66702219Y-39702380D01*
X66702219Y-39702380D02*
X66702219Y-39940475D01*
X66702219Y-39940475D02*
X66654600Y-40035713D01*
X66654600Y-40035713D02*
X66559361Y-40083332D01*
X66559361Y-40083332D02*
X66464123Y-40083332D01*
X66464123Y-40083332D02*
X66368885Y-40035713D01*
X66368885Y-40035713D02*
X66321266Y-39940475D01*
X66321266Y-39940475D02*
X66321266Y-39702380D01*
X66321266Y-39702380D02*
X66273647Y-39607142D01*
X66702219Y-39130951D02*
X66035552Y-39130951D01*
X66226028Y-39130951D02*
X66130790Y-39083332D01*
X66130790Y-39083332D02*
X66083171Y-39035713D01*
X66083171Y-39035713D02*
X66035552Y-38940475D01*
X66035552Y-38940475D02*
X66035552Y-38845237D01*
X66702219Y-38511903D02*
X66035552Y-38511903D01*
X66226028Y-38511903D02*
X66130790Y-38464284D01*
X66130790Y-38464284D02*
X66083171Y-38416665D01*
X66083171Y-38416665D02*
X66035552Y-38321427D01*
X66035552Y-38321427D02*
X66035552Y-38226189D01*
X66702219Y-37892855D02*
X66035552Y-37892855D01*
X65702219Y-37892855D02*
X65749838Y-37940474D01*
X65749838Y-37940474D02*
X65797457Y-37892855D01*
X65797457Y-37892855D02*
X65749838Y-37845236D01*
X65749838Y-37845236D02*
X65702219Y-37892855D01*
X65702219Y-37892855D02*
X65797457Y-37892855D01*
X66654600Y-37035713D02*
X66702219Y-37130951D01*
X66702219Y-37130951D02*
X66702219Y-37321427D01*
X66702219Y-37321427D02*
X66654600Y-37416665D01*
X66654600Y-37416665D02*
X66559361Y-37464284D01*
X66559361Y-37464284D02*
X66178409Y-37464284D01*
X66178409Y-37464284D02*
X66083171Y-37416665D01*
X66083171Y-37416665D02*
X66035552Y-37321427D01*
X66035552Y-37321427D02*
X66035552Y-37130951D01*
X66035552Y-37130951D02*
X66083171Y-37035713D01*
X66083171Y-37035713D02*
X66178409Y-36988094D01*
X66178409Y-36988094D02*
X66273647Y-36988094D01*
X66273647Y-36988094D02*
X66368885Y-37464284D01*
X66702219Y-36559522D02*
X66035552Y-36559522D01*
X66226028Y-36559522D02*
X66130790Y-36511903D01*
X66130790Y-36511903D02*
X66083171Y-36464284D01*
X66083171Y-36464284D02*
X66035552Y-36369046D01*
X66035552Y-36369046D02*
X66035552Y-36273808D01*
D11*
X75312295Y-119037030D02*
X75312295Y-118541792D01*
X75312295Y-118541792D02*
X75617057Y-118808458D01*
X75617057Y-118808458D02*
X75617057Y-118694173D01*
X75617057Y-118694173D02*
X75655152Y-118617982D01*
X75655152Y-118617982D02*
X75693247Y-118579887D01*
X75693247Y-118579887D02*
X75769438Y-118541792D01*
X75769438Y-118541792D02*
X75959914Y-118541792D01*
X75959914Y-118541792D02*
X76036104Y-118579887D01*
X76036104Y-118579887D02*
X76074200Y-118617982D01*
X76074200Y-118617982D02*
X76112295Y-118694173D01*
X76112295Y-118694173D02*
X76112295Y-118922744D01*
X76112295Y-118922744D02*
X76074200Y-118998935D01*
X76074200Y-118998935D02*
X76036104Y-119037030D01*
X75312295Y-118313220D02*
X76112295Y-118046553D01*
X76112295Y-118046553D02*
X75312295Y-117779887D01*
X75312295Y-117589411D02*
X75312295Y-117094173D01*
X75312295Y-117094173D02*
X75617057Y-117360839D01*
X75617057Y-117360839D02*
X75617057Y-117246554D01*
X75617057Y-117246554D02*
X75655152Y-117170363D01*
X75655152Y-117170363D02*
X75693247Y-117132268D01*
X75693247Y-117132268D02*
X75769438Y-117094173D01*
X75769438Y-117094173D02*
X75959914Y-117094173D01*
X75959914Y-117094173D02*
X76036104Y-117132268D01*
X76036104Y-117132268D02*
X76074200Y-117170363D01*
X76074200Y-117170363D02*
X76112295Y-117246554D01*
X76112295Y-117246554D02*
X76112295Y-117475125D01*
X76112295Y-117475125D02*
X76074200Y-117551316D01*
X76074200Y-117551316D02*
X76036104Y-117589411D01*
X99074200Y-118998935D02*
X99112295Y-118884649D01*
X99112295Y-118884649D02*
X99112295Y-118694173D01*
X99112295Y-118694173D02*
X99074200Y-118617982D01*
X99074200Y-118617982D02*
X99036104Y-118579887D01*
X99036104Y-118579887D02*
X98959914Y-118541792D01*
X98959914Y-118541792D02*
X98883723Y-118541792D01*
X98883723Y-118541792D02*
X98807533Y-118579887D01*
X98807533Y-118579887D02*
X98769438Y-118617982D01*
X98769438Y-118617982D02*
X98731342Y-118694173D01*
X98731342Y-118694173D02*
X98693247Y-118846554D01*
X98693247Y-118846554D02*
X98655152Y-118922744D01*
X98655152Y-118922744D02*
X98617057Y-118960839D01*
X98617057Y-118960839D02*
X98540866Y-118998935D01*
X98540866Y-118998935D02*
X98464676Y-118998935D01*
X98464676Y-118998935D02*
X98388485Y-118960839D01*
X98388485Y-118960839D02*
X98350390Y-118922744D01*
X98350390Y-118922744D02*
X98312295Y-118846554D01*
X98312295Y-118846554D02*
X98312295Y-118656077D01*
X98312295Y-118656077D02*
X98350390Y-118541792D01*
X98312295Y-118275125D02*
X99112295Y-118084649D01*
X99112295Y-118084649D02*
X98540866Y-117932268D01*
X98540866Y-117932268D02*
X99112295Y-117779887D01*
X99112295Y-117779887D02*
X98312295Y-117589411D01*
X99112295Y-117284648D02*
X98312295Y-117284648D01*
X98312295Y-117284648D02*
X98312295Y-117094172D01*
X98312295Y-117094172D02*
X98350390Y-116979886D01*
X98350390Y-116979886D02*
X98426580Y-116903696D01*
X98426580Y-116903696D02*
X98502771Y-116865601D01*
X98502771Y-116865601D02*
X98655152Y-116827505D01*
X98655152Y-116827505D02*
X98769438Y-116827505D01*
X98769438Y-116827505D02*
X98921819Y-116865601D01*
X98921819Y-116865601D02*
X98998009Y-116903696D01*
X98998009Y-116903696D02*
X99074200Y-116979886D01*
X99074200Y-116979886D02*
X99112295Y-117094172D01*
X99112295Y-117094172D02*
X99112295Y-117284648D01*
X99112295Y-116484648D02*
X98312295Y-116484648D01*
X98312295Y-115951315D02*
X98312295Y-115798934D01*
X98312295Y-115798934D02*
X98350390Y-115722744D01*
X98350390Y-115722744D02*
X98426580Y-115646553D01*
X98426580Y-115646553D02*
X98578961Y-115608458D01*
X98578961Y-115608458D02*
X98845628Y-115608458D01*
X98845628Y-115608458D02*
X98998009Y-115646553D01*
X98998009Y-115646553D02*
X99074200Y-115722744D01*
X99074200Y-115722744D02*
X99112295Y-115798934D01*
X99112295Y-115798934D02*
X99112295Y-115951315D01*
X99112295Y-115951315D02*
X99074200Y-116027506D01*
X99074200Y-116027506D02*
X98998009Y-116103696D01*
X98998009Y-116103696D02*
X98845628Y-116141792D01*
X98845628Y-116141792D02*
X98578961Y-116141792D01*
X98578961Y-116141792D02*
X98426580Y-116103696D01*
X98426580Y-116103696D02*
X98350390Y-116027506D01*
X98350390Y-116027506D02*
X98312295Y-115951315D01*
X69312295Y-119075125D02*
X70112295Y-118808458D01*
X70112295Y-118808458D02*
X69312295Y-118541792D01*
X70112295Y-118275125D02*
X69312295Y-118275125D01*
X70112295Y-117894173D02*
X69312295Y-117894173D01*
X69312295Y-117894173D02*
X70112295Y-117437030D01*
X70112295Y-117437030D02*
X69312295Y-117437030D01*
X93074200Y-118998935D02*
X93112295Y-118884649D01*
X93112295Y-118884649D02*
X93112295Y-118694173D01*
X93112295Y-118694173D02*
X93074200Y-118617982D01*
X93074200Y-118617982D02*
X93036104Y-118579887D01*
X93036104Y-118579887D02*
X92959914Y-118541792D01*
X92959914Y-118541792D02*
X92883723Y-118541792D01*
X92883723Y-118541792D02*
X92807533Y-118579887D01*
X92807533Y-118579887D02*
X92769438Y-118617982D01*
X92769438Y-118617982D02*
X92731342Y-118694173D01*
X92731342Y-118694173D02*
X92693247Y-118846554D01*
X92693247Y-118846554D02*
X92655152Y-118922744D01*
X92655152Y-118922744D02*
X92617057Y-118960839D01*
X92617057Y-118960839D02*
X92540866Y-118998935D01*
X92540866Y-118998935D02*
X92464676Y-118998935D01*
X92464676Y-118998935D02*
X92388485Y-118960839D01*
X92388485Y-118960839D02*
X92350390Y-118922744D01*
X92350390Y-118922744D02*
X92312295Y-118846554D01*
X92312295Y-118846554D02*
X92312295Y-118656077D01*
X92312295Y-118656077D02*
X92350390Y-118541792D01*
X93112295Y-118198934D02*
X92312295Y-118198934D01*
X92312295Y-118198934D02*
X92312295Y-118008458D01*
X92312295Y-118008458D02*
X92350390Y-117894172D01*
X92350390Y-117894172D02*
X92426580Y-117817982D01*
X92426580Y-117817982D02*
X92502771Y-117779887D01*
X92502771Y-117779887D02*
X92655152Y-117741791D01*
X92655152Y-117741791D02*
X92769438Y-117741791D01*
X92769438Y-117741791D02*
X92921819Y-117779887D01*
X92921819Y-117779887D02*
X92998009Y-117817982D01*
X92998009Y-117817982D02*
X93074200Y-117894172D01*
X93074200Y-117894172D02*
X93112295Y-118008458D01*
X93112295Y-118008458D02*
X93112295Y-118198934D01*
X92883723Y-117437030D02*
X92883723Y-117056077D01*
X93112295Y-117513220D02*
X92312295Y-117246553D01*
X92312295Y-117246553D02*
X93112295Y-116979887D01*
X92274200Y-116141792D02*
X93302771Y-116827506D01*
X93112295Y-115875125D02*
X92312295Y-115875125D01*
X92312295Y-115875125D02*
X92883723Y-115608459D01*
X92883723Y-115608459D02*
X92312295Y-115341792D01*
X92312295Y-115341792D02*
X93112295Y-115341792D01*
X93112295Y-114960839D02*
X92312295Y-114960839D01*
X92312295Y-114960839D02*
X92312295Y-114770363D01*
X92312295Y-114770363D02*
X92350390Y-114656077D01*
X92350390Y-114656077D02*
X92426580Y-114579887D01*
X92426580Y-114579887D02*
X92502771Y-114541792D01*
X92502771Y-114541792D02*
X92655152Y-114503696D01*
X92655152Y-114503696D02*
X92769438Y-114503696D01*
X92769438Y-114503696D02*
X92921819Y-114541792D01*
X92921819Y-114541792D02*
X92998009Y-114579887D01*
X92998009Y-114579887D02*
X93074200Y-114656077D01*
X93074200Y-114656077D02*
X93112295Y-114770363D01*
X93112295Y-114770363D02*
X93112295Y-114960839D01*
X93112295Y-114160839D02*
X92312295Y-114160839D01*
X92312295Y-113627506D02*
X92312295Y-113475125D01*
X92312295Y-113475125D02*
X92350390Y-113398935D01*
X92350390Y-113398935D02*
X92426580Y-113322744D01*
X92426580Y-113322744D02*
X92578961Y-113284649D01*
X92578961Y-113284649D02*
X92845628Y-113284649D01*
X92845628Y-113284649D02*
X92998009Y-113322744D01*
X92998009Y-113322744D02*
X93074200Y-113398935D01*
X93074200Y-113398935D02*
X93112295Y-113475125D01*
X93112295Y-113475125D02*
X93112295Y-113627506D01*
X93112295Y-113627506D02*
X93074200Y-113703697D01*
X93074200Y-113703697D02*
X92998009Y-113779887D01*
X92998009Y-113779887D02*
X92845628Y-113817983D01*
X92845628Y-113817983D02*
X92578961Y-113817983D01*
X92578961Y-113817983D02*
X92426580Y-113779887D01*
X92426580Y-113779887D02*
X92350390Y-113703697D01*
X92350390Y-113703697D02*
X92312295Y-113627506D01*
X91074200Y-118998935D02*
X91112295Y-118884649D01*
X91112295Y-118884649D02*
X91112295Y-118694173D01*
X91112295Y-118694173D02*
X91074200Y-118617982D01*
X91074200Y-118617982D02*
X91036104Y-118579887D01*
X91036104Y-118579887D02*
X90959914Y-118541792D01*
X90959914Y-118541792D02*
X90883723Y-118541792D01*
X90883723Y-118541792D02*
X90807533Y-118579887D01*
X90807533Y-118579887D02*
X90769438Y-118617982D01*
X90769438Y-118617982D02*
X90731342Y-118694173D01*
X90731342Y-118694173D02*
X90693247Y-118846554D01*
X90693247Y-118846554D02*
X90655152Y-118922744D01*
X90655152Y-118922744D02*
X90617057Y-118960839D01*
X90617057Y-118960839D02*
X90540866Y-118998935D01*
X90540866Y-118998935D02*
X90464676Y-118998935D01*
X90464676Y-118998935D02*
X90388485Y-118960839D01*
X90388485Y-118960839D02*
X90350390Y-118922744D01*
X90350390Y-118922744D02*
X90312295Y-118846554D01*
X90312295Y-118846554D02*
X90312295Y-118656077D01*
X90312295Y-118656077D02*
X90350390Y-118541792D01*
X91036104Y-117741791D02*
X91074200Y-117779887D01*
X91074200Y-117779887D02*
X91112295Y-117894172D01*
X91112295Y-117894172D02*
X91112295Y-117970363D01*
X91112295Y-117970363D02*
X91074200Y-118084649D01*
X91074200Y-118084649D02*
X90998009Y-118160839D01*
X90998009Y-118160839D02*
X90921819Y-118198934D01*
X90921819Y-118198934D02*
X90769438Y-118237030D01*
X90769438Y-118237030D02*
X90655152Y-118237030D01*
X90655152Y-118237030D02*
X90502771Y-118198934D01*
X90502771Y-118198934D02*
X90426580Y-118160839D01*
X90426580Y-118160839D02*
X90350390Y-118084649D01*
X90350390Y-118084649D02*
X90312295Y-117970363D01*
X90312295Y-117970363D02*
X90312295Y-117894172D01*
X90312295Y-117894172D02*
X90350390Y-117779887D01*
X90350390Y-117779887D02*
X90388485Y-117741791D01*
X91112295Y-117017982D02*
X91112295Y-117398934D01*
X91112295Y-117398934D02*
X90312295Y-117398934D01*
X90274200Y-116179887D02*
X91302771Y-116865601D01*
X91112295Y-115913220D02*
X90312295Y-115913220D01*
X90312295Y-115913220D02*
X90883723Y-115646554D01*
X90883723Y-115646554D02*
X90312295Y-115379887D01*
X90312295Y-115379887D02*
X91112295Y-115379887D01*
X91112295Y-114998934D02*
X90312295Y-114998934D01*
X90312295Y-114998934D02*
X90312295Y-114808458D01*
X90312295Y-114808458D02*
X90350390Y-114694172D01*
X90350390Y-114694172D02*
X90426580Y-114617982D01*
X90426580Y-114617982D02*
X90502771Y-114579887D01*
X90502771Y-114579887D02*
X90655152Y-114541791D01*
X90655152Y-114541791D02*
X90769438Y-114541791D01*
X90769438Y-114541791D02*
X90921819Y-114579887D01*
X90921819Y-114579887D02*
X90998009Y-114617982D01*
X90998009Y-114617982D02*
X91074200Y-114694172D01*
X91074200Y-114694172D02*
X91112295Y-114808458D01*
X91112295Y-114808458D02*
X91112295Y-114998934D01*
X91036104Y-113741791D02*
X91074200Y-113779887D01*
X91074200Y-113779887D02*
X91112295Y-113894172D01*
X91112295Y-113894172D02*
X91112295Y-113970363D01*
X91112295Y-113970363D02*
X91074200Y-114084649D01*
X91074200Y-114084649D02*
X90998009Y-114160839D01*
X90998009Y-114160839D02*
X90921819Y-114198934D01*
X90921819Y-114198934D02*
X90769438Y-114237030D01*
X90769438Y-114237030D02*
X90655152Y-114237030D01*
X90655152Y-114237030D02*
X90502771Y-114198934D01*
X90502771Y-114198934D02*
X90426580Y-114160839D01*
X90426580Y-114160839D02*
X90350390Y-114084649D01*
X90350390Y-114084649D02*
X90312295Y-113970363D01*
X90312295Y-113970363D02*
X90312295Y-113894172D01*
X90312295Y-113894172D02*
X90350390Y-113779887D01*
X90350390Y-113779887D02*
X90388485Y-113741791D01*
X94350390Y-118541792D02*
X94312295Y-118617982D01*
X94312295Y-118617982D02*
X94312295Y-118732268D01*
X94312295Y-118732268D02*
X94350390Y-118846554D01*
X94350390Y-118846554D02*
X94426580Y-118922744D01*
X94426580Y-118922744D02*
X94502771Y-118960839D01*
X94502771Y-118960839D02*
X94655152Y-118998935D01*
X94655152Y-118998935D02*
X94769438Y-118998935D01*
X94769438Y-118998935D02*
X94921819Y-118960839D01*
X94921819Y-118960839D02*
X94998009Y-118922744D01*
X94998009Y-118922744D02*
X95074200Y-118846554D01*
X95074200Y-118846554D02*
X95112295Y-118732268D01*
X95112295Y-118732268D02*
X95112295Y-118656077D01*
X95112295Y-118656077D02*
X95074200Y-118541792D01*
X95074200Y-118541792D02*
X95036104Y-118503696D01*
X95036104Y-118503696D02*
X94769438Y-118503696D01*
X94769438Y-118503696D02*
X94769438Y-118656077D01*
X95112295Y-118160839D02*
X94312295Y-118160839D01*
X94312295Y-118160839D02*
X94312295Y-117856077D01*
X94312295Y-117856077D02*
X94350390Y-117779887D01*
X94350390Y-117779887D02*
X94388485Y-117741792D01*
X94388485Y-117741792D02*
X94464676Y-117703696D01*
X94464676Y-117703696D02*
X94578961Y-117703696D01*
X94578961Y-117703696D02*
X94655152Y-117741792D01*
X94655152Y-117741792D02*
X94693247Y-117779887D01*
X94693247Y-117779887D02*
X94731342Y-117856077D01*
X94731342Y-117856077D02*
X94731342Y-118160839D01*
X95112295Y-117360839D02*
X94312295Y-117360839D01*
X94312295Y-116827506D02*
X94312295Y-116675125D01*
X94312295Y-116675125D02*
X94350390Y-116598935D01*
X94350390Y-116598935D02*
X94426580Y-116522744D01*
X94426580Y-116522744D02*
X94578961Y-116484649D01*
X94578961Y-116484649D02*
X94845628Y-116484649D01*
X94845628Y-116484649D02*
X94998009Y-116522744D01*
X94998009Y-116522744D02*
X95074200Y-116598935D01*
X95074200Y-116598935D02*
X95112295Y-116675125D01*
X95112295Y-116675125D02*
X95112295Y-116827506D01*
X95112295Y-116827506D02*
X95074200Y-116903697D01*
X95074200Y-116903697D02*
X94998009Y-116979887D01*
X94998009Y-116979887D02*
X94845628Y-117017983D01*
X94845628Y-117017983D02*
X94578961Y-117017983D01*
X94578961Y-117017983D02*
X94426580Y-116979887D01*
X94426580Y-116979887D02*
X94350390Y-116903697D01*
X94350390Y-116903697D02*
X94312295Y-116827506D01*
X94312295Y-115989411D02*
X94312295Y-115913221D01*
X94312295Y-115913221D02*
X94350390Y-115837030D01*
X94350390Y-115837030D02*
X94388485Y-115798935D01*
X94388485Y-115798935D02*
X94464676Y-115760840D01*
X94464676Y-115760840D02*
X94617057Y-115722745D01*
X94617057Y-115722745D02*
X94807533Y-115722745D01*
X94807533Y-115722745D02*
X94959914Y-115760840D01*
X94959914Y-115760840D02*
X95036104Y-115798935D01*
X95036104Y-115798935D02*
X95074200Y-115837030D01*
X95074200Y-115837030D02*
X95112295Y-115913221D01*
X95112295Y-115913221D02*
X95112295Y-115989411D01*
X95112295Y-115989411D02*
X95074200Y-116065602D01*
X95074200Y-116065602D02*
X95036104Y-116103697D01*
X95036104Y-116103697D02*
X94959914Y-116141792D01*
X94959914Y-116141792D02*
X94807533Y-116179888D01*
X94807533Y-116179888D02*
X94617057Y-116179888D01*
X94617057Y-116179888D02*
X94464676Y-116141792D01*
X94464676Y-116141792D02*
X94388485Y-116103697D01*
X94388485Y-116103697D02*
X94350390Y-116065602D01*
X94350390Y-116065602D02*
X94312295Y-115989411D01*
X62990476Y-91162295D02*
X63447619Y-91162295D01*
X63219047Y-91962295D02*
X63219047Y-91162295D01*
X63714286Y-91962295D02*
X63714286Y-91162295D01*
X63714286Y-91162295D02*
X64019048Y-91162295D01*
X64019048Y-91162295D02*
X64095238Y-91200390D01*
X64095238Y-91200390D02*
X64133333Y-91238485D01*
X64133333Y-91238485D02*
X64171429Y-91314676D01*
X64171429Y-91314676D02*
X64171429Y-91428961D01*
X64171429Y-91428961D02*
X64133333Y-91505152D01*
X64133333Y-91505152D02*
X64095238Y-91543247D01*
X64095238Y-91543247D02*
X64019048Y-91581342D01*
X64019048Y-91581342D02*
X63714286Y-91581342D01*
X64552381Y-91962295D02*
X64704762Y-91962295D01*
X64704762Y-91962295D02*
X64780952Y-91924200D01*
X64780952Y-91924200D02*
X64819048Y-91886104D01*
X64819048Y-91886104D02*
X64895238Y-91771819D01*
X64895238Y-91771819D02*
X64933333Y-91619438D01*
X64933333Y-91619438D02*
X64933333Y-91314676D01*
X64933333Y-91314676D02*
X64895238Y-91238485D01*
X64895238Y-91238485D02*
X64857143Y-91200390D01*
X64857143Y-91200390D02*
X64780952Y-91162295D01*
X64780952Y-91162295D02*
X64628571Y-91162295D01*
X64628571Y-91162295D02*
X64552381Y-91200390D01*
X64552381Y-91200390D02*
X64514286Y-91238485D01*
X64514286Y-91238485D02*
X64476190Y-91314676D01*
X64476190Y-91314676D02*
X64476190Y-91505152D01*
X64476190Y-91505152D02*
X64514286Y-91581342D01*
X64514286Y-91581342D02*
X64552381Y-91619438D01*
X64552381Y-91619438D02*
X64628571Y-91657533D01*
X64628571Y-91657533D02*
X64780952Y-91657533D01*
X64780952Y-91657533D02*
X64857143Y-91619438D01*
X64857143Y-91619438D02*
X64895238Y-91581342D01*
X64895238Y-91581342D02*
X64933333Y-91505152D01*
X61028570Y-87543247D02*
X61295236Y-87543247D01*
X61409522Y-87962295D02*
X61028570Y-87962295D01*
X61028570Y-87962295D02*
X61028570Y-87162295D01*
X61028570Y-87162295D02*
X61409522Y-87162295D01*
X61676189Y-87162295D02*
X62209523Y-87962295D01*
X62209523Y-87162295D02*
X61676189Y-87962295D01*
X62399999Y-87162295D02*
X62857142Y-87162295D01*
X62628570Y-87962295D02*
X62628570Y-87162295D01*
X62933333Y-88038485D02*
X63542856Y-88038485D01*
X64190476Y-87962295D02*
X63923809Y-87581342D01*
X63733333Y-87962295D02*
X63733333Y-87162295D01*
X63733333Y-87162295D02*
X64038095Y-87162295D01*
X64038095Y-87162295D02*
X64114285Y-87200390D01*
X64114285Y-87200390D02*
X64152380Y-87238485D01*
X64152380Y-87238485D02*
X64190476Y-87314676D01*
X64190476Y-87314676D02*
X64190476Y-87428961D01*
X64190476Y-87428961D02*
X64152380Y-87505152D01*
X64152380Y-87505152D02*
X64114285Y-87543247D01*
X64114285Y-87543247D02*
X64038095Y-87581342D01*
X64038095Y-87581342D02*
X63733333Y-87581342D01*
X64533333Y-87543247D02*
X64799999Y-87543247D01*
X64914285Y-87962295D02*
X64533333Y-87962295D01*
X64533333Y-87962295D02*
X64533333Y-87162295D01*
X64533333Y-87162295D02*
X64914285Y-87162295D01*
X65219047Y-87924200D02*
X65333333Y-87962295D01*
X65333333Y-87962295D02*
X65523809Y-87962295D01*
X65523809Y-87962295D02*
X65600000Y-87924200D01*
X65600000Y-87924200D02*
X65638095Y-87886104D01*
X65638095Y-87886104D02*
X65676190Y-87809914D01*
X65676190Y-87809914D02*
X65676190Y-87733723D01*
X65676190Y-87733723D02*
X65638095Y-87657533D01*
X65638095Y-87657533D02*
X65600000Y-87619438D01*
X65600000Y-87619438D02*
X65523809Y-87581342D01*
X65523809Y-87581342D02*
X65371428Y-87543247D01*
X65371428Y-87543247D02*
X65295238Y-87505152D01*
X65295238Y-87505152D02*
X65257143Y-87467057D01*
X65257143Y-87467057D02*
X65219047Y-87390866D01*
X65219047Y-87390866D02*
X65219047Y-87314676D01*
X65219047Y-87314676D02*
X65257143Y-87238485D01*
X65257143Y-87238485D02*
X65295238Y-87200390D01*
X65295238Y-87200390D02*
X65371428Y-87162295D01*
X65371428Y-87162295D02*
X65561905Y-87162295D01*
X65561905Y-87162295D02*
X65676190Y-87200390D01*
X66019048Y-87543247D02*
X66285714Y-87543247D01*
X66400000Y-87962295D02*
X66019048Y-87962295D01*
X66019048Y-87962295D02*
X66019048Y-87162295D01*
X66019048Y-87162295D02*
X66400000Y-87162295D01*
X66628572Y-87162295D02*
X67085715Y-87162295D01*
X66857143Y-87962295D02*
X66857143Y-87162295D01*
X60918094Y-86940200D02*
X67081906Y-86940200D01*
X106890476Y-123062295D02*
X106890476Y-122262295D01*
X106890476Y-122643247D02*
X107347619Y-122643247D01*
X107347619Y-123062295D02*
X107347619Y-122262295D01*
X107652380Y-122262295D02*
X108147618Y-122262295D01*
X108147618Y-122262295D02*
X107880952Y-122567057D01*
X107880952Y-122567057D02*
X107995237Y-122567057D01*
X107995237Y-122567057D02*
X108071428Y-122605152D01*
X108071428Y-122605152D02*
X108109523Y-122643247D01*
X108109523Y-122643247D02*
X108147618Y-122719438D01*
X108147618Y-122719438D02*
X108147618Y-122909914D01*
X108147618Y-122909914D02*
X108109523Y-122986104D01*
X108109523Y-122986104D02*
X108071428Y-123024200D01*
X108071428Y-123024200D02*
X107995237Y-123062295D01*
X107995237Y-123062295D02*
X107766666Y-123062295D01*
X107766666Y-123062295D02*
X107690475Y-123024200D01*
X107690475Y-123024200D02*
X107652380Y-122986104D01*
X117116667Y-52536104D02*
X117078571Y-52574200D01*
X117078571Y-52574200D02*
X116964286Y-52612295D01*
X116964286Y-52612295D02*
X116888095Y-52612295D01*
X116888095Y-52612295D02*
X116773809Y-52574200D01*
X116773809Y-52574200D02*
X116697619Y-52498009D01*
X116697619Y-52498009D02*
X116659524Y-52421819D01*
X116659524Y-52421819D02*
X116621428Y-52269438D01*
X116621428Y-52269438D02*
X116621428Y-52155152D01*
X116621428Y-52155152D02*
X116659524Y-52002771D01*
X116659524Y-52002771D02*
X116697619Y-51926580D01*
X116697619Y-51926580D02*
X116773809Y-51850390D01*
X116773809Y-51850390D02*
X116888095Y-51812295D01*
X116888095Y-51812295D02*
X116964286Y-51812295D01*
X116964286Y-51812295D02*
X117078571Y-51850390D01*
X117078571Y-51850390D02*
X117116667Y-51888485D01*
X117840476Y-51812295D02*
X117459524Y-51812295D01*
X117459524Y-51812295D02*
X117421428Y-52193247D01*
X117421428Y-52193247D02*
X117459524Y-52155152D01*
X117459524Y-52155152D02*
X117535714Y-52117057D01*
X117535714Y-52117057D02*
X117726190Y-52117057D01*
X117726190Y-52117057D02*
X117802381Y-52155152D01*
X117802381Y-52155152D02*
X117840476Y-52193247D01*
X117840476Y-52193247D02*
X117878571Y-52269438D01*
X117878571Y-52269438D02*
X117878571Y-52459914D01*
X117878571Y-52459914D02*
X117840476Y-52536104D01*
X117840476Y-52536104D02*
X117802381Y-52574200D01*
X117802381Y-52574200D02*
X117726190Y-52612295D01*
X117726190Y-52612295D02*
X117535714Y-52612295D01*
X117535714Y-52612295D02*
X117459524Y-52574200D01*
X117459524Y-52574200D02*
X117421428Y-52536104D01*
X70666472Y-78542005D02*
X70666472Y-79256707D01*
X70666472Y-79256707D02*
X70618826Y-79399648D01*
X70618826Y-79399648D02*
X70523532Y-79494942D01*
X70523532Y-79494942D02*
X70380592Y-79542588D01*
X70380592Y-79542588D02*
X70285298Y-79542588D01*
X71667055Y-79542588D02*
X71095294Y-79542588D01*
X71381175Y-79542588D02*
X71381175Y-78542005D01*
X71381175Y-78542005D02*
X71285881Y-78684946D01*
X71285881Y-78684946D02*
X71190587Y-78780239D01*
X71190587Y-78780239D02*
X71095294Y-78827886D01*
X73228571Y-87249795D02*
X72771428Y-87249795D01*
X73000000Y-87249795D02*
X73000000Y-86449795D01*
X73000000Y-86449795D02*
X72923809Y-86564080D01*
X72923809Y-86564080D02*
X72847619Y-86640271D01*
X72847619Y-86640271D02*
X72771428Y-86678366D01*
D12*
X79542858Y-74501991D02*
X79485715Y-74559134D01*
X79485715Y-74559134D02*
X79314287Y-74616276D01*
X79314287Y-74616276D02*
X79200001Y-74616276D01*
X79200001Y-74616276D02*
X79028572Y-74559134D01*
X79028572Y-74559134D02*
X78914287Y-74444848D01*
X78914287Y-74444848D02*
X78857144Y-74330562D01*
X78857144Y-74330562D02*
X78800001Y-74101991D01*
X78800001Y-74101991D02*
X78800001Y-73930562D01*
X78800001Y-73930562D02*
X78857144Y-73701991D01*
X78857144Y-73701991D02*
X78914287Y-73587705D01*
X78914287Y-73587705D02*
X79028572Y-73473419D01*
X79028572Y-73473419D02*
X79200001Y-73416276D01*
X79200001Y-73416276D02*
X79314287Y-73416276D01*
X79314287Y-73416276D02*
X79485715Y-73473419D01*
X79485715Y-73473419D02*
X79542858Y-73530562D01*
X80228572Y-74616276D02*
X80114287Y-74559134D01*
X80114287Y-74559134D02*
X80057144Y-74501991D01*
X80057144Y-74501991D02*
X80000001Y-74387705D01*
X80000001Y-74387705D02*
X80000001Y-74044848D01*
X80000001Y-74044848D02*
X80057144Y-73930562D01*
X80057144Y-73930562D02*
X80114287Y-73873419D01*
X80114287Y-73873419D02*
X80228572Y-73816276D01*
X80228572Y-73816276D02*
X80400001Y-73816276D01*
X80400001Y-73816276D02*
X80514287Y-73873419D01*
X80514287Y-73873419D02*
X80571430Y-73930562D01*
X80571430Y-73930562D02*
X80628572Y-74044848D01*
X80628572Y-74044848D02*
X80628572Y-74387705D01*
X80628572Y-74387705D02*
X80571430Y-74501991D01*
X80571430Y-74501991D02*
X80514287Y-74559134D01*
X80514287Y-74559134D02*
X80400001Y-74616276D01*
X80400001Y-74616276D02*
X80228572Y-74616276D01*
X81142858Y-73816276D02*
X81142858Y-74616276D01*
X81142858Y-73930562D02*
X81200001Y-73873419D01*
X81200001Y-73873419D02*
X81314286Y-73816276D01*
X81314286Y-73816276D02*
X81485715Y-73816276D01*
X81485715Y-73816276D02*
X81600001Y-73873419D01*
X81600001Y-73873419D02*
X81657144Y-73987705D01*
X81657144Y-73987705D02*
X81657144Y-74616276D01*
X82228572Y-73816276D02*
X82228572Y-74616276D01*
X82228572Y-73930562D02*
X82285715Y-73873419D01*
X82285715Y-73873419D02*
X82400000Y-73816276D01*
X82400000Y-73816276D02*
X82571429Y-73816276D01*
X82571429Y-73816276D02*
X82685715Y-73873419D01*
X82685715Y-73873419D02*
X82742858Y-73987705D01*
X82742858Y-73987705D02*
X82742858Y-74616276D01*
X83771429Y-74559134D02*
X83657143Y-74616276D01*
X83657143Y-74616276D02*
X83428572Y-74616276D01*
X83428572Y-74616276D02*
X83314286Y-74559134D01*
X83314286Y-74559134D02*
X83257143Y-74444848D01*
X83257143Y-74444848D02*
X83257143Y-73987705D01*
X83257143Y-73987705D02*
X83314286Y-73873419D01*
X83314286Y-73873419D02*
X83428572Y-73816276D01*
X83428572Y-73816276D02*
X83657143Y-73816276D01*
X83657143Y-73816276D02*
X83771429Y-73873419D01*
X83771429Y-73873419D02*
X83828572Y-73987705D01*
X83828572Y-73987705D02*
X83828572Y-74101991D01*
X83828572Y-74101991D02*
X83257143Y-74216276D01*
X84857143Y-74559134D02*
X84742857Y-74616276D01*
X84742857Y-74616276D02*
X84514285Y-74616276D01*
X84514285Y-74616276D02*
X84400000Y-74559134D01*
X84400000Y-74559134D02*
X84342857Y-74501991D01*
X84342857Y-74501991D02*
X84285714Y-74387705D01*
X84285714Y-74387705D02*
X84285714Y-74044848D01*
X84285714Y-74044848D02*
X84342857Y-73930562D01*
X84342857Y-73930562D02*
X84400000Y-73873419D01*
X84400000Y-73873419D02*
X84514285Y-73816276D01*
X84514285Y-73816276D02*
X84742857Y-73816276D01*
X84742857Y-73816276D02*
X84857143Y-73873419D01*
X85199999Y-73816276D02*
X85657142Y-73816276D01*
X85371428Y-73416276D02*
X85371428Y-74444848D01*
X85371428Y-74444848D02*
X85428571Y-74559134D01*
X85428571Y-74559134D02*
X85542856Y-74616276D01*
X85542856Y-74616276D02*
X85657142Y-74616276D01*
X86228570Y-74616276D02*
X86114285Y-74559134D01*
X86114285Y-74559134D02*
X86057142Y-74501991D01*
X86057142Y-74501991D02*
X85999999Y-74387705D01*
X85999999Y-74387705D02*
X85999999Y-74044848D01*
X85999999Y-74044848D02*
X86057142Y-73930562D01*
X86057142Y-73930562D02*
X86114285Y-73873419D01*
X86114285Y-73873419D02*
X86228570Y-73816276D01*
X86228570Y-73816276D02*
X86399999Y-73816276D01*
X86399999Y-73816276D02*
X86514285Y-73873419D01*
X86514285Y-73873419D02*
X86571428Y-73930562D01*
X86571428Y-73930562D02*
X86628570Y-74044848D01*
X86628570Y-74044848D02*
X86628570Y-74387705D01*
X86628570Y-74387705D02*
X86571428Y-74501991D01*
X86571428Y-74501991D02*
X86514285Y-74559134D01*
X86514285Y-74559134D02*
X86399999Y-74616276D01*
X86399999Y-74616276D02*
X86228570Y-74616276D01*
X87142856Y-74616276D02*
X87142856Y-73816276D01*
X87142856Y-74044848D02*
X87199999Y-73930562D01*
X87199999Y-73930562D02*
X87257142Y-73873419D01*
X87257142Y-73873419D02*
X87371427Y-73816276D01*
X87371427Y-73816276D02*
X87485713Y-73816276D01*
X88628570Y-73816276D02*
X89085713Y-73816276D01*
X88799999Y-74616276D02*
X88799999Y-73587705D01*
X88799999Y-73587705D02*
X88857142Y-73473419D01*
X88857142Y-73473419D02*
X88971427Y-73416276D01*
X88971427Y-73416276D02*
X89085713Y-73416276D01*
X89657141Y-74616276D02*
X89542856Y-74559134D01*
X89542856Y-74559134D02*
X89485713Y-74501991D01*
X89485713Y-74501991D02*
X89428570Y-74387705D01*
X89428570Y-74387705D02*
X89428570Y-74044848D01*
X89428570Y-74044848D02*
X89485713Y-73930562D01*
X89485713Y-73930562D02*
X89542856Y-73873419D01*
X89542856Y-73873419D02*
X89657141Y-73816276D01*
X89657141Y-73816276D02*
X89828570Y-73816276D01*
X89828570Y-73816276D02*
X89942856Y-73873419D01*
X89942856Y-73873419D02*
X89999999Y-73930562D01*
X89999999Y-73930562D02*
X90057141Y-74044848D01*
X90057141Y-74044848D02*
X90057141Y-74387705D01*
X90057141Y-74387705D02*
X89999999Y-74501991D01*
X89999999Y-74501991D02*
X89942856Y-74559134D01*
X89942856Y-74559134D02*
X89828570Y-74616276D01*
X89828570Y-74616276D02*
X89657141Y-74616276D01*
X90571427Y-74616276D02*
X90571427Y-73816276D01*
X90571427Y-74044848D02*
X90628570Y-73930562D01*
X90628570Y-73930562D02*
X90685713Y-73873419D01*
X90685713Y-73873419D02*
X90799998Y-73816276D01*
X90799998Y-73816276D02*
X90914284Y-73816276D01*
X79714286Y-76548209D02*
X79714286Y-75348209D01*
X79714286Y-75348209D02*
X80114286Y-76205352D01*
X80114286Y-76205352D02*
X80514286Y-75348209D01*
X80514286Y-75348209D02*
X80514286Y-76548209D01*
X81542858Y-76491067D02*
X81428572Y-76548209D01*
X81428572Y-76548209D02*
X81200001Y-76548209D01*
X81200001Y-76548209D02*
X81085715Y-76491067D01*
X81085715Y-76491067D02*
X81028572Y-76376781D01*
X81028572Y-76376781D02*
X81028572Y-75919638D01*
X81028572Y-75919638D02*
X81085715Y-75805352D01*
X81085715Y-75805352D02*
X81200001Y-75748209D01*
X81200001Y-75748209D02*
X81428572Y-75748209D01*
X81428572Y-75748209D02*
X81542858Y-75805352D01*
X81542858Y-75805352D02*
X81600001Y-75919638D01*
X81600001Y-75919638D02*
X81600001Y-76033924D01*
X81600001Y-76033924D02*
X81028572Y-76148209D01*
X82628572Y-75748209D02*
X82628572Y-76719638D01*
X82628572Y-76719638D02*
X82571429Y-76833924D01*
X82571429Y-76833924D02*
X82514286Y-76891067D01*
X82514286Y-76891067D02*
X82400000Y-76948209D01*
X82400000Y-76948209D02*
X82228572Y-76948209D01*
X82228572Y-76948209D02*
X82114286Y-76891067D01*
X82628572Y-76491067D02*
X82514286Y-76548209D01*
X82514286Y-76548209D02*
X82285714Y-76548209D01*
X82285714Y-76548209D02*
X82171429Y-76491067D01*
X82171429Y-76491067D02*
X82114286Y-76433924D01*
X82114286Y-76433924D02*
X82057143Y-76319638D01*
X82057143Y-76319638D02*
X82057143Y-75976781D01*
X82057143Y-75976781D02*
X82114286Y-75862495D01*
X82114286Y-75862495D02*
X82171429Y-75805352D01*
X82171429Y-75805352D02*
X82285714Y-75748209D01*
X82285714Y-75748209D02*
X82514286Y-75748209D01*
X82514286Y-75748209D02*
X82628572Y-75805352D01*
X83714286Y-76548209D02*
X83714286Y-75919638D01*
X83714286Y-75919638D02*
X83657143Y-75805352D01*
X83657143Y-75805352D02*
X83542857Y-75748209D01*
X83542857Y-75748209D02*
X83314286Y-75748209D01*
X83314286Y-75748209D02*
X83200000Y-75805352D01*
X83714286Y-76491067D02*
X83600000Y-76548209D01*
X83600000Y-76548209D02*
X83314286Y-76548209D01*
X83314286Y-76548209D02*
X83200000Y-76491067D01*
X83200000Y-76491067D02*
X83142857Y-76376781D01*
X83142857Y-76376781D02*
X83142857Y-76262495D01*
X83142857Y-76262495D02*
X83200000Y-76148209D01*
X83200000Y-76148209D02*
X83314286Y-76091067D01*
X83314286Y-76091067D02*
X83600000Y-76091067D01*
X83600000Y-76091067D02*
X83714286Y-76033924D01*
X84971428Y-76433924D02*
X84914285Y-76491067D01*
X84914285Y-76491067D02*
X84742857Y-76548209D01*
X84742857Y-76548209D02*
X84628571Y-76548209D01*
X84628571Y-76548209D02*
X84457142Y-76491067D01*
X84457142Y-76491067D02*
X84342857Y-76376781D01*
X84342857Y-76376781D02*
X84285714Y-76262495D01*
X84285714Y-76262495D02*
X84228571Y-76033924D01*
X84228571Y-76033924D02*
X84228571Y-75862495D01*
X84228571Y-75862495D02*
X84285714Y-75633924D01*
X84285714Y-75633924D02*
X84342857Y-75519638D01*
X84342857Y-75519638D02*
X84457142Y-75405352D01*
X84457142Y-75405352D02*
X84628571Y-75348209D01*
X84628571Y-75348209D02*
X84742857Y-75348209D01*
X84742857Y-75348209D02*
X84914285Y-75405352D01*
X84914285Y-75405352D02*
X84971428Y-75462495D01*
X86000000Y-76548209D02*
X86000000Y-75919638D01*
X86000000Y-75919638D02*
X85942857Y-75805352D01*
X85942857Y-75805352D02*
X85828571Y-75748209D01*
X85828571Y-75748209D02*
X85600000Y-75748209D01*
X85600000Y-75748209D02*
X85485714Y-75805352D01*
X86000000Y-76491067D02*
X85885714Y-76548209D01*
X85885714Y-76548209D02*
X85600000Y-76548209D01*
X85600000Y-76548209D02*
X85485714Y-76491067D01*
X85485714Y-76491067D02*
X85428571Y-76376781D01*
X85428571Y-76376781D02*
X85428571Y-76262495D01*
X85428571Y-76262495D02*
X85485714Y-76148209D01*
X85485714Y-76148209D02*
X85600000Y-76091067D01*
X85600000Y-76091067D02*
X85885714Y-76091067D01*
X85885714Y-76091067D02*
X86000000Y-76033924D01*
X86571428Y-76548209D02*
X86571428Y-75748209D01*
X86571428Y-75976781D02*
X86628571Y-75862495D01*
X86628571Y-75862495D02*
X86685714Y-75805352D01*
X86685714Y-75805352D02*
X86799999Y-75748209D01*
X86799999Y-75748209D02*
X86914285Y-75748209D01*
X87828571Y-76548209D02*
X87828571Y-75348209D01*
X87828571Y-76491067D02*
X87714285Y-76548209D01*
X87714285Y-76548209D02*
X87485713Y-76548209D01*
X87485713Y-76548209D02*
X87371428Y-76491067D01*
X87371428Y-76491067D02*
X87314285Y-76433924D01*
X87314285Y-76433924D02*
X87257142Y-76319638D01*
X87257142Y-76319638D02*
X87257142Y-75976781D01*
X87257142Y-75976781D02*
X87314285Y-75862495D01*
X87314285Y-75862495D02*
X87371428Y-75805352D01*
X87371428Y-75805352D02*
X87485713Y-75748209D01*
X87485713Y-75748209D02*
X87714285Y-75748209D01*
X87714285Y-75748209D02*
X87828571Y-75805352D01*
X89885713Y-75348209D02*
X89314285Y-75348209D01*
X89314285Y-75348209D02*
X89257142Y-75919638D01*
X89257142Y-75919638D02*
X89314285Y-75862495D01*
X89314285Y-75862495D02*
X89428571Y-75805352D01*
X89428571Y-75805352D02*
X89714285Y-75805352D01*
X89714285Y-75805352D02*
X89828571Y-75862495D01*
X89828571Y-75862495D02*
X89885713Y-75919638D01*
X89885713Y-75919638D02*
X89942856Y-76033924D01*
X89942856Y-76033924D02*
X89942856Y-76319638D01*
X89942856Y-76319638D02*
X89885713Y-76433924D01*
X89885713Y-76433924D02*
X89828571Y-76491067D01*
X89828571Y-76491067D02*
X89714285Y-76548209D01*
X89714285Y-76548209D02*
X89428571Y-76548209D01*
X89428571Y-76548209D02*
X89314285Y-76491067D01*
X89314285Y-76491067D02*
X89257142Y-76433924D01*
D11*
X71971428Y-80725985D02*
X72009524Y-80687890D01*
X72009524Y-80687890D02*
X72085714Y-80649795D01*
X72085714Y-80649795D02*
X72276190Y-80649795D01*
X72276190Y-80649795D02*
X72352381Y-80687890D01*
X72352381Y-80687890D02*
X72390476Y-80725985D01*
X72390476Y-80725985D02*
X72428571Y-80802176D01*
X72428571Y-80802176D02*
X72428571Y-80878366D01*
X72428571Y-80878366D02*
X72390476Y-80992652D01*
X72390476Y-80992652D02*
X71933333Y-81449795D01*
X71933333Y-81449795D02*
X72428571Y-81449795D01*
D12*
X76728571Y-78073052D02*
X76919047Y-78739719D01*
X76919047Y-78739719D02*
X77109523Y-78263528D01*
X77109523Y-78263528D02*
X77299999Y-78739719D01*
X77299999Y-78739719D02*
X77490475Y-78073052D01*
X77871428Y-78739719D02*
X77871428Y-78073052D01*
X77871428Y-77739719D02*
X77823809Y-77787338D01*
X77823809Y-77787338D02*
X77871428Y-77834957D01*
X77871428Y-77834957D02*
X77919047Y-77787338D01*
X77919047Y-77787338D02*
X77871428Y-77739719D01*
X77871428Y-77739719D02*
X77871428Y-77834957D01*
X78252380Y-78073052D02*
X78776189Y-78073052D01*
X78776189Y-78073052D02*
X78252380Y-78739719D01*
X78252380Y-78739719D02*
X78776189Y-78739719D01*
X79538094Y-78692100D02*
X79442856Y-78739719D01*
X79442856Y-78739719D02*
X79252380Y-78739719D01*
X79252380Y-78739719D02*
X79157142Y-78692100D01*
X79157142Y-78692100D02*
X79109523Y-78596861D01*
X79109523Y-78596861D02*
X79109523Y-78215909D01*
X79109523Y-78215909D02*
X79157142Y-78120671D01*
X79157142Y-78120671D02*
X79252380Y-78073052D01*
X79252380Y-78073052D02*
X79442856Y-78073052D01*
X79442856Y-78073052D02*
X79538094Y-78120671D01*
X79538094Y-78120671D02*
X79585713Y-78215909D01*
X79585713Y-78215909D02*
X79585713Y-78311147D01*
X79585713Y-78311147D02*
X79109523Y-78406385D01*
X80442856Y-78073052D02*
X80442856Y-78739719D01*
X80014285Y-78073052D02*
X80014285Y-78596861D01*
X80014285Y-78596861D02*
X80061904Y-78692100D01*
X80061904Y-78692100D02*
X80157142Y-78739719D01*
X80157142Y-78739719D02*
X80299999Y-78739719D01*
X80299999Y-78739719D02*
X80395237Y-78692100D01*
X80395237Y-78692100D02*
X80442856Y-78644480D01*
X80871428Y-78692100D02*
X80966666Y-78739719D01*
X80966666Y-78739719D02*
X81157142Y-78739719D01*
X81157142Y-78739719D02*
X81252380Y-78692100D01*
X81252380Y-78692100D02*
X81299999Y-78596861D01*
X81299999Y-78596861D02*
X81299999Y-78549242D01*
X81299999Y-78549242D02*
X81252380Y-78454004D01*
X81252380Y-78454004D02*
X81157142Y-78406385D01*
X81157142Y-78406385D02*
X81014285Y-78406385D01*
X81014285Y-78406385D02*
X80919047Y-78358766D01*
X80919047Y-78358766D02*
X80871428Y-78263528D01*
X80871428Y-78263528D02*
X80871428Y-78215909D01*
X80871428Y-78215909D02*
X80919047Y-78120671D01*
X80919047Y-78120671D02*
X81014285Y-78073052D01*
X81014285Y-78073052D02*
X81157142Y-78073052D01*
X81157142Y-78073052D02*
X81252380Y-78120671D01*
X81728571Y-78644480D02*
X81776190Y-78692100D01*
X81776190Y-78692100D02*
X81728571Y-78739719D01*
X81728571Y-78739719D02*
X81680952Y-78692100D01*
X81680952Y-78692100D02*
X81728571Y-78644480D01*
X81728571Y-78644480D02*
X81728571Y-78739719D01*
X82633332Y-78739719D02*
X82633332Y-77739719D01*
X82633332Y-78692100D02*
X82538094Y-78739719D01*
X82538094Y-78739719D02*
X82347618Y-78739719D01*
X82347618Y-78739719D02*
X82252380Y-78692100D01*
X82252380Y-78692100D02*
X82204761Y-78644480D01*
X82204761Y-78644480D02*
X82157142Y-78549242D01*
X82157142Y-78549242D02*
X82157142Y-78263528D01*
X82157142Y-78263528D02*
X82204761Y-78168290D01*
X82204761Y-78168290D02*
X82252380Y-78120671D01*
X82252380Y-78120671D02*
X82347618Y-78073052D01*
X82347618Y-78073052D02*
X82538094Y-78073052D01*
X82538094Y-78073052D02*
X82633332Y-78120671D01*
X83490475Y-78692100D02*
X83395237Y-78739719D01*
X83395237Y-78739719D02*
X83204761Y-78739719D01*
X83204761Y-78739719D02*
X83109523Y-78692100D01*
X83109523Y-78692100D02*
X83061904Y-78596861D01*
X83061904Y-78596861D02*
X83061904Y-78215909D01*
X83061904Y-78215909D02*
X83109523Y-78120671D01*
X83109523Y-78120671D02*
X83204761Y-78073052D01*
X83204761Y-78073052D02*
X83395237Y-78073052D01*
X83395237Y-78073052D02*
X83490475Y-78120671D01*
X83490475Y-78120671D02*
X83538094Y-78215909D01*
X83538094Y-78215909D02*
X83538094Y-78311147D01*
X83538094Y-78311147D02*
X83061904Y-78406385D01*
X84680951Y-77692100D02*
X83823809Y-78977814D01*
X85014285Y-78739719D02*
X85014285Y-78073052D01*
X85014285Y-78168290D02*
X85061904Y-78120671D01*
X85061904Y-78120671D02*
X85157142Y-78073052D01*
X85157142Y-78073052D02*
X85299999Y-78073052D01*
X85299999Y-78073052D02*
X85395237Y-78120671D01*
X85395237Y-78120671D02*
X85442856Y-78215909D01*
X85442856Y-78215909D02*
X85442856Y-78739719D01*
X85442856Y-78215909D02*
X85490475Y-78120671D01*
X85490475Y-78120671D02*
X85585713Y-78073052D01*
X85585713Y-78073052D02*
X85728570Y-78073052D01*
X85728570Y-78073052D02*
X85823809Y-78120671D01*
X85823809Y-78120671D02*
X85871428Y-78215909D01*
X85871428Y-78215909D02*
X85871428Y-78739719D01*
X86728570Y-78692100D02*
X86633332Y-78739719D01*
X86633332Y-78739719D02*
X86442856Y-78739719D01*
X86442856Y-78739719D02*
X86347618Y-78692100D01*
X86347618Y-78692100D02*
X86299999Y-78596861D01*
X86299999Y-78596861D02*
X86299999Y-78215909D01*
X86299999Y-78215909D02*
X86347618Y-78120671D01*
X86347618Y-78120671D02*
X86442856Y-78073052D01*
X86442856Y-78073052D02*
X86633332Y-78073052D01*
X86633332Y-78073052D02*
X86728570Y-78120671D01*
X86728570Y-78120671D02*
X86776189Y-78215909D01*
X86776189Y-78215909D02*
X86776189Y-78311147D01*
X86776189Y-78311147D02*
X86299999Y-78406385D01*
X87633332Y-78073052D02*
X87633332Y-78882576D01*
X87633332Y-78882576D02*
X87585713Y-78977814D01*
X87585713Y-78977814D02*
X87538094Y-79025433D01*
X87538094Y-79025433D02*
X87442856Y-79073052D01*
X87442856Y-79073052D02*
X87299999Y-79073052D01*
X87299999Y-79073052D02*
X87204761Y-79025433D01*
X87633332Y-78692100D02*
X87538094Y-78739719D01*
X87538094Y-78739719D02*
X87347618Y-78739719D01*
X87347618Y-78739719D02*
X87252380Y-78692100D01*
X87252380Y-78692100D02*
X87204761Y-78644480D01*
X87204761Y-78644480D02*
X87157142Y-78549242D01*
X87157142Y-78549242D02*
X87157142Y-78263528D01*
X87157142Y-78263528D02*
X87204761Y-78168290D01*
X87204761Y-78168290D02*
X87252380Y-78120671D01*
X87252380Y-78120671D02*
X87347618Y-78073052D01*
X87347618Y-78073052D02*
X87538094Y-78073052D01*
X87538094Y-78073052D02*
X87633332Y-78120671D01*
X88538094Y-78739719D02*
X88538094Y-78215909D01*
X88538094Y-78215909D02*
X88490475Y-78120671D01*
X88490475Y-78120671D02*
X88395237Y-78073052D01*
X88395237Y-78073052D02*
X88204761Y-78073052D01*
X88204761Y-78073052D02*
X88109523Y-78120671D01*
X88538094Y-78692100D02*
X88442856Y-78739719D01*
X88442856Y-78739719D02*
X88204761Y-78739719D01*
X88204761Y-78739719D02*
X88109523Y-78692100D01*
X88109523Y-78692100D02*
X88061904Y-78596861D01*
X88061904Y-78596861D02*
X88061904Y-78501623D01*
X88061904Y-78501623D02*
X88109523Y-78406385D01*
X88109523Y-78406385D02*
X88204761Y-78358766D01*
X88204761Y-78358766D02*
X88442856Y-78358766D01*
X88442856Y-78358766D02*
X88538094Y-78311147D01*
X89442856Y-78692100D02*
X89347618Y-78739719D01*
X89347618Y-78739719D02*
X89157142Y-78739719D01*
X89157142Y-78739719D02*
X89061904Y-78692100D01*
X89061904Y-78692100D02*
X89014285Y-78644480D01*
X89014285Y-78644480D02*
X88966666Y-78549242D01*
X88966666Y-78549242D02*
X88966666Y-78263528D01*
X88966666Y-78263528D02*
X89014285Y-78168290D01*
X89014285Y-78168290D02*
X89061904Y-78120671D01*
X89061904Y-78120671D02*
X89157142Y-78073052D01*
X89157142Y-78073052D02*
X89347618Y-78073052D01*
X89347618Y-78073052D02*
X89442856Y-78120671D01*
X90299999Y-78739719D02*
X90299999Y-78215909D01*
X90299999Y-78215909D02*
X90252380Y-78120671D01*
X90252380Y-78120671D02*
X90157142Y-78073052D01*
X90157142Y-78073052D02*
X89966666Y-78073052D01*
X89966666Y-78073052D02*
X89871428Y-78120671D01*
X90299999Y-78692100D02*
X90204761Y-78739719D01*
X90204761Y-78739719D02*
X89966666Y-78739719D01*
X89966666Y-78739719D02*
X89871428Y-78692100D01*
X89871428Y-78692100D02*
X89823809Y-78596861D01*
X89823809Y-78596861D02*
X89823809Y-78501623D01*
X89823809Y-78501623D02*
X89871428Y-78406385D01*
X89871428Y-78406385D02*
X89966666Y-78358766D01*
X89966666Y-78358766D02*
X90204761Y-78358766D01*
X90204761Y-78358766D02*
X90299999Y-78311147D01*
X90776190Y-78739719D02*
X90776190Y-78073052D01*
X90776190Y-78263528D02*
X90823809Y-78168290D01*
X90823809Y-78168290D02*
X90871428Y-78120671D01*
X90871428Y-78120671D02*
X90966666Y-78073052D01*
X90966666Y-78073052D02*
X91061904Y-78073052D01*
X91823809Y-78739719D02*
X91823809Y-77739719D01*
X91823809Y-78692100D02*
X91728571Y-78739719D01*
X91728571Y-78739719D02*
X91538095Y-78739719D01*
X91538095Y-78739719D02*
X91442857Y-78692100D01*
X91442857Y-78692100D02*
X91395238Y-78644480D01*
X91395238Y-78644480D02*
X91347619Y-78549242D01*
X91347619Y-78549242D02*
X91347619Y-78263528D01*
X91347619Y-78263528D02*
X91395238Y-78168290D01*
X91395238Y-78168290D02*
X91442857Y-78120671D01*
X91442857Y-78120671D02*
X91538095Y-78073052D01*
X91538095Y-78073052D02*
X91728571Y-78073052D01*
X91728571Y-78073052D02*
X91823809Y-78120671D01*
X92776190Y-77739719D02*
X92300000Y-77739719D01*
X92300000Y-77739719D02*
X92252381Y-78215909D01*
X92252381Y-78215909D02*
X92300000Y-78168290D01*
X92300000Y-78168290D02*
X92395238Y-78120671D01*
X92395238Y-78120671D02*
X92633333Y-78120671D01*
X92633333Y-78120671D02*
X92728571Y-78168290D01*
X92728571Y-78168290D02*
X92776190Y-78215909D01*
X92776190Y-78215909D02*
X92823809Y-78311147D01*
X92823809Y-78311147D02*
X92823809Y-78549242D01*
X92823809Y-78549242D02*
X92776190Y-78644480D01*
X92776190Y-78644480D02*
X92728571Y-78692100D01*
X92728571Y-78692100D02*
X92633333Y-78739719D01*
X92633333Y-78739719D02*
X92395238Y-78739719D01*
X92395238Y-78739719D02*
X92300000Y-78692100D01*
X92300000Y-78692100D02*
X92252381Y-78644480D01*
D11*
X110116667Y-71112295D02*
X109850000Y-70731342D01*
X109659524Y-71112295D02*
X109659524Y-70312295D01*
X109659524Y-70312295D02*
X109964286Y-70312295D01*
X109964286Y-70312295D02*
X110040476Y-70350390D01*
X110040476Y-70350390D02*
X110078571Y-70388485D01*
X110078571Y-70388485D02*
X110116667Y-70464676D01*
X110116667Y-70464676D02*
X110116667Y-70578961D01*
X110116667Y-70578961D02*
X110078571Y-70655152D01*
X110078571Y-70655152D02*
X110040476Y-70693247D01*
X110040476Y-70693247D02*
X109964286Y-70731342D01*
X109964286Y-70731342D02*
X109659524Y-70731342D01*
X110383333Y-70312295D02*
X110878571Y-70312295D01*
X110878571Y-70312295D02*
X110611905Y-70617057D01*
X110611905Y-70617057D02*
X110726190Y-70617057D01*
X110726190Y-70617057D02*
X110802381Y-70655152D01*
X110802381Y-70655152D02*
X110840476Y-70693247D01*
X110840476Y-70693247D02*
X110878571Y-70769438D01*
X110878571Y-70769438D02*
X110878571Y-70959914D01*
X110878571Y-70959914D02*
X110840476Y-71036104D01*
X110840476Y-71036104D02*
X110802381Y-71074200D01*
X110802381Y-71074200D02*
X110726190Y-71112295D01*
X110726190Y-71112295D02*
X110497619Y-71112295D01*
X110497619Y-71112295D02*
X110421428Y-71074200D01*
X110421428Y-71074200D02*
X110383333Y-71036104D01*
X110832295Y-76766666D02*
X111403723Y-76766666D01*
X111403723Y-76766666D02*
X111518009Y-76804761D01*
X111518009Y-76804761D02*
X111594200Y-76880952D01*
X111594200Y-76880952D02*
X111632295Y-76995237D01*
X111632295Y-76995237D02*
X111632295Y-77071428D01*
X110832295Y-76004761D02*
X110832295Y-76385713D01*
X110832295Y-76385713D02*
X111213247Y-76423809D01*
X111213247Y-76423809D02*
X111175152Y-76385713D01*
X111175152Y-76385713D02*
X111137057Y-76309523D01*
X111137057Y-76309523D02*
X111137057Y-76119047D01*
X111137057Y-76119047D02*
X111175152Y-76042856D01*
X111175152Y-76042856D02*
X111213247Y-76004761D01*
X111213247Y-76004761D02*
X111289438Y-75966666D01*
X111289438Y-75966666D02*
X111479914Y-75966666D01*
X111479914Y-75966666D02*
X111556104Y-76004761D01*
X111556104Y-76004761D02*
X111594200Y-76042856D01*
X111594200Y-76042856D02*
X111632295Y-76119047D01*
X111632295Y-76119047D02*
X111632295Y-76309523D01*
X111632295Y-76309523D02*
X111594200Y-76385713D01*
X111594200Y-76385713D02*
X111556104Y-76423809D01*
X74143247Y-91066666D02*
X74143247Y-91333332D01*
X74562295Y-91333332D02*
X73762295Y-91333332D01*
X73762295Y-91333332D02*
X73762295Y-90952380D01*
X74562295Y-90228571D02*
X74562295Y-90685714D01*
X74562295Y-90457142D02*
X73762295Y-90457142D01*
X73762295Y-90457142D02*
X73876580Y-90533333D01*
X73876580Y-90533333D02*
X73952771Y-90609523D01*
X73952771Y-90609523D02*
X73990866Y-90685714D01*
X110116667Y-52612295D02*
X109850000Y-52231342D01*
X109659524Y-52612295D02*
X109659524Y-51812295D01*
X109659524Y-51812295D02*
X109964286Y-51812295D01*
X109964286Y-51812295D02*
X110040476Y-51850390D01*
X110040476Y-51850390D02*
X110078571Y-51888485D01*
X110078571Y-51888485D02*
X110116667Y-51964676D01*
X110116667Y-51964676D02*
X110116667Y-52078961D01*
X110116667Y-52078961D02*
X110078571Y-52155152D01*
X110078571Y-52155152D02*
X110040476Y-52193247D01*
X110040476Y-52193247D02*
X109964286Y-52231342D01*
X109964286Y-52231342D02*
X109659524Y-52231342D01*
X110840476Y-51812295D02*
X110459524Y-51812295D01*
X110459524Y-51812295D02*
X110421428Y-52193247D01*
X110421428Y-52193247D02*
X110459524Y-52155152D01*
X110459524Y-52155152D02*
X110535714Y-52117057D01*
X110535714Y-52117057D02*
X110726190Y-52117057D01*
X110726190Y-52117057D02*
X110802381Y-52155152D01*
X110802381Y-52155152D02*
X110840476Y-52193247D01*
X110840476Y-52193247D02*
X110878571Y-52269438D01*
X110878571Y-52269438D02*
X110878571Y-52459914D01*
X110878571Y-52459914D02*
X110840476Y-52536104D01*
X110840476Y-52536104D02*
X110802381Y-52574200D01*
X110802381Y-52574200D02*
X110726190Y-52612295D01*
X110726190Y-52612295D02*
X110535714Y-52612295D01*
X110535714Y-52612295D02*
X110459524Y-52574200D01*
X110459524Y-52574200D02*
X110421428Y-52536104D01*
X87890476Y-106562295D02*
X88347619Y-106562295D01*
X88119047Y-107362295D02*
X88119047Y-106562295D01*
X88614286Y-107362295D02*
X88614286Y-106562295D01*
X88614286Y-106562295D02*
X88919048Y-106562295D01*
X88919048Y-106562295D02*
X88995238Y-106600390D01*
X88995238Y-106600390D02*
X89033333Y-106638485D01*
X89033333Y-106638485D02*
X89071429Y-106714676D01*
X89071429Y-106714676D02*
X89071429Y-106828961D01*
X89071429Y-106828961D02*
X89033333Y-106905152D01*
X89033333Y-106905152D02*
X88995238Y-106943247D01*
X88995238Y-106943247D02*
X88919048Y-106981342D01*
X88919048Y-106981342D02*
X88614286Y-106981342D01*
X89795238Y-106562295D02*
X89414286Y-106562295D01*
X89414286Y-106562295D02*
X89376190Y-106943247D01*
X89376190Y-106943247D02*
X89414286Y-106905152D01*
X89414286Y-106905152D02*
X89490476Y-106867057D01*
X89490476Y-106867057D02*
X89680952Y-106867057D01*
X89680952Y-106867057D02*
X89757143Y-106905152D01*
X89757143Y-106905152D02*
X89795238Y-106943247D01*
X89795238Y-106943247D02*
X89833333Y-107019438D01*
X89833333Y-107019438D02*
X89833333Y-107209914D01*
X89833333Y-107209914D02*
X89795238Y-107286104D01*
X89795238Y-107286104D02*
X89757143Y-107324200D01*
X89757143Y-107324200D02*
X89680952Y-107362295D01*
X89680952Y-107362295D02*
X89490476Y-107362295D01*
X89490476Y-107362295D02*
X89414286Y-107324200D01*
X89414286Y-107324200D02*
X89376190Y-107286104D01*
X88290476Y-102600390D02*
X88214286Y-102562295D01*
X88214286Y-102562295D02*
X88100000Y-102562295D01*
X88100000Y-102562295D02*
X87985714Y-102600390D01*
X87985714Y-102600390D02*
X87909524Y-102676580D01*
X87909524Y-102676580D02*
X87871429Y-102752771D01*
X87871429Y-102752771D02*
X87833333Y-102905152D01*
X87833333Y-102905152D02*
X87833333Y-103019438D01*
X87833333Y-103019438D02*
X87871429Y-103171819D01*
X87871429Y-103171819D02*
X87909524Y-103248009D01*
X87909524Y-103248009D02*
X87985714Y-103324200D01*
X87985714Y-103324200D02*
X88100000Y-103362295D01*
X88100000Y-103362295D02*
X88176191Y-103362295D01*
X88176191Y-103362295D02*
X88290476Y-103324200D01*
X88290476Y-103324200D02*
X88328572Y-103286104D01*
X88328572Y-103286104D02*
X88328572Y-103019438D01*
X88328572Y-103019438D02*
X88176191Y-103019438D01*
X88671429Y-103362295D02*
X88671429Y-102562295D01*
X88671429Y-102562295D02*
X89128572Y-103362295D01*
X89128572Y-103362295D02*
X89128572Y-102562295D01*
X89509524Y-103362295D02*
X89509524Y-102562295D01*
X89509524Y-102562295D02*
X89700000Y-102562295D01*
X89700000Y-102562295D02*
X89814286Y-102600390D01*
X89814286Y-102600390D02*
X89890476Y-102676580D01*
X89890476Y-102676580D02*
X89928571Y-102752771D01*
X89928571Y-102752771D02*
X89966667Y-102905152D01*
X89966667Y-102905152D02*
X89966667Y-103019438D01*
X89966667Y-103019438D02*
X89928571Y-103171819D01*
X89928571Y-103171819D02*
X89890476Y-103248009D01*
X89890476Y-103248009D02*
X89814286Y-103324200D01*
X89814286Y-103324200D02*
X89700000Y-103362295D01*
X89700000Y-103362295D02*
X89509524Y-103362295D01*
X68690476Y-94662295D02*
X69147619Y-94662295D01*
X68919047Y-95462295D02*
X68919047Y-94662295D01*
X69414286Y-95462295D02*
X69414286Y-94662295D01*
X69414286Y-94662295D02*
X69719048Y-94662295D01*
X69719048Y-94662295D02*
X69795238Y-94700390D01*
X69795238Y-94700390D02*
X69833333Y-94738485D01*
X69833333Y-94738485D02*
X69871429Y-94814676D01*
X69871429Y-94814676D02*
X69871429Y-94928961D01*
X69871429Y-94928961D02*
X69833333Y-95005152D01*
X69833333Y-95005152D02*
X69795238Y-95043247D01*
X69795238Y-95043247D02*
X69719048Y-95081342D01*
X69719048Y-95081342D02*
X69414286Y-95081342D01*
X70176190Y-94738485D02*
X70214286Y-94700390D01*
X70214286Y-94700390D02*
X70290476Y-94662295D01*
X70290476Y-94662295D02*
X70480952Y-94662295D01*
X70480952Y-94662295D02*
X70557143Y-94700390D01*
X70557143Y-94700390D02*
X70595238Y-94738485D01*
X70595238Y-94738485D02*
X70633333Y-94814676D01*
X70633333Y-94814676D02*
X70633333Y-94890866D01*
X70633333Y-94890866D02*
X70595238Y-95005152D01*
X70595238Y-95005152D02*
X70138095Y-95462295D01*
X70138095Y-95462295D02*
X70633333Y-95462295D01*
X68633333Y-90662295D02*
X68900000Y-91462295D01*
X68900000Y-91462295D02*
X69166666Y-90662295D01*
X69890476Y-91386104D02*
X69852380Y-91424200D01*
X69852380Y-91424200D02*
X69738095Y-91462295D01*
X69738095Y-91462295D02*
X69661904Y-91462295D01*
X69661904Y-91462295D02*
X69547618Y-91424200D01*
X69547618Y-91424200D02*
X69471428Y-91348009D01*
X69471428Y-91348009D02*
X69433333Y-91271819D01*
X69433333Y-91271819D02*
X69395237Y-91119438D01*
X69395237Y-91119438D02*
X69395237Y-91005152D01*
X69395237Y-91005152D02*
X69433333Y-90852771D01*
X69433333Y-90852771D02*
X69471428Y-90776580D01*
X69471428Y-90776580D02*
X69547618Y-90700390D01*
X69547618Y-90700390D02*
X69661904Y-90662295D01*
X69661904Y-90662295D02*
X69738095Y-90662295D01*
X69738095Y-90662295D02*
X69852380Y-90700390D01*
X69852380Y-90700390D02*
X69890476Y-90738485D01*
X70690476Y-91386104D02*
X70652380Y-91424200D01*
X70652380Y-91424200D02*
X70538095Y-91462295D01*
X70538095Y-91462295D02*
X70461904Y-91462295D01*
X70461904Y-91462295D02*
X70347618Y-91424200D01*
X70347618Y-91424200D02*
X70271428Y-91348009D01*
X70271428Y-91348009D02*
X70233333Y-91271819D01*
X70233333Y-91271819D02*
X70195237Y-91119438D01*
X70195237Y-91119438D02*
X70195237Y-91005152D01*
X70195237Y-91005152D02*
X70233333Y-90852771D01*
X70233333Y-90852771D02*
X70271428Y-90776580D01*
X70271428Y-90776580D02*
X70347618Y-90700390D01*
X70347618Y-90700390D02*
X70461904Y-90662295D01*
X70461904Y-90662295D02*
X70538095Y-90662295D01*
X70538095Y-90662295D02*
X70652380Y-90700390D01*
X70652380Y-90700390D02*
X70690476Y-90738485D01*
X62933332Y-71724200D02*
X63047618Y-71762295D01*
X63047618Y-71762295D02*
X63238094Y-71762295D01*
X63238094Y-71762295D02*
X63314285Y-71724200D01*
X63314285Y-71724200D02*
X63352380Y-71686104D01*
X63352380Y-71686104D02*
X63390475Y-71609914D01*
X63390475Y-71609914D02*
X63390475Y-71533723D01*
X63390475Y-71533723D02*
X63352380Y-71457533D01*
X63352380Y-71457533D02*
X63314285Y-71419438D01*
X63314285Y-71419438D02*
X63238094Y-71381342D01*
X63238094Y-71381342D02*
X63085713Y-71343247D01*
X63085713Y-71343247D02*
X63009523Y-71305152D01*
X63009523Y-71305152D02*
X62971428Y-71267057D01*
X62971428Y-71267057D02*
X62933332Y-71190866D01*
X62933332Y-71190866D02*
X62933332Y-71114676D01*
X62933332Y-71114676D02*
X62971428Y-71038485D01*
X62971428Y-71038485D02*
X63009523Y-71000390D01*
X63009523Y-71000390D02*
X63085713Y-70962295D01*
X63085713Y-70962295D02*
X63276190Y-70962295D01*
X63276190Y-70962295D02*
X63390475Y-71000390D01*
X63657142Y-70962295D02*
X63847618Y-71762295D01*
X63847618Y-71762295D02*
X63999999Y-71190866D01*
X63999999Y-71190866D02*
X64152380Y-71762295D01*
X64152380Y-71762295D02*
X64342857Y-70962295D01*
X65066666Y-71762295D02*
X64609523Y-71762295D01*
X64838095Y-71762295D02*
X64838095Y-70962295D01*
X64838095Y-70962295D02*
X64761904Y-71076580D01*
X64761904Y-71076580D02*
X64685714Y-71152771D01*
X64685714Y-71152771D02*
X64609523Y-71190866D01*
X60742857Y-66862295D02*
X60742857Y-66062295D01*
X60742857Y-66062295D02*
X61047619Y-66062295D01*
X61047619Y-66062295D02*
X61123809Y-66100390D01*
X61123809Y-66100390D02*
X61161904Y-66138485D01*
X61161904Y-66138485D02*
X61200000Y-66214676D01*
X61200000Y-66214676D02*
X61200000Y-66328961D01*
X61200000Y-66328961D02*
X61161904Y-66405152D01*
X61161904Y-66405152D02*
X61123809Y-66443247D01*
X61123809Y-66443247D02*
X61047619Y-66481342D01*
X61047619Y-66481342D02*
X60742857Y-66481342D01*
X61695238Y-66062295D02*
X61847619Y-66062295D01*
X61847619Y-66062295D02*
X61923809Y-66100390D01*
X61923809Y-66100390D02*
X62000000Y-66176580D01*
X62000000Y-66176580D02*
X62038095Y-66328961D01*
X62038095Y-66328961D02*
X62038095Y-66595628D01*
X62038095Y-66595628D02*
X62000000Y-66748009D01*
X62000000Y-66748009D02*
X61923809Y-66824200D01*
X61923809Y-66824200D02*
X61847619Y-66862295D01*
X61847619Y-66862295D02*
X61695238Y-66862295D01*
X61695238Y-66862295D02*
X61619047Y-66824200D01*
X61619047Y-66824200D02*
X61542857Y-66748009D01*
X61542857Y-66748009D02*
X61504761Y-66595628D01*
X61504761Y-66595628D02*
X61504761Y-66328961D01*
X61504761Y-66328961D02*
X61542857Y-66176580D01*
X61542857Y-66176580D02*
X61619047Y-66100390D01*
X61619047Y-66100390D02*
X61695238Y-66062295D01*
X62304761Y-66062295D02*
X62495237Y-66862295D01*
X62495237Y-66862295D02*
X62647618Y-66290866D01*
X62647618Y-66290866D02*
X62799999Y-66862295D01*
X62799999Y-66862295D02*
X62990476Y-66062295D01*
X63295238Y-66443247D02*
X63561904Y-66443247D01*
X63676190Y-66862295D02*
X63295238Y-66862295D01*
X63295238Y-66862295D02*
X63295238Y-66062295D01*
X63295238Y-66062295D02*
X63676190Y-66062295D01*
X64476191Y-66862295D02*
X64209524Y-66481342D01*
X64019048Y-66862295D02*
X64019048Y-66062295D01*
X64019048Y-66062295D02*
X64323810Y-66062295D01*
X64323810Y-66062295D02*
X64400000Y-66100390D01*
X64400000Y-66100390D02*
X64438095Y-66138485D01*
X64438095Y-66138485D02*
X64476191Y-66214676D01*
X64476191Y-66214676D02*
X64476191Y-66328961D01*
X64476191Y-66328961D02*
X64438095Y-66405152D01*
X64438095Y-66405152D02*
X64400000Y-66443247D01*
X64400000Y-66443247D02*
X64323810Y-66481342D01*
X64323810Y-66481342D02*
X64019048Y-66481342D01*
X64628572Y-66938485D02*
X65238095Y-66938485D01*
X65580953Y-66062295D02*
X65733334Y-66062295D01*
X65733334Y-66062295D02*
X65809524Y-66100390D01*
X65809524Y-66100390D02*
X65885715Y-66176580D01*
X65885715Y-66176580D02*
X65923810Y-66328961D01*
X65923810Y-66328961D02*
X65923810Y-66595628D01*
X65923810Y-66595628D02*
X65885715Y-66748009D01*
X65885715Y-66748009D02*
X65809524Y-66824200D01*
X65809524Y-66824200D02*
X65733334Y-66862295D01*
X65733334Y-66862295D02*
X65580953Y-66862295D01*
X65580953Y-66862295D02*
X65504762Y-66824200D01*
X65504762Y-66824200D02*
X65428572Y-66748009D01*
X65428572Y-66748009D02*
X65390476Y-66595628D01*
X65390476Y-66595628D02*
X65390476Y-66328961D01*
X65390476Y-66328961D02*
X65428572Y-66176580D01*
X65428572Y-66176580D02*
X65504762Y-66100390D01*
X65504762Y-66100390D02*
X65580953Y-66062295D01*
X66533333Y-66443247D02*
X66266667Y-66443247D01*
X66266667Y-66862295D02*
X66266667Y-66062295D01*
X66266667Y-66062295D02*
X66647619Y-66062295D01*
X67219047Y-66443247D02*
X66952381Y-66443247D01*
X66952381Y-66862295D02*
X66952381Y-66062295D01*
X66952381Y-66062295D02*
X67333333Y-66062295D01*
X60632381Y-65840200D02*
X67367619Y-65840200D01*
X75387295Y-107396666D02*
X75958723Y-107396666D01*
X75958723Y-107396666D02*
X76073009Y-107434761D01*
X76073009Y-107434761D02*
X76149200Y-107510952D01*
X76149200Y-107510952D02*
X76187295Y-107625237D01*
X76187295Y-107625237D02*
X76187295Y-107701428D01*
X75463485Y-107053809D02*
X75425390Y-107015713D01*
X75425390Y-107015713D02*
X75387295Y-106939523D01*
X75387295Y-106939523D02*
X75387295Y-106749047D01*
X75387295Y-106749047D02*
X75425390Y-106672856D01*
X75425390Y-106672856D02*
X75463485Y-106634761D01*
X75463485Y-106634761D02*
X75539676Y-106596666D01*
X75539676Y-106596666D02*
X75615866Y-106596666D01*
X75615866Y-106596666D02*
X75730152Y-106634761D01*
X75730152Y-106634761D02*
X76187295Y-107091904D01*
X76187295Y-107091904D02*
X76187295Y-106596666D01*
X60776189Y-102062295D02*
X61309523Y-102062295D01*
X61309523Y-102062295D02*
X60966665Y-102862295D01*
X61499999Y-102062295D02*
X61766666Y-102862295D01*
X61766666Y-102862295D02*
X62033332Y-102062295D01*
X62795237Y-102328961D02*
X63099999Y-102328961D01*
X62909523Y-102062295D02*
X62909523Y-102748009D01*
X62909523Y-102748009D02*
X62947618Y-102824200D01*
X62947618Y-102824200D02*
X63023808Y-102862295D01*
X63023808Y-102862295D02*
X63099999Y-102862295D01*
X63480951Y-102862295D02*
X63404761Y-102824200D01*
X63404761Y-102824200D02*
X63366666Y-102786104D01*
X63366666Y-102786104D02*
X63328570Y-102709914D01*
X63328570Y-102709914D02*
X63328570Y-102481342D01*
X63328570Y-102481342D02*
X63366666Y-102405152D01*
X63366666Y-102405152D02*
X63404761Y-102367057D01*
X63404761Y-102367057D02*
X63480951Y-102328961D01*
X63480951Y-102328961D02*
X63595237Y-102328961D01*
X63595237Y-102328961D02*
X63671428Y-102367057D01*
X63671428Y-102367057D02*
X63709523Y-102405152D01*
X63709523Y-102405152D02*
X63747618Y-102481342D01*
X63747618Y-102481342D02*
X63747618Y-102709914D01*
X63747618Y-102709914D02*
X63709523Y-102786104D01*
X63709523Y-102786104D02*
X63671428Y-102824200D01*
X63671428Y-102824200D02*
X63595237Y-102862295D01*
X63595237Y-102862295D02*
X63480951Y-102862295D01*
X65080952Y-102062295D02*
X64700000Y-102062295D01*
X64700000Y-102062295D02*
X64661904Y-102443247D01*
X64661904Y-102443247D02*
X64700000Y-102405152D01*
X64700000Y-102405152D02*
X64776190Y-102367057D01*
X64776190Y-102367057D02*
X64966666Y-102367057D01*
X64966666Y-102367057D02*
X65042857Y-102405152D01*
X65042857Y-102405152D02*
X65080952Y-102443247D01*
X65080952Y-102443247D02*
X65119047Y-102519438D01*
X65119047Y-102519438D02*
X65119047Y-102709914D01*
X65119047Y-102709914D02*
X65080952Y-102786104D01*
X65080952Y-102786104D02*
X65042857Y-102824200D01*
X65042857Y-102824200D02*
X64966666Y-102862295D01*
X64966666Y-102862295D02*
X64776190Y-102862295D01*
X64776190Y-102862295D02*
X64700000Y-102824200D01*
X64700000Y-102824200D02*
X64661904Y-102786104D01*
X65614286Y-102062295D02*
X65690476Y-102062295D01*
X65690476Y-102062295D02*
X65766667Y-102100390D01*
X65766667Y-102100390D02*
X65804762Y-102138485D01*
X65804762Y-102138485D02*
X65842857Y-102214676D01*
X65842857Y-102214676D02*
X65880952Y-102367057D01*
X65880952Y-102367057D02*
X65880952Y-102557533D01*
X65880952Y-102557533D02*
X65842857Y-102709914D01*
X65842857Y-102709914D02*
X65804762Y-102786104D01*
X65804762Y-102786104D02*
X65766667Y-102824200D01*
X65766667Y-102824200D02*
X65690476Y-102862295D01*
X65690476Y-102862295D02*
X65614286Y-102862295D01*
X65614286Y-102862295D02*
X65538095Y-102824200D01*
X65538095Y-102824200D02*
X65500000Y-102786104D01*
X65500000Y-102786104D02*
X65461905Y-102709914D01*
X65461905Y-102709914D02*
X65423809Y-102557533D01*
X65423809Y-102557533D02*
X65423809Y-102367057D01*
X65423809Y-102367057D02*
X65461905Y-102214676D01*
X65461905Y-102214676D02*
X65500000Y-102138485D01*
X65500000Y-102138485D02*
X65538095Y-102100390D01*
X65538095Y-102100390D02*
X65614286Y-102062295D01*
X66109524Y-102062295D02*
X66376191Y-102862295D01*
X66376191Y-102862295D02*
X66642857Y-102062295D01*
X67519048Y-102862295D02*
X67519048Y-102328961D01*
X67519048Y-102062295D02*
X67480952Y-102100390D01*
X67480952Y-102100390D02*
X67519048Y-102138485D01*
X67519048Y-102138485D02*
X67557143Y-102100390D01*
X67557143Y-102100390D02*
X67519048Y-102062295D01*
X67519048Y-102062295D02*
X67519048Y-102138485D01*
X67900000Y-102328961D02*
X67900000Y-102862295D01*
X67900000Y-102405152D02*
X67938095Y-102367057D01*
X67938095Y-102367057D02*
X68014285Y-102328961D01*
X68014285Y-102328961D02*
X68128571Y-102328961D01*
X68128571Y-102328961D02*
X68204762Y-102367057D01*
X68204762Y-102367057D02*
X68242857Y-102443247D01*
X68242857Y-102443247D02*
X68242857Y-102862295D01*
X68623810Y-102328961D02*
X68623810Y-103128961D01*
X68623810Y-102367057D02*
X68700000Y-102328961D01*
X68700000Y-102328961D02*
X68852381Y-102328961D01*
X68852381Y-102328961D02*
X68928572Y-102367057D01*
X68928572Y-102367057D02*
X68966667Y-102405152D01*
X68966667Y-102405152D02*
X69004762Y-102481342D01*
X69004762Y-102481342D02*
X69004762Y-102709914D01*
X69004762Y-102709914D02*
X68966667Y-102786104D01*
X68966667Y-102786104D02*
X68928572Y-102824200D01*
X68928572Y-102824200D02*
X68852381Y-102862295D01*
X68852381Y-102862295D02*
X68700000Y-102862295D01*
X68700000Y-102862295D02*
X68623810Y-102824200D01*
X69690477Y-102328961D02*
X69690477Y-102862295D01*
X69347620Y-102328961D02*
X69347620Y-102748009D01*
X69347620Y-102748009D02*
X69385715Y-102824200D01*
X69385715Y-102824200D02*
X69461905Y-102862295D01*
X69461905Y-102862295D02*
X69576191Y-102862295D01*
X69576191Y-102862295D02*
X69652382Y-102824200D01*
X69652382Y-102824200D02*
X69690477Y-102786104D01*
X69957144Y-102328961D02*
X70261906Y-102328961D01*
X70071430Y-102062295D02*
X70071430Y-102748009D01*
X70071430Y-102748009D02*
X70109525Y-102824200D01*
X70109525Y-102824200D02*
X70185715Y-102862295D01*
X70185715Y-102862295D02*
X70261906Y-102862295D01*
X117116667Y-71036104D02*
X117078571Y-71074200D01*
X117078571Y-71074200D02*
X116964286Y-71112295D01*
X116964286Y-71112295D02*
X116888095Y-71112295D01*
X116888095Y-71112295D02*
X116773809Y-71074200D01*
X116773809Y-71074200D02*
X116697619Y-70998009D01*
X116697619Y-70998009D02*
X116659524Y-70921819D01*
X116659524Y-70921819D02*
X116621428Y-70769438D01*
X116621428Y-70769438D02*
X116621428Y-70655152D01*
X116621428Y-70655152D02*
X116659524Y-70502771D01*
X116659524Y-70502771D02*
X116697619Y-70426580D01*
X116697619Y-70426580D02*
X116773809Y-70350390D01*
X116773809Y-70350390D02*
X116888095Y-70312295D01*
X116888095Y-70312295D02*
X116964286Y-70312295D01*
X116964286Y-70312295D02*
X117078571Y-70350390D01*
X117078571Y-70350390D02*
X117116667Y-70388485D01*
X117383333Y-70312295D02*
X117878571Y-70312295D01*
X117878571Y-70312295D02*
X117611905Y-70617057D01*
X117611905Y-70617057D02*
X117726190Y-70617057D01*
X117726190Y-70617057D02*
X117802381Y-70655152D01*
X117802381Y-70655152D02*
X117840476Y-70693247D01*
X117840476Y-70693247D02*
X117878571Y-70769438D01*
X117878571Y-70769438D02*
X117878571Y-70959914D01*
X117878571Y-70959914D02*
X117840476Y-71036104D01*
X117840476Y-71036104D02*
X117802381Y-71074200D01*
X117802381Y-71074200D02*
X117726190Y-71112295D01*
X117726190Y-71112295D02*
X117497619Y-71112295D01*
X117497619Y-71112295D02*
X117421428Y-71074200D01*
X117421428Y-71074200D02*
X117383333Y-71036104D01*
X110832295Y-39766666D02*
X111403723Y-39766666D01*
X111403723Y-39766666D02*
X111518009Y-39804761D01*
X111518009Y-39804761D02*
X111594200Y-39880952D01*
X111594200Y-39880952D02*
X111632295Y-39995237D01*
X111632295Y-39995237D02*
X111632295Y-40071428D01*
X110832295Y-39042856D02*
X110832295Y-39195237D01*
X110832295Y-39195237D02*
X110870390Y-39271428D01*
X110870390Y-39271428D02*
X110908485Y-39309523D01*
X110908485Y-39309523D02*
X111022771Y-39385713D01*
X111022771Y-39385713D02*
X111175152Y-39423809D01*
X111175152Y-39423809D02*
X111479914Y-39423809D01*
X111479914Y-39423809D02*
X111556104Y-39385713D01*
X111556104Y-39385713D02*
X111594200Y-39347618D01*
X111594200Y-39347618D02*
X111632295Y-39271428D01*
X111632295Y-39271428D02*
X111632295Y-39119047D01*
X111632295Y-39119047D02*
X111594200Y-39042856D01*
X111594200Y-39042856D02*
X111556104Y-39004761D01*
X111556104Y-39004761D02*
X111479914Y-38966666D01*
X111479914Y-38966666D02*
X111289438Y-38966666D01*
X111289438Y-38966666D02*
X111213247Y-39004761D01*
X111213247Y-39004761D02*
X111175152Y-39042856D01*
X111175152Y-39042856D02*
X111137057Y-39119047D01*
X111137057Y-39119047D02*
X111137057Y-39271428D01*
X111137057Y-39271428D02*
X111175152Y-39347618D01*
X111175152Y-39347618D02*
X111213247Y-39385713D01*
X111213247Y-39385713D02*
X111289438Y-39423809D01*
X117116667Y-89536104D02*
X117078571Y-89574200D01*
X117078571Y-89574200D02*
X116964286Y-89612295D01*
X116964286Y-89612295D02*
X116888095Y-89612295D01*
X116888095Y-89612295D02*
X116773809Y-89574200D01*
X116773809Y-89574200D02*
X116697619Y-89498009D01*
X116697619Y-89498009D02*
X116659524Y-89421819D01*
X116659524Y-89421819D02*
X116621428Y-89269438D01*
X116621428Y-89269438D02*
X116621428Y-89155152D01*
X116621428Y-89155152D02*
X116659524Y-89002771D01*
X116659524Y-89002771D02*
X116697619Y-88926580D01*
X116697619Y-88926580D02*
X116773809Y-88850390D01*
X116773809Y-88850390D02*
X116888095Y-88812295D01*
X116888095Y-88812295D02*
X116964286Y-88812295D01*
X116964286Y-88812295D02*
X117078571Y-88850390D01*
X117078571Y-88850390D02*
X117116667Y-88888485D01*
X117421428Y-88888485D02*
X117459524Y-88850390D01*
X117459524Y-88850390D02*
X117535714Y-88812295D01*
X117535714Y-88812295D02*
X117726190Y-88812295D01*
X117726190Y-88812295D02*
X117802381Y-88850390D01*
X117802381Y-88850390D02*
X117840476Y-88888485D01*
X117840476Y-88888485D02*
X117878571Y-88964676D01*
X117878571Y-88964676D02*
X117878571Y-89040866D01*
X117878571Y-89040866D02*
X117840476Y-89155152D01*
X117840476Y-89155152D02*
X117383333Y-89612295D01*
X117383333Y-89612295D02*
X117878571Y-89612295D01*
X110812295Y-113766666D02*
X111383723Y-113766666D01*
X111383723Y-113766666D02*
X111498009Y-113804761D01*
X111498009Y-113804761D02*
X111574200Y-113880952D01*
X111574200Y-113880952D02*
X111612295Y-113995237D01*
X111612295Y-113995237D02*
X111612295Y-114071428D01*
X110812295Y-113461904D02*
X110812295Y-112966666D01*
X110812295Y-112966666D02*
X111117057Y-113233332D01*
X111117057Y-113233332D02*
X111117057Y-113119047D01*
X111117057Y-113119047D02*
X111155152Y-113042856D01*
X111155152Y-113042856D02*
X111193247Y-113004761D01*
X111193247Y-113004761D02*
X111269438Y-112966666D01*
X111269438Y-112966666D02*
X111459914Y-112966666D01*
X111459914Y-112966666D02*
X111536104Y-113004761D01*
X111536104Y-113004761D02*
X111574200Y-113042856D01*
X111574200Y-113042856D02*
X111612295Y-113119047D01*
X111612295Y-113119047D02*
X111612295Y-113347618D01*
X111612295Y-113347618D02*
X111574200Y-113423809D01*
X111574200Y-113423809D02*
X111536104Y-113461904D01*
X107332295Y-95266666D02*
X107903723Y-95266666D01*
X107903723Y-95266666D02*
X108018009Y-95304761D01*
X108018009Y-95304761D02*
X108094200Y-95380952D01*
X108094200Y-95380952D02*
X108132295Y-95495237D01*
X108132295Y-95495237D02*
X108132295Y-95571428D01*
X107598961Y-94542856D02*
X108132295Y-94542856D01*
X107294200Y-94733332D02*
X107865628Y-94923809D01*
X107865628Y-94923809D02*
X107865628Y-94428570D01*
X117116667Y-108036104D02*
X117078571Y-108074200D01*
X117078571Y-108074200D02*
X116964286Y-108112295D01*
X116964286Y-108112295D02*
X116888095Y-108112295D01*
X116888095Y-108112295D02*
X116773809Y-108074200D01*
X116773809Y-108074200D02*
X116697619Y-107998009D01*
X116697619Y-107998009D02*
X116659524Y-107921819D01*
X116659524Y-107921819D02*
X116621428Y-107769438D01*
X116621428Y-107769438D02*
X116621428Y-107655152D01*
X116621428Y-107655152D02*
X116659524Y-107502771D01*
X116659524Y-107502771D02*
X116697619Y-107426580D01*
X116697619Y-107426580D02*
X116773809Y-107350390D01*
X116773809Y-107350390D02*
X116888095Y-107312295D01*
X116888095Y-107312295D02*
X116964286Y-107312295D01*
X116964286Y-107312295D02*
X117078571Y-107350390D01*
X117078571Y-107350390D02*
X117116667Y-107388485D01*
X117878571Y-108112295D02*
X117421428Y-108112295D01*
X117650000Y-108112295D02*
X117650000Y-107312295D01*
X117650000Y-107312295D02*
X117573809Y-107426580D01*
X117573809Y-107426580D02*
X117497619Y-107502771D01*
X117497619Y-107502771D02*
X117421428Y-107540866D01*
X62990476Y-85162295D02*
X63447619Y-85162295D01*
X63219047Y-85962295D02*
X63219047Y-85162295D01*
X63714286Y-85962295D02*
X63714286Y-85162295D01*
X63714286Y-85162295D02*
X64019048Y-85162295D01*
X64019048Y-85162295D02*
X64095238Y-85200390D01*
X64095238Y-85200390D02*
X64133333Y-85238485D01*
X64133333Y-85238485D02*
X64171429Y-85314676D01*
X64171429Y-85314676D02*
X64171429Y-85428961D01*
X64171429Y-85428961D02*
X64133333Y-85505152D01*
X64133333Y-85505152D02*
X64095238Y-85543247D01*
X64095238Y-85543247D02*
X64019048Y-85581342D01*
X64019048Y-85581342D02*
X63714286Y-85581342D01*
X64933333Y-85962295D02*
X64476190Y-85962295D01*
X64704762Y-85962295D02*
X64704762Y-85162295D01*
X64704762Y-85162295D02*
X64628571Y-85276580D01*
X64628571Y-85276580D02*
X64552381Y-85352771D01*
X64552381Y-85352771D02*
X64476190Y-85390866D01*
X60742857Y-81962295D02*
X60742857Y-81162295D01*
X60742857Y-81162295D02*
X61047619Y-81162295D01*
X61047619Y-81162295D02*
X61123809Y-81200390D01*
X61123809Y-81200390D02*
X61161904Y-81238485D01*
X61161904Y-81238485D02*
X61200000Y-81314676D01*
X61200000Y-81314676D02*
X61200000Y-81428961D01*
X61200000Y-81428961D02*
X61161904Y-81505152D01*
X61161904Y-81505152D02*
X61123809Y-81543247D01*
X61123809Y-81543247D02*
X61047619Y-81581342D01*
X61047619Y-81581342D02*
X60742857Y-81581342D01*
X61695238Y-81162295D02*
X61847619Y-81162295D01*
X61847619Y-81162295D02*
X61923809Y-81200390D01*
X61923809Y-81200390D02*
X62000000Y-81276580D01*
X62000000Y-81276580D02*
X62038095Y-81428961D01*
X62038095Y-81428961D02*
X62038095Y-81695628D01*
X62038095Y-81695628D02*
X62000000Y-81848009D01*
X62000000Y-81848009D02*
X61923809Y-81924200D01*
X61923809Y-81924200D02*
X61847619Y-81962295D01*
X61847619Y-81962295D02*
X61695238Y-81962295D01*
X61695238Y-81962295D02*
X61619047Y-81924200D01*
X61619047Y-81924200D02*
X61542857Y-81848009D01*
X61542857Y-81848009D02*
X61504761Y-81695628D01*
X61504761Y-81695628D02*
X61504761Y-81428961D01*
X61504761Y-81428961D02*
X61542857Y-81276580D01*
X61542857Y-81276580D02*
X61619047Y-81200390D01*
X61619047Y-81200390D02*
X61695238Y-81162295D01*
X62304761Y-81162295D02*
X62495237Y-81962295D01*
X62495237Y-81962295D02*
X62647618Y-81390866D01*
X62647618Y-81390866D02*
X62799999Y-81962295D01*
X62799999Y-81962295D02*
X62990476Y-81162295D01*
X63295238Y-81543247D02*
X63561904Y-81543247D01*
X63676190Y-81962295D02*
X63295238Y-81962295D01*
X63295238Y-81962295D02*
X63295238Y-81162295D01*
X63295238Y-81162295D02*
X63676190Y-81162295D01*
X64476191Y-81962295D02*
X64209524Y-81581342D01*
X64019048Y-81962295D02*
X64019048Y-81162295D01*
X64019048Y-81162295D02*
X64323810Y-81162295D01*
X64323810Y-81162295D02*
X64400000Y-81200390D01*
X64400000Y-81200390D02*
X64438095Y-81238485D01*
X64438095Y-81238485D02*
X64476191Y-81314676D01*
X64476191Y-81314676D02*
X64476191Y-81428961D01*
X64476191Y-81428961D02*
X64438095Y-81505152D01*
X64438095Y-81505152D02*
X64400000Y-81543247D01*
X64400000Y-81543247D02*
X64323810Y-81581342D01*
X64323810Y-81581342D02*
X64019048Y-81581342D01*
X64628572Y-82038485D02*
X65238095Y-82038485D01*
X65580953Y-81162295D02*
X65733334Y-81162295D01*
X65733334Y-81162295D02*
X65809524Y-81200390D01*
X65809524Y-81200390D02*
X65885715Y-81276580D01*
X65885715Y-81276580D02*
X65923810Y-81428961D01*
X65923810Y-81428961D02*
X65923810Y-81695628D01*
X65923810Y-81695628D02*
X65885715Y-81848009D01*
X65885715Y-81848009D02*
X65809524Y-81924200D01*
X65809524Y-81924200D02*
X65733334Y-81962295D01*
X65733334Y-81962295D02*
X65580953Y-81962295D01*
X65580953Y-81962295D02*
X65504762Y-81924200D01*
X65504762Y-81924200D02*
X65428572Y-81848009D01*
X65428572Y-81848009D02*
X65390476Y-81695628D01*
X65390476Y-81695628D02*
X65390476Y-81428961D01*
X65390476Y-81428961D02*
X65428572Y-81276580D01*
X65428572Y-81276580D02*
X65504762Y-81200390D01*
X65504762Y-81200390D02*
X65580953Y-81162295D01*
X66533333Y-81543247D02*
X66266667Y-81543247D01*
X66266667Y-81962295D02*
X66266667Y-81162295D01*
X66266667Y-81162295D02*
X66647619Y-81162295D01*
X67219047Y-81543247D02*
X66952381Y-81543247D01*
X66952381Y-81962295D02*
X66952381Y-81162295D01*
X66952381Y-81162295D02*
X67333333Y-81162295D01*
X60632381Y-80940200D02*
X67367619Y-80940200D01*
X62933332Y-63724200D02*
X63047618Y-63762295D01*
X63047618Y-63762295D02*
X63238094Y-63762295D01*
X63238094Y-63762295D02*
X63314285Y-63724200D01*
X63314285Y-63724200D02*
X63352380Y-63686104D01*
X63352380Y-63686104D02*
X63390475Y-63609914D01*
X63390475Y-63609914D02*
X63390475Y-63533723D01*
X63390475Y-63533723D02*
X63352380Y-63457533D01*
X63352380Y-63457533D02*
X63314285Y-63419438D01*
X63314285Y-63419438D02*
X63238094Y-63381342D01*
X63238094Y-63381342D02*
X63085713Y-63343247D01*
X63085713Y-63343247D02*
X63009523Y-63305152D01*
X63009523Y-63305152D02*
X62971428Y-63267057D01*
X62971428Y-63267057D02*
X62933332Y-63190866D01*
X62933332Y-63190866D02*
X62933332Y-63114676D01*
X62933332Y-63114676D02*
X62971428Y-63038485D01*
X62971428Y-63038485D02*
X63009523Y-63000390D01*
X63009523Y-63000390D02*
X63085713Y-62962295D01*
X63085713Y-62962295D02*
X63276190Y-62962295D01*
X63276190Y-62962295D02*
X63390475Y-63000390D01*
X63657142Y-62962295D02*
X63847618Y-63762295D01*
X63847618Y-63762295D02*
X63999999Y-63190866D01*
X63999999Y-63190866D02*
X64152380Y-63762295D01*
X64152380Y-63762295D02*
X64342857Y-62962295D01*
X64571428Y-62962295D02*
X65066666Y-62962295D01*
X65066666Y-62962295D02*
X64800000Y-63267057D01*
X64800000Y-63267057D02*
X64914285Y-63267057D01*
X64914285Y-63267057D02*
X64990476Y-63305152D01*
X64990476Y-63305152D02*
X65028571Y-63343247D01*
X65028571Y-63343247D02*
X65066666Y-63419438D01*
X65066666Y-63419438D02*
X65066666Y-63609914D01*
X65066666Y-63609914D02*
X65028571Y-63686104D01*
X65028571Y-63686104D02*
X64990476Y-63724200D01*
X64990476Y-63724200D02*
X64914285Y-63762295D01*
X64914285Y-63762295D02*
X64685714Y-63762295D01*
X64685714Y-63762295D02*
X64609523Y-63724200D01*
X64609523Y-63724200D02*
X64571428Y-63686104D01*
X63161904Y-58633723D02*
X63542857Y-58633723D01*
X63085714Y-58862295D02*
X63352381Y-58062295D01*
X63352381Y-58062295D02*
X63619047Y-58862295D01*
X64152380Y-58443247D02*
X63885714Y-58443247D01*
X63885714Y-58862295D02*
X63885714Y-58062295D01*
X63885714Y-58062295D02*
X64266666Y-58062295D01*
X64457142Y-58062295D02*
X64914285Y-58062295D01*
X64685713Y-58862295D02*
X64685713Y-58062295D01*
X62390476Y-123562295D02*
X62390476Y-122762295D01*
X62390476Y-123143247D02*
X62847619Y-123143247D01*
X62847619Y-123562295D02*
X62847619Y-122762295D01*
X63571428Y-123028961D02*
X63571428Y-123562295D01*
X63380952Y-122724200D02*
X63190475Y-123295628D01*
X63190475Y-123295628D02*
X63685714Y-123295628D01*
X107332295Y-58266666D02*
X107903723Y-58266666D01*
X107903723Y-58266666D02*
X108018009Y-58304761D01*
X108018009Y-58304761D02*
X108094200Y-58380952D01*
X108094200Y-58380952D02*
X108132295Y-58495237D01*
X108132295Y-58495237D02*
X108132295Y-58571428D01*
X107332295Y-57961904D02*
X107332295Y-57428570D01*
X107332295Y-57428570D02*
X108132295Y-57771428D01*
X117116667Y-34036104D02*
X117078571Y-34074200D01*
X117078571Y-34074200D02*
X116964286Y-34112295D01*
X116964286Y-34112295D02*
X116888095Y-34112295D01*
X116888095Y-34112295D02*
X116773809Y-34074200D01*
X116773809Y-34074200D02*
X116697619Y-33998009D01*
X116697619Y-33998009D02*
X116659524Y-33921819D01*
X116659524Y-33921819D02*
X116621428Y-33769438D01*
X116621428Y-33769438D02*
X116621428Y-33655152D01*
X116621428Y-33655152D02*
X116659524Y-33502771D01*
X116659524Y-33502771D02*
X116697619Y-33426580D01*
X116697619Y-33426580D02*
X116773809Y-33350390D01*
X116773809Y-33350390D02*
X116888095Y-33312295D01*
X116888095Y-33312295D02*
X116964286Y-33312295D01*
X116964286Y-33312295D02*
X117078571Y-33350390D01*
X117078571Y-33350390D02*
X117116667Y-33388485D01*
X117802381Y-33578961D02*
X117802381Y-34112295D01*
X117611905Y-33274200D02*
X117421428Y-33845628D01*
X117421428Y-33845628D02*
X117916667Y-33845628D01*
X68690476Y-100562295D02*
X69147619Y-100562295D01*
X68919047Y-101362295D02*
X68919047Y-100562295D01*
X69414286Y-101362295D02*
X69414286Y-100562295D01*
X69414286Y-100562295D02*
X69719048Y-100562295D01*
X69719048Y-100562295D02*
X69795238Y-100600390D01*
X69795238Y-100600390D02*
X69833333Y-100638485D01*
X69833333Y-100638485D02*
X69871429Y-100714676D01*
X69871429Y-100714676D02*
X69871429Y-100828961D01*
X69871429Y-100828961D02*
X69833333Y-100905152D01*
X69833333Y-100905152D02*
X69795238Y-100943247D01*
X69795238Y-100943247D02*
X69719048Y-100981342D01*
X69719048Y-100981342D02*
X69414286Y-100981342D01*
X70138095Y-100562295D02*
X70671429Y-100562295D01*
X70671429Y-100562295D02*
X70328571Y-101362295D01*
X69090476Y-96600390D02*
X69014286Y-96562295D01*
X69014286Y-96562295D02*
X68900000Y-96562295D01*
X68900000Y-96562295D02*
X68785714Y-96600390D01*
X68785714Y-96600390D02*
X68709524Y-96676580D01*
X68709524Y-96676580D02*
X68671429Y-96752771D01*
X68671429Y-96752771D02*
X68633333Y-96905152D01*
X68633333Y-96905152D02*
X68633333Y-97019438D01*
X68633333Y-97019438D02*
X68671429Y-97171819D01*
X68671429Y-97171819D02*
X68709524Y-97248009D01*
X68709524Y-97248009D02*
X68785714Y-97324200D01*
X68785714Y-97324200D02*
X68900000Y-97362295D01*
X68900000Y-97362295D02*
X68976191Y-97362295D01*
X68976191Y-97362295D02*
X69090476Y-97324200D01*
X69090476Y-97324200D02*
X69128572Y-97286104D01*
X69128572Y-97286104D02*
X69128572Y-97019438D01*
X69128572Y-97019438D02*
X68976191Y-97019438D01*
X69471429Y-97362295D02*
X69471429Y-96562295D01*
X69471429Y-96562295D02*
X69928572Y-97362295D01*
X69928572Y-97362295D02*
X69928572Y-96562295D01*
X70309524Y-97362295D02*
X70309524Y-96562295D01*
X70309524Y-96562295D02*
X70500000Y-96562295D01*
X70500000Y-96562295D02*
X70614286Y-96600390D01*
X70614286Y-96600390D02*
X70690476Y-96676580D01*
X70690476Y-96676580D02*
X70728571Y-96752771D01*
X70728571Y-96752771D02*
X70766667Y-96905152D01*
X70766667Y-96905152D02*
X70766667Y-97019438D01*
X70766667Y-97019438D02*
X70728571Y-97171819D01*
X70728571Y-97171819D02*
X70690476Y-97248009D01*
X70690476Y-97248009D02*
X70614286Y-97324200D01*
X70614286Y-97324200D02*
X70500000Y-97362295D01*
X70500000Y-97362295D02*
X70309524Y-97362295D01*
X62933332Y-79724200D02*
X63047618Y-79762295D01*
X63047618Y-79762295D02*
X63238094Y-79762295D01*
X63238094Y-79762295D02*
X63314285Y-79724200D01*
X63314285Y-79724200D02*
X63352380Y-79686104D01*
X63352380Y-79686104D02*
X63390475Y-79609914D01*
X63390475Y-79609914D02*
X63390475Y-79533723D01*
X63390475Y-79533723D02*
X63352380Y-79457533D01*
X63352380Y-79457533D02*
X63314285Y-79419438D01*
X63314285Y-79419438D02*
X63238094Y-79381342D01*
X63238094Y-79381342D02*
X63085713Y-79343247D01*
X63085713Y-79343247D02*
X63009523Y-79305152D01*
X63009523Y-79305152D02*
X62971428Y-79267057D01*
X62971428Y-79267057D02*
X62933332Y-79190866D01*
X62933332Y-79190866D02*
X62933332Y-79114676D01*
X62933332Y-79114676D02*
X62971428Y-79038485D01*
X62971428Y-79038485D02*
X63009523Y-79000390D01*
X63009523Y-79000390D02*
X63085713Y-78962295D01*
X63085713Y-78962295D02*
X63276190Y-78962295D01*
X63276190Y-78962295D02*
X63390475Y-79000390D01*
X63657142Y-78962295D02*
X63847618Y-79762295D01*
X63847618Y-79762295D02*
X63999999Y-79190866D01*
X63999999Y-79190866D02*
X64152380Y-79762295D01*
X64152380Y-79762295D02*
X64342857Y-78962295D01*
X64609523Y-79038485D02*
X64647619Y-79000390D01*
X64647619Y-79000390D02*
X64723809Y-78962295D01*
X64723809Y-78962295D02*
X64914285Y-78962295D01*
X64914285Y-78962295D02*
X64990476Y-79000390D01*
X64990476Y-79000390D02*
X65028571Y-79038485D01*
X65028571Y-79038485D02*
X65066666Y-79114676D01*
X65066666Y-79114676D02*
X65066666Y-79190866D01*
X65066666Y-79190866D02*
X65028571Y-79305152D01*
X65028571Y-79305152D02*
X64571428Y-79762295D01*
X64571428Y-79762295D02*
X65066666Y-79762295D01*
X61028570Y-74443247D02*
X61295236Y-74443247D01*
X61409522Y-74862295D02*
X61028570Y-74862295D01*
X61028570Y-74862295D02*
X61028570Y-74062295D01*
X61028570Y-74062295D02*
X61409522Y-74062295D01*
X61676189Y-74062295D02*
X62209523Y-74862295D01*
X62209523Y-74062295D02*
X61676189Y-74862295D01*
X62399999Y-74062295D02*
X62857142Y-74062295D01*
X62628570Y-74862295D02*
X62628570Y-74062295D01*
X62933333Y-74938485D02*
X63542856Y-74938485D01*
X64190476Y-74862295D02*
X63923809Y-74481342D01*
X63733333Y-74862295D02*
X63733333Y-74062295D01*
X63733333Y-74062295D02*
X64038095Y-74062295D01*
X64038095Y-74062295D02*
X64114285Y-74100390D01*
X64114285Y-74100390D02*
X64152380Y-74138485D01*
X64152380Y-74138485D02*
X64190476Y-74214676D01*
X64190476Y-74214676D02*
X64190476Y-74328961D01*
X64190476Y-74328961D02*
X64152380Y-74405152D01*
X64152380Y-74405152D02*
X64114285Y-74443247D01*
X64114285Y-74443247D02*
X64038095Y-74481342D01*
X64038095Y-74481342D02*
X63733333Y-74481342D01*
X64533333Y-74443247D02*
X64799999Y-74443247D01*
X64914285Y-74862295D02*
X64533333Y-74862295D01*
X64533333Y-74862295D02*
X64533333Y-74062295D01*
X64533333Y-74062295D02*
X64914285Y-74062295D01*
X65219047Y-74824200D02*
X65333333Y-74862295D01*
X65333333Y-74862295D02*
X65523809Y-74862295D01*
X65523809Y-74862295D02*
X65600000Y-74824200D01*
X65600000Y-74824200D02*
X65638095Y-74786104D01*
X65638095Y-74786104D02*
X65676190Y-74709914D01*
X65676190Y-74709914D02*
X65676190Y-74633723D01*
X65676190Y-74633723D02*
X65638095Y-74557533D01*
X65638095Y-74557533D02*
X65600000Y-74519438D01*
X65600000Y-74519438D02*
X65523809Y-74481342D01*
X65523809Y-74481342D02*
X65371428Y-74443247D01*
X65371428Y-74443247D02*
X65295238Y-74405152D01*
X65295238Y-74405152D02*
X65257143Y-74367057D01*
X65257143Y-74367057D02*
X65219047Y-74290866D01*
X65219047Y-74290866D02*
X65219047Y-74214676D01*
X65219047Y-74214676D02*
X65257143Y-74138485D01*
X65257143Y-74138485D02*
X65295238Y-74100390D01*
X65295238Y-74100390D02*
X65371428Y-74062295D01*
X65371428Y-74062295D02*
X65561905Y-74062295D01*
X65561905Y-74062295D02*
X65676190Y-74100390D01*
X66019048Y-74443247D02*
X66285714Y-74443247D01*
X66400000Y-74862295D02*
X66019048Y-74862295D01*
X66019048Y-74862295D02*
X66019048Y-74062295D01*
X66019048Y-74062295D02*
X66400000Y-74062295D01*
X66628572Y-74062295D02*
X67085715Y-74062295D01*
X66857143Y-74862295D02*
X66857143Y-74062295D01*
X60918094Y-73840200D02*
X67081906Y-73840200D01*
X66690476Y-119954819D02*
X66690476Y-120669104D01*
X66690476Y-120669104D02*
X66642857Y-120811961D01*
X66642857Y-120811961D02*
X66547619Y-120907200D01*
X66547619Y-120907200D02*
X66404762Y-120954819D01*
X66404762Y-120954819D02*
X66309524Y-120954819D01*
X67690476Y-120954819D02*
X67119048Y-120954819D01*
X67404762Y-120954819D02*
X67404762Y-119954819D01*
X67404762Y-119954819D02*
X67309524Y-120097676D01*
X67309524Y-120097676D02*
X67214286Y-120192914D01*
X67214286Y-120192914D02*
X67119048Y-120240533D01*
X68642857Y-120954819D02*
X68071429Y-120954819D01*
X68357143Y-120954819D02*
X68357143Y-119954819D01*
X68357143Y-119954819D02*
X68261905Y-120097676D01*
X68261905Y-120097676D02*
X68166667Y-120192914D01*
X68166667Y-120192914D02*
X68071429Y-120240533D01*
X85690476Y-119954819D02*
X85690476Y-120669104D01*
X85690476Y-120669104D02*
X85642857Y-120811961D01*
X85642857Y-120811961D02*
X85547619Y-120907200D01*
X85547619Y-120907200D02*
X85404762Y-120954819D01*
X85404762Y-120954819D02*
X85309524Y-120954819D01*
X86690476Y-120954819D02*
X86119048Y-120954819D01*
X86404762Y-120954819D02*
X86404762Y-119954819D01*
X86404762Y-119954819D02*
X86309524Y-120097676D01*
X86309524Y-120097676D02*
X86214286Y-120192914D01*
X86214286Y-120192914D02*
X86119048Y-120240533D01*
X87071429Y-120050057D02*
X87119048Y-120002438D01*
X87119048Y-120002438D02*
X87214286Y-119954819D01*
X87214286Y-119954819D02*
X87452381Y-119954819D01*
X87452381Y-119954819D02*
X87547619Y-120002438D01*
X87547619Y-120002438D02*
X87595238Y-120050057D01*
X87595238Y-120050057D02*
X87642857Y-120145295D01*
X87642857Y-120145295D02*
X87642857Y-120240533D01*
X87642857Y-120240533D02*
X87595238Y-120383390D01*
X87595238Y-120383390D02*
X87023810Y-120954819D01*
X87023810Y-120954819D02*
X87642857Y-120954819D01*
X103890476Y-37162295D02*
X103890476Y-36362295D01*
X103890476Y-36743247D02*
X104347619Y-36743247D01*
X104347619Y-37162295D02*
X104347619Y-36362295D01*
X104690475Y-36438485D02*
X104728571Y-36400390D01*
X104728571Y-36400390D02*
X104804761Y-36362295D01*
X104804761Y-36362295D02*
X104995237Y-36362295D01*
X104995237Y-36362295D02*
X105071428Y-36400390D01*
X105071428Y-36400390D02*
X105109523Y-36438485D01*
X105109523Y-36438485D02*
X105147618Y-36514676D01*
X105147618Y-36514676D02*
X105147618Y-36590866D01*
X105147618Y-36590866D02*
X105109523Y-36705152D01*
X105109523Y-36705152D02*
X104652380Y-37162295D01*
X104652380Y-37162295D02*
X105147618Y-37162295D01*
X110116667Y-108112295D02*
X109850000Y-107731342D01*
X109659524Y-108112295D02*
X109659524Y-107312295D01*
X109659524Y-107312295D02*
X109964286Y-107312295D01*
X109964286Y-107312295D02*
X110040476Y-107350390D01*
X110040476Y-107350390D02*
X110078571Y-107388485D01*
X110078571Y-107388485D02*
X110116667Y-107464676D01*
X110116667Y-107464676D02*
X110116667Y-107578961D01*
X110116667Y-107578961D02*
X110078571Y-107655152D01*
X110078571Y-107655152D02*
X110040476Y-107693247D01*
X110040476Y-107693247D02*
X109964286Y-107731342D01*
X109964286Y-107731342D02*
X109659524Y-107731342D01*
X110878571Y-108112295D02*
X110421428Y-108112295D01*
X110650000Y-108112295D02*
X110650000Y-107312295D01*
X110650000Y-107312295D02*
X110573809Y-107426580D01*
X110573809Y-107426580D02*
X110497619Y-107502771D01*
X110497619Y-107502771D02*
X110421428Y-107540866D01*
X80590476Y-110562295D02*
X81047619Y-110562295D01*
X80819047Y-111362295D02*
X80819047Y-110562295D01*
X81314286Y-111362295D02*
X81314286Y-110562295D01*
X81314286Y-110562295D02*
X81619048Y-110562295D01*
X81619048Y-110562295D02*
X81695238Y-110600390D01*
X81695238Y-110600390D02*
X81733333Y-110638485D01*
X81733333Y-110638485D02*
X81771429Y-110714676D01*
X81771429Y-110714676D02*
X81771429Y-110828961D01*
X81771429Y-110828961D02*
X81733333Y-110905152D01*
X81733333Y-110905152D02*
X81695238Y-110943247D01*
X81695238Y-110943247D02*
X81619048Y-110981342D01*
X81619048Y-110981342D02*
X81314286Y-110981342D01*
X82038095Y-110562295D02*
X82533333Y-110562295D01*
X82533333Y-110562295D02*
X82266667Y-110867057D01*
X82266667Y-110867057D02*
X82380952Y-110867057D01*
X82380952Y-110867057D02*
X82457143Y-110905152D01*
X82457143Y-110905152D02*
X82495238Y-110943247D01*
X82495238Y-110943247D02*
X82533333Y-111019438D01*
X82533333Y-111019438D02*
X82533333Y-111209914D01*
X82533333Y-111209914D02*
X82495238Y-111286104D01*
X82495238Y-111286104D02*
X82457143Y-111324200D01*
X82457143Y-111324200D02*
X82380952Y-111362295D01*
X82380952Y-111362295D02*
X82152381Y-111362295D01*
X82152381Y-111362295D02*
X82076190Y-111324200D01*
X82076190Y-111324200D02*
X82038095Y-111286104D01*
X81447619Y-106562295D02*
X81066667Y-106562295D01*
X81066667Y-106562295D02*
X81028571Y-106943247D01*
X81028571Y-106943247D02*
X81066667Y-106905152D01*
X81066667Y-106905152D02*
X81142857Y-106867057D01*
X81142857Y-106867057D02*
X81333333Y-106867057D01*
X81333333Y-106867057D02*
X81409524Y-106905152D01*
X81409524Y-106905152D02*
X81447619Y-106943247D01*
X81447619Y-106943247D02*
X81485714Y-107019438D01*
X81485714Y-107019438D02*
X81485714Y-107209914D01*
X81485714Y-107209914D02*
X81447619Y-107286104D01*
X81447619Y-107286104D02*
X81409524Y-107324200D01*
X81409524Y-107324200D02*
X81333333Y-107362295D01*
X81333333Y-107362295D02*
X81142857Y-107362295D01*
X81142857Y-107362295D02*
X81066667Y-107324200D01*
X81066667Y-107324200D02*
X81028571Y-107286104D01*
X81714286Y-106562295D02*
X81980953Y-107362295D01*
X81980953Y-107362295D02*
X82247619Y-106562295D01*
X110116667Y-34112295D02*
X109850000Y-33731342D01*
X109659524Y-34112295D02*
X109659524Y-33312295D01*
X109659524Y-33312295D02*
X109964286Y-33312295D01*
X109964286Y-33312295D02*
X110040476Y-33350390D01*
X110040476Y-33350390D02*
X110078571Y-33388485D01*
X110078571Y-33388485D02*
X110116667Y-33464676D01*
X110116667Y-33464676D02*
X110116667Y-33578961D01*
X110116667Y-33578961D02*
X110078571Y-33655152D01*
X110078571Y-33655152D02*
X110040476Y-33693247D01*
X110040476Y-33693247D02*
X109964286Y-33731342D01*
X109964286Y-33731342D02*
X109659524Y-33731342D01*
X110802381Y-33578961D02*
X110802381Y-34112295D01*
X110611905Y-33274200D02*
X110421428Y-33845628D01*
X110421428Y-33845628D02*
X110916667Y-33845628D01*
X67162295Y-33609523D02*
X66362295Y-33609523D01*
X66743247Y-33609523D02*
X66743247Y-33152380D01*
X67162295Y-33152380D02*
X66362295Y-33152380D01*
X67162295Y-32352381D02*
X67162295Y-32809524D01*
X67162295Y-32580952D02*
X66362295Y-32580952D01*
X66362295Y-32580952D02*
X66476580Y-32657143D01*
X66476580Y-32657143D02*
X66552771Y-32733333D01*
X66552771Y-32733333D02*
X66590866Y-32809524D01*
X80590476Y-102562295D02*
X81047619Y-102562295D01*
X80819047Y-103362295D02*
X80819047Y-102562295D01*
X81314286Y-103362295D02*
X81314286Y-102562295D01*
X81314286Y-102562295D02*
X81619048Y-102562295D01*
X81619048Y-102562295D02*
X81695238Y-102600390D01*
X81695238Y-102600390D02*
X81733333Y-102638485D01*
X81733333Y-102638485D02*
X81771429Y-102714676D01*
X81771429Y-102714676D02*
X81771429Y-102828961D01*
X81771429Y-102828961D02*
X81733333Y-102905152D01*
X81733333Y-102905152D02*
X81695238Y-102943247D01*
X81695238Y-102943247D02*
X81619048Y-102981342D01*
X81619048Y-102981342D02*
X81314286Y-102981342D01*
X82457143Y-102828961D02*
X82457143Y-103362295D01*
X82266667Y-102524200D02*
X82076190Y-103095628D01*
X82076190Y-103095628D02*
X82571429Y-103095628D01*
X80609523Y-98562295D02*
X81104761Y-98562295D01*
X81104761Y-98562295D02*
X80838095Y-98867057D01*
X80838095Y-98867057D02*
X80952380Y-98867057D01*
X80952380Y-98867057D02*
X81028571Y-98905152D01*
X81028571Y-98905152D02*
X81066666Y-98943247D01*
X81066666Y-98943247D02*
X81104761Y-99019438D01*
X81104761Y-99019438D02*
X81104761Y-99209914D01*
X81104761Y-99209914D02*
X81066666Y-99286104D01*
X81066666Y-99286104D02*
X81028571Y-99324200D01*
X81028571Y-99324200D02*
X80952380Y-99362295D01*
X80952380Y-99362295D02*
X80723809Y-99362295D01*
X80723809Y-99362295D02*
X80647618Y-99324200D01*
X80647618Y-99324200D02*
X80609523Y-99286104D01*
X81333333Y-98562295D02*
X81600000Y-99362295D01*
X81600000Y-99362295D02*
X81866666Y-98562295D01*
X82057142Y-98562295D02*
X82552380Y-98562295D01*
X82552380Y-98562295D02*
X82285714Y-98867057D01*
X82285714Y-98867057D02*
X82399999Y-98867057D01*
X82399999Y-98867057D02*
X82476190Y-98905152D01*
X82476190Y-98905152D02*
X82514285Y-98943247D01*
X82514285Y-98943247D02*
X82552380Y-99019438D01*
X82552380Y-99019438D02*
X82552380Y-99209914D01*
X82552380Y-99209914D02*
X82514285Y-99286104D01*
X82514285Y-99286104D02*
X82476190Y-99324200D01*
X82476190Y-99324200D02*
X82399999Y-99362295D01*
X82399999Y-99362295D02*
X82171428Y-99362295D01*
X82171428Y-99362295D02*
X82095237Y-99324200D01*
X82095237Y-99324200D02*
X82057142Y-99286104D01*
X61990476Y-121162295D02*
X62447619Y-121162295D01*
X62219047Y-121962295D02*
X62219047Y-121162295D01*
X62714286Y-121962295D02*
X62714286Y-121162295D01*
X62714286Y-121162295D02*
X63019048Y-121162295D01*
X63019048Y-121162295D02*
X63095238Y-121200390D01*
X63095238Y-121200390D02*
X63133333Y-121238485D01*
X63133333Y-121238485D02*
X63171429Y-121314676D01*
X63171429Y-121314676D02*
X63171429Y-121428961D01*
X63171429Y-121428961D02*
X63133333Y-121505152D01*
X63133333Y-121505152D02*
X63095238Y-121543247D01*
X63095238Y-121543247D02*
X63019048Y-121581342D01*
X63019048Y-121581342D02*
X62714286Y-121581342D01*
X63857143Y-121162295D02*
X63704762Y-121162295D01*
X63704762Y-121162295D02*
X63628571Y-121200390D01*
X63628571Y-121200390D02*
X63590476Y-121238485D01*
X63590476Y-121238485D02*
X63514286Y-121352771D01*
X63514286Y-121352771D02*
X63476190Y-121505152D01*
X63476190Y-121505152D02*
X63476190Y-121809914D01*
X63476190Y-121809914D02*
X63514286Y-121886104D01*
X63514286Y-121886104D02*
X63552381Y-121924200D01*
X63552381Y-121924200D02*
X63628571Y-121962295D01*
X63628571Y-121962295D02*
X63780952Y-121962295D01*
X63780952Y-121962295D02*
X63857143Y-121924200D01*
X63857143Y-121924200D02*
X63895238Y-121886104D01*
X63895238Y-121886104D02*
X63933333Y-121809914D01*
X63933333Y-121809914D02*
X63933333Y-121619438D01*
X63933333Y-121619438D02*
X63895238Y-121543247D01*
X63895238Y-121543247D02*
X63857143Y-121505152D01*
X63857143Y-121505152D02*
X63780952Y-121467057D01*
X63780952Y-121467057D02*
X63628571Y-121467057D01*
X63628571Y-121467057D02*
X63552381Y-121505152D01*
X63552381Y-121505152D02*
X63514286Y-121543247D01*
X63514286Y-121543247D02*
X63476190Y-121619438D01*
X62390476Y-117200390D02*
X62314286Y-117162295D01*
X62314286Y-117162295D02*
X62200000Y-117162295D01*
X62200000Y-117162295D02*
X62085714Y-117200390D01*
X62085714Y-117200390D02*
X62009524Y-117276580D01*
X62009524Y-117276580D02*
X61971429Y-117352771D01*
X61971429Y-117352771D02*
X61933333Y-117505152D01*
X61933333Y-117505152D02*
X61933333Y-117619438D01*
X61933333Y-117619438D02*
X61971429Y-117771819D01*
X61971429Y-117771819D02*
X62009524Y-117848009D01*
X62009524Y-117848009D02*
X62085714Y-117924200D01*
X62085714Y-117924200D02*
X62200000Y-117962295D01*
X62200000Y-117962295D02*
X62276191Y-117962295D01*
X62276191Y-117962295D02*
X62390476Y-117924200D01*
X62390476Y-117924200D02*
X62428572Y-117886104D01*
X62428572Y-117886104D02*
X62428572Y-117619438D01*
X62428572Y-117619438D02*
X62276191Y-117619438D01*
X62771429Y-117962295D02*
X62771429Y-117162295D01*
X62771429Y-117162295D02*
X63228572Y-117962295D01*
X63228572Y-117962295D02*
X63228572Y-117162295D01*
X63609524Y-117962295D02*
X63609524Y-117162295D01*
X63609524Y-117162295D02*
X63800000Y-117162295D01*
X63800000Y-117162295D02*
X63914286Y-117200390D01*
X63914286Y-117200390D02*
X63990476Y-117276580D01*
X63990476Y-117276580D02*
X64028571Y-117352771D01*
X64028571Y-117352771D02*
X64066667Y-117505152D01*
X64066667Y-117505152D02*
X64066667Y-117619438D01*
X64066667Y-117619438D02*
X64028571Y-117771819D01*
X64028571Y-117771819D02*
X63990476Y-117848009D01*
X63990476Y-117848009D02*
X63914286Y-117924200D01*
X63914286Y-117924200D02*
X63800000Y-117962295D01*
X63800000Y-117962295D02*
X63609524Y-117962295D01*
X110116667Y-89612295D02*
X109850000Y-89231342D01*
X109659524Y-89612295D02*
X109659524Y-88812295D01*
X109659524Y-88812295D02*
X109964286Y-88812295D01*
X109964286Y-88812295D02*
X110040476Y-88850390D01*
X110040476Y-88850390D02*
X110078571Y-88888485D01*
X110078571Y-88888485D02*
X110116667Y-88964676D01*
X110116667Y-88964676D02*
X110116667Y-89078961D01*
X110116667Y-89078961D02*
X110078571Y-89155152D01*
X110078571Y-89155152D02*
X110040476Y-89193247D01*
X110040476Y-89193247D02*
X109964286Y-89231342D01*
X109964286Y-89231342D02*
X109659524Y-89231342D01*
X110421428Y-88888485D02*
X110459524Y-88850390D01*
X110459524Y-88850390D02*
X110535714Y-88812295D01*
X110535714Y-88812295D02*
X110726190Y-88812295D01*
X110726190Y-88812295D02*
X110802381Y-88850390D01*
X110802381Y-88850390D02*
X110840476Y-88888485D01*
X110840476Y-88888485D02*
X110878571Y-88964676D01*
X110878571Y-88964676D02*
X110878571Y-89040866D01*
X110878571Y-89040866D02*
X110840476Y-89155152D01*
X110840476Y-89155152D02*
X110383333Y-89612295D01*
X110383333Y-89612295D02*
X110878571Y-89612295D01*
D13*
%TO.C,C5*%
X121461252Y-51340000D02*
X120038748Y-51340000D01*
X121461252Y-53160000D02*
X120038748Y-53160000D01*
D12*
%TO.C,J1*%
X69800000Y-80187500D02*
X69800000Y-85437500D01*
X69800000Y-81977500D02*
X99800000Y-81977500D01*
X69800000Y-82827500D02*
X99800000Y-82827500D01*
X72800000Y-80187500D02*
X69800000Y-80187500D01*
X99800000Y-80187500D02*
X97300000Y-80187500D01*
X99800000Y-85437500D02*
X99800000Y-80187500D01*
D13*
%TO.C,R3*%
X114227064Y-69840000D02*
X112772936Y-69840000D01*
X114227064Y-71660000D02*
X112772936Y-71660000D01*
%TO.C,J5*%
D14*
X133770000Y-72000000D02*
X113770000Y-72000000D01*
X113770000Y-88000000D01*
X133770000Y-88000000D01*
X133770000Y-72000000D01*
D13*
%TO.C,F1*%
X73290000Y-94602064D02*
X73290000Y-93397936D01*
X75110000Y-94602064D02*
X75110000Y-93397936D01*
%TO.C,R5*%
X114227064Y-51340000D02*
X112772936Y-51340000D01*
X114227064Y-53160000D02*
X112772936Y-53160000D01*
D14*
%TO.C,SW1*%
X61800000Y-69600000D02*
X61800000Y-68400000D01*
X66000000Y-67400000D02*
X62000000Y-67400000D01*
X66000000Y-70600000D02*
X62000000Y-70600000D01*
X66200000Y-69600000D02*
X66200000Y-68400000D01*
D15*
X64475000Y-69000000D02*
G75*
G02*
X63525000Y-69000000I-475000J0D01*
G01*
X63525000Y-69000000D02*
G75*
G02*
X64475000Y-69000000I475000J0D01*
G01*
D14*
%TO.C,J2*%
X60600000Y-105700000D02*
X60600000Y-114900000D01*
X60600000Y-114900000D02*
X64100000Y-114900000D01*
X64100000Y-105700000D02*
X60600000Y-105700000D01*
D13*
X70600000Y-105700000D02*
X67600000Y-105700000D01*
X70600000Y-114900000D02*
X67600000Y-114900000D01*
X73600000Y-105000000D02*
X75125000Y-105000000D01*
X75125000Y-111900000D02*
X75125000Y-105000000D01*
X75825000Y-111900000D02*
X75125000Y-111900000D01*
X75825000Y-114900000D02*
X73600000Y-114900000D01*
X75825000Y-114900000D02*
X75825000Y-111900000D01*
%TO.C,C3*%
X121461252Y-69840000D02*
X120038748Y-69840000D01*
X121461252Y-71660000D02*
X120038748Y-71660000D01*
%TO.C,J6*%
D14*
X133770000Y-35000000D02*
X113770000Y-35000000D01*
X113770000Y-51000000D01*
X133770000Y-51000000D01*
X133770000Y-35000000D01*
D13*
%TO.C,C2*%
X121461252Y-88340000D02*
X120038748Y-88340000D01*
X121461252Y-90160000D02*
X120038748Y-90160000D01*
%TO.C,J3*%
D14*
X133750000Y-109000000D02*
X113750000Y-109000000D01*
X113750000Y-125000000D01*
X133750000Y-125000000D01*
X133750000Y-109000000D01*
%TO.C,J4*%
X130270000Y-90500000D02*
X110270000Y-90500000D01*
X110270000Y-106500000D01*
X130270000Y-106500000D01*
X130270000Y-90500000D01*
D13*
%TO.C,C1*%
X121461252Y-106840000D02*
X120038748Y-106840000D01*
X121461252Y-108660000D02*
X120038748Y-108660000D01*
D14*
%TO.C,SW3*%
X61800000Y-61600000D02*
X61800000Y-60400000D01*
X66000000Y-59400000D02*
X62000000Y-59400000D01*
X66000000Y-62600000D02*
X62000000Y-62600000D01*
X66200000Y-61600000D02*
X66200000Y-60400000D01*
D15*
X64475000Y-61000000D02*
G75*
G02*
X63525000Y-61000000I-475000J0D01*
G01*
X63525000Y-61000000D02*
G75*
G02*
X64475000Y-61000000I475000J0D01*
G01*
%TO.C,J7*%
D14*
X130270000Y-53500000D02*
X110270000Y-53500000D01*
X110270000Y-69500000D01*
X130270000Y-69500000D01*
X130270000Y-53500000D01*
D13*
%TO.C,C4*%
X121461252Y-32840000D02*
X120038748Y-32840000D01*
X121461252Y-34660000D02*
X120038748Y-34660000D01*
D14*
%TO.C,SW2*%
X61800000Y-77600000D02*
X61800000Y-76400000D01*
X66000000Y-75400000D02*
X62000000Y-75400000D01*
X66000000Y-78600000D02*
X62000000Y-78600000D01*
X66200000Y-77600000D02*
X66200000Y-76400000D01*
D15*
X64475000Y-77000000D02*
G75*
G02*
X63525000Y-77000000I-475000J0D01*
G01*
X63525000Y-77000000D02*
G75*
G02*
X64475000Y-77000000I475000J0D01*
G01*
D13*
%TO.C,J11*%
X66690000Y-121440000D02*
X67710000Y-121440000D01*
X66690000Y-125690000D02*
X66690000Y-121440000D01*
X67710000Y-121440000D02*
X67710000Y-123040000D01*
X67710000Y-123040000D02*
X68990000Y-123040000D01*
X68410000Y-129260000D02*
X83090000Y-129260000D01*
X68990000Y-123040000D02*
X68990000Y-120150000D01*
X83790000Y-121440000D02*
X83790000Y-123040000D01*
X83790000Y-123040000D02*
X82510000Y-123040000D01*
X84810000Y-121440000D02*
X83790000Y-121440000D01*
X84810000Y-125690000D02*
X84810000Y-121440000D01*
%TO.C,J12*%
X85690000Y-121440000D02*
X86710000Y-121440000D01*
X85690000Y-125690000D02*
X85690000Y-121440000D01*
X86710000Y-121440000D02*
X86710000Y-123040000D01*
X86710000Y-123040000D02*
X87990000Y-123040000D01*
X87410000Y-129260000D02*
X102090000Y-129260000D01*
X87990000Y-123040000D02*
X87990000Y-120150000D01*
X102790000Y-121440000D02*
X102790000Y-123040000D01*
X102790000Y-123040000D02*
X101510000Y-123040000D01*
X103810000Y-121440000D02*
X102790000Y-121440000D01*
X103810000Y-125690000D02*
X103810000Y-121440000D01*
%TO.C,R1*%
X114227064Y-106840000D02*
X112772936Y-106840000D01*
X114227064Y-108660000D02*
X112772936Y-108660000D01*
%TO.C,R4*%
X114227064Y-32840000D02*
X112772936Y-32840000D01*
X114227064Y-34660000D02*
X112772936Y-34660000D01*
%TO.C,R2*%
X114227064Y-88340000D02*
X112772936Y-88340000D01*
X114227064Y-90160000D02*
X112772936Y-90160000D01*
%TD*%
%LPC*%
D16*
%TO.C,TP9*%
X64000000Y-89600000D03*
%TD*%
D17*
%TO.C,H3*%
X107500000Y-126500000D03*
%TD*%
D18*
%TO.C,C5*%
X122225000Y-52250000D03*
X119275000Y-52250000D03*
%TD*%
D19*
%TO.C,J1*%
X72300000Y-84687500D03*
D20*
X97300000Y-84687500D03*
D21*
X73000000Y-88787500D03*
X73400000Y-80587500D03*
X73800000Y-88787500D03*
X74200000Y-80587500D03*
X74600000Y-88787500D03*
X75000000Y-80587500D03*
X75400000Y-88787500D03*
X75800000Y-80587500D03*
X76200000Y-88787500D03*
X76600000Y-80587500D03*
X77000000Y-88787500D03*
X77400000Y-80587500D03*
X77800000Y-88787500D03*
X78200000Y-80587500D03*
X78600000Y-88787500D03*
X79000000Y-80587500D03*
X82600000Y-88787500D03*
X83000000Y-80587500D03*
X83400000Y-88787500D03*
X83800000Y-80587500D03*
X84200000Y-88787500D03*
X84600000Y-80587500D03*
X85000000Y-88787500D03*
X85400000Y-80587500D03*
X85800000Y-88787500D03*
X86200000Y-80587500D03*
X86600000Y-88787500D03*
X87000000Y-80587500D03*
X87400000Y-88787500D03*
X87800000Y-80587500D03*
X88200000Y-88787500D03*
X88600000Y-80587500D03*
X89000000Y-88787500D03*
X89400000Y-80587500D03*
X89800000Y-88787500D03*
X90200000Y-80587500D03*
X90600000Y-88787500D03*
X91000000Y-80587500D03*
X91400000Y-88787500D03*
X91800000Y-80587500D03*
X92200000Y-88787500D03*
X92600000Y-80587500D03*
X93000000Y-88787500D03*
X93400000Y-80587500D03*
X93800000Y-88787500D03*
X94200000Y-80587500D03*
X94600000Y-88787500D03*
X95000000Y-80587500D03*
X95400000Y-88787500D03*
X95800000Y-80587500D03*
X96200000Y-88787500D03*
X96600000Y-80587500D03*
D22*
X70150000Y-87862500D03*
D23*
X99425000Y-87862500D03*
D24*
X96900000Y-36637500D03*
X72700000Y-36637500D03*
%TD*%
D25*
%TO.C,R3*%
X114962500Y-70750000D03*
X112037500Y-70750000D03*
%TD*%
D26*
%TO.C,J5*%
X125240000Y-74285000D03*
X125240000Y-85715000D03*
D27*
X113770000Y-84445000D03*
X113770000Y-83175000D03*
X113770000Y-81905000D03*
X113770000Y-80635000D03*
X113770000Y-79365000D03*
X113770000Y-78095000D03*
X113770000Y-76825000D03*
X113770000Y-75555000D03*
D28*
X128290000Y-71825000D03*
X128290000Y-88175000D03*
%TD*%
D29*
%TO.C,F1*%
X74200000Y-95400000D03*
X74200000Y-92600000D03*
%TD*%
D25*
%TO.C,R5*%
X114962500Y-52250000D03*
X112037500Y-52250000D03*
%TD*%
D16*
%TO.C,TP5*%
X88900000Y-105000000D03*
%TD*%
D24*
%TO.C,J13*%
X96900000Y-36637500D03*
%TD*%
D16*
%TO.C,TP2*%
X69700000Y-93100000D03*
%TD*%
D30*
%TO.C,SW1*%
X66075000Y-70075000D03*
X61925000Y-70075000D03*
X66075000Y-67925000D03*
X61925000Y-67925000D03*
%TD*%
D31*
%TO.C,J2*%
X70525000Y-110300000D03*
D19*
X66025000Y-110300000D03*
D32*
X72125000Y-104600000D03*
X66025000Y-104600000D03*
X66025000Y-116000000D03*
X72125000Y-116000000D03*
%TD*%
D18*
%TO.C,C3*%
X122225000Y-70750000D03*
X119275000Y-70750000D03*
%TD*%
D26*
%TO.C,J6*%
X125240000Y-37285000D03*
X125240000Y-48715000D03*
D27*
X113770000Y-47445000D03*
X113770000Y-46175000D03*
X113770000Y-44905000D03*
X113770000Y-43635000D03*
X113770000Y-42365000D03*
X113770000Y-41095000D03*
X113770000Y-39825000D03*
X113770000Y-38555000D03*
D28*
X128290000Y-34825000D03*
X128290000Y-51175000D03*
%TD*%
D18*
%TO.C,C2*%
X122225000Y-89250000D03*
X119275000Y-89250000D03*
%TD*%
D26*
%TO.C,J3*%
X125220000Y-111285000D03*
X125220000Y-122715000D03*
D27*
X113750000Y-121445000D03*
X113750000Y-120175000D03*
X113750000Y-118905000D03*
X113750000Y-117635000D03*
X113750000Y-116365000D03*
X113750000Y-115095000D03*
X113750000Y-113825000D03*
X113750000Y-112555000D03*
D28*
X128270000Y-108825000D03*
X128270000Y-125175000D03*
%TD*%
D26*
%TO.C,J4*%
X121740000Y-92785000D03*
X121740000Y-104215000D03*
D27*
X110270000Y-102945000D03*
X110270000Y-101675000D03*
X110270000Y-100405000D03*
X110270000Y-99135000D03*
X110270000Y-97865000D03*
X110270000Y-96595000D03*
X110270000Y-95325000D03*
X110270000Y-94055000D03*
D28*
X124790000Y-90325000D03*
X124790000Y-106675000D03*
%TD*%
D18*
%TO.C,C1*%
X122225000Y-107750000D03*
X119275000Y-107750000D03*
%TD*%
D16*
%TO.C,TP1*%
X64000000Y-83600000D03*
%TD*%
D30*
%TO.C,SW3*%
X66075000Y-62075000D03*
X61925000Y-62075000D03*
X66075000Y-59925000D03*
X61925000Y-59925000D03*
%TD*%
D17*
%TO.C,H4*%
X63000000Y-127000000D03*
%TD*%
D26*
%TO.C,J7*%
X121740000Y-55785000D03*
X121740000Y-67215000D03*
D27*
X110270000Y-65945000D03*
X110270000Y-64675000D03*
X110270000Y-63405000D03*
X110270000Y-62135000D03*
X110270000Y-60865000D03*
X110270000Y-59595000D03*
X110270000Y-58325000D03*
X110270000Y-57055000D03*
D28*
X124790000Y-53325000D03*
X124790000Y-69675000D03*
%TD*%
D18*
%TO.C,C4*%
X122225000Y-33750000D03*
X119275000Y-33750000D03*
%TD*%
D16*
%TO.C,TP7*%
X69700000Y-99000000D03*
%TD*%
D30*
%TO.C,SW2*%
X66075000Y-78075000D03*
X61925000Y-78075000D03*
X66075000Y-75925000D03*
X61925000Y-75925000D03*
%TD*%
D33*
%TO.C,J11*%
X69750000Y-121900000D03*
X71750000Y-121900000D03*
X73750000Y-121900000D03*
X75750000Y-121900000D03*
X77750000Y-121900000D03*
X79750000Y-121900000D03*
X81750000Y-121900000D03*
D34*
X67400000Y-127650000D03*
X84100000Y-127650000D03*
%TD*%
D33*
%TO.C,J12*%
X88750000Y-121900000D03*
X90750000Y-121900000D03*
X92750000Y-121900000D03*
X94750000Y-121900000D03*
X96750000Y-121900000D03*
X98750000Y-121900000D03*
X100750000Y-121900000D03*
D34*
X86400000Y-127650000D03*
X103100000Y-127650000D03*
%TD*%
D24*
%TO.C,J10*%
X72700000Y-36637500D03*
%TD*%
D17*
%TO.C,H2*%
X104500000Y-33000000D03*
%TD*%
D25*
%TO.C,R1*%
X114962500Y-107750000D03*
X112037500Y-107750000D03*
%TD*%
D16*
%TO.C,TP3*%
X81600000Y-109000000D03*
%TD*%
D25*
%TO.C,R4*%
X114962500Y-33750000D03*
X112037500Y-33750000D03*
%TD*%
D17*
%TO.C,H1*%
X63000000Y-33000000D03*
%TD*%
D16*
%TO.C,TP4*%
X81600000Y-101000000D03*
%TD*%
%TO.C,TP6*%
X63000000Y-119600000D03*
%TD*%
D25*
%TO.C,R2*%
X114962500Y-89250000D03*
X112037500Y-89250000D03*
%TD*%
%LPD*%
M02*
