%TF.GenerationSoftware,KiCad,Pcbnew,8.0.6*%
%TF.CreationDate,2024-10-26T18:15:51+02:00*%
%TF.ProjectId,megacard5_reference_design,6d656761-6361-4726-9435-5f7265666572,1.0*%
%TF.SameCoordinates,Original*%
%TF.FileFunction,Soldermask,Top*%
%TF.FilePolarity,Negative*%
%FSLAX46Y46*%
G04 Gerber Fmt 4.6, Leading zero omitted, Abs format (unit mm)*
G04 Created by KiCad (PCBNEW 8.0.6) date 2024-10-26 18:15:51*
%MOMM*%
%LPD*%
G01*
G04 APERTURE LIST*
G04 Aperture macros list*
%AMRoundRect*
0 Rectangle with rounded corners*
0 $1 Rounding radius*
0 $2 $3 $4 $5 $6 $7 $8 $9 X,Y pos of 4 corners*
0 Add a 4 corners polygon primitive as box body*
4,1,4,$2,$3,$4,$5,$6,$7,$8,$9,$2,$3,0*
0 Add four circle primitives for the rounded corners*
1,1,$1+$1,$2,$3*
1,1,$1+$1,$4,$5*
1,1,$1+$1,$6,$7*
1,1,$1+$1,$8,$9*
0 Add four rect primitives between the rounded corners*
20,1,$1+$1,$2,$3,$4,$5,0*
20,1,$1+$1,$4,$5,$6,$7,0*
20,1,$1+$1,$6,$7,$8,$9,0*
20,1,$1+$1,$8,$9,$2,$3,0*%
G04 Aperture macros list end*
%ADD10RoundRect,0.550000X1.450000X0.550000X-1.450000X0.550000X-1.450000X-0.550000X1.450000X-0.550000X0*%
%ADD11C,3.200000*%
%ADD12RoundRect,0.250000X0.325000X0.650000X-0.325000X0.650000X-0.325000X-0.650000X0.325000X-0.650000X0*%
%ADD13C,1.600000*%
%ADD14C,1.100000*%
%ADD15R,0.600000X2.000000*%
%ADD16R,2.300000X3.850000*%
%ADD17R,2.250000X3.850000*%
%ADD18C,6.500000*%
%ADD19RoundRect,0.250000X0.312500X0.625000X-0.312500X0.625000X-0.312500X-0.625000X0.312500X-0.625000X0*%
%ADD20C,3.250000*%
%ADD21R,3.180000X0.760000*%
%ADD22R,2.540000X3.120000*%
%ADD23RoundRect,0.250000X0.625000X-0.375000X0.625000X0.375000X-0.625000X0.375000X-0.625000X-0.375000X0*%
%ADD24R,1.050000X0.650000*%
%ADD25C,1.800000*%
%ADD26RoundRect,0.300000X-1.100000X0.900000X-1.100000X-0.900000X1.100000X-0.900000X1.100000X0.900000X0*%
%ADD27RoundRect,0.250000X-0.250000X-1.500000X0.250000X-1.500000X0.250000X1.500000X-0.250000X1.500000X0*%
%ADD28RoundRect,0.250001X-0.499999X-1.449999X0.499999X-1.449999X0.499999X1.449999X-0.499999X1.449999X0*%
G04 APERTURE END LIST*
D10*
%TO.C,TP9*%
X64000000Y-89600000D03*
%TD*%
D11*
%TO.C,H3*%
X107500000Y-126500000D03*
%TD*%
D12*
%TO.C,C5*%
X122225000Y-52250000D03*
X119275000Y-52250000D03*
%TD*%
D13*
%TO.C,J1*%
X72300000Y-84687500D03*
D14*
X97300000Y-84687500D03*
D15*
X73000000Y-88787500D03*
X73400000Y-80587500D03*
X73800000Y-88787500D03*
X74200000Y-80587500D03*
X74600000Y-88787500D03*
X75000000Y-80587500D03*
X75400000Y-88787500D03*
X75800000Y-80587500D03*
X76200000Y-88787500D03*
X76600000Y-80587500D03*
X77000000Y-88787500D03*
X77400000Y-80587500D03*
X77800000Y-88787500D03*
X78200000Y-80587500D03*
X78600000Y-88787500D03*
X79000000Y-80587500D03*
X82600000Y-88787500D03*
X83000000Y-80587500D03*
X83400000Y-88787500D03*
X83800000Y-80587500D03*
X84200000Y-88787500D03*
X84600000Y-80587500D03*
X85000000Y-88787500D03*
X85400000Y-80587500D03*
X85800000Y-88787500D03*
X86200000Y-80587500D03*
X86600000Y-88787500D03*
X87000000Y-80587500D03*
X87400000Y-88787500D03*
X87800000Y-80587500D03*
X88200000Y-88787500D03*
X88600000Y-80587500D03*
X89000000Y-88787500D03*
X89400000Y-80587500D03*
X89800000Y-88787500D03*
X90200000Y-80587500D03*
X90600000Y-88787500D03*
X91000000Y-80587500D03*
X91400000Y-88787500D03*
X91800000Y-80587500D03*
X92200000Y-88787500D03*
X92600000Y-80587500D03*
X93000000Y-88787500D03*
X93400000Y-80587500D03*
X93800000Y-88787500D03*
X94200000Y-80587500D03*
X94600000Y-88787500D03*
X95000000Y-80587500D03*
X95400000Y-88787500D03*
X95800000Y-80587500D03*
X96200000Y-88787500D03*
X96600000Y-80587500D03*
D16*
X70150000Y-87862500D03*
D17*
X99425000Y-87862500D03*
D18*
X96900000Y-36637500D03*
X72700000Y-36637500D03*
%TD*%
D19*
%TO.C,R3*%
X114962500Y-70750000D03*
X112037500Y-70750000D03*
%TD*%
D20*
%TO.C,J5*%
X125240000Y-74285000D03*
X125240000Y-85715000D03*
D21*
X113770000Y-84445000D03*
X113770000Y-83175000D03*
X113770000Y-81905000D03*
X113770000Y-80635000D03*
X113770000Y-79365000D03*
X113770000Y-78095000D03*
X113770000Y-76825000D03*
X113770000Y-75555000D03*
D22*
X128290000Y-71825000D03*
X128290000Y-88175000D03*
%TD*%
D23*
%TO.C,F1*%
X74200000Y-95400000D03*
X74200000Y-92600000D03*
%TD*%
D19*
%TO.C,R5*%
X114962500Y-52250000D03*
X112037500Y-52250000D03*
%TD*%
D10*
%TO.C,TP5*%
X88900000Y-105000000D03*
%TD*%
D18*
%TO.C,J13*%
X96900000Y-36637500D03*
%TD*%
D10*
%TO.C,TP2*%
X69700000Y-93100000D03*
%TD*%
D24*
%TO.C,SW1*%
X66075000Y-70075000D03*
X61925000Y-70075000D03*
X66075000Y-67925000D03*
X61925000Y-67925000D03*
%TD*%
D25*
%TO.C,J2*%
X70525000Y-110300000D03*
D13*
X66025000Y-110300000D03*
D26*
X72125000Y-104600000D03*
X66025000Y-104600000D03*
X66025000Y-116000000D03*
X72125000Y-116000000D03*
%TD*%
D12*
%TO.C,C3*%
X122225000Y-70750000D03*
X119275000Y-70750000D03*
%TD*%
D20*
%TO.C,J6*%
X125240000Y-37285000D03*
X125240000Y-48715000D03*
D21*
X113770000Y-47445000D03*
X113770000Y-46175000D03*
X113770000Y-44905000D03*
X113770000Y-43635000D03*
X113770000Y-42365000D03*
X113770000Y-41095000D03*
X113770000Y-39825000D03*
X113770000Y-38555000D03*
D22*
X128290000Y-34825000D03*
X128290000Y-51175000D03*
%TD*%
D12*
%TO.C,C2*%
X122225000Y-89250000D03*
X119275000Y-89250000D03*
%TD*%
D20*
%TO.C,J3*%
X125220000Y-111285000D03*
X125220000Y-122715000D03*
D21*
X113750000Y-121445000D03*
X113750000Y-120175000D03*
X113750000Y-118905000D03*
X113750000Y-117635000D03*
X113750000Y-116365000D03*
X113750000Y-115095000D03*
X113750000Y-113825000D03*
X113750000Y-112555000D03*
D22*
X128270000Y-108825000D03*
X128270000Y-125175000D03*
%TD*%
D20*
%TO.C,J4*%
X121740000Y-92785000D03*
X121740000Y-104215000D03*
D21*
X110270000Y-102945000D03*
X110270000Y-101675000D03*
X110270000Y-100405000D03*
X110270000Y-99135000D03*
X110270000Y-97865000D03*
X110270000Y-96595000D03*
X110270000Y-95325000D03*
X110270000Y-94055000D03*
D22*
X124790000Y-90325000D03*
X124790000Y-106675000D03*
%TD*%
D12*
%TO.C,C1*%
X122225000Y-107750000D03*
X119275000Y-107750000D03*
%TD*%
D10*
%TO.C,TP1*%
X64000000Y-83600000D03*
%TD*%
D24*
%TO.C,SW3*%
X66075000Y-62075000D03*
X61925000Y-62075000D03*
X66075000Y-59925000D03*
X61925000Y-59925000D03*
%TD*%
D11*
%TO.C,H4*%
X63000000Y-127000000D03*
%TD*%
D20*
%TO.C,J7*%
X121740000Y-55785000D03*
X121740000Y-67215000D03*
D21*
X110270000Y-65945000D03*
X110270000Y-64675000D03*
X110270000Y-63405000D03*
X110270000Y-62135000D03*
X110270000Y-60865000D03*
X110270000Y-59595000D03*
X110270000Y-58325000D03*
X110270000Y-57055000D03*
D22*
X124790000Y-53325000D03*
X124790000Y-69675000D03*
%TD*%
D12*
%TO.C,C4*%
X122225000Y-33750000D03*
X119275000Y-33750000D03*
%TD*%
D10*
%TO.C,TP7*%
X69700000Y-99000000D03*
%TD*%
D24*
%TO.C,SW2*%
X66075000Y-78075000D03*
X61925000Y-78075000D03*
X66075000Y-75925000D03*
X61925000Y-75925000D03*
%TD*%
D27*
%TO.C,J11*%
X69750000Y-121900000D03*
X71750000Y-121900000D03*
X73750000Y-121900000D03*
X75750000Y-121900000D03*
X77750000Y-121900000D03*
X79750000Y-121900000D03*
X81750000Y-121900000D03*
D28*
X67400000Y-127650000D03*
X84100000Y-127650000D03*
%TD*%
D27*
%TO.C,J12*%
X88750000Y-121900000D03*
X90750000Y-121900000D03*
X92750000Y-121900000D03*
X94750000Y-121900000D03*
X96750000Y-121900000D03*
X98750000Y-121900000D03*
X100750000Y-121900000D03*
D28*
X86400000Y-127650000D03*
X103100000Y-127650000D03*
%TD*%
D18*
%TO.C,J10*%
X72700000Y-36637500D03*
%TD*%
D11*
%TO.C,H2*%
X104500000Y-33000000D03*
%TD*%
D19*
%TO.C,R1*%
X114962500Y-107750000D03*
X112037500Y-107750000D03*
%TD*%
D10*
%TO.C,TP3*%
X81600000Y-109000000D03*
%TD*%
D19*
%TO.C,R4*%
X114962500Y-33750000D03*
X112037500Y-33750000D03*
%TD*%
D11*
%TO.C,H1*%
X63000000Y-33000000D03*
%TD*%
D10*
%TO.C,TP4*%
X81600000Y-101000000D03*
%TD*%
%TO.C,TP6*%
X63000000Y-119600000D03*
%TD*%
D19*
%TO.C,R2*%
X114962500Y-89250000D03*
X112037500Y-89250000D03*
%TD*%
M02*
