%TF.GenerationSoftware,KiCad,Pcbnew,8.0.6*%
%TF.CreationDate,2024-10-26T18:15:51+02:00*%
%TF.ProjectId,megacard5_reference_design,6d656761-6361-4726-9435-5f7265666572,1.0*%
%TF.SameCoordinates,Original*%
%TF.FileFunction,Copper,L1,Top*%
%TF.FilePolarity,Positive*%
%FSLAX46Y46*%
G04 Gerber Fmt 4.6, Leading zero omitted, Abs format (unit mm)*
G04 Created by KiCad (PCBNEW 8.0.6) date 2024-10-26 18:15:51*
%MOMM*%
%LPD*%
G01*
G04 APERTURE LIST*
G04 Aperture macros list*
%AMRoundRect*
0 Rectangle with rounded corners*
0 $1 Rounding radius*
0 $2 $3 $4 $5 $6 $7 $8 $9 X,Y pos of 4 corners*
0 Add a 4 corners polygon primitive as box body*
4,1,4,$2,$3,$4,$5,$6,$7,$8,$9,$2,$3,0*
0 Add four circle primitives for the rounded corners*
1,1,$1+$1,$2,$3*
1,1,$1+$1,$4,$5*
1,1,$1+$1,$6,$7*
1,1,$1+$1,$8,$9*
0 Add four rect primitives between the rounded corners*
20,1,$1+$1,$2,$3,$4,$5,0*
20,1,$1+$1,$4,$5,$6,$7,0*
20,1,$1+$1,$6,$7,$8,$9,0*
20,1,$1+$1,$8,$9,$2,$3,0*%
G04 Aperture macros list end*
%TA.AperFunction,SMDPad,CuDef*%
%ADD10RoundRect,0.550000X1.450000X0.550000X-1.450000X0.550000X-1.450000X-0.550000X1.450000X-0.550000X0*%
%TD*%
%TA.AperFunction,SMDPad,CuDef*%
%ADD11RoundRect,0.250000X0.325000X0.650000X-0.325000X0.650000X-0.325000X-0.650000X0.325000X-0.650000X0*%
%TD*%
%TA.AperFunction,SMDPad,CuDef*%
%ADD12R,0.600000X2.000000*%
%TD*%
%TA.AperFunction,SMDPad,CuDef*%
%ADD13R,2.300000X3.850000*%
%TD*%
%TA.AperFunction,SMDPad,CuDef*%
%ADD14R,2.250000X3.850000*%
%TD*%
%TA.AperFunction,ComponentPad*%
%ADD15C,6.500000*%
%TD*%
%TA.AperFunction,SMDPad,CuDef*%
%ADD16RoundRect,0.250000X0.312500X0.625000X-0.312500X0.625000X-0.312500X-0.625000X0.312500X-0.625000X0*%
%TD*%
%TA.AperFunction,SMDPad,CuDef*%
%ADD17R,3.180000X0.760000*%
%TD*%
%TA.AperFunction,SMDPad,CuDef*%
%ADD18R,2.540000X3.120000*%
%TD*%
%TA.AperFunction,SMDPad,CuDef*%
%ADD19RoundRect,0.250000X0.625000X-0.375000X0.625000X0.375000X-0.625000X0.375000X-0.625000X-0.375000X0*%
%TD*%
%TA.AperFunction,SMDPad,CuDef*%
%ADD20R,1.050000X0.650000*%
%TD*%
%TA.AperFunction,SMDPad,CuDef*%
%ADD21RoundRect,0.300000X-1.100000X0.900000X-1.100000X-0.900000X1.100000X-0.900000X1.100000X0.900000X0*%
%TD*%
%TA.AperFunction,SMDPad,CuDef*%
%ADD22RoundRect,0.250000X-0.250000X-1.500000X0.250000X-1.500000X0.250000X1.500000X-0.250000X1.500000X0*%
%TD*%
%TA.AperFunction,SMDPad,CuDef*%
%ADD23RoundRect,0.250001X-0.499999X-1.449999X0.499999X-1.449999X0.499999X1.449999X-0.499999X1.449999X0*%
%TD*%
%TA.AperFunction,ViaPad*%
%ADD24C,0.450000*%
%TD*%
%TA.AperFunction,Conductor*%
%ADD25C,0.127000*%
%TD*%
%TA.AperFunction,Conductor*%
%ADD26C,0.600000*%
%TD*%
%TA.AperFunction,Conductor*%
%ADD27C,1.000000*%
%TD*%
%TA.AperFunction,Conductor*%
%ADD28C,0.128800*%
%TD*%
%TA.AperFunction,Conductor*%
%ADD29C,0.800000*%
%TD*%
%TA.AperFunction,Conductor*%
%ADD30C,2.000000*%
%TD*%
G04 APERTURE END LIST*
D10*
%TO.P,TP9,1,1*%
%TO.N,/~{EXT_RESET}*%
X64000000Y-89600000D03*
%TD*%
D11*
%TO.P,C5,1*%
%TO.N,Net-(C5-Pad1)*%
X122225000Y-52250000D03*
%TO.P,C5,2*%
%TO.N,GND*%
X119275000Y-52250000D03*
%TD*%
D12*
%TO.P,J1,1,GND*%
%TO.N,GND*%
X73000000Y-88787500D03*
%TO.P,J1,2,GND*%
X73400000Y-80587500D03*
%TO.P,J1,3,PWR_IN*%
%TO.N,VCC*%
X73800000Y-88787500D03*
%TO.P,J1,4,~{RESET}*%
%TO.N,/~{EXT_RESET}*%
X74200000Y-80587500D03*
%TO.P,J1,5,PWR_IN*%
%TO.N,VCC*%
X74600000Y-88787500D03*
%TO.P,J1,6,~{POWER_OFF}*%
%TO.N,/~{POWER_OFF}*%
X75000000Y-80587500D03*
%TO.P,J1,7,GND*%
%TO.N,GND*%
X75400000Y-88787500D03*
%TO.P,J1,8,GND*%
X75800000Y-80587500D03*
%TO.P,J1,9,5V_OUT*%
%TO.N,+5V*%
X76200000Y-88787500D03*
%TO.P,J1,10,RESERVED*%
%TO.N,/AFT*%
X76600000Y-80587500D03*
%TO.P,J1,11,5V_OUT*%
%TO.N,+5V*%
X77000000Y-88787500D03*
%TO.P,J1,12,SCL/MDC*%
%TO.N,/SCL{slash}MDC*%
X77400000Y-80587500D03*
%TO.P,J1,13,3.3V_OUT*%
%TO.N,+3.3V*%
X77800000Y-88787500D03*
%TO.P,J1,14,SDA/MDIO*%
%TO.N,/SDA{slash}MDIO*%
X78200000Y-80587500D03*
%TO.P,J1,15,GND*%
%TO.N,GND*%
X78600000Y-88787500D03*
%TO.P,J1,16,GND*%
X79000000Y-80587500D03*
%TO.P,J1,17,RESERVED*%
%TO.N,/DBG_SWDIO*%
X82600000Y-88787500D03*
%TO.P,J1,18,RESERVED*%
%TO.N,/GPIO0*%
X83000000Y-80587500D03*
%TO.P,J1,19,RESERVED*%
%TO.N,/DBG_SWCLK*%
X83400000Y-88787500D03*
%TO.P,J1,20,RESERVED*%
%TO.N,/GPIO1*%
X83800000Y-80587500D03*
%TO.P,J1,21,GND*%
%TO.N,GND*%
X84200000Y-88787500D03*
%TO.P,J1,22,GND*%
X84600000Y-80587500D03*
%TO.P,J1,23,P0_RX+*%
%TO.N,/P0_RX+*%
X85000000Y-88787500D03*
%TO.P,J1,24,P3_RX+*%
%TO.N,/P3_RX+*%
X85400000Y-80587500D03*
%TO.P,J1,25,P0_RX-*%
%TO.N,/P0_RX-*%
X85800000Y-88787500D03*
%TO.P,J1,26,P3_RX-*%
%TO.N,/P3_RX-*%
X86200000Y-80587500D03*
%TO.P,J1,27,GND*%
%TO.N,GND*%
X86600000Y-88787500D03*
%TO.P,J1,28,GND*%
X87000000Y-80587500D03*
%TO.P,J1,29,P0_TX+*%
%TO.N,/P0_TX+*%
X87400000Y-88787500D03*
%TO.P,J1,30,P3_TX+*%
%TO.N,/P3_TX+*%
X87800000Y-80587500D03*
%TO.P,J1,31,P0_TX-*%
%TO.N,/P0_TX-*%
X88200000Y-88787500D03*
%TO.P,J1,32,P3_TX-*%
%TO.N,/P3_TX-*%
X88600000Y-80587500D03*
%TO.P,J1,33,GND*%
%TO.N,GND*%
X89000000Y-88787500D03*
%TO.P,J1,34,GND*%
X89400000Y-80587500D03*
%TO.P,J1,35,P1_RX+*%
%TO.N,/P1_RX+*%
X89800000Y-88787500D03*
%TO.P,J1,36,P4_RX+*%
%TO.N,/P4_RX+*%
X90200000Y-80587500D03*
%TO.P,J1,37,P1_RX-*%
%TO.N,/P1_RX-*%
X90600000Y-88787500D03*
%TO.P,J1,38,P4_RX-*%
%TO.N,/P4_RX-*%
X91000000Y-80587500D03*
%TO.P,J1,39,GND*%
%TO.N,GND*%
X91400000Y-88787500D03*
%TO.P,J1,40,GND*%
X91800000Y-80587500D03*
%TO.P,J1,41,P1_TX+*%
%TO.N,/P1_TX+*%
X92200000Y-88787500D03*
%TO.P,J1,42,P4_TX+*%
%TO.N,/P4_TX+*%
X92600000Y-80587500D03*
%TO.P,J1,43,P1_TX-*%
%TO.N,/P1_TX-*%
X93000000Y-88787500D03*
%TO.P,J1,44,P4_TX-*%
%TO.N,/P4_TX-*%
X93400000Y-80587500D03*
%TO.P,J1,45,GND*%
%TO.N,GND*%
X93800000Y-88787500D03*
%TO.P,J1,46,GND*%
X94200000Y-80587500D03*
%TO.P,J1,47,P2_RX+*%
%TO.N,/P2_RX+*%
X94600000Y-88787500D03*
%TO.P,J1,48,P2_TX+*%
%TO.N,/P2_TX+*%
X95000000Y-80587500D03*
%TO.P,J1,49,P2_RX-*%
%TO.N,/P2_RX-*%
X95400000Y-88787500D03*
%TO.P,J1,50,P2_TX-*%
%TO.N,/P2_TX-*%
X95800000Y-80587500D03*
%TO.P,J1,51,GND*%
%TO.N,GND*%
X96200000Y-88787500D03*
%TO.P,J1,52,GND*%
X96600000Y-80587500D03*
D13*
%TO.P,J1,P1*%
%TO.N,N/C*%
X70150000Y-87862500D03*
D14*
%TO.P,J1,P2*%
X99425000Y-87862500D03*
D15*
%TO.P,J1,P3*%
X96900000Y-36637500D03*
%TO.P,J1,P4*%
X72700000Y-36637500D03*
%TD*%
D16*
%TO.P,R3,1*%
%TO.N,Net-(C3-Pad1)*%
X114962500Y-70750000D03*
%TO.P,R3,2*%
%TO.N,GND*%
X112037500Y-70750000D03*
%TD*%
D17*
%TO.P,J5,1*%
%TO.N,/P2_TX+*%
X113770000Y-84445000D03*
%TO.P,J5,2*%
%TO.N,/P2_TX-*%
X113770000Y-83175000D03*
%TO.P,J5,3*%
%TO.N,/P2_RX+*%
X113770000Y-81905000D03*
%TO.P,J5,4*%
%TO.N,unconnected-(J5-Pad4)*%
X113770000Y-80635000D03*
%TO.P,J5,5*%
%TO.N,unconnected-(J5-Pad5)*%
X113770000Y-79365000D03*
%TO.P,J5,6*%
%TO.N,/P2_RX-*%
X113770000Y-78095000D03*
%TO.P,J5,7*%
%TO.N,unconnected-(J5-Pad7)*%
X113770000Y-76825000D03*
%TO.P,J5,8*%
%TO.N,unconnected-(J5-Pad8)*%
X113770000Y-75555000D03*
D18*
%TO.P,J5,SH*%
%TO.N,Net-(C3-Pad1)*%
X128290000Y-71825000D03*
X128290000Y-88175000D03*
%TD*%
D19*
%TO.P,F1,1*%
%TO.N,VIN*%
X74200000Y-95400000D03*
%TO.P,F1,2*%
%TO.N,VCC*%
X74200000Y-92600000D03*
%TD*%
D16*
%TO.P,R5,1*%
%TO.N,Net-(C5-Pad1)*%
X114962500Y-52250000D03*
%TO.P,R5,2*%
%TO.N,GND*%
X112037500Y-52250000D03*
%TD*%
D10*
%TO.P,TP5,1,1*%
%TO.N,GND*%
X88900000Y-105000000D03*
%TD*%
D15*
%TO.P,J13,1*%
%TO.N,N/C*%
X96900000Y-36637500D03*
%TD*%
D10*
%TO.P,TP2,1,1*%
%TO.N,VCC*%
X69700000Y-93100000D03*
%TD*%
D20*
%TO.P,SW1,1*%
%TO.N,GND*%
X66075000Y-70075000D03*
X61925000Y-70075000D03*
%TO.P,SW1,2*%
%TO.N,/~{POWER_OFF}*%
X66075000Y-67925000D03*
X61925000Y-67925000D03*
%TD*%
D21*
%TO.P,J2,1*%
%TO.N,VIN*%
X72125000Y-104600000D03*
X66025000Y-104600000D03*
%TO.P,J2,2*%
%TO.N,GND*%
X66025000Y-116000000D03*
%TO.P,J2,3*%
%TO.N,unconnected-(J2-Pad3)*%
X72125000Y-116000000D03*
%TD*%
D11*
%TO.P,C3,1*%
%TO.N,Net-(C3-Pad1)*%
X122225000Y-70750000D03*
%TO.P,C3,2*%
%TO.N,GND*%
X119275000Y-70750000D03*
%TD*%
D17*
%TO.P,J6,1*%
%TO.N,/P3_TX+*%
X113770000Y-47445000D03*
%TO.P,J6,2*%
%TO.N,/P3_TX-*%
X113770000Y-46175000D03*
%TO.P,J6,3*%
%TO.N,/P3_RX+*%
X113770000Y-44905000D03*
%TO.P,J6,4*%
%TO.N,unconnected-(J6-Pad4)*%
X113770000Y-43635000D03*
%TO.P,J6,5*%
%TO.N,unconnected-(J6-Pad5)*%
X113770000Y-42365000D03*
%TO.P,J6,6*%
%TO.N,/P3_RX-*%
X113770000Y-41095000D03*
%TO.P,J6,7*%
%TO.N,unconnected-(J6-Pad7)*%
X113770000Y-39825000D03*
%TO.P,J6,8*%
%TO.N,unconnected-(J6-Pad8)*%
X113770000Y-38555000D03*
D18*
%TO.P,J6,SH*%
%TO.N,Net-(C4-Pad1)*%
X128290000Y-34825000D03*
X128290000Y-51175000D03*
%TD*%
D11*
%TO.P,C2,1*%
%TO.N,Net-(C2-Pad1)*%
X122225000Y-89250000D03*
%TO.P,C2,2*%
%TO.N,GND*%
X119275000Y-89250000D03*
%TD*%
D17*
%TO.P,J3,1*%
%TO.N,/P0_TX+*%
X113750000Y-121445000D03*
%TO.P,J3,2*%
%TO.N,/P0_TX-*%
X113750000Y-120175000D03*
%TO.P,J3,3*%
%TO.N,/P0_RX+*%
X113750000Y-118905000D03*
%TO.P,J3,4*%
%TO.N,unconnected-(J3-Pad4)*%
X113750000Y-117635000D03*
%TO.P,J3,5*%
%TO.N,unconnected-(J3-Pad5)*%
X113750000Y-116365000D03*
%TO.P,J3,6*%
%TO.N,/P0_RX-*%
X113750000Y-115095000D03*
%TO.P,J3,7*%
%TO.N,unconnected-(J3-Pad7)*%
X113750000Y-113825000D03*
%TO.P,J3,8*%
%TO.N,unconnected-(J3-Pad8)*%
X113750000Y-112555000D03*
D18*
%TO.P,J3,SH*%
%TO.N,Net-(C1-Pad1)*%
X128270000Y-108825000D03*
X128270000Y-125175000D03*
%TD*%
D17*
%TO.P,J4,1*%
%TO.N,/P1_TX+*%
X110270000Y-102945000D03*
%TO.P,J4,2*%
%TO.N,/P1_TX-*%
X110270000Y-101675000D03*
%TO.P,J4,3*%
%TO.N,/P1_RX+*%
X110270000Y-100405000D03*
%TO.P,J4,4*%
%TO.N,unconnected-(J4-Pad4)*%
X110270000Y-99135000D03*
%TO.P,J4,5*%
%TO.N,unconnected-(J4-Pad5)*%
X110270000Y-97865000D03*
%TO.P,J4,6*%
%TO.N,/P1_RX-*%
X110270000Y-96595000D03*
%TO.P,J4,7*%
%TO.N,unconnected-(J4-Pad7)*%
X110270000Y-95325000D03*
%TO.P,J4,8*%
%TO.N,unconnected-(J4-Pad8)*%
X110270000Y-94055000D03*
D18*
%TO.P,J4,SH*%
%TO.N,Net-(C2-Pad1)*%
X124790000Y-90325000D03*
X124790000Y-106675000D03*
%TD*%
D11*
%TO.P,C1,1*%
%TO.N,Net-(C1-Pad1)*%
X122225000Y-107750000D03*
%TO.P,C1,2*%
%TO.N,GND*%
X119275000Y-107750000D03*
%TD*%
D10*
%TO.P,TP1,1,1*%
%TO.N,/~{POWER_OFF}*%
X64000000Y-83600000D03*
%TD*%
D20*
%TO.P,SW3,1*%
%TO.N,+3.3V*%
X66075000Y-62075000D03*
X61925000Y-62075000D03*
%TO.P,SW3,2*%
%TO.N,/AFT*%
X66075000Y-59925000D03*
X61925000Y-59925000D03*
%TD*%
D17*
%TO.P,J7,1*%
%TO.N,/P4_TX+*%
X110270000Y-65945000D03*
%TO.P,J7,2*%
%TO.N,/P4_TX-*%
X110270000Y-64675000D03*
%TO.P,J7,3*%
%TO.N,/P4_RX+*%
X110270000Y-63405000D03*
%TO.P,J7,4*%
%TO.N,unconnected-(J7-Pad4)*%
X110270000Y-62135000D03*
%TO.P,J7,5*%
%TO.N,unconnected-(J7-Pad5)*%
X110270000Y-60865000D03*
%TO.P,J7,6*%
%TO.N,/P4_RX-*%
X110270000Y-59595000D03*
%TO.P,J7,7*%
%TO.N,unconnected-(J7-Pad7)*%
X110270000Y-58325000D03*
%TO.P,J7,8*%
%TO.N,unconnected-(J7-Pad8)*%
X110270000Y-57055000D03*
D18*
%TO.P,J7,SH*%
%TO.N,Net-(C5-Pad1)*%
X124790000Y-53325000D03*
X124790000Y-69675000D03*
%TD*%
D11*
%TO.P,C4,1*%
%TO.N,Net-(C4-Pad1)*%
X122225000Y-33750000D03*
%TO.P,C4,2*%
%TO.N,GND*%
X119275000Y-33750000D03*
%TD*%
D10*
%TO.P,TP7,1,1*%
%TO.N,GND*%
X69700000Y-99000000D03*
%TD*%
D20*
%TO.P,SW2,1*%
%TO.N,GND*%
X66075000Y-78075000D03*
X61925000Y-78075000D03*
%TO.P,SW2,2*%
%TO.N,/~{EXT_RESET}*%
X66075000Y-75925000D03*
X61925000Y-75925000D03*
%TD*%
D22*
%TO.P,J11,1,Pin_1*%
%TO.N,VIN*%
X69750000Y-121900000D03*
%TO.P,J11,2,Pin_2*%
%TO.N,GND*%
X71750000Y-121900000D03*
%TO.P,J11,3,Pin_3*%
%TO.N,+5V*%
X73750000Y-121900000D03*
%TO.P,J11,4,Pin_4*%
%TO.N,+3.3V*%
X75750000Y-121900000D03*
%TO.P,J11,5,Pin_5*%
%TO.N,/~{EXT_RESET}*%
X77750000Y-121900000D03*
%TO.P,J11,6,Pin_6*%
%TO.N,/~{POWER_OFF}*%
X79750000Y-121900000D03*
%TO.P,J11,7,Pin_7*%
%TO.N,/AFT*%
X81750000Y-121900000D03*
D23*
%TO.P,J11,MP,MP*%
%TO.N,GND*%
X67400000Y-127650000D03*
X84100000Y-127650000D03*
%TD*%
D22*
%TO.P,J12,1,Pin_1*%
%TO.N,GND*%
X88750000Y-121900000D03*
%TO.P,J12,2,Pin_2*%
%TO.N,/SCL{slash}MDC*%
X90750000Y-121900000D03*
%TO.P,J12,3,Pin_3*%
%TO.N,/SDA{slash}MDIO*%
X92750000Y-121900000D03*
%TO.P,J12,4,Pin_4*%
%TO.N,/GPIO0*%
X94750000Y-121900000D03*
%TO.P,J12,5,Pin_5*%
%TO.N,/GPIO1*%
X96750000Y-121900000D03*
%TO.P,J12,6,Pin_6*%
%TO.N,/DBG_SWDIO*%
X98750000Y-121900000D03*
%TO.P,J12,7,Pin_7*%
%TO.N,/DBG_SWCLK*%
X100750000Y-121900000D03*
D23*
%TO.P,J12,MP,MP*%
%TO.N,GND*%
X86400000Y-127650000D03*
X103100000Y-127650000D03*
%TD*%
D15*
%TO.P,J10,1*%
%TO.N,N/C*%
X72700000Y-36637500D03*
%TD*%
D16*
%TO.P,R1,1*%
%TO.N,Net-(C1-Pad1)*%
X114962500Y-107750000D03*
%TO.P,R1,2*%
%TO.N,GND*%
X112037500Y-107750000D03*
%TD*%
D10*
%TO.P,TP3,1,1*%
%TO.N,+5V*%
X81600000Y-109000000D03*
%TD*%
D16*
%TO.P,R4,1*%
%TO.N,Net-(C4-Pad1)*%
X114962500Y-33750000D03*
%TO.P,R4,2*%
%TO.N,GND*%
X112037500Y-33750000D03*
%TD*%
D10*
%TO.P,TP4,1,1*%
%TO.N,+3.3V*%
X81600000Y-101000000D03*
%TD*%
%TO.P,TP6,1,1*%
%TO.N,GND*%
X63000000Y-119600000D03*
%TD*%
D16*
%TO.P,R2,1*%
%TO.N,Net-(C2-Pad1)*%
X114962500Y-89250000D03*
%TO.P,R2,2*%
%TO.N,GND*%
X112037500Y-89250000D03*
%TD*%
D24*
%TO.N,GND*%
X72500000Y-113250000D03*
X72500000Y-118500000D03*
X75250000Y-124750000D03*
X80000000Y-125250000D03*
X97500000Y-125250000D03*
X93250000Y-125750000D03*
X88750000Y-125500000D03*
X85250000Y-123750000D03*
X86250000Y-116750000D03*
X88000000Y-118500000D03*
X128000000Y-69000000D03*
X64750000Y-78468750D03*
X119500000Y-98500000D03*
X114750000Y-128468750D03*
X97000000Y-54500000D03*
X85100000Y-83287500D03*
X118237500Y-107750000D03*
X64750000Y-53468750D03*
X94200000Y-79200000D03*
X64750000Y-113468750D03*
X91800000Y-82000000D03*
X111000000Y-107750000D03*
X80642500Y-85741394D03*
X74750000Y-48468750D03*
X69750000Y-33468750D03*
X94200000Y-82000000D03*
X124000000Y-31500000D03*
X92900000Y-86000000D03*
X64750000Y-58468750D03*
X79750000Y-58468750D03*
X124750000Y-43468750D03*
X99750000Y-128468750D03*
X90500000Y-86000000D03*
X103000000Y-81000000D03*
X96200000Y-90200000D03*
X64750000Y-128468750D03*
X79750000Y-73468750D03*
X93800000Y-87400002D03*
X64750000Y-43468750D03*
X87000000Y-79200000D03*
X81058500Y-90487500D03*
X79750000Y-83468750D03*
X89000000Y-90200000D03*
X89750000Y-33468750D03*
X84750000Y-118468750D03*
X89750000Y-108468750D03*
X111000000Y-70750000D03*
X79750000Y-128468750D03*
X79750000Y-98468750D03*
X91000000Y-42000000D03*
X72000000Y-124300022D03*
X62200000Y-116200000D03*
X74750000Y-108468750D03*
X96200000Y-87400000D03*
X87900000Y-83287500D03*
X118237500Y-52250000D03*
X87000000Y-82000000D03*
X86500000Y-45000000D03*
X69750000Y-43468750D03*
X64750000Y-93468750D03*
X73000000Y-87400000D03*
X79750000Y-43468750D03*
X79000000Y-82000000D03*
X89400000Y-79200000D03*
X111000000Y-33750000D03*
X85100000Y-86000000D03*
X79000000Y-79200000D03*
X118237500Y-89250000D03*
X89400000Y-82000000D03*
X81500000Y-85100000D03*
X87900000Y-86000000D03*
X79750000Y-103468750D03*
X69750000Y-63468750D03*
X111000000Y-89250000D03*
X95700000Y-86000000D03*
X89000000Y-87400000D03*
X79750000Y-68468750D03*
X109500000Y-85500000D03*
X99500000Y-64500000D03*
X64750000Y-48468750D03*
X128000000Y-106500000D03*
X69750000Y-128468750D03*
X91400000Y-90200000D03*
X104500000Y-62500000D03*
X124750000Y-118468750D03*
X79750000Y-53468750D03*
X68000000Y-124100000D03*
X93800000Y-90200002D03*
X91800000Y-79200000D03*
X118237500Y-70750000D03*
X119750000Y-128468750D03*
X73400000Y-79200000D03*
X88100000Y-100800000D03*
X86600000Y-90200000D03*
X111000000Y-52250000D03*
X74750000Y-43468750D03*
X69750000Y-53468750D03*
X75400000Y-90200000D03*
X64750000Y-98468750D03*
X74750000Y-68468750D03*
X107500000Y-45000000D03*
X79750000Y-48468750D03*
X64750000Y-63468750D03*
X69750000Y-113468750D03*
X92500000Y-58500000D03*
X69750000Y-58468750D03*
X95700000Y-83287500D03*
X84600000Y-79200000D03*
X84750000Y-33468750D03*
X86600000Y-87400000D03*
X79750000Y-113468750D03*
X84750000Y-128468750D03*
X74400000Y-85700000D03*
X124750000Y-128468750D03*
X84750000Y-38468750D03*
X69750000Y-108468750D03*
X74750000Y-53468750D03*
X78600000Y-90200000D03*
X109750000Y-128468750D03*
X64750000Y-108468750D03*
X90500000Y-83287500D03*
X124750000Y-83468750D03*
X64750000Y-68468750D03*
X69750000Y-73468750D03*
X74750000Y-113468750D03*
X73000000Y-90200000D03*
X79750000Y-63468750D03*
X86500000Y-84687500D03*
X101000000Y-108000000D03*
X69750000Y-78468750D03*
X64750000Y-123468750D03*
X67000000Y-119400000D03*
X75400000Y-87400000D03*
X74750000Y-128468750D03*
X98300000Y-83287500D03*
X84200000Y-87400000D03*
X69750000Y-68468750D03*
X64750000Y-38468750D03*
X104500000Y-109500000D03*
X94750000Y-128468750D03*
X94750000Y-118468750D03*
X64750000Y-73468750D03*
X124750000Y-78468750D03*
X92700000Y-84487500D03*
X74750000Y-63468750D03*
X96600000Y-82000000D03*
X84200000Y-90200000D03*
X96600000Y-79200000D03*
X102500000Y-96500000D03*
X69750000Y-48468750D03*
X90900000Y-102900000D03*
X84600000Y-82000000D03*
X124750000Y-113468750D03*
X118237500Y-33750000D03*
X92900000Y-83287500D03*
X73400000Y-82000000D03*
X78483756Y-87516244D03*
X89750000Y-128468750D03*
X75800000Y-82000000D03*
X83000000Y-119000000D03*
X104750000Y-128468750D03*
X91400000Y-87400000D03*
X79750000Y-33468750D03*
X79750000Y-38468750D03*
X75800000Y-79200000D03*
X74750000Y-58468750D03*
X127000000Y-31500000D03*
%TO.N,/~{EXT_RESET}*%
X74200000Y-82300000D03*
X74200000Y-83299994D03*
%TO.N,+5V*%
X76600000Y-109800000D03*
X79800000Y-109000000D03*
X79100000Y-109000000D03*
X76600000Y-109000000D03*
X76600000Y-108200000D03*
%TO.N,+3.3V*%
X74200000Y-84300000D03*
X70600000Y-62250000D03*
%TD*%
D25*
%TO.N,/DBG_SWCLK*%
X100750000Y-121250000D02*
X100750000Y-121900000D01*
X86300000Y-106800000D02*
X100750000Y-121250000D01*
X86300000Y-97800000D02*
X86300000Y-106800000D01*
X83400000Y-94900000D02*
X86300000Y-97800000D01*
X83400000Y-88787500D02*
X83400000Y-94900000D01*
%TO.N,/DBG_SWDIO*%
X98750000Y-120500000D02*
X98750000Y-121900000D01*
X86004000Y-98004000D02*
X86000000Y-98008000D01*
X86000000Y-98008000D02*
X86000000Y-107750000D01*
X86000000Y-107750000D02*
X98750000Y-120500000D01*
X82600000Y-94600000D02*
X86004000Y-98004000D01*
X82600000Y-88787500D02*
X82600000Y-94600000D01*
D26*
%TO.N,GND*%
X75800000Y-82000000D02*
X75800000Y-79200000D01*
X84600000Y-82000000D02*
X84600000Y-79200000D01*
X75400000Y-87400000D02*
X75400000Y-90200000D01*
X91400000Y-87400000D02*
X91400000Y-90200000D01*
X118237500Y-70750000D02*
X119275000Y-70750000D01*
X96200000Y-87400000D02*
X96200000Y-90200000D01*
X118237500Y-52250000D02*
X119275000Y-52250000D01*
X111000000Y-89250000D02*
X112037500Y-89250000D01*
X111000000Y-33750000D02*
X112037500Y-33750000D01*
X86600000Y-87400000D02*
X86600000Y-90200000D01*
X118237500Y-107750000D02*
X119275000Y-107750000D01*
X87000000Y-79200000D02*
X87000000Y-82000000D01*
X111000000Y-70750000D02*
X112037500Y-70750000D01*
X73000000Y-87400000D02*
X73000000Y-90200000D01*
X78600000Y-90200000D02*
X78600000Y-87632488D01*
X111000000Y-52250000D02*
X112037500Y-52250000D01*
X96600000Y-79200000D02*
X96600000Y-82000000D01*
X89000000Y-87400000D02*
X89000000Y-90200000D01*
X94200000Y-79200000D02*
X94200000Y-82000000D01*
X78600000Y-87632488D02*
X78483756Y-87516244D01*
X118237500Y-33750000D02*
X119275000Y-33750000D01*
X84200000Y-90200000D02*
X84200000Y-87400000D01*
X93800000Y-87400002D02*
X93800000Y-90200002D01*
X111000000Y-107750000D02*
X112037500Y-107750000D01*
X79000000Y-82000000D02*
X79000000Y-79200000D01*
X118237500Y-89250000D02*
X119275000Y-89250000D01*
X89400000Y-79200000D02*
X89400000Y-82000000D01*
X73400000Y-82000000D02*
X73400000Y-79200000D01*
X91800000Y-79200000D02*
X91800000Y-82000000D01*
D27*
%TO.N,Net-(C1-Pad1)*%
X122225000Y-108650000D02*
X122481000Y-108906000D01*
X122225000Y-107750000D02*
X122225000Y-108650000D01*
X116489500Y-109277000D02*
X114962500Y-107750000D01*
X122481000Y-108906000D02*
X128189000Y-108906000D01*
X122110000Y-109277000D02*
X116489500Y-109277000D01*
X128270000Y-125175000D02*
X128270000Y-108825000D01*
X122481000Y-108906000D02*
X122110000Y-109277000D01*
X128189000Y-108906000D02*
X128270000Y-108825000D01*
%TO.N,Net-(C2-Pad1)*%
X116962500Y-91250000D02*
X119910586Y-91250000D01*
X123715000Y-89250000D02*
X124790000Y-90325000D01*
X119910586Y-91250000D02*
X121910586Y-89250000D01*
X124790000Y-106675000D02*
X124790000Y-90325000D01*
X121910586Y-89250000D02*
X122225000Y-89250000D01*
X122225000Y-89250000D02*
X123715000Y-89250000D01*
X114962500Y-89250000D02*
X116962500Y-91250000D01*
%TO.N,Net-(C3-Pad1)*%
X122225000Y-71650000D02*
X122481000Y-71906000D01*
X128290000Y-88175000D02*
X128290000Y-71825000D01*
X128209000Y-71906000D02*
X128290000Y-71825000D01*
X122481000Y-71906000D02*
X122110000Y-72277000D01*
X122225000Y-70750000D02*
X122225000Y-71650000D01*
X122110000Y-72277000D02*
X116489500Y-72277000D01*
X116489500Y-72277000D02*
X114962500Y-70750000D01*
X122481000Y-71906000D02*
X128209000Y-71906000D01*
%TO.N,Net-(C4-Pad1)*%
X127215000Y-33750000D02*
X128290000Y-34825000D01*
X116489500Y-32223000D02*
X120698000Y-32223000D01*
X128290000Y-51175000D02*
X128290000Y-34825000D01*
X114962500Y-33750000D02*
X116489500Y-32223000D01*
X120698000Y-32223000D02*
X122225000Y-33750000D01*
X122225000Y-33750000D02*
X127215000Y-33750000D01*
%TO.N,Net-(C5-Pad1)*%
X116489500Y-53777000D02*
X120223000Y-53777000D01*
X122225000Y-52250000D02*
X123715000Y-52250000D01*
X120223000Y-53777000D02*
X121750000Y-52250000D01*
X123715000Y-52250000D02*
X124790000Y-53325000D01*
X121750000Y-52250000D02*
X122225000Y-52250000D01*
X124790000Y-69675000D02*
X124790000Y-53325000D01*
X114962500Y-52250000D02*
X116489500Y-53777000D01*
%TO.N,VCC*%
X70200000Y-92600000D02*
X69700000Y-93100000D01*
X74200000Y-92600000D02*
X70200000Y-92600000D01*
D25*
%TO.N,/~{EXT_RESET}*%
X78000000Y-121650000D02*
X77750000Y-121900000D01*
X61925000Y-75925000D02*
X66075000Y-75925000D01*
X79500000Y-94900000D02*
X79500000Y-87659210D01*
X74200000Y-77700000D02*
X74200000Y-80587500D01*
X78000000Y-120100000D02*
X83900000Y-114200000D01*
X79500000Y-87659210D02*
X75140784Y-83299994D01*
X83900000Y-114200000D02*
X83900000Y-99300000D01*
X64000000Y-87900000D02*
X68600006Y-83299994D01*
X72425000Y-75925000D02*
X74200000Y-77700000D01*
X64000000Y-89600000D02*
X64000000Y-87900000D01*
X75140784Y-83299994D02*
X74200000Y-83299994D01*
X78000000Y-120100000D02*
X78000000Y-121650000D01*
X83900000Y-99300000D02*
X79500000Y-94900000D01*
X74200000Y-80587500D02*
X74200000Y-82300000D01*
X68600006Y-83299994D02*
X74200000Y-83299994D01*
X66075000Y-75925000D02*
X72425000Y-75925000D01*
D28*
%TO.N,/P1_RX-*%
X113200542Y-104880600D02*
X103549458Y-104880600D01*
X105619400Y-95445541D02*
X105619400Y-95365541D01*
X113200542Y-91619400D02*
X114380600Y-92799458D01*
X106003954Y-94245541D02*
X106003954Y-94165541D01*
X105779400Y-94405541D02*
X105843954Y-94405541D01*
X105619400Y-93845541D02*
X105619400Y-93765541D01*
X105911232Y-93007626D02*
X107299458Y-91619400D01*
X105843954Y-94805541D02*
X105779400Y-94805541D01*
X107274400Y-98380600D02*
X106549458Y-98380600D01*
X105843971Y-96405541D02*
X105779400Y-96405541D01*
X90600000Y-90287501D02*
X90600000Y-88787500D01*
X105619400Y-93299458D02*
X105911232Y-93007626D01*
X114380600Y-92799458D02*
X114380600Y-103700542D01*
X105619400Y-94645541D02*
X105619400Y-94565541D01*
X110270000Y-96595000D02*
X109060000Y-96595000D01*
X109060000Y-96595000D02*
X107274400Y-98380600D01*
X106003971Y-96645541D02*
X106003971Y-96565541D01*
X105843954Y-94005541D02*
X105779400Y-94005541D01*
X105619400Y-97450542D02*
X105619400Y-96965541D01*
X105779400Y-95205541D02*
X105843954Y-95205541D01*
X105619400Y-96245541D02*
X105619400Y-96165541D01*
X105779400Y-96005541D02*
X105843954Y-96005541D01*
X90319400Y-90568101D02*
X90600000Y-90287501D01*
X107299458Y-91619400D02*
X113200542Y-91619400D01*
X105779400Y-96805541D02*
X105843971Y-96805541D01*
X105843954Y-95605541D02*
X105779400Y-95605541D01*
X103549458Y-104880600D02*
X90319400Y-91650542D01*
X106003954Y-95845541D02*
X106003954Y-95765541D01*
X105619400Y-93765541D02*
X105619400Y-93299458D01*
X90319400Y-91650542D02*
X90319400Y-90568101D01*
X106003954Y-95045541D02*
X106003954Y-94965541D01*
X114380600Y-103700542D02*
X113200542Y-104880600D01*
X106549458Y-98380600D02*
X105619400Y-97450542D01*
X106003971Y-96565541D02*
G75*
G03*
X105843971Y-96405529I-159971J41D01*
G01*
X105779400Y-94005541D02*
G75*
G02*
X105619359Y-93845541I0J160041D01*
G01*
X105843954Y-94405541D02*
G75*
G03*
X106004041Y-94245541I46J160041D01*
G01*
X106003954Y-94965541D02*
G75*
G03*
X105843954Y-94805546I-159954J41D01*
G01*
X105779400Y-96405541D02*
G75*
G02*
X105619359Y-96245541I0J160041D01*
G01*
X105843954Y-96005541D02*
G75*
G03*
X106004041Y-95845541I46J160041D01*
G01*
X105619400Y-95365541D02*
G75*
G02*
X105779400Y-95205500I160000J41D01*
G01*
X105779400Y-94805541D02*
G75*
G02*
X105619359Y-94645541I0J160041D01*
G01*
X105619400Y-96965541D02*
G75*
G02*
X105779400Y-96805500I160000J41D01*
G01*
X105843971Y-96805541D02*
G75*
G03*
X106004041Y-96645541I29J160041D01*
G01*
X106003954Y-95765541D02*
G75*
G03*
X105843954Y-95605546I-159954J41D01*
G01*
X105843954Y-95205541D02*
G75*
G03*
X106004041Y-95045541I46J160041D01*
G01*
X106003954Y-94165541D02*
G75*
G03*
X105843954Y-94005546I-159954J41D01*
G01*
X105779400Y-95605541D02*
G75*
G02*
X105619359Y-95445541I0J160041D01*
G01*
X105619400Y-96165541D02*
G75*
G02*
X105779400Y-96005500I160000J41D01*
G01*
X105619400Y-94565541D02*
G75*
G02*
X105779400Y-94405500I160000J41D01*
G01*
%TO.N,/P4_RX+*%
X90200000Y-79087499D02*
X90200000Y-80587500D01*
X90480600Y-78806899D02*
X90200000Y-79087499D01*
X90480600Y-67100542D02*
X90480600Y-78806899D01*
X110270000Y-63405000D02*
X111480000Y-63405000D01*
X113265600Y-61619400D02*
X114799458Y-61619400D01*
X111480000Y-63405000D02*
X113265600Y-61619400D01*
X116619400Y-56200542D02*
X115299458Y-54880600D01*
X102700542Y-54880600D02*
X90480600Y-67100542D01*
X114799458Y-61619400D02*
X116619400Y-59799458D01*
X116619400Y-59799458D02*
X116619400Y-56200542D01*
X115299458Y-54880600D02*
X102700542Y-54880600D01*
%TO.N,/P0_TX-*%
X102593614Y-115448481D02*
X102604323Y-115437771D01*
X101010090Y-114091232D02*
X97119400Y-110200542D01*
X97119400Y-110200542D02*
X97119400Y-101450542D01*
X102604323Y-115211497D02*
X102547754Y-115154928D01*
X111364999Y-120175000D02*
X110849399Y-120690600D01*
X87919400Y-92250542D02*
X87919400Y-90568101D01*
X113750000Y-120175000D02*
X111364999Y-120175000D01*
X110849399Y-120690600D02*
X107609458Y-120690600D01*
X88200000Y-90287501D02*
X88200000Y-88787500D01*
X97119400Y-101450542D02*
X87919400Y-92250542D01*
X87919400Y-90568101D02*
X88200000Y-90287501D01*
X102027928Y-115109070D02*
X101010090Y-114091232D01*
X102321480Y-115154928D02*
X102310770Y-115165637D01*
X107609458Y-120690600D02*
X102593614Y-115674756D01*
X102084496Y-115165637D02*
X102027928Y-115109070D01*
X102310770Y-115165637D02*
G75*
G02*
X102084496Y-115165637I-113137J113137D01*
G01*
X102604323Y-115437771D02*
G75*
G03*
X102604357Y-115211463I-113123J113171D01*
G01*
X102547754Y-115154928D02*
G75*
G03*
X102321480Y-115154928I-113137J-113137D01*
G01*
X102593614Y-115674756D02*
G75*
G02*
X102593595Y-115448462I113086J113156D01*
G01*
D29*
%TO.N,+5V*%
X76600000Y-108200000D02*
X76600000Y-90800000D01*
X79100000Y-109000000D02*
X79800000Y-109000000D01*
X76600000Y-109800000D02*
X76600000Y-109000000D01*
X76600000Y-109000000D02*
X76600000Y-108200000D01*
X73750000Y-119450000D02*
X73750000Y-121900000D01*
X76600000Y-116600000D02*
X73750000Y-119450000D01*
X76600000Y-109800000D02*
X76600000Y-116600000D01*
X79800000Y-109000000D02*
X81600000Y-109000000D01*
D28*
%TO.N,/P2_RX-*%
X108700542Y-79880600D02*
X110774400Y-79880600D01*
X105235733Y-89845409D02*
X106380600Y-88700542D01*
X101950542Y-93130600D02*
X103980643Y-91100499D01*
X106380600Y-88700542D02*
X106380600Y-82200542D01*
X103980643Y-90874225D02*
X103969903Y-90863485D01*
X95119400Y-90568101D02*
X95119400Y-91450542D01*
X106380600Y-82200542D02*
X108700542Y-79880600D01*
X104252747Y-90580641D02*
X104263488Y-90591382D01*
X103969904Y-90637209D02*
X104026473Y-90580641D01*
X95119400Y-91450542D02*
X96799458Y-93130600D01*
X95400000Y-90287501D02*
X95119400Y-90568101D01*
X96799458Y-93130600D02*
X101950542Y-93130600D01*
X95400000Y-88787500D02*
X95400000Y-90287501D01*
X112560000Y-78095000D02*
X113770000Y-78095000D01*
X104489764Y-90591381D02*
X104546330Y-90534813D01*
X110774400Y-79880600D02*
X112560000Y-78095000D01*
X104546330Y-90534813D02*
X105235733Y-89845409D01*
X103969903Y-90863485D02*
G75*
G02*
X103969856Y-90637161I113097J113185D01*
G01*
X103980643Y-91100499D02*
G75*
G03*
X103980605Y-90874263I-113143J113099D01*
G01*
X104026473Y-90580641D02*
G75*
G02*
X104252747Y-90580641I113137J-113137D01*
G01*
X104263488Y-90591382D02*
G75*
G03*
X104489739Y-90591356I113112J113182D01*
G01*
%TO.N,/P1_TX+*%
X92200000Y-88787500D02*
X92200000Y-90287501D01*
X92480600Y-91399458D02*
X103510542Y-102429400D01*
X107884999Y-102945000D02*
X110270000Y-102945000D01*
X92480600Y-90568101D02*
X92480600Y-91399458D01*
X92200000Y-90287501D02*
X92480600Y-90568101D01*
X103510542Y-102429400D02*
X107369399Y-102429400D01*
X107369399Y-102429400D02*
X107884999Y-102945000D01*
%TO.N,/P3_RX-*%
X120055667Y-41277832D02*
X120066353Y-41288518D01*
X120630600Y-38750000D02*
X120630600Y-38549458D01*
X120630600Y-39780542D02*
X120630600Y-39700542D01*
X85919400Y-78806899D02*
X86200000Y-79087499D01*
X109049458Y-36619400D02*
X100799458Y-44869400D01*
X120470600Y-40340542D02*
X120455439Y-40340542D01*
X120630600Y-39700542D02*
X120630600Y-38750000D01*
X119207088Y-41900042D02*
X119263659Y-41843472D01*
X119726940Y-41854205D02*
X119783507Y-41797636D01*
X113770000Y-41095000D02*
X114980000Y-41095000D01*
X119489933Y-41843472D02*
X119500666Y-41854205D01*
X100799458Y-44869400D02*
X93049458Y-44869400D01*
X120455439Y-39940542D02*
X120470600Y-39940542D01*
X118700542Y-42880600D02*
X119217820Y-42363322D01*
X114980000Y-41095000D02*
X116765600Y-42880600D01*
X85919400Y-51999458D02*
X85919400Y-78806899D01*
X119783507Y-41797636D02*
X119783507Y-41797635D01*
X118700542Y-36619400D02*
X109049458Y-36619400D01*
X86200000Y-79087499D02*
X86200000Y-80587500D01*
X120349194Y-41231949D02*
X120630600Y-40950542D01*
X120630600Y-40950542D02*
X120630600Y-40500542D01*
X120295439Y-40180542D02*
X120295439Y-40100542D01*
X119783507Y-41571361D02*
X119772822Y-41560676D01*
X120630600Y-38549458D02*
X118700542Y-36619400D01*
X119217820Y-42137048D02*
X119207088Y-42126316D01*
X93049458Y-44869400D02*
X85919400Y-51999458D01*
X119772822Y-41334402D02*
X119829393Y-41277832D01*
X120292627Y-41288518D02*
X120349194Y-41231949D01*
X116765600Y-42880600D02*
X118700542Y-42880600D01*
X120455439Y-40340542D02*
G75*
G02*
X120295358Y-40180542I-39J160042D01*
G01*
X119500666Y-41854205D02*
G75*
G03*
X119726940Y-41854205I113137J113137D01*
G01*
X119207088Y-42126316D02*
G75*
G02*
X119207109Y-41900063I113112J113116D01*
G01*
X119783507Y-41797635D02*
G75*
G03*
X119783505Y-41571363I-113107J113135D01*
G01*
X119217820Y-42363322D02*
G75*
G03*
X119217805Y-42137063I-113120J113122D01*
G01*
X120630600Y-40500542D02*
G75*
G03*
X120470600Y-40340500I-160000J42D01*
G01*
X119829393Y-41277832D02*
G75*
G02*
X120055667Y-41277832I113137J-113137D01*
G01*
X120066353Y-41288518D02*
G75*
G03*
X120292627Y-41288518I113137J113137D01*
G01*
X119263659Y-41843472D02*
G75*
G02*
X119489933Y-41843472I113137J-113137D01*
G01*
X120470600Y-39940542D02*
G75*
G03*
X120630642Y-39780542I0J160042D01*
G01*
X119772822Y-41560676D02*
G75*
G02*
X119772783Y-41334363I113178J113176D01*
G01*
X120295439Y-40100542D02*
G75*
G02*
X120455439Y-39940539I159961J42D01*
G01*
%TO.N,/P2_RX+*%
X112560000Y-81905000D02*
X110774400Y-80119400D01*
X96700542Y-93369400D02*
X94880600Y-91549458D01*
X106619400Y-88799458D02*
X102049458Y-93369400D01*
X110774400Y-80119400D02*
X108799458Y-80119400D01*
X94880600Y-91549458D02*
X94880600Y-90568101D01*
X94600000Y-90287501D02*
X94600000Y-88787500D01*
X108799458Y-80119400D02*
X106619400Y-82299458D01*
X113770000Y-81905000D02*
X112560000Y-81905000D01*
X102049458Y-93369400D02*
X96700542Y-93369400D01*
X94880600Y-90568101D02*
X94600000Y-90287501D01*
X106619400Y-82299458D02*
X106619400Y-88799458D01*
%TO.N,/P3_RX+*%
X85400000Y-79087499D02*
X85400000Y-80587500D01*
X85680600Y-51900542D02*
X85680600Y-78806899D01*
X100700542Y-44630600D02*
X92950542Y-44630600D01*
X118799458Y-43119400D02*
X120869400Y-41049458D01*
X120869400Y-38450542D02*
X118799458Y-36380600D01*
X92950542Y-44630600D02*
X85680600Y-51900542D01*
X120869400Y-41049458D02*
X120869400Y-38450542D01*
X114980000Y-44905000D02*
X116765600Y-43119400D01*
X116765600Y-43119400D02*
X118799458Y-43119400D01*
X85680600Y-78806899D02*
X85400000Y-79087499D01*
X118799458Y-36380600D02*
X108950542Y-36380600D01*
X108950542Y-36380600D02*
X100700542Y-44630600D01*
X113770000Y-44905000D02*
X114980000Y-44905000D01*
D25*
%TO.N,/~{POWER_OFF}*%
X75000000Y-71500000D02*
X75000000Y-80587500D01*
X84200000Y-99150000D02*
X84200000Y-114900000D01*
X79750000Y-119350000D02*
X79750000Y-121900000D01*
X75000000Y-82800000D02*
X79754000Y-87554000D01*
X79754000Y-87554000D02*
X79754000Y-94704000D01*
X64800000Y-82800000D02*
X75000000Y-82800000D01*
X64000000Y-83600000D02*
X64800000Y-82800000D01*
X79754000Y-94704000D02*
X84200000Y-99150000D01*
X84200000Y-114900000D02*
X79750000Y-119350000D01*
X61925000Y-67925000D02*
X66075000Y-67925000D01*
X66075000Y-67925000D02*
X71425000Y-67925000D01*
X71425000Y-67925000D02*
X75000000Y-71500000D01*
X75000000Y-80587500D02*
X75000000Y-82800000D01*
D28*
%TO.N,/P3_TX-*%
X118369400Y-49049458D02*
X117549458Y-49869400D01*
X117609458Y-46690600D02*
X118369400Y-47450542D01*
X117549458Y-49869400D02*
X95299458Y-49869400D01*
X113770000Y-46175000D02*
X116155001Y-46175000D01*
X118369400Y-47450542D02*
X118369400Y-49049458D01*
X116155001Y-46175000D02*
X116670601Y-46690600D01*
X116670601Y-46690600D02*
X117609458Y-46690600D01*
X88319400Y-78806899D02*
X88600000Y-79087499D01*
X88600000Y-79087499D02*
X88600000Y-80587500D01*
X95299458Y-49869400D02*
X88319400Y-56849458D01*
X88319400Y-56849458D02*
X88319400Y-78806899D01*
%TO.N,/P1_TX-*%
X107884999Y-101675000D02*
X107369399Y-102190600D01*
X98846036Y-97179438D02*
X98835303Y-97190170D01*
X92719400Y-91300542D02*
X92719400Y-90568101D01*
X99128879Y-97236007D02*
X99072310Y-97179438D01*
X98609029Y-97190170D02*
X98552461Y-97133603D01*
X93000000Y-90287501D02*
X93000000Y-88787500D01*
X98552461Y-97133603D02*
X98015544Y-96596686D01*
X110270000Y-101675000D02*
X107884999Y-101675000D01*
X98015544Y-96596686D02*
X92719400Y-91300542D01*
X92719400Y-90568101D02*
X93000000Y-90287501D01*
X99118147Y-97473014D02*
X99128879Y-97462281D01*
X103609458Y-102190600D02*
X99118147Y-97699289D01*
X107369399Y-102190600D02*
X103609458Y-102190600D01*
X99128879Y-97462281D02*
G75*
G03*
X99128923Y-97235963I-113179J113181D01*
G01*
X99072310Y-97179438D02*
G75*
G03*
X98846036Y-97179438I-113137J-113137D01*
G01*
X98835303Y-97190170D02*
G75*
G02*
X98609029Y-97190170I-113137J113137D01*
G01*
X99118147Y-97699289D02*
G75*
G02*
X99118195Y-97473063I113153J113089D01*
G01*
%TO.N,/P4_TX+*%
X115014893Y-66183751D02*
X115130600Y-66299458D01*
X92880600Y-72700542D02*
X92880600Y-78806899D01*
X112655001Y-65945000D02*
X113170601Y-65429400D01*
X114958323Y-66127181D02*
X115014893Y-66183751D01*
X114449208Y-65844340D02*
X114438475Y-65855072D01*
X92880600Y-78806899D02*
X92600000Y-79087499D01*
X115130600Y-66299458D02*
X115130600Y-67450542D01*
X110270000Y-65945000D02*
X112655001Y-65945000D01*
X114260542Y-65429400D02*
X114449208Y-65618066D01*
X113170601Y-65429400D02*
X114260542Y-65429400D01*
X115130600Y-67450542D02*
X114903077Y-67678065D01*
X114438475Y-66081346D02*
X114495043Y-66137914D01*
X92600000Y-79087499D02*
X92600000Y-80587500D01*
X97450542Y-68130600D02*
X92880600Y-72700542D01*
X114721317Y-66137914D02*
X114732049Y-66127181D01*
X114903077Y-67678065D02*
X114450542Y-68130600D01*
X114450542Y-68130600D02*
X97450542Y-68130600D01*
X114438475Y-65855072D02*
G75*
G03*
X114438484Y-66081337I113125J-113128D01*
G01*
X114732049Y-66127181D02*
G75*
G02*
X114958323Y-66127181I113137J-113137D01*
G01*
X114449208Y-65618066D02*
G75*
G02*
X114449205Y-65844337I-113108J-113134D01*
G01*
X114495043Y-66137914D02*
G75*
G03*
X114721317Y-66137914I113137J113137D01*
G01*
%TO.N,/P4_TX-*%
X97549458Y-68369400D02*
X114549458Y-68369400D01*
X93400000Y-80587500D02*
X93400000Y-79087499D01*
X115369400Y-67549458D02*
X115369400Y-66200542D01*
X93400000Y-79087499D02*
X93119400Y-78806899D01*
X113170601Y-65190600D02*
X112655001Y-64675000D01*
X93119400Y-72799458D02*
X97549458Y-68369400D01*
X93119400Y-78806899D02*
X93119400Y-72799458D01*
X112655001Y-64675000D02*
X110270000Y-64675000D01*
X114549458Y-68369400D02*
X115369400Y-67549458D01*
X115369400Y-66200542D02*
X114359458Y-65190600D01*
X114359458Y-65190600D02*
X113170601Y-65190600D01*
%TO.N,/P0_TX+*%
X113750000Y-121445000D02*
X111364999Y-121445000D01*
X87680600Y-90568101D02*
X87400000Y-90287501D01*
X96880600Y-110299458D02*
X96880600Y-101549458D01*
X87400000Y-90287501D02*
X87400000Y-88787500D01*
X110849399Y-120929400D02*
X107510542Y-120929400D01*
X111364999Y-121445000D02*
X110849399Y-120929400D01*
X96880600Y-101549458D02*
X87680600Y-92349458D01*
X87680600Y-92349458D02*
X87680600Y-90568101D01*
X107510542Y-120929400D02*
X96880600Y-110299458D01*
%TO.N,/P0_RX+*%
X85000000Y-88787500D02*
X85000000Y-90287501D01*
X85000000Y-90287501D02*
X85280600Y-90568101D01*
X107950542Y-122519400D02*
X109550542Y-124119400D01*
X118369400Y-121299458D02*
X118369400Y-113450542D01*
X110754400Y-117119400D02*
X112540000Y-118905000D01*
X118369400Y-113450542D02*
X115049458Y-110130600D01*
X112540000Y-118905000D02*
X113750000Y-118905000D01*
X109550542Y-124119400D02*
X115549458Y-124119400D01*
X108630600Y-111950542D02*
X108630600Y-115549458D01*
X108630600Y-115549458D02*
X110200542Y-117119400D01*
X115549458Y-124119400D02*
X118369400Y-121299458D01*
X115049458Y-110130600D02*
X110450542Y-110130600D01*
X85280600Y-90568101D02*
X85280600Y-92949458D01*
X110200542Y-117119400D02*
X110754400Y-117119400D01*
X94630600Y-102299458D02*
X94630600Y-111730600D01*
X110450542Y-110130600D02*
X108630600Y-111950542D01*
X105419400Y-122519400D02*
X107950542Y-122519400D01*
X94630600Y-111730600D02*
X105419400Y-122519400D01*
X85280600Y-92949458D02*
X94630600Y-102299458D01*
%TO.N,/P3_TX+*%
X115750000Y-49630600D02*
X95200542Y-49630600D01*
X117795352Y-48176346D02*
X117795352Y-48256346D01*
X117955352Y-48416346D02*
X117970600Y-48416346D01*
X95200542Y-49630600D02*
X88080600Y-56750542D01*
X113770000Y-47445000D02*
X116155001Y-47445000D01*
X116155001Y-47445000D02*
X116670601Y-46929400D01*
X118130600Y-47549458D02*
X118130600Y-47856346D01*
X88080600Y-78806899D02*
X87800000Y-79087499D01*
X88080600Y-56750542D02*
X88080600Y-78806899D01*
X117450542Y-49630600D02*
X115750000Y-49630600D01*
X116670601Y-46929400D02*
X117510542Y-46929400D01*
X117510542Y-46929400D02*
X118130600Y-47549458D01*
X118130600Y-48656346D02*
X118130600Y-48950542D01*
X87800000Y-79087499D02*
X87800000Y-80587500D01*
X117970600Y-48016346D02*
X117955352Y-48016346D01*
X118130600Y-48950542D02*
X117450542Y-49630600D01*
X118130600Y-48576346D02*
X118130600Y-48656346D01*
X118130600Y-47856346D02*
G75*
G02*
X117970600Y-48016300I-160000J46D01*
G01*
X117795352Y-48256346D02*
G75*
G03*
X117955352Y-48416348I160048J46D01*
G01*
X117970600Y-48416346D02*
G75*
G02*
X118130554Y-48576346I0J-159954D01*
G01*
X117955352Y-48016346D02*
G75*
G03*
X117795446Y-48176346I48J-159954D01*
G01*
%TO.N,/P2_TX+*%
X118619400Y-82549458D02*
X118619400Y-76200542D01*
X118619400Y-76200542D02*
X116049458Y-73630600D01*
X117239458Y-83929400D02*
X118619400Y-82549458D01*
X95280600Y-77050542D02*
X95280600Y-78806899D01*
X95000000Y-79087499D02*
X95000000Y-80587500D01*
X116049458Y-73630600D02*
X98700542Y-73630600D01*
X116155001Y-84445000D02*
X116670601Y-83929400D01*
X95280600Y-78806899D02*
X95000000Y-79087499D01*
X98700542Y-73630600D02*
X95280600Y-77050542D01*
X116670601Y-83929400D02*
X117239458Y-83929400D01*
X113770000Y-84445000D02*
X116155001Y-84445000D01*
%TO.N,/P1_RX+*%
X89800000Y-90287501D02*
X90080600Y-90568101D01*
X90080600Y-90568101D02*
X90080600Y-91749458D01*
X113299458Y-91380600D02*
X107200542Y-91380600D01*
X103450542Y-105119400D02*
X113299458Y-105119400D01*
X105380600Y-93200542D02*
X105380600Y-97549458D01*
X105380600Y-97549458D02*
X106450542Y-98619400D01*
X114619400Y-92700542D02*
X113299458Y-91380600D01*
X114619400Y-103799458D02*
X114619400Y-92700542D01*
X106450542Y-98619400D02*
X107274400Y-98619400D01*
X107274400Y-98619400D02*
X109060000Y-100405000D01*
X107200542Y-91380600D02*
X105380600Y-93200542D01*
X113299458Y-105119400D02*
X114619400Y-103799458D01*
X109060000Y-100405000D02*
X110270000Y-100405000D01*
X90080600Y-91749458D02*
X103450542Y-105119400D01*
X89800000Y-88787500D02*
X89800000Y-90287501D01*
%TO.N,/P2_TX-*%
X118045348Y-79702957D02*
X118045348Y-79622957D01*
X113770000Y-83175000D02*
X116155001Y-83175000D01*
X118380600Y-79302957D02*
X118380600Y-79222957D01*
X118380600Y-77282930D02*
X118380600Y-76299458D01*
X117140542Y-83690600D02*
X118380600Y-82450542D01*
X118220600Y-79862957D02*
X118205348Y-79862957D01*
X95519400Y-77149458D02*
X95519400Y-78806899D01*
X98799458Y-73869400D02*
X95519400Y-77149458D01*
X115950542Y-73869400D02*
X98799458Y-73869400D01*
X118045356Y-81302957D02*
X118045356Y-81222957D01*
X95519400Y-78806899D02*
X95800000Y-79087499D01*
X118205350Y-80262957D02*
X118220600Y-80262957D01*
X118380600Y-80102957D02*
X118380600Y-80022957D01*
X118205356Y-81062957D02*
X118220600Y-81062957D01*
X118380600Y-79222957D02*
X118380600Y-77282930D01*
X118205348Y-79462957D02*
X118220600Y-79462957D01*
X116670601Y-83690600D02*
X117140542Y-83690600D01*
X118380600Y-82450542D02*
X118380600Y-81622957D01*
X118380600Y-80902957D02*
X118380600Y-80822957D01*
X95800000Y-79087499D02*
X95800000Y-80587500D01*
X118220600Y-80662957D02*
X118205350Y-80662957D01*
X118045350Y-80502957D02*
X118045350Y-80422957D01*
X118220600Y-81462957D02*
X118205356Y-81462957D01*
X118380600Y-76299458D02*
X115950542Y-73869400D01*
X116155001Y-83175000D02*
X116670601Y-83690600D01*
X118045348Y-79622957D02*
G75*
G02*
X118205348Y-79463048I159952J-43D01*
G01*
X118045350Y-80422957D02*
G75*
G02*
X118205350Y-80262950I160050J-43D01*
G01*
X118205348Y-79862957D02*
G75*
G02*
X118045343Y-79702957I-48J159957D01*
G01*
X118220600Y-79462957D02*
G75*
G03*
X118380557Y-79302957I0J159957D01*
G01*
X118380600Y-80022957D02*
G75*
G03*
X118220600Y-79863000I-160000J-43D01*
G01*
X118220600Y-80262957D02*
G75*
G03*
X118380557Y-80102957I0J159957D01*
G01*
X118205356Y-81462957D02*
G75*
G02*
X118045443Y-81302957I44J159957D01*
G01*
X118380600Y-80822957D02*
G75*
G03*
X118220600Y-80663000I-160000J-43D01*
G01*
X118045356Y-81222957D02*
G75*
G02*
X118205356Y-81062956I160044J-43D01*
G01*
X118220600Y-81062957D02*
G75*
G03*
X118380557Y-80902957I0J159957D01*
G01*
X118205350Y-80662957D02*
G75*
G02*
X118045443Y-80502957I50J159957D01*
G01*
X118380600Y-81622957D02*
G75*
G03*
X118220600Y-81463000I-160000J-43D01*
G01*
%TO.N,/P4_RX-*%
X116045455Y-58930542D02*
X116045455Y-58850542D01*
X116113059Y-59968084D02*
X116380600Y-59700542D01*
X116205455Y-58690542D02*
X116220600Y-58690542D01*
X115536664Y-60070514D02*
X115593235Y-60013944D01*
X90719400Y-67199458D02*
X90719400Y-78806899D01*
X116220600Y-58290542D02*
X116205455Y-58290542D01*
X116380600Y-56500000D02*
X116380600Y-56299458D01*
X91000000Y-79087499D02*
X91000000Y-80587500D01*
X116045455Y-58130542D02*
X116045455Y-58050542D01*
X115200542Y-55119400D02*
X102799458Y-55119400D01*
X116380600Y-58530542D02*
X116380600Y-58450542D01*
X114700542Y-61380600D02*
X115547372Y-60533770D01*
X113265600Y-61380600D02*
X114700542Y-61380600D01*
X116380600Y-57730542D02*
X116380600Y-57650542D01*
X115819509Y-60013944D02*
X115830218Y-60024653D01*
X116205455Y-57890542D02*
X116220600Y-57890542D01*
X115547372Y-60307496D02*
X115536664Y-60296788D01*
X116056492Y-60024653D02*
X116113059Y-59968084D01*
X111480000Y-59595000D02*
X113265600Y-61380600D01*
X110270000Y-59595000D02*
X111480000Y-59595000D01*
X116380600Y-56299458D02*
X115200542Y-55119400D01*
X90719400Y-78806899D02*
X91000000Y-79087499D01*
X116380600Y-57650542D02*
X116380600Y-56500000D01*
X116220600Y-59090542D02*
X116205455Y-59090542D01*
X116380600Y-59700542D02*
X116380600Y-59250542D01*
X102799458Y-55119400D02*
X90719400Y-67199458D01*
X115830218Y-60024653D02*
G75*
G03*
X116056492Y-60024653I113137J113137D01*
G01*
X115593235Y-60013944D02*
G75*
G02*
X115819509Y-60013944I113137J-113137D01*
G01*
X115547372Y-60533770D02*
G75*
G03*
X115547405Y-60307463I-113172J113170D01*
G01*
X116205455Y-58290542D02*
G75*
G02*
X116045458Y-58130542I45J160042D01*
G01*
X116220600Y-57890542D02*
G75*
G03*
X116380642Y-57730542I0J160042D01*
G01*
X116205455Y-59090542D02*
G75*
G02*
X116045458Y-58930542I45J160042D01*
G01*
X116220600Y-58690542D02*
G75*
G03*
X116380642Y-58530542I0J160042D01*
G01*
X116045455Y-58050542D02*
G75*
G02*
X116205455Y-57890455I160045J42D01*
G01*
X116045455Y-58850542D02*
G75*
G02*
X116205455Y-58690455I160045J42D01*
G01*
X116380600Y-58450542D02*
G75*
G03*
X116220600Y-58290500I-160000J42D01*
G01*
X116380600Y-59250542D02*
G75*
G03*
X116220600Y-59090500I-160000J42D01*
G01*
X115536664Y-60296788D02*
G75*
G02*
X115536713Y-60070563I113136J113088D01*
G01*
D26*
%TO.N,+3.3V*%
X77800000Y-117600000D02*
X75750000Y-119650000D01*
X75750000Y-119650000D02*
X75750000Y-121900000D01*
X77900000Y-101000000D02*
X81600000Y-101000000D01*
D25*
X61925000Y-62075000D02*
X70425000Y-62075000D01*
X77800000Y-88787500D02*
X77800000Y-86800000D01*
D26*
X77800000Y-100900000D02*
X77800000Y-117600000D01*
D25*
X77800000Y-86800000D02*
X75300000Y-84300000D01*
X70425000Y-62075000D02*
X70600000Y-62250000D01*
D26*
X77800000Y-100900000D02*
X77900000Y-101000000D01*
D25*
X75300000Y-84300000D02*
X74200000Y-84300000D01*
D26*
X77800000Y-100900000D02*
X77800000Y-88787500D01*
D28*
%TO.N,/P0_RX-*%
X114950542Y-110369400D02*
X118130600Y-113549458D01*
X109094038Y-113440000D02*
X109029400Y-113440000D01*
X109029400Y-113040000D02*
X109094038Y-113040000D01*
X109685863Y-111776977D02*
X109742431Y-111720408D01*
X110549458Y-110369400D02*
X111100000Y-110369400D01*
X109254038Y-112880000D02*
X109254038Y-112800000D01*
X94869400Y-102200542D02*
X85519400Y-92850542D01*
X110262400Y-110656455D02*
X110318969Y-110599888D01*
X109254038Y-113680000D02*
X109254038Y-113600000D01*
X109649458Y-123880600D02*
X108049458Y-122280600D01*
X118130600Y-113549458D02*
X118130600Y-121200542D01*
X108869400Y-113280000D02*
X108869400Y-113200000D01*
X112540000Y-115095000D02*
X110754400Y-116880600D01*
X109979558Y-111165574D02*
X110025263Y-111211279D01*
X108869400Y-112049458D02*
X109187598Y-111731260D01*
X111100000Y-110369400D02*
X114950542Y-110369400D01*
X105518314Y-122280600D02*
X94869400Y-111631686D01*
X108049458Y-122280600D02*
X105518314Y-122280600D01*
X110308106Y-110928436D02*
X110262400Y-110882730D01*
X85800000Y-90287501D02*
X85800000Y-88787500D01*
X108869400Y-112400000D02*
X108869400Y-112049458D01*
X108869400Y-112480000D02*
X108869400Y-112400000D01*
X109753283Y-111165574D02*
X109753284Y-111165574D01*
X94869400Y-111631686D02*
X94869400Y-102200542D01*
X110754400Y-116880600D02*
X110299458Y-116880600D01*
X113750000Y-115095000D02*
X112540000Y-115095000D01*
X115450542Y-123880600D02*
X109649458Y-123880600D01*
X109094038Y-112640000D02*
X109029400Y-112640000D01*
X85519400Y-90568101D02*
X85800000Y-90287501D01*
X109696713Y-111222142D02*
X109753283Y-111165574D01*
X109742431Y-111494134D02*
X109696713Y-111448416D01*
X118130600Y-121200542D02*
X115450542Y-123880600D01*
X109413872Y-111731260D02*
X109459589Y-111776977D01*
X110318969Y-110599888D02*
X110549458Y-110369400D01*
X85519400Y-92850542D02*
X85519400Y-90568101D01*
X109029400Y-113840000D02*
X109094038Y-113840000D01*
X110251538Y-111211279D02*
X110308106Y-111154710D01*
X110299458Y-116880600D02*
X108869400Y-115450542D01*
X108869400Y-115450542D02*
X108869400Y-114000000D01*
X109029400Y-112640000D02*
G75*
G02*
X108869400Y-112480000I0J160000D01*
G01*
X109094038Y-113840000D02*
G75*
G03*
X109254000Y-113680000I-38J160000D01*
G01*
X108869400Y-114000000D02*
G75*
G02*
X109029400Y-113840000I160000J0D01*
G01*
X109742431Y-111720408D02*
G75*
G03*
X109742402Y-111494163I-113131J113108D01*
G01*
X108869400Y-113200000D02*
G75*
G02*
X109029400Y-113040000I160000J0D01*
G01*
X109753284Y-111165574D02*
G75*
G02*
X109979558Y-111165574I113137J-113137D01*
G01*
X109094038Y-113040000D02*
G75*
G03*
X109254000Y-112880000I-38J160000D01*
G01*
X109029400Y-113440000D02*
G75*
G02*
X108869400Y-113280000I0J160000D01*
G01*
X109459589Y-111776977D02*
G75*
G03*
X109685863Y-111776977I113137J113137D01*
G01*
X109254038Y-113600000D02*
G75*
G03*
X109094038Y-113439962I-160038J0D01*
G01*
X109254038Y-112800000D02*
G75*
G03*
X109094038Y-112639962I-160038J0D01*
G01*
X110025263Y-111211279D02*
G75*
G03*
X110251538Y-111211279I113137J113138D01*
G01*
X109696713Y-111448416D02*
G75*
G02*
X109696734Y-111222163I113087J113116D01*
G01*
X110262400Y-110882730D02*
G75*
G02*
X110262407Y-110656463I113100J113130D01*
G01*
X109187598Y-111731260D02*
G75*
G02*
X109413872Y-111731260I113137J-113137D01*
G01*
X110308106Y-111154710D02*
G75*
G03*
X110308079Y-110928463I-113106J113110D01*
G01*
D25*
%TO.N,/SCL{slash}MDC*%
X84800000Y-98800000D02*
X84800000Y-112800000D01*
X77400000Y-80587500D02*
X77400000Y-84428698D01*
X84800000Y-112800000D02*
X90750000Y-118750000D01*
X77400000Y-84428698D02*
X80262000Y-87290698D01*
X80262000Y-94262000D02*
X84800000Y-98800000D01*
X80262000Y-87290698D02*
X80262000Y-94262000D01*
X90750000Y-118750000D02*
X90750000Y-121900000D01*
%TO.N,/SDA{slash}MDIO*%
X78200000Y-84869488D02*
X80516000Y-87185488D01*
X80516000Y-94016000D02*
X85100000Y-98600000D01*
X85100000Y-111850000D02*
X92750000Y-119500000D01*
X92750000Y-119500000D02*
X92750000Y-121900000D01*
X80516000Y-87185488D02*
X80516000Y-94016000D01*
X85100000Y-98600000D02*
X85100000Y-111850000D01*
X78200000Y-80587500D02*
X78200000Y-84869488D01*
%TO.N,/AFT*%
X76600000Y-83987908D02*
X80008000Y-87395908D01*
X76600000Y-62600000D02*
X76125000Y-62125000D01*
X73925000Y-59925000D02*
X76125000Y-62125000D01*
X76600000Y-80587500D02*
X76600000Y-62600000D01*
X76600000Y-80587500D02*
X76600000Y-83987908D01*
X80008000Y-94508000D02*
X84500000Y-99000000D01*
X84500000Y-99000000D02*
X84500000Y-116000000D01*
X80008000Y-87395908D02*
X80008000Y-94508000D01*
X61925000Y-59925000D02*
X73925000Y-59925000D01*
X84500000Y-116000000D02*
X81750000Y-118750000D01*
X81750000Y-118750000D02*
X81750000Y-121900000D01*
%TO.N,/GPIO0*%
X81601000Y-94601000D02*
X85400000Y-98400000D01*
X83000000Y-80587500D02*
X83000000Y-84261145D01*
X81601000Y-85660145D02*
X81601000Y-94601000D01*
X85400000Y-98400000D02*
X85400000Y-110150000D01*
X94750000Y-119500000D02*
X94750000Y-121900000D01*
X85400000Y-110150000D02*
X94750000Y-119500000D01*
X83000000Y-84261145D02*
X81601000Y-85660145D01*
%TO.N,/GPIO1*%
X82000000Y-94500000D02*
X85700000Y-98200000D01*
X82000000Y-86700000D02*
X82000000Y-94500000D01*
X83800000Y-80587500D02*
X83800000Y-84900000D01*
X85700000Y-98200000D02*
X85700000Y-108700000D01*
X83800000Y-84900000D02*
X82000000Y-86700000D01*
X96750000Y-119750000D02*
X96750000Y-121900000D01*
X85700000Y-108700000D02*
X96750000Y-119750000D01*
D29*
%TO.N,VIN*%
X68400000Y-117650000D02*
X68400000Y-104600000D01*
X69750000Y-119000000D02*
X68400000Y-117650000D01*
X69750000Y-121900000D02*
X69750000Y-119000000D01*
D30*
X66025000Y-104600000D02*
X68400000Y-104600000D01*
X74200000Y-102525000D02*
X72125000Y-104600000D01*
X74200000Y-95400000D02*
X74200000Y-102525000D01*
X68400000Y-104600000D02*
X72125000Y-104600000D01*
%TD*%
%TA.AperFunction,Conductor*%
%TO.N,+5V*%
G36*
X77208691Y-87793907D02*
G01*
X77244655Y-87843407D01*
X77249500Y-87874000D01*
X77249500Y-91288500D01*
X77230593Y-91346691D01*
X77181093Y-91382655D01*
X77150500Y-91387500D01*
X76041008Y-91387500D01*
X75982817Y-91368593D01*
X75971004Y-91358504D01*
X75928996Y-91316496D01*
X75901219Y-91261979D01*
X75900000Y-91246492D01*
X75900000Y-90461500D01*
X75911426Y-90418863D01*
X75910500Y-90418480D01*
X75912977Y-90412496D01*
X75912984Y-90412485D01*
X75950500Y-90272475D01*
X75950500Y-87874000D01*
X75969407Y-87815809D01*
X76018907Y-87779845D01*
X76049500Y-87775000D01*
X77150500Y-87775000D01*
X77208691Y-87793907D01*
G37*
%TD.AperFunction*%
%TD*%
%TA.AperFunction,Conductor*%
%TO.N,VCC*%
G36*
X74808691Y-87806407D02*
G01*
X74844655Y-87855907D01*
X74849500Y-87886500D01*
X74849500Y-90272475D01*
X74887016Y-90412485D01*
X74887018Y-90412490D01*
X74889500Y-90418480D01*
X74888573Y-90418863D01*
X74900000Y-90461500D01*
X74900000Y-93201000D01*
X74881093Y-93259191D01*
X74831593Y-93295155D01*
X74801000Y-93300000D01*
X73599000Y-93300000D01*
X73540809Y-93281093D01*
X73504845Y-93231593D01*
X73500000Y-93201000D01*
X73500000Y-90461500D01*
X73511426Y-90418863D01*
X73510500Y-90418480D01*
X73512977Y-90412496D01*
X73512984Y-90412485D01*
X73550500Y-90272475D01*
X73550500Y-87886500D01*
X73569407Y-87828309D01*
X73618907Y-87792345D01*
X73649500Y-87787500D01*
X74750500Y-87787500D01*
X74808691Y-87806407D01*
G37*
%TD.AperFunction*%
%TD*%
%TA.AperFunction,Conductor*%
%TO.N,GND*%
G36*
X127002777Y-30300655D02*
G01*
X127296701Y-30317162D01*
X127307724Y-30318404D01*
X127595224Y-30367252D01*
X127606018Y-30369715D01*
X127886251Y-30450449D01*
X127896722Y-30454113D01*
X128166134Y-30565708D01*
X128176136Y-30570525D01*
X128431354Y-30711578D01*
X128440755Y-30717485D01*
X128678575Y-30886228D01*
X128687254Y-30893149D01*
X128717388Y-30920078D01*
X128904697Y-31087467D01*
X128912532Y-31095302D01*
X128985748Y-31177231D01*
X129106850Y-31312745D01*
X129113771Y-31321424D01*
X129282514Y-31559244D01*
X129288421Y-31568645D01*
X129429474Y-31823863D01*
X129434291Y-31833865D01*
X129545884Y-32103273D01*
X129549551Y-32113752D01*
X129610204Y-32324283D01*
X129627839Y-32385495D01*
X129630280Y-32393966D01*
X129632750Y-32404790D01*
X129681594Y-32692270D01*
X129682837Y-32703302D01*
X129694476Y-32910549D01*
X129678862Y-32969708D01*
X129631456Y-33008391D01*
X129589538Y-33014130D01*
X129589538Y-33014500D01*
X129586838Y-33014500D01*
X129585932Y-33014624D01*
X129584674Y-33014500D01*
X129584673Y-33014500D01*
X127374078Y-33014500D01*
X127354765Y-33012598D01*
X127288918Y-32999500D01*
X123115433Y-32999500D01*
X123057242Y-32980593D01*
X123022675Y-32935096D01*
X122993797Y-32857670D01*
X122907549Y-32742458D01*
X122907548Y-32742457D01*
X122907546Y-32742454D01*
X122825727Y-32681204D01*
X122792329Y-32656202D01*
X122657488Y-32605910D01*
X122657483Y-32605909D01*
X122657481Y-32605908D01*
X122657477Y-32605908D01*
X122626249Y-32602550D01*
X122597873Y-32599500D01*
X122597870Y-32599500D01*
X122176876Y-32599500D01*
X122118685Y-32580593D01*
X122106872Y-32570504D01*
X121644780Y-32108412D01*
X121176416Y-31640048D01*
X121120552Y-31602722D01*
X121102729Y-31590813D01*
X121053492Y-31557914D01*
X120916914Y-31501342D01*
X120771918Y-31472500D01*
X116415582Y-31472500D01*
X116415581Y-31472500D01*
X116270585Y-31501342D01*
X116134009Y-31557913D01*
X116133997Y-31557919D01*
X116066949Y-31602721D01*
X116066948Y-31602722D01*
X116011084Y-31640048D01*
X115055625Y-32595504D01*
X115001109Y-32623281D01*
X114985622Y-32624500D01*
X114602133Y-32624500D01*
X114602129Y-32624500D01*
X114602128Y-32624501D01*
X114594949Y-32625272D01*
X114542519Y-32630908D01*
X114542514Y-32630909D01*
X114407670Y-32681202D01*
X114292458Y-32767450D01*
X114292450Y-32767458D01*
X114206204Y-32882667D01*
X114206203Y-32882669D01*
X114186463Y-32935596D01*
X114148413Y-32983511D01*
X114093705Y-33000000D01*
X113170172Y-33000000D01*
X113111981Y-32981093D01*
X113076197Y-32932140D01*
X113034356Y-32805875D01*
X112942319Y-32656659D01*
X112818340Y-32532680D01*
X112669124Y-32440643D01*
X112502693Y-32385493D01*
X112399987Y-32375000D01*
X112287501Y-32375000D01*
X112287500Y-32375001D01*
X112287500Y-32901000D01*
X112268593Y-32959191D01*
X112219093Y-32995155D01*
X112188500Y-33000000D01*
X111886500Y-33000000D01*
X111828309Y-32981093D01*
X111792345Y-32931593D01*
X111787500Y-32901000D01*
X111787500Y-32375001D01*
X111787499Y-32375000D01*
X111675013Y-32375000D01*
X111675013Y-32375001D01*
X111572312Y-32385492D01*
X111572300Y-32385495D01*
X111405875Y-32440643D01*
X111256659Y-32532680D01*
X111132680Y-32656659D01*
X111040643Y-32805875D01*
X110998803Y-32932140D01*
X110962551Y-32981430D01*
X110904828Y-33000000D01*
X106453500Y-33000000D01*
X106395309Y-32981093D01*
X106359345Y-32931593D01*
X106354500Y-32901000D01*
X106354500Y-32878451D01*
X106354500Y-32878450D01*
X106322769Y-32637429D01*
X106259850Y-32402612D01*
X106166819Y-32178016D01*
X106045269Y-31967484D01*
X105897278Y-31774620D01*
X105725380Y-31602722D01*
X105532516Y-31454731D01*
X105532517Y-31454731D01*
X105532515Y-31454730D01*
X105321979Y-31333178D01*
X105097387Y-31240149D01*
X104937001Y-31197174D01*
X104862571Y-31177231D01*
X104862568Y-31177230D01*
X104862566Y-31177230D01*
X104621551Y-31145500D01*
X104621550Y-31145500D01*
X104378450Y-31145500D01*
X104378448Y-31145500D01*
X104137436Y-31177230D01*
X104137431Y-31177230D01*
X103902612Y-31240149D01*
X103678020Y-31333178D01*
X103467484Y-31454730D01*
X103274623Y-31602719D01*
X103102719Y-31774623D01*
X102954730Y-31967484D01*
X102833178Y-32178020D01*
X102740149Y-32402612D01*
X102677230Y-32637431D01*
X102677230Y-32637436D01*
X102645500Y-32878448D01*
X102645500Y-32901000D01*
X102626593Y-32959191D01*
X102577093Y-32995155D01*
X102546500Y-33000000D01*
X93000000Y-33000000D01*
X83000000Y-43000000D01*
X83000000Y-43000001D01*
X83000000Y-79238000D01*
X82981093Y-79296191D01*
X82931593Y-79332155D01*
X82901000Y-79337000D01*
X82675326Y-79337000D01*
X82675325Y-79337000D01*
X82675315Y-79337001D01*
X82602263Y-79351533D01*
X82602257Y-79351535D01*
X82519400Y-79406897D01*
X82519397Y-79406900D01*
X82464035Y-79489757D01*
X82464033Y-79489763D01*
X82449501Y-79562815D01*
X82449500Y-79562827D01*
X82449500Y-81612172D01*
X82449501Y-81612184D01*
X82464033Y-81685236D01*
X82464035Y-81685242D01*
X82519397Y-81768099D01*
X82519399Y-81768101D01*
X82602260Y-81823466D01*
X82606314Y-81824272D01*
X82659695Y-81854165D01*
X82685313Y-81909729D01*
X82686000Y-81921369D01*
X82686000Y-84090074D01*
X82667093Y-84148265D01*
X82657004Y-84160078D01*
X81349737Y-85467345D01*
X81308399Y-85538945D01*
X81308399Y-85538946D01*
X81308398Y-85538948D01*
X81305025Y-85551536D01*
X81305025Y-85551537D01*
X81287000Y-85618803D01*
X81287000Y-94103929D01*
X81268093Y-94162120D01*
X81218593Y-94198084D01*
X81157407Y-94198084D01*
X81117996Y-94173933D01*
X80858996Y-93914933D01*
X80831219Y-93860416D01*
X80830000Y-93844929D01*
X80830000Y-87144148D01*
X80829999Y-87144146D01*
X80808602Y-87064292D01*
X80808601Y-87064291D01*
X80808601Y-87064289D01*
X80767263Y-86992688D01*
X78542996Y-84768421D01*
X78515219Y-84713904D01*
X78514000Y-84698417D01*
X78514000Y-82182859D01*
X78532907Y-82124668D01*
X78582407Y-82088704D01*
X78623582Y-82084426D01*
X78652176Y-82087500D01*
X78749999Y-82087500D01*
X78750000Y-82087499D01*
X78750000Y-81622113D01*
X78750477Y-81612404D01*
X78750500Y-81612170D01*
X78750500Y-80837501D01*
X79250000Y-80837501D01*
X79250000Y-82087499D01*
X79250001Y-82087500D01*
X79347824Y-82087500D01*
X79407370Y-82081098D01*
X79407381Y-82081096D01*
X79542088Y-82030853D01*
X79542090Y-82030852D01*
X79657184Y-81944692D01*
X79657192Y-81944684D01*
X79743352Y-81829590D01*
X79743353Y-81829588D01*
X79793596Y-81694881D01*
X79793598Y-81694870D01*
X79800000Y-81635324D01*
X79800000Y-80837501D01*
X79799999Y-80837500D01*
X79250001Y-80837500D01*
X79250000Y-80837501D01*
X78750500Y-80837501D01*
X78750500Y-79562826D01*
X78750476Y-79562583D01*
X78750000Y-79552884D01*
X78750000Y-79087501D01*
X79250000Y-79087501D01*
X79250000Y-80337499D01*
X79250001Y-80337500D01*
X79799999Y-80337500D01*
X79800000Y-80337499D01*
X79800000Y-79539675D01*
X79793598Y-79480129D01*
X79793596Y-79480118D01*
X79743353Y-79345411D01*
X79743352Y-79345409D01*
X79657192Y-79230315D01*
X79657184Y-79230307D01*
X79542090Y-79144147D01*
X79542088Y-79144146D01*
X79407381Y-79093903D01*
X79407370Y-79093901D01*
X79347824Y-79087500D01*
X79250001Y-79087500D01*
X79250000Y-79087501D01*
X78750000Y-79087501D01*
X78749999Y-79087500D01*
X78652176Y-79087500D01*
X78592629Y-79093901D01*
X78592618Y-79093903D01*
X78457911Y-79144146D01*
X78457909Y-79144147D01*
X78342815Y-79230307D01*
X78342807Y-79230315D01*
X78292641Y-79297329D01*
X78242632Y-79332582D01*
X78213388Y-79337000D01*
X77875320Y-79337000D01*
X77819313Y-79348141D01*
X77780687Y-79348141D01*
X77724679Y-79337000D01*
X77724674Y-79337000D01*
X77075326Y-79337000D01*
X77075320Y-79337000D01*
X77032313Y-79345555D01*
X76971552Y-79338363D01*
X76926622Y-79296830D01*
X76914000Y-79248457D01*
X76914000Y-62558660D01*
X76913999Y-62558658D01*
X76892602Y-62478804D01*
X76892600Y-62478799D01*
X76866805Y-62434121D01*
X76866803Y-62434118D01*
X76851262Y-62407199D01*
X76317800Y-61873737D01*
X74117800Y-59673737D01*
X74046200Y-59632399D01*
X74046199Y-59632398D01*
X74046198Y-59632398D01*
X74038367Y-59630299D01*
X74029323Y-59627876D01*
X74029321Y-59627875D01*
X73989390Y-59617176D01*
X73966339Y-59611000D01*
X73966338Y-59611000D01*
X66938843Y-59611000D01*
X66880652Y-59592093D01*
X66844688Y-59542593D01*
X66841746Y-59531315D01*
X66839127Y-59518154D01*
X66835966Y-59502260D01*
X66780601Y-59419399D01*
X66780599Y-59419397D01*
X66697742Y-59364035D01*
X66697740Y-59364034D01*
X66697737Y-59364033D01*
X66697736Y-59364033D01*
X66624684Y-59349501D01*
X66624674Y-59349500D01*
X65525326Y-59349500D01*
X65525325Y-59349500D01*
X65525315Y-59349501D01*
X65452263Y-59364033D01*
X65452257Y-59364035D01*
X65369400Y-59419397D01*
X65369397Y-59419400D01*
X65314035Y-59502257D01*
X65314033Y-59502263D01*
X65308254Y-59531315D01*
X65278357Y-59584699D01*
X65222792Y-59610314D01*
X65211157Y-59611000D01*
X62788843Y-59611000D01*
X62730652Y-59592093D01*
X62694688Y-59542593D01*
X62691746Y-59531315D01*
X62689127Y-59518154D01*
X62685966Y-59502260D01*
X62630601Y-59419399D01*
X62630599Y-59419397D01*
X62547742Y-59364035D01*
X62547740Y-59364034D01*
X62547737Y-59364033D01*
X62547736Y-59364033D01*
X62474684Y-59349501D01*
X62474674Y-59349500D01*
X61375326Y-59349500D01*
X61375325Y-59349500D01*
X61375315Y-59349501D01*
X61302263Y-59364033D01*
X61302257Y-59364035D01*
X61219400Y-59419397D01*
X61219397Y-59419400D01*
X61164035Y-59502257D01*
X61164033Y-59502263D01*
X61149501Y-59575315D01*
X61149500Y-59575327D01*
X61149500Y-60274672D01*
X61149501Y-60274684D01*
X61164033Y-60347736D01*
X61164035Y-60347742D01*
X61219397Y-60430599D01*
X61219399Y-60430601D01*
X61302260Y-60485966D01*
X61357808Y-60497015D01*
X61375315Y-60500498D01*
X61375320Y-60500498D01*
X61375326Y-60500500D01*
X61375327Y-60500500D01*
X62474673Y-60500500D01*
X62474674Y-60500500D01*
X62547740Y-60485966D01*
X62630601Y-60430601D01*
X62685966Y-60347740D01*
X62691746Y-60318685D01*
X62721643Y-60265301D01*
X62777208Y-60239686D01*
X62788843Y-60239000D01*
X65211157Y-60239000D01*
X65269348Y-60257907D01*
X65305312Y-60307407D01*
X65308254Y-60318685D01*
X65314033Y-60347736D01*
X65314035Y-60347742D01*
X65369397Y-60430599D01*
X65369399Y-60430601D01*
X65452260Y-60485966D01*
X65507808Y-60497015D01*
X65525315Y-60500498D01*
X65525320Y-60500498D01*
X65525326Y-60500500D01*
X65525327Y-60500500D01*
X66624673Y-60500500D01*
X66624674Y-60500500D01*
X66697740Y-60485966D01*
X66780601Y-60430601D01*
X66835966Y-60347740D01*
X66841746Y-60318685D01*
X66871643Y-60265301D01*
X66927208Y-60239686D01*
X66938843Y-60239000D01*
X73753929Y-60239000D01*
X73812120Y-60257907D01*
X73823933Y-60267996D01*
X76257004Y-62701067D01*
X76284781Y-62755584D01*
X76286000Y-62771071D01*
X76286000Y-78992140D01*
X76267093Y-79050331D01*
X76217593Y-79086295D01*
X76176421Y-79090573D01*
X76147831Y-79087500D01*
X76050001Y-79087500D01*
X76050000Y-79087501D01*
X76050000Y-79552884D01*
X76049524Y-79562583D01*
X76049500Y-79562826D01*
X76049500Y-81612170D01*
X76049523Y-81612404D01*
X76050000Y-81622113D01*
X76050000Y-82087499D01*
X76050001Y-82087500D01*
X76147824Y-82087500D01*
X76176418Y-82084426D01*
X76236296Y-82097005D01*
X76277345Y-82142377D01*
X76286000Y-82182859D01*
X76286000Y-83402929D01*
X76267093Y-83461120D01*
X76217593Y-83497084D01*
X76156407Y-83497084D01*
X76116996Y-83472933D01*
X75342996Y-82698933D01*
X75315219Y-82644416D01*
X75314000Y-82628929D01*
X75314000Y-82182859D01*
X75332907Y-82124668D01*
X75382407Y-82088704D01*
X75423582Y-82084426D01*
X75452176Y-82087500D01*
X75549999Y-82087500D01*
X75550000Y-82087499D01*
X75550000Y-81622113D01*
X75550477Y-81612404D01*
X75550500Y-81612170D01*
X75550500Y-79562826D01*
X75550476Y-79562583D01*
X75550000Y-79552884D01*
X75550000Y-79087501D01*
X75549999Y-79087500D01*
X75452168Y-79087500D01*
X75423579Y-79090573D01*
X75363701Y-79077992D01*
X75322654Y-79032619D01*
X75314000Y-78992140D01*
X75314000Y-71458660D01*
X75313999Y-71458658D01*
X75292602Y-71378804D01*
X75292600Y-71378799D01*
X75266009Y-71332741D01*
X75266009Y-71332742D01*
X75266008Y-71332740D01*
X75251262Y-71307199D01*
X71617800Y-67673737D01*
X71546200Y-67632399D01*
X71546199Y-67632398D01*
X71546198Y-67632398D01*
X71538367Y-67630299D01*
X71529323Y-67627876D01*
X71529321Y-67627875D01*
X71476815Y-67613807D01*
X71466339Y-67611000D01*
X71466338Y-67611000D01*
X66938843Y-67611000D01*
X66880652Y-67592093D01*
X66844688Y-67542593D01*
X66841746Y-67531315D01*
X66839127Y-67518154D01*
X66835966Y-67502260D01*
X66780601Y-67419399D01*
X66780599Y-67419397D01*
X66697742Y-67364035D01*
X66697740Y-67364034D01*
X66697737Y-67364033D01*
X66697736Y-67364033D01*
X66624684Y-67349501D01*
X66624674Y-67349500D01*
X65525326Y-67349500D01*
X65525325Y-67349500D01*
X65525315Y-67349501D01*
X65452263Y-67364033D01*
X65452257Y-67364035D01*
X65369400Y-67419397D01*
X65369397Y-67419400D01*
X65314035Y-67502257D01*
X65314033Y-67502263D01*
X65308254Y-67531315D01*
X65278357Y-67584699D01*
X65222792Y-67610314D01*
X65211157Y-67611000D01*
X62788843Y-67611000D01*
X62730652Y-67592093D01*
X62694688Y-67542593D01*
X62691746Y-67531315D01*
X62689127Y-67518154D01*
X62685966Y-67502260D01*
X62630601Y-67419399D01*
X62630599Y-67419397D01*
X62547742Y-67364035D01*
X62547740Y-67364034D01*
X62547737Y-67364033D01*
X62547736Y-67364033D01*
X62474684Y-67349501D01*
X62474674Y-67349500D01*
X61375326Y-67349500D01*
X61375325Y-67349500D01*
X61375315Y-67349501D01*
X61302263Y-67364033D01*
X61302257Y-67364035D01*
X61219400Y-67419397D01*
X61219397Y-67419400D01*
X61164035Y-67502257D01*
X61164033Y-67502263D01*
X61149501Y-67575315D01*
X61149500Y-67575327D01*
X61149500Y-68274672D01*
X61149501Y-68274684D01*
X61164033Y-68347736D01*
X61164035Y-68347742D01*
X61219397Y-68430599D01*
X61219399Y-68430601D01*
X61302260Y-68485966D01*
X61357808Y-68497015D01*
X61375315Y-68500498D01*
X61375320Y-68500498D01*
X61375326Y-68500500D01*
X61375327Y-68500500D01*
X62474673Y-68500500D01*
X62474674Y-68500500D01*
X62547740Y-68485966D01*
X62630601Y-68430601D01*
X62685966Y-68347740D01*
X62691746Y-68318685D01*
X62721643Y-68265301D01*
X62777208Y-68239686D01*
X62788843Y-68239000D01*
X65211157Y-68239000D01*
X65269348Y-68257907D01*
X65305312Y-68307407D01*
X65308254Y-68318685D01*
X65314033Y-68347736D01*
X65314035Y-68347742D01*
X65369397Y-68430599D01*
X65369399Y-68430601D01*
X65452260Y-68485966D01*
X65507808Y-68497015D01*
X65525315Y-68500498D01*
X65525320Y-68500498D01*
X65525326Y-68500500D01*
X65525327Y-68500500D01*
X66624673Y-68500500D01*
X66624674Y-68500500D01*
X66697740Y-68485966D01*
X66780601Y-68430601D01*
X66835966Y-68347740D01*
X66841746Y-68318685D01*
X66871643Y-68265301D01*
X66927208Y-68239686D01*
X66938843Y-68239000D01*
X71253929Y-68239000D01*
X71312120Y-68257907D01*
X71323933Y-68267996D01*
X74657004Y-71601067D01*
X74684781Y-71655584D01*
X74686000Y-71671071D01*
X74686000Y-77548596D01*
X74667093Y-77606787D01*
X74617593Y-77642751D01*
X74556407Y-77642751D01*
X74506907Y-77606787D01*
X74498109Y-77588342D01*
X74492601Y-77578801D01*
X74492601Y-77578800D01*
X74451263Y-77507200D01*
X72617800Y-75673737D01*
X72546200Y-75632399D01*
X72546199Y-75632398D01*
X72546198Y-75632398D01*
X72538367Y-75630299D01*
X72529323Y-75627876D01*
X72529321Y-75627875D01*
X72489390Y-75617176D01*
X72466339Y-75611000D01*
X72466338Y-75611000D01*
X66938843Y-75611000D01*
X66880652Y-75592093D01*
X66844688Y-75542593D01*
X66841746Y-75531315D01*
X66839127Y-75518154D01*
X66835966Y-75502260D01*
X66780601Y-75419399D01*
X66780599Y-75419397D01*
X66697742Y-75364035D01*
X66697740Y-75364034D01*
X66697737Y-75364033D01*
X66697736Y-75364033D01*
X66624684Y-75349501D01*
X66624674Y-75349500D01*
X65525326Y-75349500D01*
X65525325Y-75349500D01*
X65525315Y-75349501D01*
X65452263Y-75364033D01*
X65452257Y-75364035D01*
X65369400Y-75419397D01*
X65369397Y-75419400D01*
X65314035Y-75502257D01*
X65314033Y-75502263D01*
X65308254Y-75531315D01*
X65278357Y-75584699D01*
X65222792Y-75610314D01*
X65211157Y-75611000D01*
X62788843Y-75611000D01*
X62730652Y-75592093D01*
X62694688Y-75542593D01*
X62691746Y-75531315D01*
X62689127Y-75518154D01*
X62685966Y-75502260D01*
X62630601Y-75419399D01*
X62630599Y-75419397D01*
X62547742Y-75364035D01*
X62547740Y-75364034D01*
X62547737Y-75364033D01*
X62547736Y-75364033D01*
X62474684Y-75349501D01*
X62474674Y-75349500D01*
X61375326Y-75349500D01*
X61375325Y-75349500D01*
X61375315Y-75349501D01*
X61302263Y-75364033D01*
X61302257Y-75364035D01*
X61219400Y-75419397D01*
X61219397Y-75419400D01*
X61164035Y-75502257D01*
X61164033Y-75502263D01*
X61149501Y-75575315D01*
X61149500Y-75575327D01*
X61149500Y-76274672D01*
X61149501Y-76274684D01*
X61164033Y-76347736D01*
X61164035Y-76347742D01*
X61219397Y-76430599D01*
X61219399Y-76430601D01*
X61302260Y-76485966D01*
X61357808Y-76497015D01*
X61375315Y-76500498D01*
X61375320Y-76500498D01*
X61375326Y-76500500D01*
X61375327Y-76500500D01*
X62474673Y-76500500D01*
X62474674Y-76500500D01*
X62547740Y-76485966D01*
X62630601Y-76430601D01*
X62685966Y-76347740D01*
X62691746Y-76318685D01*
X62721643Y-76265301D01*
X62777208Y-76239686D01*
X62788843Y-76239000D01*
X65211157Y-76239000D01*
X65269348Y-76257907D01*
X65305312Y-76307407D01*
X65308254Y-76318685D01*
X65314033Y-76347736D01*
X65314035Y-76347742D01*
X65369397Y-76430599D01*
X65369399Y-76430601D01*
X65452260Y-76485966D01*
X65507808Y-76497015D01*
X65525315Y-76500498D01*
X65525320Y-76500498D01*
X65525326Y-76500500D01*
X65525327Y-76500500D01*
X66624673Y-76500500D01*
X66624674Y-76500500D01*
X66697740Y-76485966D01*
X66780601Y-76430601D01*
X66835966Y-76347740D01*
X66841746Y-76318685D01*
X66871643Y-76265301D01*
X66927208Y-76239686D01*
X66938843Y-76239000D01*
X72253929Y-76239000D01*
X72312120Y-76257907D01*
X72323933Y-76267996D01*
X73857004Y-77801067D01*
X73884781Y-77855584D01*
X73886000Y-77871071D01*
X73886000Y-78992140D01*
X73867093Y-79050331D01*
X73817593Y-79086295D01*
X73776421Y-79090573D01*
X73747831Y-79087500D01*
X73650001Y-79087500D01*
X73650000Y-79087501D01*
X73650000Y-79552884D01*
X73649524Y-79562583D01*
X73649500Y-79562826D01*
X73649500Y-81612170D01*
X73649523Y-81612404D01*
X73650000Y-81622113D01*
X73650000Y-82087499D01*
X73656782Y-82094281D01*
X73694101Y-82106407D01*
X73730065Y-82155907D01*
X73733902Y-82200588D01*
X73719610Y-82299995D01*
X73719610Y-82300004D01*
X73730092Y-82372912D01*
X73719659Y-82433201D01*
X73675780Y-82475843D01*
X73632100Y-82486000D01*
X66059086Y-82486000D01*
X66000895Y-82467093D01*
X65989083Y-82457004D01*
X65952263Y-82420185D01*
X65952258Y-82420181D01*
X65799523Y-82324211D01*
X65629261Y-82264633D01*
X65629249Y-82264630D01*
X65494970Y-82249500D01*
X65494954Y-82249500D01*
X62505046Y-82249500D01*
X62505029Y-82249500D01*
X62370750Y-82264630D01*
X62370738Y-82264633D01*
X62200477Y-82324211D01*
X62200476Y-82324211D01*
X62047741Y-82420181D01*
X61920181Y-82547741D01*
X61824211Y-82700476D01*
X61824211Y-82700477D01*
X61764633Y-82870738D01*
X61764630Y-82870750D01*
X61749500Y-83005029D01*
X61749500Y-84194970D01*
X61764630Y-84329249D01*
X61764633Y-84329261D01*
X61824211Y-84499522D01*
X61824211Y-84499523D01*
X61920181Y-84652258D01*
X61920184Y-84652262D01*
X62047738Y-84779816D01*
X62047740Y-84779817D01*
X62047741Y-84779818D01*
X62168993Y-84856006D01*
X62200478Y-84875789D01*
X62218054Y-84881939D01*
X62370738Y-84935366D01*
X62370742Y-84935367D01*
X62370745Y-84935368D01*
X62370746Y-84935368D01*
X62370750Y-84935369D01*
X62505029Y-84950499D01*
X62505045Y-84950499D01*
X62505046Y-84950500D01*
X62505047Y-84950500D01*
X65494953Y-84950500D01*
X65494954Y-84950500D01*
X65494955Y-84950499D01*
X65494970Y-84950499D01*
X65629249Y-84935369D01*
X65629251Y-84935368D01*
X65629255Y-84935368D01*
X65799522Y-84875789D01*
X65952262Y-84779816D01*
X66079816Y-84652262D01*
X66175789Y-84499522D01*
X66235368Y-84329255D01*
X66238664Y-84300002D01*
X66250499Y-84194970D01*
X66250500Y-84194953D01*
X66250500Y-83213000D01*
X66269407Y-83154809D01*
X66318907Y-83118845D01*
X66349500Y-83114000D01*
X68102929Y-83114000D01*
X68161120Y-83132907D01*
X68197084Y-83182407D01*
X68197084Y-83243593D01*
X68172933Y-83283004D01*
X63748737Y-87707200D01*
X63707399Y-87778800D01*
X63707399Y-87778801D01*
X63707398Y-87778803D01*
X63704025Y-87791391D01*
X63704025Y-87791392D01*
X63686000Y-87858658D01*
X63686000Y-88150500D01*
X63667093Y-88208691D01*
X63617593Y-88244655D01*
X63587000Y-88249500D01*
X62505029Y-88249500D01*
X62370750Y-88264630D01*
X62370738Y-88264633D01*
X62200477Y-88324211D01*
X62200476Y-88324211D01*
X62047741Y-88420181D01*
X61920181Y-88547741D01*
X61824211Y-88700476D01*
X61824211Y-88700477D01*
X61764633Y-88870738D01*
X61764630Y-88870750D01*
X61749500Y-89005029D01*
X61749500Y-90194970D01*
X61764630Y-90329249D01*
X61764633Y-90329261D01*
X61824211Y-90499522D01*
X61824211Y-90499523D01*
X61920181Y-90652258D01*
X61920184Y-90652262D01*
X62047738Y-90779816D01*
X62200478Y-90875789D01*
X62268657Y-90899646D01*
X62370738Y-90935366D01*
X62370742Y-90935367D01*
X62370745Y-90935368D01*
X62370746Y-90935368D01*
X62370750Y-90935369D01*
X62505029Y-90950499D01*
X62505045Y-90950499D01*
X62505046Y-90950500D01*
X62505047Y-90950500D01*
X65494953Y-90950500D01*
X65494954Y-90950500D01*
X65494955Y-90950499D01*
X65494970Y-90950499D01*
X65629249Y-90935369D01*
X65629251Y-90935368D01*
X65629255Y-90935368D01*
X65799522Y-90875789D01*
X65952262Y-90779816D01*
X66079816Y-90652262D01*
X66175789Y-90499522D01*
X66235368Y-90329255D01*
X66235644Y-90326806D01*
X66250499Y-90194970D01*
X66250500Y-90194953D01*
X66250500Y-89005046D01*
X66250499Y-89005029D01*
X66235369Y-88870750D01*
X66235366Y-88870738D01*
X66211014Y-88801145D01*
X66175789Y-88700478D01*
X66102850Y-88584397D01*
X66079818Y-88547741D01*
X66079817Y-88547740D01*
X66079816Y-88547738D01*
X65952262Y-88420184D01*
X65952259Y-88420182D01*
X65952258Y-88420181D01*
X65799523Y-88324211D01*
X65629261Y-88264633D01*
X65629249Y-88264630D01*
X65494970Y-88249500D01*
X65494954Y-88249500D01*
X64413000Y-88249500D01*
X64354809Y-88230593D01*
X64318845Y-88181093D01*
X64314000Y-88150500D01*
X64314000Y-88071071D01*
X64332907Y-88012880D01*
X64342996Y-88001067D01*
X66431236Y-85912827D01*
X68749500Y-85912827D01*
X68749500Y-89812172D01*
X68749501Y-89812184D01*
X68764033Y-89885236D01*
X68764035Y-89885242D01*
X68819397Y-89968099D01*
X68819400Y-89968102D01*
X68857193Y-89993354D01*
X68902260Y-90023466D01*
X68957808Y-90034515D01*
X68975315Y-90037998D01*
X68975320Y-90037998D01*
X68975326Y-90038000D01*
X68975327Y-90038000D01*
X71324673Y-90038000D01*
X71324674Y-90038000D01*
X71397740Y-90023466D01*
X71480601Y-89968101D01*
X71535966Y-89885240D01*
X71545895Y-89835324D01*
X72199999Y-89835324D01*
X72206401Y-89894870D01*
X72206403Y-89894881D01*
X72256646Y-90029588D01*
X72256647Y-90029590D01*
X72342807Y-90144684D01*
X72342815Y-90144692D01*
X72457909Y-90230852D01*
X72457911Y-90230853D01*
X72592618Y-90281096D01*
X72592629Y-90281098D01*
X72652176Y-90287500D01*
X72749999Y-90287500D01*
X72750000Y-90287499D01*
X72750000Y-89037501D01*
X72749999Y-89037500D01*
X72200001Y-89037500D01*
X72200000Y-89037501D01*
X72200000Y-89835324D01*
X72199999Y-89835324D01*
X71545895Y-89835324D01*
X71550500Y-89812174D01*
X71550500Y-87739675D01*
X72200000Y-87739675D01*
X72200000Y-88537499D01*
X72200001Y-88537500D01*
X72749999Y-88537500D01*
X72750000Y-88537499D01*
X72750000Y-87287501D01*
X72749999Y-87287500D01*
X72652176Y-87287500D01*
X72592629Y-87293901D01*
X72592618Y-87293903D01*
X72457911Y-87344146D01*
X72457909Y-87344147D01*
X72342815Y-87430307D01*
X72342807Y-87430315D01*
X72256647Y-87545409D01*
X72256646Y-87545411D01*
X72206403Y-87680118D01*
X72206401Y-87680129D01*
X72200000Y-87739675D01*
X71550500Y-87739675D01*
X71550500Y-85912826D01*
X71535966Y-85839760D01*
X71480601Y-85756899D01*
X71480599Y-85756897D01*
X71397742Y-85701535D01*
X71397740Y-85701534D01*
X71397737Y-85701533D01*
X71397736Y-85701533D01*
X71324684Y-85687001D01*
X71324674Y-85687000D01*
X68975326Y-85687000D01*
X68975325Y-85687000D01*
X68975315Y-85687001D01*
X68902263Y-85701533D01*
X68902257Y-85701535D01*
X68819400Y-85756897D01*
X68819397Y-85756900D01*
X68764035Y-85839757D01*
X68764033Y-85839763D01*
X68749501Y-85912815D01*
X68749500Y-85912827D01*
X66431236Y-85912827D01*
X68701073Y-83642990D01*
X68755590Y-83615213D01*
X68771077Y-83613994D01*
X71682207Y-83613994D01*
X71740398Y-83632901D01*
X71776362Y-83682401D01*
X71776362Y-83743587D01*
X71740398Y-83793087D01*
X71737209Y-83795309D01*
X71627796Y-83868416D01*
X71480916Y-84015296D01*
X71365512Y-84188008D01*
X71365512Y-84188009D01*
X71286024Y-84379912D01*
X71286024Y-84379914D01*
X71245500Y-84583638D01*
X71245500Y-84791361D01*
X71266965Y-84899271D01*
X71274145Y-84935369D01*
X71286024Y-84995085D01*
X71286024Y-84995087D01*
X71365512Y-85186990D01*
X71365512Y-85186991D01*
X71480916Y-85359703D01*
X71480917Y-85359704D01*
X71627796Y-85506583D01*
X71800507Y-85621986D01*
X71992414Y-85701476D01*
X72196141Y-85742000D01*
X72196142Y-85742000D01*
X72403858Y-85742000D01*
X72403859Y-85742000D01*
X72607586Y-85701476D01*
X72799493Y-85621986D01*
X72972204Y-85506583D01*
X73119083Y-85359704D01*
X73234486Y-85186993D01*
X73313976Y-84995086D01*
X73354500Y-84791359D01*
X73354500Y-84583641D01*
X73313976Y-84379914D01*
X73234487Y-84188009D01*
X73234487Y-84188008D01*
X73119083Y-84015296D01*
X72972203Y-83868416D01*
X72862791Y-83795309D01*
X72824912Y-83747259D01*
X72822510Y-83686121D01*
X72856503Y-83635247D01*
X72913907Y-83614070D01*
X72917793Y-83613994D01*
X73669648Y-83613994D01*
X73706157Y-83620972D01*
X73941805Y-83714464D01*
X73988921Y-83753497D01*
X74004095Y-83812771D01*
X73981531Y-83869644D01*
X73958818Y-83889769D01*
X73885412Y-83936943D01*
X73795868Y-84040284D01*
X73739069Y-84164654D01*
X73739067Y-84164662D01*
X73719610Y-84299997D01*
X73719610Y-84300002D01*
X73739067Y-84435337D01*
X73739069Y-84435345D01*
X73795868Y-84559715D01*
X73795869Y-84559716D01*
X73795870Y-84559718D01*
X73885411Y-84663055D01*
X74000439Y-84736978D01*
X74131633Y-84775500D01*
X74131634Y-84775500D01*
X74268366Y-84775500D01*
X74268367Y-84775500D01*
X74268368Y-84775499D01*
X74268372Y-84775499D01*
X74371176Y-84745312D01*
X74381221Y-84742923D01*
X74385355Y-84742165D01*
X74390997Y-84741131D01*
X74693846Y-84620978D01*
X74730355Y-84614000D01*
X75128929Y-84614000D01*
X75187120Y-84632907D01*
X75198933Y-84642996D01*
X77457004Y-86901067D01*
X77484781Y-86955584D01*
X77486000Y-86971071D01*
X77486000Y-87448457D01*
X77467093Y-87506648D01*
X77417593Y-87542612D01*
X77367687Y-87545555D01*
X77324679Y-87537000D01*
X77324674Y-87537000D01*
X77260506Y-87537000D01*
X77233286Y-87532689D01*
X77233233Y-87532912D01*
X77230403Y-87532232D01*
X77229914Y-87532155D01*
X77229744Y-87532100D01*
X77229447Y-87532003D01*
X77150503Y-87519500D01*
X77150500Y-87519500D01*
X76173511Y-87519500D01*
X76115320Y-87500593D01*
X76094258Y-87479829D01*
X76057192Y-87430315D01*
X76057184Y-87430307D01*
X75942090Y-87344147D01*
X75942088Y-87344146D01*
X75807381Y-87293903D01*
X75807370Y-87293901D01*
X75747824Y-87287500D01*
X75650001Y-87287500D01*
X75650000Y-87287501D01*
X75650000Y-87752884D01*
X75649524Y-87762583D01*
X75649500Y-87762826D01*
X75649500Y-89812170D01*
X75649523Y-89812404D01*
X75650000Y-89822113D01*
X75650000Y-90302141D01*
X75662567Y-90326806D01*
X75660413Y-90367913D01*
X75656008Y-90384352D01*
X75655677Y-90386150D01*
X75653207Y-90395364D01*
X75653207Y-90395367D01*
X75644500Y-90461500D01*
X75644500Y-91246492D01*
X75645288Y-91266541D01*
X75646507Y-91282028D01*
X75646508Y-91282031D01*
X75673564Y-91377968D01*
X75673566Y-91377974D01*
X75701338Y-91432481D01*
X75701342Y-91432488D01*
X75722978Y-91462267D01*
X75748325Y-91497156D01*
X75748327Y-91497158D01*
X75748330Y-91497162D01*
X75790338Y-91539170D01*
X75805072Y-91552790D01*
X75816885Y-91562879D01*
X75898871Y-91608791D01*
X75940405Y-91653719D01*
X75949500Y-91695169D01*
X75949500Y-116289546D01*
X75930593Y-116347737D01*
X75920504Y-116359550D01*
X73244720Y-119035334D01*
X73193936Y-119111338D01*
X73176780Y-119137016D01*
X73176779Y-119137018D01*
X73176778Y-119137017D01*
X73173538Y-119141867D01*
X73173534Y-119141875D01*
X73124500Y-119260252D01*
X73124499Y-119260257D01*
X73099500Y-119385930D01*
X73099500Y-120066882D01*
X73080593Y-120125073D01*
X73079790Y-120126161D01*
X73069745Y-120139579D01*
X73056201Y-120157672D01*
X73005910Y-120292511D01*
X73005909Y-120292517D01*
X72999728Y-120350012D01*
X72999500Y-120352129D01*
X72999500Y-123447866D01*
X72999500Y-123447869D01*
X72999501Y-123447872D01*
X73001044Y-123462229D01*
X73005908Y-123507480D01*
X73005909Y-123507485D01*
X73056202Y-123642329D01*
X73113691Y-123719124D01*
X73142454Y-123757546D01*
X73142457Y-123757548D01*
X73142458Y-123757549D01*
X73257670Y-123843797D01*
X73392511Y-123894089D01*
X73392512Y-123894089D01*
X73392517Y-123894091D01*
X73452127Y-123900500D01*
X74047872Y-123900499D01*
X74107483Y-123894091D01*
X74176525Y-123868340D01*
X74242329Y-123843797D01*
X74242329Y-123843796D01*
X74242331Y-123843796D01*
X74357546Y-123757546D01*
X74443796Y-123642331D01*
X74494091Y-123507483D01*
X74500500Y-123447873D01*
X74500499Y-120352128D01*
X74494091Y-120292517D01*
X74477231Y-120247312D01*
X74443798Y-120157672D01*
X74443796Y-120157669D01*
X74420245Y-120126209D01*
X74400510Y-120068296D01*
X74400500Y-120066882D01*
X74400500Y-119760453D01*
X74419407Y-119702262D01*
X74429490Y-119690455D01*
X77080498Y-117039447D01*
X77135013Y-117011672D01*
X77195445Y-117021243D01*
X77238710Y-117064508D01*
X77249500Y-117109453D01*
X77249500Y-117330967D01*
X77230593Y-117389158D01*
X77220504Y-117400971D01*
X75309488Y-119311987D01*
X75250206Y-119414666D01*
X75250207Y-119414667D01*
X75237016Y-119437514D01*
X75199500Y-119577525D01*
X75199500Y-119950193D01*
X75180593Y-120008384D01*
X75159831Y-120029445D01*
X75142457Y-120042451D01*
X75142450Y-120042458D01*
X75056202Y-120157670D01*
X75005910Y-120292511D01*
X75005909Y-120292517D01*
X74999728Y-120350012D01*
X74999500Y-120352129D01*
X74999500Y-123447866D01*
X74999500Y-123447869D01*
X74999501Y-123447872D01*
X75001044Y-123462229D01*
X75005908Y-123507480D01*
X75005909Y-123507485D01*
X75056202Y-123642329D01*
X75113691Y-123719124D01*
X75142454Y-123757546D01*
X75142457Y-123757548D01*
X75142458Y-123757549D01*
X75257670Y-123843797D01*
X75392511Y-123894089D01*
X75392512Y-123894089D01*
X75392517Y-123894091D01*
X75452127Y-123900500D01*
X76047872Y-123900499D01*
X76107483Y-123894091D01*
X76176525Y-123868340D01*
X76242329Y-123843797D01*
X76242329Y-123843796D01*
X76242331Y-123843796D01*
X76357546Y-123757546D01*
X76443796Y-123642331D01*
X76494091Y-123507483D01*
X76500500Y-123447873D01*
X76500499Y-120352128D01*
X76494091Y-120292517D01*
X76477231Y-120247312D01*
X76443797Y-120157670D01*
X76357549Y-120042458D01*
X76357548Y-120042457D01*
X76357546Y-120042454D01*
X76357541Y-120042450D01*
X76340169Y-120029445D01*
X76304917Y-119979435D01*
X76300500Y-119950193D01*
X76300500Y-119919032D01*
X76319407Y-119860841D01*
X76329490Y-119849034D01*
X78240510Y-117938015D01*
X78312984Y-117812485D01*
X78350500Y-117672474D01*
X78350500Y-117527526D01*
X78350500Y-109375521D01*
X78369407Y-109317330D01*
X78418907Y-109281366D01*
X78480093Y-109281366D01*
X78529593Y-109317330D01*
X78531815Y-109320519D01*
X78594724Y-109414669D01*
X78685331Y-109505276D01*
X78748848Y-109547717D01*
X78791866Y-109576461D01*
X78791870Y-109576463D01*
X78791873Y-109576465D01*
X78910256Y-109625501D01*
X79035931Y-109650500D01*
X79267707Y-109650500D01*
X79325898Y-109669407D01*
X79361862Y-109718907D01*
X79364226Y-109727477D01*
X79364632Y-109729257D01*
X79424211Y-109899522D01*
X79424211Y-109899523D01*
X79514427Y-110043100D01*
X79520184Y-110052262D01*
X79647738Y-110179816D01*
X79647740Y-110179817D01*
X79647741Y-110179818D01*
X79800474Y-110275787D01*
X79800478Y-110275789D01*
X79868657Y-110299646D01*
X79970738Y-110335366D01*
X79970742Y-110335367D01*
X79970745Y-110335368D01*
X79970746Y-110335368D01*
X79970750Y-110335369D01*
X80105029Y-110350499D01*
X80105045Y-110350499D01*
X80105046Y-110350500D01*
X80105047Y-110350500D01*
X83094953Y-110350500D01*
X83094954Y-110350500D01*
X83094955Y-110350499D01*
X83094970Y-110350499D01*
X83229249Y-110335369D01*
X83229251Y-110335368D01*
X83229255Y-110335368D01*
X83399522Y-110275789D01*
X83434328Y-110253919D01*
X83493658Y-110238968D01*
X83550446Y-110261746D01*
X83582999Y-110313553D01*
X83586000Y-110337744D01*
X83586000Y-114028928D01*
X83567093Y-114087119D01*
X83557004Y-114098932D01*
X77785431Y-119870504D01*
X77730914Y-119898281D01*
X77715427Y-119899500D01*
X77452133Y-119899500D01*
X77452129Y-119899500D01*
X77452128Y-119899501D01*
X77444949Y-119900272D01*
X77392519Y-119905908D01*
X77392514Y-119905909D01*
X77257670Y-119956202D01*
X77142458Y-120042450D01*
X77142450Y-120042458D01*
X77056202Y-120157670D01*
X77005910Y-120292511D01*
X77005909Y-120292517D01*
X76999728Y-120350012D01*
X76999500Y-120352129D01*
X76999500Y-123447866D01*
X76999500Y-123447869D01*
X76999501Y-123447872D01*
X77001044Y-123462229D01*
X77005908Y-123507480D01*
X77005909Y-123507485D01*
X77056202Y-123642329D01*
X77113691Y-123719124D01*
X77142454Y-123757546D01*
X77142457Y-123757548D01*
X77142458Y-123757549D01*
X77257670Y-123843797D01*
X77392511Y-123894089D01*
X77392512Y-123894089D01*
X77392517Y-123894091D01*
X77452127Y-123900500D01*
X78047872Y-123900499D01*
X78107483Y-123894091D01*
X78176525Y-123868340D01*
X78242329Y-123843797D01*
X78242329Y-123843796D01*
X78242331Y-123843796D01*
X78357546Y-123757546D01*
X78443796Y-123642331D01*
X78494091Y-123507483D01*
X78500500Y-123447873D01*
X78500499Y-120352128D01*
X78494091Y-120292517D01*
X78477231Y-120247312D01*
X78450436Y-120175471D01*
X78447816Y-120114342D01*
X78473188Y-120070873D01*
X79266996Y-119277065D01*
X79321513Y-119249289D01*
X79381945Y-119258860D01*
X79425210Y-119302125D01*
X79436000Y-119347070D01*
X79436000Y-119820953D01*
X79417093Y-119879144D01*
X79371597Y-119913711D01*
X79257669Y-119956203D01*
X79142458Y-120042450D01*
X79142450Y-120042458D01*
X79056202Y-120157670D01*
X79005910Y-120292511D01*
X79005909Y-120292517D01*
X78999728Y-120350012D01*
X78999500Y-120352129D01*
X78999500Y-123447866D01*
X78999500Y-123447869D01*
X78999501Y-123447872D01*
X79001044Y-123462229D01*
X79005908Y-123507480D01*
X79005909Y-123507485D01*
X79056202Y-123642329D01*
X79113691Y-123719124D01*
X79142454Y-123757546D01*
X79142457Y-123757548D01*
X79142458Y-123757549D01*
X79257670Y-123843797D01*
X79392511Y-123894089D01*
X79392512Y-123894089D01*
X79392517Y-123894091D01*
X79452127Y-123900500D01*
X80047872Y-123900499D01*
X80107483Y-123894091D01*
X80176525Y-123868340D01*
X80242329Y-123843797D01*
X80242329Y-123843796D01*
X80242331Y-123843796D01*
X80357546Y-123757546D01*
X80443796Y-123642331D01*
X80494091Y-123507483D01*
X80500500Y-123447873D01*
X80500499Y-120352128D01*
X80494091Y-120292517D01*
X80477231Y-120247312D01*
X80443797Y-120157670D01*
X80357549Y-120042458D01*
X80357548Y-120042457D01*
X80357546Y-120042454D01*
X80340168Y-120029445D01*
X80242330Y-119956203D01*
X80128403Y-119913711D01*
X80080489Y-119875660D01*
X80064000Y-119820953D01*
X80064000Y-119521071D01*
X80082907Y-119462880D01*
X80092996Y-119451067D01*
X84016996Y-115527067D01*
X84071513Y-115499290D01*
X84131945Y-115508861D01*
X84175210Y-115552126D01*
X84186000Y-115597071D01*
X84186000Y-115828929D01*
X84167093Y-115887120D01*
X84157004Y-115898933D01*
X81498737Y-118557200D01*
X81457399Y-118628800D01*
X81457399Y-118628801D01*
X81457398Y-118628803D01*
X81454025Y-118641391D01*
X81454025Y-118641392D01*
X81436000Y-118708658D01*
X81436000Y-119820953D01*
X81417093Y-119879144D01*
X81371597Y-119913711D01*
X81257669Y-119956203D01*
X81142458Y-120042450D01*
X81142450Y-120042458D01*
X81056202Y-120157670D01*
X81005910Y-120292511D01*
X81005909Y-120292517D01*
X80999728Y-120350012D01*
X80999500Y-120352129D01*
X80999500Y-123447866D01*
X80999500Y-123447869D01*
X80999501Y-123447872D01*
X81001044Y-123462229D01*
X81005908Y-123507480D01*
X81005909Y-123507485D01*
X81056202Y-123642329D01*
X81113691Y-123719124D01*
X81142454Y-123757546D01*
X81142457Y-123757548D01*
X81142458Y-123757549D01*
X81257670Y-123843797D01*
X81392511Y-123894089D01*
X81392512Y-123894089D01*
X81392517Y-123894091D01*
X81452127Y-123900500D01*
X82047872Y-123900499D01*
X82107483Y-123894091D01*
X82176525Y-123868340D01*
X82242329Y-123843797D01*
X82242329Y-123843796D01*
X82242331Y-123843796D01*
X82357546Y-123757546D01*
X82443796Y-123642331D01*
X82494091Y-123507483D01*
X82500500Y-123447873D01*
X82500500Y-122150001D01*
X87750001Y-122150001D01*
X87750001Y-123449986D01*
X87760492Y-123552687D01*
X87760495Y-123552699D01*
X87815643Y-123719124D01*
X87907680Y-123868340D01*
X88031659Y-123992319D01*
X88180875Y-124084356D01*
X88347306Y-124139506D01*
X88450013Y-124149999D01*
X88500000Y-124149998D01*
X88500000Y-122150001D01*
X89000000Y-122150001D01*
X89000000Y-124149998D01*
X89000001Y-124149999D01*
X89049986Y-124149999D01*
X89152687Y-124139507D01*
X89152699Y-124139504D01*
X89319124Y-124084356D01*
X89468340Y-123992319D01*
X89592319Y-123868340D01*
X89684356Y-123719124D01*
X89739506Y-123552693D01*
X89750000Y-123449987D01*
X89750000Y-122150001D01*
X89749999Y-122150000D01*
X89000001Y-122150000D01*
X89000000Y-122150001D01*
X88500000Y-122150001D01*
X88499999Y-122150000D01*
X87750002Y-122150000D01*
X87750001Y-122150001D01*
X82500500Y-122150001D01*
X82500499Y-120352128D01*
X82500272Y-120350012D01*
X87750000Y-120350012D01*
X87750000Y-121649999D01*
X87750001Y-121650000D01*
X88499999Y-121650000D01*
X88500000Y-121649999D01*
X88500000Y-119650001D01*
X89000000Y-119650001D01*
X89000000Y-121649999D01*
X89000001Y-121650000D01*
X89749998Y-121650000D01*
X89749999Y-121649999D01*
X89749999Y-120350013D01*
X89739507Y-120247312D01*
X89739504Y-120247300D01*
X89684356Y-120080875D01*
X89592319Y-119931659D01*
X89468340Y-119807680D01*
X89319124Y-119715643D01*
X89152693Y-119660493D01*
X89049987Y-119650000D01*
X89000001Y-119650000D01*
X89000000Y-119650001D01*
X88500000Y-119650001D01*
X88500000Y-119649999D01*
X88450015Y-119650000D01*
X88450012Y-119650001D01*
X88347312Y-119660492D01*
X88347300Y-119660495D01*
X88180875Y-119715643D01*
X88031659Y-119807680D01*
X87907680Y-119931659D01*
X87815643Y-120080875D01*
X87760493Y-120247306D01*
X87750000Y-120350012D01*
X82500272Y-120350012D01*
X82494091Y-120292517D01*
X82477231Y-120247312D01*
X82443797Y-120157670D01*
X82357549Y-120042458D01*
X82357548Y-120042457D01*
X82357546Y-120042454D01*
X82340168Y-120029445D01*
X82242330Y-119956203D01*
X82128403Y-119913711D01*
X82080489Y-119875660D01*
X82064000Y-119820953D01*
X82064000Y-118921070D01*
X82082907Y-118862879D01*
X82092990Y-118851072D01*
X84751262Y-116192801D01*
X84792601Y-116121200D01*
X84799695Y-116094723D01*
X84814000Y-116041339D01*
X84814000Y-113497071D01*
X84832907Y-113438880D01*
X84882407Y-113402916D01*
X84943593Y-113402916D01*
X84983004Y-113427067D01*
X90407004Y-118851067D01*
X90434781Y-118905584D01*
X90436000Y-118921071D01*
X90436000Y-119820953D01*
X90417093Y-119879144D01*
X90371597Y-119913711D01*
X90257669Y-119956203D01*
X90142458Y-120042450D01*
X90142450Y-120042458D01*
X90056202Y-120157670D01*
X90005910Y-120292511D01*
X90005909Y-120292517D01*
X89999728Y-120350012D01*
X89999500Y-120352129D01*
X89999500Y-123447866D01*
X89999500Y-123447869D01*
X89999501Y-123447872D01*
X90001044Y-123462229D01*
X90005908Y-123507480D01*
X90005909Y-123507485D01*
X90056202Y-123642329D01*
X90113691Y-123719124D01*
X90142454Y-123757546D01*
X90142457Y-123757548D01*
X90142458Y-123757549D01*
X90257670Y-123843797D01*
X90392511Y-123894089D01*
X90392512Y-123894089D01*
X90392517Y-123894091D01*
X90452127Y-123900500D01*
X91047872Y-123900499D01*
X91107483Y-123894091D01*
X91176525Y-123868340D01*
X91242329Y-123843797D01*
X91242329Y-123843796D01*
X91242331Y-123843796D01*
X91357546Y-123757546D01*
X91443796Y-123642331D01*
X91494091Y-123507483D01*
X91500500Y-123447873D01*
X91500499Y-120352128D01*
X91494091Y-120292517D01*
X91477231Y-120247312D01*
X91443797Y-120157670D01*
X91357549Y-120042458D01*
X91357548Y-120042457D01*
X91357546Y-120042454D01*
X91340168Y-120029445D01*
X91242330Y-119956203D01*
X91128403Y-119913711D01*
X91080489Y-119875660D01*
X91064000Y-119820953D01*
X91064000Y-118708660D01*
X91063999Y-118708658D01*
X91042601Y-118628801D01*
X91020257Y-118590100D01*
X91001263Y-118557200D01*
X85142996Y-112698933D01*
X85115219Y-112644416D01*
X85114000Y-112628929D01*
X85114000Y-112547071D01*
X85132907Y-112488880D01*
X85182407Y-112452916D01*
X85243593Y-112452916D01*
X85283004Y-112477067D01*
X92407004Y-119601067D01*
X92434781Y-119655584D01*
X92436000Y-119671071D01*
X92436000Y-119820953D01*
X92417093Y-119879144D01*
X92371597Y-119913711D01*
X92257669Y-119956203D01*
X92142458Y-120042450D01*
X92142450Y-120042458D01*
X92056202Y-120157670D01*
X92005910Y-120292511D01*
X92005909Y-120292517D01*
X91999728Y-120350012D01*
X91999500Y-120352129D01*
X91999500Y-123447866D01*
X91999500Y-123447869D01*
X91999501Y-123447872D01*
X92001044Y-123462229D01*
X92005908Y-123507480D01*
X92005909Y-123507485D01*
X92056202Y-123642329D01*
X92113691Y-123719124D01*
X92142454Y-123757546D01*
X92142457Y-123757548D01*
X92142458Y-123757549D01*
X92257670Y-123843797D01*
X92392511Y-123894089D01*
X92392512Y-123894089D01*
X92392517Y-123894091D01*
X92452127Y-123900500D01*
X93047872Y-123900499D01*
X93107483Y-123894091D01*
X93176525Y-123868340D01*
X93242329Y-123843797D01*
X93242329Y-123843796D01*
X93242331Y-123843796D01*
X93357546Y-123757546D01*
X93443796Y-123642331D01*
X93494091Y-123507483D01*
X93500500Y-123447873D01*
X93500499Y-120352128D01*
X93494091Y-120292517D01*
X93477231Y-120247312D01*
X93443797Y-120157670D01*
X93357549Y-120042458D01*
X93357548Y-120042457D01*
X93357546Y-120042454D01*
X93340168Y-120029445D01*
X93242330Y-119956203D01*
X93128403Y-119913711D01*
X93080489Y-119875660D01*
X93064000Y-119820953D01*
X93064000Y-119458660D01*
X93063999Y-119458658D01*
X93058333Y-119437514D01*
X93042601Y-119378801D01*
X93001263Y-119307200D01*
X85442996Y-111748933D01*
X85415219Y-111694416D01*
X85414000Y-111678929D01*
X85414000Y-110847071D01*
X85432907Y-110788880D01*
X85482407Y-110752916D01*
X85543593Y-110752916D01*
X85583004Y-110777067D01*
X94407004Y-119601067D01*
X94434781Y-119655584D01*
X94436000Y-119671071D01*
X94436000Y-119820953D01*
X94417093Y-119879144D01*
X94371597Y-119913711D01*
X94257669Y-119956203D01*
X94142458Y-120042450D01*
X94142450Y-120042458D01*
X94056202Y-120157670D01*
X94005910Y-120292511D01*
X94005909Y-120292517D01*
X93999728Y-120350012D01*
X93999500Y-120352129D01*
X93999500Y-123447866D01*
X93999500Y-123447869D01*
X93999501Y-123447872D01*
X94001044Y-123462229D01*
X94005908Y-123507480D01*
X94005909Y-123507485D01*
X94056202Y-123642329D01*
X94113691Y-123719124D01*
X94142454Y-123757546D01*
X94142457Y-123757548D01*
X94142458Y-123757549D01*
X94257670Y-123843797D01*
X94392511Y-123894089D01*
X94392512Y-123894089D01*
X94392517Y-123894091D01*
X94452127Y-123900500D01*
X95047872Y-123900499D01*
X95107483Y-123894091D01*
X95176525Y-123868340D01*
X95242329Y-123843797D01*
X95242329Y-123843796D01*
X95242331Y-123843796D01*
X95357546Y-123757546D01*
X95443796Y-123642331D01*
X95494091Y-123507483D01*
X95500500Y-123447873D01*
X95500499Y-120352128D01*
X95494091Y-120292517D01*
X95477231Y-120247312D01*
X95443797Y-120157670D01*
X95357549Y-120042458D01*
X95357548Y-120042457D01*
X95357546Y-120042454D01*
X95340168Y-120029445D01*
X95242330Y-119956203D01*
X95128403Y-119913711D01*
X95080489Y-119875660D01*
X95064000Y-119820953D01*
X95064000Y-119458660D01*
X95063999Y-119458658D01*
X95058333Y-119437514D01*
X95042601Y-119378801D01*
X95001263Y-119307200D01*
X85742996Y-110048933D01*
X85715219Y-109994416D01*
X85714000Y-109978929D01*
X85714000Y-109397071D01*
X85732907Y-109338880D01*
X85782407Y-109302916D01*
X85843593Y-109302916D01*
X85883004Y-109327067D01*
X96334083Y-119778146D01*
X96361860Y-119832663D01*
X96352289Y-119893095D01*
X96309024Y-119936360D01*
X96298677Y-119940907D01*
X96257671Y-119956201D01*
X96142458Y-120042450D01*
X96142450Y-120042458D01*
X96056202Y-120157670D01*
X96005910Y-120292511D01*
X96005909Y-120292517D01*
X95999728Y-120350012D01*
X95999500Y-120352129D01*
X95999500Y-123447866D01*
X95999500Y-123447869D01*
X95999501Y-123447872D01*
X96001044Y-123462229D01*
X96005908Y-123507480D01*
X96005909Y-123507485D01*
X96056202Y-123642329D01*
X96113691Y-123719124D01*
X96142454Y-123757546D01*
X96142457Y-123757548D01*
X96142458Y-123757549D01*
X96257670Y-123843797D01*
X96392511Y-123894089D01*
X96392512Y-123894089D01*
X96392517Y-123894091D01*
X96452127Y-123900500D01*
X97047872Y-123900499D01*
X97107483Y-123894091D01*
X97176525Y-123868340D01*
X97242329Y-123843797D01*
X97242329Y-123843796D01*
X97242331Y-123843796D01*
X97357546Y-123757546D01*
X97443796Y-123642331D01*
X97494091Y-123507483D01*
X97500500Y-123447873D01*
X97500499Y-120539506D01*
X97519406Y-120481316D01*
X97568906Y-120445352D01*
X97630092Y-120445352D01*
X97669503Y-120469503D01*
X97970504Y-120770504D01*
X97998281Y-120825021D01*
X97999500Y-120840508D01*
X97999500Y-123447866D01*
X97999500Y-123447869D01*
X97999501Y-123447872D01*
X98001044Y-123462229D01*
X98005908Y-123507480D01*
X98005909Y-123507485D01*
X98056202Y-123642329D01*
X98113691Y-123719124D01*
X98142454Y-123757546D01*
X98142457Y-123757548D01*
X98142458Y-123757549D01*
X98257670Y-123843797D01*
X98392511Y-123894089D01*
X98392512Y-123894089D01*
X98392517Y-123894091D01*
X98452127Y-123900500D01*
X99047872Y-123900499D01*
X99107483Y-123894091D01*
X99176525Y-123868340D01*
X99242329Y-123843797D01*
X99242329Y-123843796D01*
X99242331Y-123843796D01*
X99357546Y-123757546D01*
X99443796Y-123642331D01*
X99494091Y-123507483D01*
X99500500Y-123447873D01*
X99500499Y-122539506D01*
X99519406Y-122481316D01*
X99568906Y-122445352D01*
X99630092Y-122445352D01*
X99669503Y-122469503D01*
X99970504Y-122770504D01*
X99998281Y-122825021D01*
X99999500Y-122840508D01*
X99999500Y-123447866D01*
X99999500Y-123447869D01*
X99999501Y-123447872D01*
X100001044Y-123462229D01*
X100005908Y-123507480D01*
X100005909Y-123507485D01*
X100056202Y-123642329D01*
X100113691Y-123719124D01*
X100142454Y-123757546D01*
X100142457Y-123757548D01*
X100142458Y-123757549D01*
X100257670Y-123843797D01*
X100392511Y-123894089D01*
X100392512Y-123894089D01*
X100392517Y-123894091D01*
X100452127Y-123900500D01*
X101047872Y-123900499D01*
X101048291Y-123900454D01*
X101048375Y-123900471D01*
X101050517Y-123900357D01*
X101050547Y-123900927D01*
X101108170Y-123913030D01*
X101128882Y-123928882D01*
X102494195Y-125294195D01*
X102521972Y-125348712D01*
X102512401Y-125409144D01*
X102469136Y-125452409D01*
X102452300Y-125458385D01*
X102452436Y-125458794D01*
X102280876Y-125515643D01*
X102131660Y-125607680D01*
X102007680Y-125731660D01*
X101915643Y-125880876D01*
X101860493Y-126047307D01*
X101850000Y-126150013D01*
X101850000Y-127399999D01*
X101850001Y-127400000D01*
X104349999Y-127400000D01*
X104350000Y-127399999D01*
X104350000Y-126599000D01*
X104368907Y-126540809D01*
X104418407Y-126504845D01*
X104449000Y-126500000D01*
X105546500Y-126500000D01*
X105604691Y-126518907D01*
X105640655Y-126568407D01*
X105645500Y-126599000D01*
X105645500Y-126621551D01*
X105677230Y-126862563D01*
X105677230Y-126862568D01*
X105740149Y-127097387D01*
X105833178Y-127321979D01*
X105878222Y-127399999D01*
X105954731Y-127532516D01*
X106102722Y-127725380D01*
X106274620Y-127897278D01*
X106467484Y-128045269D01*
X106678016Y-128166819D01*
X106678017Y-128166819D01*
X106678020Y-128166821D01*
X106819394Y-128225380D01*
X106902612Y-128259850D01*
X107137429Y-128322769D01*
X107378450Y-128354500D01*
X107378451Y-128354500D01*
X107621549Y-128354500D01*
X107621550Y-128354500D01*
X107862571Y-128322769D01*
X108097388Y-128259850D01*
X108321984Y-128166819D01*
X108532516Y-128045269D01*
X108725380Y-127897278D01*
X108897278Y-127725380D01*
X109045269Y-127532516D01*
X109166819Y-127321984D01*
X109259850Y-127097388D01*
X109322769Y-126862571D01*
X109354500Y-126621550D01*
X109354500Y-126599000D01*
X109373407Y-126540809D01*
X109422907Y-126504845D01*
X109453500Y-126500000D01*
X121499999Y-126500000D01*
X121500000Y-126500000D01*
X123500000Y-124500000D01*
X123500000Y-123852513D01*
X123518907Y-123794322D01*
X123568407Y-123758358D01*
X123629593Y-123758358D01*
X123677542Y-123792246D01*
X123803885Y-123956900D01*
X123978100Y-124131115D01*
X124173565Y-124281100D01*
X124386935Y-124404289D01*
X124386936Y-124404289D01*
X124386939Y-124404291D01*
X124614558Y-124498574D01*
X124852541Y-124562341D01*
X125096811Y-124594500D01*
X125096812Y-124594500D01*
X125343188Y-124594500D01*
X125343189Y-124594500D01*
X125587459Y-124562341D01*
X125825442Y-124498574D01*
X126053065Y-124404289D01*
X126266435Y-124281100D01*
X126461900Y-124131115D01*
X126580498Y-124012516D01*
X126635013Y-123984741D01*
X126695445Y-123994312D01*
X126738710Y-124037577D01*
X126749500Y-124082522D01*
X126749500Y-126759672D01*
X126749501Y-126759684D01*
X126764033Y-126832736D01*
X126764035Y-126832742D01*
X126819397Y-126915599D01*
X126819400Y-126915602D01*
X126874478Y-126952403D01*
X126902260Y-126970966D01*
X126957808Y-126982015D01*
X126975315Y-126985498D01*
X126975320Y-126985498D01*
X126975326Y-126985500D01*
X126975327Y-126985500D01*
X129564673Y-126985500D01*
X129564674Y-126985500D01*
X129576517Y-126983144D01*
X129637278Y-126990331D01*
X129682211Y-127031860D01*
X129694681Y-127085791D01*
X129682837Y-127296697D01*
X129681594Y-127307729D01*
X129632750Y-127595209D01*
X129630280Y-127606033D01*
X129549551Y-127886247D01*
X129545884Y-127896726D01*
X129434291Y-128166134D01*
X129429474Y-128176136D01*
X129288421Y-128431354D01*
X129282514Y-128440755D01*
X129113771Y-128678575D01*
X129106850Y-128687254D01*
X128912540Y-128904689D01*
X128904689Y-128912540D01*
X128687254Y-129106850D01*
X128678575Y-129113771D01*
X128440755Y-129282514D01*
X128431354Y-129288421D01*
X128176136Y-129429474D01*
X128166134Y-129434291D01*
X127896726Y-129545884D01*
X127886247Y-129549551D01*
X127606033Y-129630280D01*
X127595209Y-129632750D01*
X127307729Y-129681594D01*
X127296697Y-129682837D01*
X127002778Y-129699344D01*
X126997227Y-129699500D01*
X126944430Y-129699500D01*
X126944418Y-129699501D01*
X104288800Y-129699501D01*
X104230609Y-129680594D01*
X104194645Y-129631094D01*
X104194645Y-129569908D01*
X104204539Y-129548529D01*
X104284356Y-129419123D01*
X104339506Y-129252692D01*
X104350000Y-129149986D01*
X104350000Y-127900001D01*
X104349999Y-127900000D01*
X101850001Y-127900000D01*
X101850000Y-127900001D01*
X101850000Y-129149986D01*
X101860493Y-129252692D01*
X101915643Y-129419123D01*
X101995461Y-129548529D01*
X102009917Y-129607982D01*
X101986667Y-129664577D01*
X101934591Y-129696698D01*
X101911200Y-129699501D01*
X87588800Y-129699501D01*
X87530609Y-129680594D01*
X87494645Y-129631094D01*
X87494645Y-129569908D01*
X87504539Y-129548529D01*
X87584356Y-129419123D01*
X87639506Y-129252692D01*
X87650000Y-129149986D01*
X87650000Y-127900001D01*
X87649999Y-127900000D01*
X82850001Y-127900000D01*
X82850000Y-127900001D01*
X82850000Y-129149986D01*
X82860493Y-129252692D01*
X82915643Y-129419123D01*
X82995461Y-129548529D01*
X83009917Y-129607982D01*
X82986667Y-129664577D01*
X82934591Y-129696698D01*
X82911200Y-129699501D01*
X68588800Y-129699501D01*
X68530609Y-129680594D01*
X68494645Y-129631094D01*
X68494645Y-129569908D01*
X68504539Y-129548529D01*
X68584356Y-129419123D01*
X68639506Y-129252692D01*
X68650000Y-129149986D01*
X68650000Y-127900001D01*
X68649999Y-127900000D01*
X66150001Y-127900000D01*
X66150000Y-127900001D01*
X66150000Y-129149986D01*
X66160493Y-129252692D01*
X66215643Y-129419123D01*
X66295461Y-129548529D01*
X66309917Y-129607982D01*
X66286667Y-129664577D01*
X66234591Y-129696698D01*
X66211200Y-129699501D01*
X63002772Y-129699501D01*
X62997221Y-129699345D01*
X62703301Y-129682838D01*
X62692269Y-129681595D01*
X62404789Y-129632751D01*
X62393965Y-129630281D01*
X62113751Y-129549552D01*
X62103272Y-129545885D01*
X61833864Y-129434292D01*
X61823862Y-129429475D01*
X61568645Y-129288422D01*
X61559245Y-129282516D01*
X61517212Y-129252692D01*
X61321410Y-129113762D01*
X61312754Y-129106860D01*
X61095302Y-128912532D01*
X61087467Y-128904697D01*
X60893138Y-128687243D01*
X60886238Y-128678592D01*
X60717480Y-128440749D01*
X60711577Y-128431354D01*
X60570524Y-128176137D01*
X60565707Y-128166135D01*
X60565707Y-128166134D01*
X60454112Y-127896723D01*
X60450447Y-127886248D01*
X60450447Y-127886247D01*
X60369714Y-127606019D01*
X60367251Y-127595225D01*
X60318403Y-127307725D01*
X60317161Y-127296698D01*
X60300656Y-127002795D01*
X60300500Y-126997244D01*
X60300500Y-126878448D01*
X61145500Y-126878448D01*
X61145500Y-127121551D01*
X61177230Y-127362563D01*
X61177230Y-127362568D01*
X61240149Y-127597387D01*
X61333178Y-127821979D01*
X61376333Y-127896727D01*
X61454731Y-128032516D01*
X61602722Y-128225380D01*
X61774620Y-128397278D01*
X61967484Y-128545269D01*
X62178016Y-128666819D01*
X62178017Y-128666819D01*
X62178020Y-128666821D01*
X62206397Y-128678575D01*
X62402612Y-128759850D01*
X62637429Y-128822769D01*
X62878450Y-128854500D01*
X62878451Y-128854500D01*
X63121549Y-128854500D01*
X63121550Y-128854500D01*
X63362571Y-128822769D01*
X63597388Y-128759850D01*
X63821984Y-128666819D01*
X64032516Y-128545269D01*
X64225380Y-128397278D01*
X64397278Y-128225380D01*
X64545269Y-128032516D01*
X64666819Y-127821984D01*
X64759850Y-127597388D01*
X64822769Y-127362571D01*
X64854500Y-127121550D01*
X64854500Y-126878450D01*
X64822769Y-126637429D01*
X64759850Y-126402612D01*
X64666819Y-126178016D01*
X64650652Y-126150013D01*
X66150000Y-126150013D01*
X66150000Y-127399999D01*
X66150001Y-127400000D01*
X67149999Y-127400000D01*
X67150000Y-127399999D01*
X67150000Y-125450001D01*
X67650000Y-125450001D01*
X67650000Y-127399999D01*
X67650001Y-127400000D01*
X68649999Y-127400000D01*
X68650000Y-127399999D01*
X68650000Y-126150013D01*
X82850000Y-126150013D01*
X82850000Y-127399999D01*
X82850001Y-127400000D01*
X83849999Y-127400000D01*
X83850000Y-127399999D01*
X83850000Y-125450001D01*
X84350000Y-125450001D01*
X84350000Y-127399999D01*
X84350001Y-127400000D01*
X86149999Y-127400000D01*
X86150000Y-127399999D01*
X86150000Y-125450001D01*
X86650000Y-125450001D01*
X86650000Y-127399999D01*
X86650001Y-127400000D01*
X87649999Y-127400000D01*
X87650000Y-127399999D01*
X87650000Y-126150013D01*
X87639506Y-126047307D01*
X87584356Y-125880876D01*
X87492319Y-125731660D01*
X87368339Y-125607680D01*
X87219123Y-125515643D01*
X87052692Y-125460493D01*
X86949986Y-125450000D01*
X86650001Y-125450000D01*
X86650000Y-125450001D01*
X86150000Y-125450001D01*
X86149999Y-125450000D01*
X85850014Y-125450000D01*
X85747307Y-125460493D01*
X85580876Y-125515643D01*
X85431660Y-125607680D01*
X85320004Y-125719337D01*
X85265487Y-125747114D01*
X85205055Y-125737543D01*
X85179996Y-125719337D01*
X85068339Y-125607680D01*
X84919123Y-125515643D01*
X84752692Y-125460493D01*
X84649986Y-125450000D01*
X84350001Y-125450000D01*
X84350000Y-125450001D01*
X83850000Y-125450001D01*
X83849999Y-125450000D01*
X83550014Y-125450000D01*
X83447307Y-125460493D01*
X83280876Y-125515643D01*
X83131660Y-125607680D01*
X83007680Y-125731660D01*
X82915643Y-125880876D01*
X82860493Y-126047307D01*
X82850000Y-126150013D01*
X68650000Y-126150013D01*
X68639506Y-126047307D01*
X68584356Y-125880876D01*
X68492319Y-125731660D01*
X68368339Y-125607680D01*
X68219123Y-125515643D01*
X68052692Y-125460493D01*
X67949986Y-125450000D01*
X67650001Y-125450000D01*
X67650000Y-125450001D01*
X67150000Y-125450001D01*
X67149999Y-125450000D01*
X66850014Y-125450000D01*
X66747307Y-125460493D01*
X66580876Y-125515643D01*
X66431660Y-125607680D01*
X66307680Y-125731660D01*
X66215643Y-125880876D01*
X66160493Y-126047307D01*
X66150000Y-126150013D01*
X64650652Y-126150013D01*
X64545269Y-125967484D01*
X64397278Y-125774620D01*
X64225380Y-125602722D01*
X64181098Y-125568743D01*
X64032515Y-125454730D01*
X63821979Y-125333178D01*
X63597387Y-125240149D01*
X63437001Y-125197174D01*
X63362571Y-125177231D01*
X63362568Y-125177230D01*
X63362566Y-125177230D01*
X63121551Y-125145500D01*
X63121550Y-125145500D01*
X62878450Y-125145500D01*
X62878448Y-125145500D01*
X62637436Y-125177230D01*
X62637431Y-125177230D01*
X62402612Y-125240149D01*
X62178020Y-125333178D01*
X61967484Y-125454730D01*
X61774623Y-125602719D01*
X61602719Y-125774623D01*
X61454730Y-125967484D01*
X61333178Y-126178020D01*
X61240149Y-126402612D01*
X61177230Y-126637431D01*
X61177230Y-126637436D01*
X61145500Y-126878448D01*
X60300500Y-126878448D01*
X60300500Y-121200000D01*
X61753554Y-121200000D01*
X64246446Y-121200000D01*
X63000000Y-119953554D01*
X61753554Y-121200000D01*
X60300500Y-121200000D01*
X60300500Y-118998404D01*
X60500000Y-118998404D01*
X60500000Y-120201595D01*
X60515190Y-120355831D01*
X60515191Y-120355836D01*
X60575232Y-120553762D01*
X60575234Y-120553767D01*
X60672724Y-120736160D01*
X60672731Y-120736170D01*
X60803940Y-120896050D01*
X60803949Y-120896059D01*
X60963829Y-121027268D01*
X60963835Y-121027272D01*
X61130232Y-121116212D01*
X61130233Y-121116212D01*
X62646446Y-119600000D01*
X62646445Y-119599999D01*
X63353553Y-119599999D01*
X64869765Y-121116212D01*
X64869766Y-121116212D01*
X65036164Y-121027272D01*
X65036170Y-121027268D01*
X65196050Y-120896059D01*
X65196059Y-120896050D01*
X65327268Y-120736170D01*
X65327275Y-120736160D01*
X65424765Y-120553767D01*
X65424767Y-120553762D01*
X65484808Y-120355836D01*
X65484809Y-120355831D01*
X65500000Y-120201595D01*
X65500000Y-118998404D01*
X65484809Y-118844168D01*
X65484808Y-118844163D01*
X65424767Y-118646237D01*
X65424765Y-118646232D01*
X65327275Y-118463839D01*
X65327268Y-118463829D01*
X65196059Y-118303949D01*
X65196050Y-118303940D01*
X65036169Y-118172730D01*
X64869766Y-118083786D01*
X64869765Y-118083786D01*
X63353553Y-119599999D01*
X62646445Y-119599999D01*
X61130232Y-118083786D01*
X60963829Y-118172731D01*
X60963823Y-118172735D01*
X60803949Y-118303940D01*
X60803940Y-118303949D01*
X60672731Y-118463829D01*
X60672724Y-118463839D01*
X60575234Y-118646232D01*
X60575232Y-118646237D01*
X60515191Y-118844163D01*
X60515190Y-118844168D01*
X60500000Y-118998404D01*
X60300500Y-118998404D01*
X60300500Y-118000000D01*
X61753554Y-118000000D01*
X63000000Y-119246446D01*
X64246446Y-118000000D01*
X61753554Y-118000000D01*
X60300500Y-118000000D01*
X60300500Y-116250001D01*
X64125000Y-116250001D01*
X64125000Y-116944918D01*
X64140123Y-117079145D01*
X64140124Y-117079149D01*
X64199663Y-117249302D01*
X64295574Y-117401944D01*
X64423055Y-117529425D01*
X64423054Y-117529425D01*
X64575697Y-117625336D01*
X64745850Y-117684875D01*
X64745854Y-117684876D01*
X64880081Y-117699999D01*
X64880084Y-117700000D01*
X65774999Y-117700000D01*
X65775000Y-117699999D01*
X65775000Y-116250001D01*
X65774999Y-116250000D01*
X64125001Y-116250000D01*
X64125000Y-116250001D01*
X60300500Y-116250001D01*
X60300500Y-115055081D01*
X64125000Y-115055081D01*
X64125000Y-115749999D01*
X64125001Y-115750000D01*
X65774999Y-115750000D01*
X65775000Y-115749999D01*
X65775000Y-114300001D01*
X65774999Y-114300000D01*
X64880081Y-114300000D01*
X64745854Y-114315123D01*
X64745850Y-114315124D01*
X64575697Y-114374663D01*
X64423055Y-114470574D01*
X64295574Y-114598055D01*
X64199663Y-114750697D01*
X64140124Y-114920850D01*
X64140123Y-114920854D01*
X64125000Y-115055081D01*
X60300500Y-115055081D01*
X60300500Y-110196138D01*
X64970500Y-110196138D01*
X64970500Y-110196141D01*
X64970500Y-110403859D01*
X65003616Y-110570346D01*
X65011024Y-110607585D01*
X65011024Y-110607587D01*
X65090512Y-110799490D01*
X65090512Y-110799491D01*
X65205916Y-110972203D01*
X65205917Y-110972204D01*
X65352796Y-111119083D01*
X65525507Y-111234486D01*
X65717414Y-111313976D01*
X65921141Y-111354500D01*
X65921142Y-111354500D01*
X66128858Y-111354500D01*
X66128859Y-111354500D01*
X66332586Y-111313976D01*
X66524493Y-111234486D01*
X66697204Y-111119083D01*
X66844083Y-110972204D01*
X66959486Y-110799493D01*
X67038976Y-110607586D01*
X67079500Y-110403859D01*
X67079500Y-110196141D01*
X67038976Y-109992414D01*
X66959487Y-109800509D01*
X66959487Y-109800508D01*
X66844083Y-109627796D01*
X66697203Y-109480916D01*
X66524490Y-109365512D01*
X66332586Y-109286024D01*
X66128861Y-109245500D01*
X66128859Y-109245500D01*
X65921141Y-109245500D01*
X65921138Y-109245500D01*
X65717414Y-109286024D01*
X65717412Y-109286024D01*
X65525509Y-109365512D01*
X65525508Y-109365512D01*
X65352796Y-109480916D01*
X65205916Y-109627796D01*
X65090512Y-109800508D01*
X65090512Y-109800509D01*
X65011024Y-109992412D01*
X65011024Y-109992414D01*
X64970500Y-110196138D01*
X60300500Y-110196138D01*
X60300500Y-103656893D01*
X64374500Y-103656893D01*
X64374500Y-105543106D01*
X64385123Y-105631565D01*
X64440637Y-105772339D01*
X64440638Y-105772341D01*
X64440639Y-105772342D01*
X64532078Y-105892922D01*
X64652658Y-105984361D01*
X64652659Y-105984361D01*
X64652660Y-105984362D01*
X64723047Y-106012119D01*
X64793436Y-106039877D01*
X64881898Y-106050500D01*
X64881900Y-106050500D01*
X67168100Y-106050500D01*
X67168102Y-106050500D01*
X67256564Y-106039877D01*
X67397342Y-105984361D01*
X67517922Y-105892922D01*
X67519145Y-105891309D01*
X67520382Y-105889679D01*
X67570609Y-105854738D01*
X67599264Y-105850500D01*
X67650500Y-105850500D01*
X67708691Y-105869407D01*
X67744655Y-105918907D01*
X67749500Y-105949500D01*
X67749500Y-114368454D01*
X67730593Y-114426645D01*
X67681093Y-114462609D01*
X67619907Y-114462609D01*
X67597829Y-114452280D01*
X67474302Y-114374663D01*
X67304149Y-114315124D01*
X67304145Y-114315123D01*
X67169918Y-114300000D01*
X66275001Y-114300000D01*
X66275000Y-114300001D01*
X66275000Y-117699999D01*
X66275001Y-117700000D01*
X67169916Y-117700000D01*
X67169918Y-117699999D01*
X67304145Y-117684876D01*
X67304149Y-117684875D01*
X67474302Y-117625336D01*
X67597829Y-117547719D01*
X67657160Y-117532769D01*
X67713947Y-117555548D01*
X67746499Y-117607355D01*
X67749500Y-117631545D01*
X67749500Y-117714069D01*
X67769077Y-117812484D01*
X67769077Y-117812485D01*
X67774499Y-117839745D01*
X67823533Y-117958124D01*
X67823534Y-117958126D01*
X67823535Y-117958127D01*
X67894723Y-118064669D01*
X69070505Y-119240451D01*
X69098281Y-119294966D01*
X69099500Y-119310453D01*
X69099500Y-120066882D01*
X69080593Y-120125073D01*
X69079790Y-120126161D01*
X69069745Y-120139579D01*
X69056201Y-120157672D01*
X69005910Y-120292511D01*
X69005909Y-120292517D01*
X68999728Y-120350012D01*
X68999500Y-120352129D01*
X68999500Y-123447866D01*
X68999500Y-123447869D01*
X68999501Y-123447872D01*
X69001044Y-123462229D01*
X69005908Y-123507480D01*
X69005909Y-123507485D01*
X69056202Y-123642329D01*
X69113691Y-123719124D01*
X69142454Y-123757546D01*
X69142457Y-123757548D01*
X69142458Y-123757549D01*
X69257670Y-123843797D01*
X69392511Y-123894089D01*
X69392512Y-123894089D01*
X69392517Y-123894091D01*
X69452127Y-123900500D01*
X70047872Y-123900499D01*
X70107483Y-123894091D01*
X70176525Y-123868340D01*
X70242329Y-123843797D01*
X70242329Y-123843796D01*
X70242331Y-123843796D01*
X70357546Y-123757546D01*
X70443796Y-123642331D01*
X70494091Y-123507483D01*
X70500500Y-123447873D01*
X70500500Y-122150001D01*
X70750001Y-122150001D01*
X70750001Y-123449986D01*
X70760492Y-123552687D01*
X70760495Y-123552699D01*
X70815643Y-123719124D01*
X70907680Y-123868340D01*
X71031659Y-123992319D01*
X71180875Y-124084356D01*
X71347306Y-124139506D01*
X71450013Y-124149999D01*
X71500000Y-124149998D01*
X71500000Y-122150001D01*
X72000000Y-122150001D01*
X72000000Y-124149998D01*
X72000001Y-124149999D01*
X72049986Y-124149999D01*
X72152687Y-124139507D01*
X72152699Y-124139504D01*
X72319124Y-124084356D01*
X72468340Y-123992319D01*
X72592319Y-123868340D01*
X72684356Y-123719124D01*
X72739506Y-123552693D01*
X72750000Y-123449987D01*
X72750000Y-122150001D01*
X72749999Y-122150000D01*
X72000001Y-122150000D01*
X72000000Y-122150001D01*
X71500000Y-122150001D01*
X71499999Y-122150000D01*
X70750002Y-122150000D01*
X70750001Y-122150001D01*
X70500500Y-122150001D01*
X70500499Y-120352128D01*
X70500272Y-120350012D01*
X70750000Y-120350012D01*
X70750000Y-121649999D01*
X70750001Y-121650000D01*
X71499999Y-121650000D01*
X71500000Y-121649999D01*
X71500000Y-119650001D01*
X72000000Y-119650001D01*
X72000000Y-121649999D01*
X72000001Y-121650000D01*
X72749998Y-121650000D01*
X72749999Y-121649999D01*
X72749999Y-120350013D01*
X72739507Y-120247312D01*
X72739504Y-120247300D01*
X72684356Y-120080875D01*
X72592319Y-119931659D01*
X72468340Y-119807680D01*
X72319124Y-119715643D01*
X72152693Y-119660493D01*
X72049987Y-119650000D01*
X72000001Y-119650000D01*
X72000000Y-119650001D01*
X71500000Y-119650001D01*
X71500000Y-119649999D01*
X71450015Y-119650000D01*
X71450012Y-119650001D01*
X71347312Y-119660492D01*
X71347300Y-119660495D01*
X71180875Y-119715643D01*
X71031659Y-119807680D01*
X70907680Y-119931659D01*
X70815643Y-120080875D01*
X70760493Y-120247306D01*
X70750000Y-120350012D01*
X70500272Y-120350012D01*
X70494091Y-120292517D01*
X70477231Y-120247312D01*
X70443798Y-120157672D01*
X70443796Y-120157669D01*
X70420245Y-120126209D01*
X70400510Y-120068296D01*
X70400500Y-120066882D01*
X70400500Y-118935932D01*
X70400500Y-118935931D01*
X70375501Y-118810256D01*
X70326465Y-118691873D01*
X70255276Y-118585330D01*
X69079496Y-117409550D01*
X69051719Y-117355033D01*
X69050500Y-117339546D01*
X69050500Y-115056893D01*
X70474500Y-115056893D01*
X70474500Y-116943106D01*
X70485123Y-117031565D01*
X70540637Y-117172339D01*
X70540638Y-117172341D01*
X70540639Y-117172342D01*
X70632078Y-117292922D01*
X70752658Y-117384361D01*
X70752659Y-117384361D01*
X70752660Y-117384362D01*
X70823047Y-117412119D01*
X70893436Y-117439877D01*
X70981898Y-117450500D01*
X70981900Y-117450500D01*
X73268100Y-117450500D01*
X73268102Y-117450500D01*
X73356564Y-117439877D01*
X73497342Y-117384361D01*
X73617922Y-117292922D01*
X73709361Y-117172342D01*
X73764877Y-117031564D01*
X73775500Y-116943102D01*
X73775500Y-115056898D01*
X73764877Y-114968436D01*
X73709361Y-114827658D01*
X73617922Y-114707078D01*
X73497342Y-114615639D01*
X73497341Y-114615638D01*
X73497339Y-114615637D01*
X73356565Y-114560123D01*
X73268106Y-114549500D01*
X73268102Y-114549500D01*
X70981898Y-114549500D01*
X70981893Y-114549500D01*
X70893434Y-114560123D01*
X70752660Y-114615637D01*
X70752656Y-114615640D01*
X70632081Y-114707075D01*
X70632075Y-114707081D01*
X70540640Y-114827656D01*
X70540637Y-114827660D01*
X70485123Y-114968434D01*
X70474500Y-115056893D01*
X69050500Y-115056893D01*
X69050500Y-110209135D01*
X69370500Y-110209135D01*
X69370500Y-110390864D01*
X69398926Y-110570341D01*
X69455083Y-110743174D01*
X69537582Y-110905089D01*
X69537586Y-110905095D01*
X69644392Y-111052100D01*
X69644394Y-111052102D01*
X69644397Y-111052106D01*
X69772894Y-111180603D01*
X69772897Y-111180605D01*
X69772899Y-111180607D01*
X69919904Y-111287413D01*
X69919910Y-111287417D01*
X70081826Y-111369917D01*
X70254654Y-111426072D01*
X70254655Y-111426072D01*
X70254658Y-111426073D01*
X70434136Y-111454500D01*
X70434139Y-111454500D01*
X70615864Y-111454500D01*
X70795341Y-111426073D01*
X70795342Y-111426072D01*
X70795346Y-111426072D01*
X70968174Y-111369917D01*
X71130090Y-111287417D01*
X71277106Y-111180603D01*
X71405603Y-111052106D01*
X71512417Y-110905090D01*
X71594917Y-110743174D01*
X71651072Y-110570346D01*
X71677441Y-110403861D01*
X71679500Y-110390864D01*
X71679500Y-110209135D01*
X71651073Y-110029658D01*
X71651072Y-110029654D01*
X71594917Y-109856826D01*
X71512417Y-109694910D01*
X71512413Y-109694904D01*
X71405607Y-109547899D01*
X71405605Y-109547897D01*
X71405603Y-109547894D01*
X71277106Y-109419397D01*
X71277102Y-109419394D01*
X71277100Y-109419392D01*
X71130095Y-109312586D01*
X71130089Y-109312582D01*
X70968174Y-109230083D01*
X70795341Y-109173926D01*
X70615864Y-109145500D01*
X70615861Y-109145500D01*
X70434139Y-109145500D01*
X70434136Y-109145500D01*
X70254658Y-109173926D01*
X70081825Y-109230083D01*
X69919910Y-109312582D01*
X69919904Y-109312586D01*
X69772899Y-109419392D01*
X69644392Y-109547899D01*
X69537586Y-109694904D01*
X69537582Y-109694910D01*
X69455083Y-109856825D01*
X69398926Y-110029658D01*
X69370500Y-110209135D01*
X69050500Y-110209135D01*
X69050500Y-105949500D01*
X69069407Y-105891309D01*
X69118907Y-105855345D01*
X69149500Y-105850500D01*
X70550736Y-105850500D01*
X70608927Y-105869407D01*
X70629618Y-105889679D01*
X70632072Y-105892915D01*
X70632074Y-105892917D01*
X70632078Y-105892922D01*
X70752658Y-105984361D01*
X70752659Y-105984361D01*
X70752660Y-105984362D01*
X70823047Y-106012119D01*
X70893436Y-106039877D01*
X70981898Y-106050500D01*
X70981900Y-106050500D01*
X73268100Y-106050500D01*
X73268102Y-106050500D01*
X73356564Y-106039877D01*
X73497342Y-105984361D01*
X73617922Y-105892922D01*
X73709361Y-105772342D01*
X73764877Y-105631564D01*
X73775500Y-105543102D01*
X73775500Y-104758981D01*
X73794407Y-104700790D01*
X73804490Y-104688983D01*
X75153828Y-103339646D01*
X75269524Y-103180405D01*
X75358884Y-103005026D01*
X75419709Y-102817826D01*
X75450500Y-102623417D01*
X75450500Y-102426584D01*
X75450500Y-95301583D01*
X75450500Y-95301579D01*
X75419710Y-95107178D01*
X75419709Y-95107174D01*
X75358884Y-94919975D01*
X75269524Y-94744595D01*
X75153828Y-94585354D01*
X75014646Y-94446172D01*
X74855405Y-94330476D01*
X74855404Y-94330475D01*
X74855402Y-94330474D01*
X74680025Y-94241116D01*
X74492821Y-94180289D01*
X74298420Y-94149500D01*
X74298417Y-94149500D01*
X74101583Y-94149500D01*
X74101580Y-94149500D01*
X73907178Y-94180289D01*
X73719974Y-94241116D01*
X73544597Y-94330474D01*
X73385355Y-94446171D01*
X73246171Y-94585355D01*
X73130474Y-94744597D01*
X73041116Y-94919974D01*
X72980289Y-95107178D01*
X72949500Y-95301579D01*
X72949500Y-101966018D01*
X72930593Y-102024209D01*
X72920504Y-102036022D01*
X71836022Y-103120504D01*
X71781505Y-103148281D01*
X71766018Y-103149500D01*
X70981893Y-103149500D01*
X70893434Y-103160123D01*
X70752660Y-103215637D01*
X70752656Y-103215640D01*
X70632081Y-103307075D01*
X70632072Y-103307084D01*
X70629618Y-103310321D01*
X70579391Y-103345262D01*
X70550736Y-103349500D01*
X67599264Y-103349500D01*
X67541073Y-103330593D01*
X67520382Y-103310321D01*
X67517927Y-103307084D01*
X67517924Y-103307081D01*
X67517922Y-103307078D01*
X67397342Y-103215639D01*
X67397341Y-103215638D01*
X67397339Y-103215637D01*
X67256565Y-103160123D01*
X67168106Y-103149500D01*
X67168102Y-103149500D01*
X64881898Y-103149500D01*
X64881893Y-103149500D01*
X64793434Y-103160123D01*
X64652660Y-103215637D01*
X64652656Y-103215640D01*
X64532081Y-103307075D01*
X64532075Y-103307081D01*
X64440640Y-103427656D01*
X64440637Y-103427660D01*
X64385123Y-103568434D01*
X64374500Y-103656893D01*
X60300500Y-103656893D01*
X60300500Y-100600000D01*
X68453554Y-100600000D01*
X70946446Y-100600000D01*
X69700000Y-99353554D01*
X68453554Y-100600000D01*
X60300500Y-100600000D01*
X60300500Y-98398404D01*
X67200000Y-98398404D01*
X67200000Y-99601595D01*
X67215190Y-99755831D01*
X67215191Y-99755836D01*
X67275232Y-99953762D01*
X67275234Y-99953767D01*
X67372724Y-100136160D01*
X67372731Y-100136170D01*
X67503940Y-100296050D01*
X67503949Y-100296059D01*
X67663829Y-100427268D01*
X67663835Y-100427272D01*
X67830232Y-100516212D01*
X67830233Y-100516212D01*
X69346446Y-99000000D01*
X69346445Y-98999999D01*
X70053553Y-98999999D01*
X71569765Y-100516212D01*
X71569766Y-100516212D01*
X71736164Y-100427272D01*
X71736170Y-100427268D01*
X71896050Y-100296059D01*
X71896059Y-100296050D01*
X72027268Y-100136170D01*
X72027275Y-100136160D01*
X72124765Y-99953767D01*
X72124767Y-99953762D01*
X72184808Y-99755836D01*
X72184809Y-99755831D01*
X72200000Y-99601595D01*
X72200000Y-98398404D01*
X72184809Y-98244168D01*
X72184808Y-98244163D01*
X72124767Y-98046237D01*
X72124765Y-98046232D01*
X72027275Y-97863839D01*
X72027268Y-97863829D01*
X71896059Y-97703949D01*
X71896050Y-97703940D01*
X71736169Y-97572730D01*
X71569766Y-97483786D01*
X71569765Y-97483786D01*
X70053553Y-98999999D01*
X69346445Y-98999999D01*
X67830232Y-97483786D01*
X67663829Y-97572731D01*
X67663823Y-97572735D01*
X67503949Y-97703940D01*
X67503940Y-97703949D01*
X67372731Y-97863829D01*
X67372724Y-97863839D01*
X67275234Y-98046232D01*
X67275232Y-98046237D01*
X67215191Y-98244163D01*
X67215190Y-98244168D01*
X67200000Y-98398404D01*
X60300500Y-98398404D01*
X60300500Y-97400000D01*
X68453554Y-97400000D01*
X69700000Y-98646446D01*
X70946446Y-97400000D01*
X68453554Y-97400000D01*
X60300500Y-97400000D01*
X60300500Y-92505029D01*
X67449500Y-92505029D01*
X67449500Y-93694970D01*
X67464630Y-93829249D01*
X67464633Y-93829261D01*
X67524211Y-93999522D01*
X67524211Y-93999523D01*
X67620181Y-94152258D01*
X67620184Y-94152262D01*
X67747738Y-94279816D01*
X67747740Y-94279817D01*
X67747741Y-94279818D01*
X67828359Y-94330474D01*
X67900478Y-94375789D01*
X67968657Y-94399646D01*
X68070738Y-94435366D01*
X68070742Y-94435367D01*
X68070745Y-94435368D01*
X68070746Y-94435368D01*
X68070750Y-94435369D01*
X68205029Y-94450499D01*
X68205045Y-94450499D01*
X68205046Y-94450500D01*
X68205047Y-94450500D01*
X71194953Y-94450500D01*
X71194954Y-94450500D01*
X71194955Y-94450499D01*
X71194970Y-94450499D01*
X71329249Y-94435369D01*
X71329251Y-94435368D01*
X71329255Y-94435368D01*
X71499522Y-94375789D01*
X71652262Y-94279816D01*
X71779816Y-94152262D01*
X71875789Y-93999522D01*
X71935368Y-93829255D01*
X71935369Y-93829249D01*
X71950499Y-93694970D01*
X71950500Y-93694953D01*
X71950500Y-93449500D01*
X71969407Y-93391309D01*
X72018907Y-93355345D01*
X72049500Y-93350500D01*
X73208487Y-93350500D01*
X73266678Y-93369407D01*
X73267800Y-93370235D01*
X73295951Y-93391309D01*
X73303969Y-93397311D01*
X73324731Y-93418371D01*
X73334105Y-93431273D01*
X73374876Y-93475378D01*
X73461857Y-93524088D01*
X73520048Y-93542995D01*
X73520049Y-93542995D01*
X73520052Y-93542996D01*
X73598997Y-93555500D01*
X73599000Y-93555500D01*
X74800994Y-93555500D01*
X74801000Y-93555500D01*
X74840965Y-93552355D01*
X74871558Y-93547510D01*
X74891239Y-93543595D01*
X74981773Y-93501859D01*
X75031273Y-93465895D01*
X75075378Y-93425124D01*
X75077033Y-93422168D01*
X75104080Y-93391285D01*
X75182546Y-93332546D01*
X75268796Y-93217331D01*
X75290892Y-93158090D01*
X75319089Y-93082488D01*
X75319088Y-93082488D01*
X75319091Y-93082483D01*
X75325500Y-93022873D01*
X75325499Y-92177128D01*
X75319091Y-92117517D01*
X75296708Y-92057504D01*
X75268797Y-91982670D01*
X75178303Y-91861786D01*
X75179975Y-91860533D01*
X75156719Y-91814888D01*
X75155500Y-91799401D01*
X75155500Y-90461501D01*
X75146791Y-90395360D01*
X75144325Y-90386159D01*
X75144349Y-90385690D01*
X75139587Y-90367918D01*
X75142788Y-90306816D01*
X75150000Y-90295710D01*
X75150000Y-89822113D01*
X75150477Y-89812404D01*
X75150500Y-89812170D01*
X75150500Y-87762826D01*
X75150476Y-87762583D01*
X75150000Y-87752884D01*
X75150000Y-87287501D01*
X75149999Y-87287500D01*
X75052176Y-87287500D01*
X74992629Y-87293901D01*
X74992618Y-87293903D01*
X74857911Y-87344146D01*
X74857909Y-87344147D01*
X74742815Y-87430307D01*
X74742807Y-87430315D01*
X74696384Y-87492329D01*
X74646375Y-87527582D01*
X74617131Y-87532000D01*
X73782869Y-87532000D01*
X73724678Y-87513093D01*
X73703616Y-87492329D01*
X73657192Y-87430315D01*
X73657184Y-87430307D01*
X73542090Y-87344147D01*
X73542088Y-87344146D01*
X73407381Y-87293903D01*
X73407370Y-87293901D01*
X73347824Y-87287500D01*
X73250001Y-87287500D01*
X73250000Y-87287501D01*
X73250000Y-87752884D01*
X73249524Y-87762583D01*
X73249500Y-87762826D01*
X73249500Y-89812170D01*
X73249523Y-89812404D01*
X73250000Y-89822113D01*
X73250000Y-90302141D01*
X73262567Y-90326806D01*
X73260413Y-90367913D01*
X73256008Y-90384352D01*
X73255677Y-90386150D01*
X73253207Y-90395364D01*
X73253207Y-90395367D01*
X73244500Y-90461500D01*
X73244500Y-91750500D01*
X73225593Y-91808691D01*
X73176093Y-91844655D01*
X73145500Y-91849500D01*
X71568291Y-91849500D01*
X71515619Y-91834325D01*
X71499525Y-91824212D01*
X71499522Y-91824211D01*
X71329261Y-91764633D01*
X71329249Y-91764630D01*
X71194970Y-91749500D01*
X71194954Y-91749500D01*
X68205046Y-91749500D01*
X68205029Y-91749500D01*
X68070750Y-91764630D01*
X68070738Y-91764633D01*
X67900477Y-91824211D01*
X67900476Y-91824211D01*
X67747741Y-91920181D01*
X67620181Y-92047741D01*
X67524211Y-92200476D01*
X67524211Y-92200477D01*
X67464633Y-92370738D01*
X67464630Y-92370750D01*
X67449500Y-92505029D01*
X60300500Y-92505029D01*
X60300500Y-81635324D01*
X72599999Y-81635324D01*
X72606401Y-81694870D01*
X72606403Y-81694881D01*
X72656646Y-81829588D01*
X72656647Y-81829590D01*
X72742807Y-81944684D01*
X72742815Y-81944692D01*
X72857909Y-82030852D01*
X72857911Y-82030853D01*
X72992618Y-82081096D01*
X72992629Y-82081098D01*
X73052176Y-82087500D01*
X73149999Y-82087500D01*
X73150000Y-82087499D01*
X73150000Y-80837501D01*
X73149999Y-80837500D01*
X72600001Y-80837500D01*
X72600000Y-80837501D01*
X72600000Y-81635324D01*
X72599999Y-81635324D01*
X60300500Y-81635324D01*
X60300500Y-79539675D01*
X72600000Y-79539675D01*
X72600000Y-80337499D01*
X72600001Y-80337500D01*
X73149999Y-80337500D01*
X73150000Y-80337499D01*
X73150000Y-79087501D01*
X73149999Y-79087500D01*
X73052176Y-79087500D01*
X72992629Y-79093901D01*
X72992618Y-79093903D01*
X72857911Y-79144146D01*
X72857909Y-79144147D01*
X72742815Y-79230307D01*
X72742807Y-79230315D01*
X72656647Y-79345409D01*
X72656646Y-79345411D01*
X72606403Y-79480118D01*
X72606401Y-79480129D01*
X72600000Y-79539675D01*
X60300500Y-79539675D01*
X60300500Y-78447824D01*
X60899999Y-78447824D01*
X60906401Y-78507370D01*
X60906403Y-78507381D01*
X60956646Y-78642088D01*
X60956647Y-78642090D01*
X61042807Y-78757184D01*
X61042815Y-78757192D01*
X61157909Y-78843352D01*
X61157911Y-78843353D01*
X61292618Y-78893596D01*
X61292629Y-78893598D01*
X61352176Y-78900000D01*
X61674999Y-78900000D01*
X61675000Y-78899999D01*
X61675000Y-78325001D01*
X62175000Y-78325001D01*
X62175000Y-78899999D01*
X62175001Y-78900000D01*
X62497824Y-78900000D01*
X62557370Y-78893598D01*
X62557381Y-78893596D01*
X62692088Y-78843353D01*
X62692090Y-78843352D01*
X62807184Y-78757192D01*
X62807192Y-78757184D01*
X62893352Y-78642090D01*
X62893353Y-78642088D01*
X62943596Y-78507381D01*
X62943598Y-78507370D01*
X62950000Y-78447824D01*
X65049999Y-78447824D01*
X65056401Y-78507370D01*
X65056403Y-78507381D01*
X65106646Y-78642088D01*
X65106647Y-78642090D01*
X65192807Y-78757184D01*
X65192815Y-78757192D01*
X65307909Y-78843352D01*
X65307911Y-78843353D01*
X65442618Y-78893596D01*
X65442629Y-78893598D01*
X65502176Y-78900000D01*
X65824999Y-78900000D01*
X65825000Y-78899999D01*
X65825000Y-78325001D01*
X66325000Y-78325001D01*
X66325000Y-78899999D01*
X66325001Y-78900000D01*
X66647824Y-78900000D01*
X66707370Y-78893598D01*
X66707381Y-78893596D01*
X66842088Y-78843353D01*
X66842090Y-78843352D01*
X66957184Y-78757192D01*
X66957192Y-78757184D01*
X67043352Y-78642090D01*
X67043353Y-78642088D01*
X67093596Y-78507381D01*
X67093598Y-78507370D01*
X67100000Y-78447824D01*
X67100000Y-78325001D01*
X67099999Y-78325000D01*
X66325001Y-78325000D01*
X66325000Y-78325001D01*
X65825000Y-78325001D01*
X65824999Y-78325000D01*
X65050001Y-78325000D01*
X65050000Y-78325001D01*
X65050000Y-78447824D01*
X65049999Y-78447824D01*
X62950000Y-78447824D01*
X62950000Y-78325001D01*
X62949999Y-78325000D01*
X62175001Y-78325000D01*
X62175000Y-78325001D01*
X61675000Y-78325001D01*
X61674999Y-78325000D01*
X60900001Y-78325000D01*
X60900000Y-78325001D01*
X60900000Y-78447824D01*
X60899999Y-78447824D01*
X60300500Y-78447824D01*
X60300500Y-77702175D01*
X60900000Y-77702175D01*
X60900000Y-77824999D01*
X60900001Y-77825000D01*
X61674999Y-77825000D01*
X61675000Y-77824999D01*
X61675000Y-77250001D01*
X62175000Y-77250001D01*
X62175000Y-77824999D01*
X62175001Y-77825000D01*
X62949999Y-77825000D01*
X62950000Y-77824999D01*
X62950000Y-77702175D01*
X65050000Y-77702175D01*
X65050000Y-77824999D01*
X65050001Y-77825000D01*
X65824999Y-77825000D01*
X65825000Y-77824999D01*
X65825000Y-77250001D01*
X66325000Y-77250001D01*
X66325000Y-77824999D01*
X66325001Y-77825000D01*
X67099999Y-77825000D01*
X67100000Y-77824999D01*
X67100000Y-77702175D01*
X67093598Y-77642629D01*
X67093596Y-77642618D01*
X67043353Y-77507911D01*
X67043352Y-77507909D01*
X66957192Y-77392815D01*
X66957184Y-77392807D01*
X66842090Y-77306647D01*
X66842088Y-77306646D01*
X66707381Y-77256403D01*
X66707370Y-77256401D01*
X66647824Y-77250000D01*
X66325001Y-77250000D01*
X66325000Y-77250001D01*
X65825000Y-77250001D01*
X65824999Y-77250000D01*
X65502176Y-77250000D01*
X65442629Y-77256401D01*
X65442618Y-77256403D01*
X65307911Y-77306646D01*
X65307909Y-77306647D01*
X65192815Y-77392807D01*
X65192807Y-77392815D01*
X65106647Y-77507909D01*
X65106646Y-77507911D01*
X65056403Y-77642618D01*
X65056401Y-77642629D01*
X65050000Y-77702175D01*
X62950000Y-77702175D01*
X62943598Y-77642629D01*
X62943596Y-77642618D01*
X62893353Y-77507911D01*
X62893352Y-77507909D01*
X62807192Y-77392815D01*
X62807184Y-77392807D01*
X62692090Y-77306647D01*
X62692088Y-77306646D01*
X62557381Y-77256403D01*
X62557370Y-77256401D01*
X62497824Y-77250000D01*
X62175001Y-77250000D01*
X62175000Y-77250001D01*
X61675000Y-77250001D01*
X61674999Y-77250000D01*
X61352176Y-77250000D01*
X61292629Y-77256401D01*
X61292618Y-77256403D01*
X61157911Y-77306646D01*
X61157909Y-77306647D01*
X61042815Y-77392807D01*
X61042807Y-77392815D01*
X60956647Y-77507909D01*
X60956646Y-77507911D01*
X60906403Y-77642618D01*
X60906401Y-77642629D01*
X60900000Y-77702175D01*
X60300500Y-77702175D01*
X60300500Y-70447824D01*
X60899999Y-70447824D01*
X60906401Y-70507370D01*
X60906403Y-70507381D01*
X60956646Y-70642088D01*
X60956647Y-70642090D01*
X61042807Y-70757184D01*
X61042815Y-70757192D01*
X61157909Y-70843352D01*
X61157911Y-70843353D01*
X61292618Y-70893596D01*
X61292629Y-70893598D01*
X61352176Y-70900000D01*
X61674999Y-70900000D01*
X61675000Y-70899999D01*
X61675000Y-70325001D01*
X62175000Y-70325001D01*
X62175000Y-70899999D01*
X62175001Y-70900000D01*
X62497824Y-70900000D01*
X62557370Y-70893598D01*
X62557381Y-70893596D01*
X62692088Y-70843353D01*
X62692090Y-70843352D01*
X62807184Y-70757192D01*
X62807192Y-70757184D01*
X62893352Y-70642090D01*
X62893353Y-70642088D01*
X62943596Y-70507381D01*
X62943598Y-70507370D01*
X62950000Y-70447824D01*
X65049999Y-70447824D01*
X65056401Y-70507370D01*
X65056403Y-70507381D01*
X65106646Y-70642088D01*
X65106647Y-70642090D01*
X65192807Y-70757184D01*
X65192815Y-70757192D01*
X65307909Y-70843352D01*
X65307911Y-70843353D01*
X65442618Y-70893596D01*
X65442629Y-70893598D01*
X65502176Y-70900000D01*
X65824999Y-70900000D01*
X65825000Y-70899999D01*
X65825000Y-70325001D01*
X66325000Y-70325001D01*
X66325000Y-70899999D01*
X66325001Y-70900000D01*
X66647824Y-70900000D01*
X66707370Y-70893598D01*
X66707381Y-70893596D01*
X66842088Y-70843353D01*
X66842090Y-70843352D01*
X66957184Y-70757192D01*
X66957192Y-70757184D01*
X67043352Y-70642090D01*
X67043353Y-70642088D01*
X67093596Y-70507381D01*
X67093598Y-70507370D01*
X67100000Y-70447824D01*
X67100000Y-70325001D01*
X67099999Y-70325000D01*
X66325001Y-70325000D01*
X66325000Y-70325001D01*
X65825000Y-70325001D01*
X65824999Y-70325000D01*
X65050001Y-70325000D01*
X65050000Y-70325001D01*
X65050000Y-70447824D01*
X65049999Y-70447824D01*
X62950000Y-70447824D01*
X62950000Y-70325001D01*
X62949999Y-70325000D01*
X62175001Y-70325000D01*
X62175000Y-70325001D01*
X61675000Y-70325001D01*
X61674999Y-70325000D01*
X60900001Y-70325000D01*
X60900000Y-70325001D01*
X60900000Y-70447824D01*
X60899999Y-70447824D01*
X60300500Y-70447824D01*
X60300500Y-69702175D01*
X60900000Y-69702175D01*
X60900000Y-69824999D01*
X60900001Y-69825000D01*
X61674999Y-69825000D01*
X61675000Y-69824999D01*
X61675000Y-69250001D01*
X62175000Y-69250001D01*
X62175000Y-69824999D01*
X62175001Y-69825000D01*
X62949999Y-69825000D01*
X62950000Y-69824999D01*
X62950000Y-69702175D01*
X65050000Y-69702175D01*
X65050000Y-69824999D01*
X65050001Y-69825000D01*
X65824999Y-69825000D01*
X65825000Y-69824999D01*
X65825000Y-69250001D01*
X66325000Y-69250001D01*
X66325000Y-69824999D01*
X66325001Y-69825000D01*
X67099999Y-69825000D01*
X67100000Y-69824999D01*
X67100000Y-69702175D01*
X67093598Y-69642629D01*
X67093596Y-69642618D01*
X67043353Y-69507911D01*
X67043352Y-69507909D01*
X66957192Y-69392815D01*
X66957184Y-69392807D01*
X66842090Y-69306647D01*
X66842088Y-69306646D01*
X66707381Y-69256403D01*
X66707370Y-69256401D01*
X66647824Y-69250000D01*
X66325001Y-69250000D01*
X66325000Y-69250001D01*
X65825000Y-69250001D01*
X65824999Y-69250000D01*
X65502176Y-69250000D01*
X65442629Y-69256401D01*
X65442618Y-69256403D01*
X65307911Y-69306646D01*
X65307909Y-69306647D01*
X65192815Y-69392807D01*
X65192807Y-69392815D01*
X65106647Y-69507909D01*
X65106646Y-69507911D01*
X65056403Y-69642618D01*
X65056401Y-69642629D01*
X65050000Y-69702175D01*
X62950000Y-69702175D01*
X62943598Y-69642629D01*
X62943596Y-69642618D01*
X62893353Y-69507911D01*
X62893352Y-69507909D01*
X62807192Y-69392815D01*
X62807184Y-69392807D01*
X62692090Y-69306647D01*
X62692088Y-69306646D01*
X62557381Y-69256403D01*
X62557370Y-69256401D01*
X62497824Y-69250000D01*
X62175001Y-69250000D01*
X62175000Y-69250001D01*
X61675000Y-69250001D01*
X61674999Y-69250000D01*
X61352176Y-69250000D01*
X61292629Y-69256401D01*
X61292618Y-69256403D01*
X61157911Y-69306646D01*
X61157909Y-69306647D01*
X61042815Y-69392807D01*
X61042807Y-69392815D01*
X60956647Y-69507909D01*
X60956646Y-69507911D01*
X60906403Y-69642618D01*
X60906401Y-69642629D01*
X60900000Y-69702175D01*
X60300500Y-69702175D01*
X60300500Y-61725327D01*
X61149500Y-61725327D01*
X61149500Y-62424672D01*
X61149501Y-62424684D01*
X61164033Y-62497736D01*
X61164035Y-62497742D01*
X61219397Y-62580599D01*
X61219400Y-62580602D01*
X61302257Y-62635964D01*
X61302260Y-62635966D01*
X61357808Y-62647015D01*
X61375315Y-62650498D01*
X61375320Y-62650498D01*
X61375326Y-62650500D01*
X61375327Y-62650500D01*
X62474673Y-62650500D01*
X62474674Y-62650500D01*
X62547740Y-62635966D01*
X62630601Y-62580601D01*
X62685966Y-62497740D01*
X62691746Y-62468685D01*
X62721643Y-62415301D01*
X62777208Y-62389686D01*
X62788843Y-62389000D01*
X65211157Y-62389000D01*
X65269348Y-62407907D01*
X65305312Y-62457407D01*
X65308254Y-62468685D01*
X65314033Y-62497736D01*
X65314035Y-62497742D01*
X65369397Y-62580599D01*
X65369400Y-62580602D01*
X65452257Y-62635964D01*
X65452260Y-62635966D01*
X65507808Y-62647015D01*
X65525315Y-62650498D01*
X65525320Y-62650498D01*
X65525326Y-62650500D01*
X65525327Y-62650500D01*
X66624673Y-62650500D01*
X66624674Y-62650500D01*
X66697740Y-62635966D01*
X66780601Y-62580601D01*
X66835966Y-62497740D01*
X66841746Y-62468685D01*
X66871643Y-62415301D01*
X66927208Y-62389686D01*
X66938843Y-62389000D01*
X70049016Y-62389000D01*
X70107207Y-62407907D01*
X70126052Y-62425820D01*
X70233919Y-62559459D01*
X70242503Y-62569548D01*
X70243311Y-62570449D01*
X70252315Y-62579989D01*
X70256514Y-62583548D01*
X70256408Y-62583672D01*
X70271600Y-62597116D01*
X70285411Y-62613055D01*
X70400439Y-62686978D01*
X70531633Y-62725500D01*
X70531634Y-62725500D01*
X70668366Y-62725500D01*
X70668367Y-62725500D01*
X70799561Y-62686978D01*
X70914589Y-62613055D01*
X71004130Y-62509718D01*
X71042969Y-62424674D01*
X71060930Y-62385345D01*
X71060932Y-62385337D01*
X71080390Y-62250002D01*
X71080390Y-62249997D01*
X71060932Y-62114662D01*
X71060930Y-62114654D01*
X71004131Y-61990284D01*
X71004130Y-61990283D01*
X71004130Y-61990282D01*
X70914589Y-61886945D01*
X70799561Y-61813022D01*
X70799558Y-61813021D01*
X70668368Y-61774500D01*
X70668367Y-61774500D01*
X70631606Y-61774500D01*
X70608837Y-61771846D01*
X70597899Y-61769261D01*
X70492881Y-61765504D01*
X70470805Y-61762195D01*
X70466348Y-61761001D01*
X70466339Y-61761000D01*
X70368671Y-61761000D01*
X70365133Y-61760937D01*
X70243672Y-61756593D01*
X70238449Y-61756461D01*
X70238063Y-61756455D01*
X70238029Y-61756455D01*
X70234181Y-61756426D01*
X70234180Y-61756426D01*
X70233331Y-61756595D01*
X70220753Y-61759097D01*
X70201438Y-61761000D01*
X66938843Y-61761000D01*
X66880652Y-61742093D01*
X66844688Y-61692593D01*
X66841746Y-61681315D01*
X66839127Y-61668154D01*
X66835966Y-61652260D01*
X66780601Y-61569399D01*
X66780599Y-61569397D01*
X66697742Y-61514035D01*
X66697740Y-61514034D01*
X66697737Y-61514033D01*
X66697736Y-61514033D01*
X66624684Y-61499501D01*
X66624674Y-61499500D01*
X65525326Y-61499500D01*
X65525325Y-61499500D01*
X65525315Y-61499501D01*
X65452263Y-61514033D01*
X65452257Y-61514035D01*
X65369400Y-61569397D01*
X65369397Y-61569400D01*
X65314035Y-61652257D01*
X65314033Y-61652263D01*
X65308254Y-61681315D01*
X65278357Y-61734699D01*
X65222792Y-61760314D01*
X65211157Y-61761000D01*
X62788843Y-61761000D01*
X62730652Y-61742093D01*
X62694688Y-61692593D01*
X62691746Y-61681315D01*
X62689127Y-61668154D01*
X62685966Y-61652260D01*
X62630601Y-61569399D01*
X62630599Y-61569397D01*
X62547742Y-61514035D01*
X62547740Y-61514034D01*
X62547737Y-61514033D01*
X62547736Y-61514033D01*
X62474684Y-61499501D01*
X62474674Y-61499500D01*
X61375326Y-61499500D01*
X61375325Y-61499500D01*
X61375315Y-61499501D01*
X61302263Y-61514033D01*
X61302257Y-61514035D01*
X61219400Y-61569397D01*
X61219397Y-61569400D01*
X61164035Y-61652257D01*
X61164033Y-61652263D01*
X61149501Y-61725315D01*
X61149500Y-61725327D01*
X60300500Y-61725327D01*
X60300500Y-36637493D01*
X69194696Y-36637493D01*
X69194696Y-36637506D01*
X69213896Y-37003892D01*
X69213898Y-37003913D01*
X69271293Y-37366288D01*
X69366257Y-37720696D01*
X69366264Y-37720719D01*
X69497743Y-38063233D01*
X69497745Y-38063236D01*
X69664318Y-38390152D01*
X69864149Y-38697866D01*
X70095051Y-38983006D01*
X70354494Y-39242449D01*
X70639634Y-39473351D01*
X70947348Y-39673182D01*
X71274264Y-39839755D01*
X71274266Y-39839756D01*
X71616780Y-39971235D01*
X71616793Y-39971239D01*
X71616801Y-39971242D01*
X71971206Y-40066205D01*
X71971209Y-40066205D01*
X71971211Y-40066206D01*
X72333586Y-40123601D01*
X72333595Y-40123601D01*
X72333596Y-40123602D01*
X72333597Y-40123602D01*
X72333607Y-40123603D01*
X72699994Y-40142804D01*
X72700000Y-40142804D01*
X72700006Y-40142804D01*
X73066392Y-40123603D01*
X73066400Y-40123602D01*
X73066404Y-40123602D01*
X73066406Y-40123601D01*
X73066413Y-40123601D01*
X73428788Y-40066206D01*
X73428788Y-40066205D01*
X73428794Y-40066205D01*
X73783199Y-39971242D01*
X73783210Y-39971237D01*
X73783219Y-39971235D01*
X74125733Y-39839756D01*
X74125731Y-39839756D01*
X74125736Y-39839755D01*
X74452652Y-39673182D01*
X74760366Y-39473351D01*
X75045506Y-39242449D01*
X75304949Y-38983006D01*
X75535851Y-38697866D01*
X75735682Y-38390152D01*
X75902255Y-38063236D01*
X75968584Y-37890442D01*
X76033735Y-37720719D01*
X76033737Y-37720710D01*
X76033742Y-37720699D01*
X76128705Y-37366294D01*
X76186102Y-37003904D01*
X76205304Y-36637500D01*
X76205304Y-36637493D01*
X76186103Y-36271107D01*
X76186101Y-36271086D01*
X76128706Y-35908711D01*
X76118034Y-35868882D01*
X76033742Y-35554301D01*
X76033739Y-35554293D01*
X76033735Y-35554280D01*
X75902256Y-35211766D01*
X75749154Y-34911289D01*
X75735682Y-34884848D01*
X75535851Y-34577134D01*
X75304949Y-34291994D01*
X75045506Y-34032551D01*
X74760366Y-33801649D01*
X74452652Y-33601818D01*
X74417287Y-33583798D01*
X74125733Y-33435243D01*
X73783219Y-33303764D01*
X73783196Y-33303757D01*
X73428788Y-33208793D01*
X73066413Y-33151398D01*
X73066392Y-33151396D01*
X72700006Y-33132196D01*
X72699994Y-33132196D01*
X72333607Y-33151396D01*
X72333586Y-33151398D01*
X71971211Y-33208793D01*
X71616803Y-33303757D01*
X71616780Y-33303764D01*
X71274266Y-33435243D01*
X70947353Y-33601815D01*
X70639631Y-33801651D01*
X70354498Y-34032547D01*
X70095047Y-34291998D01*
X69870811Y-34568907D01*
X69864149Y-34577134D01*
X69690978Y-34843796D01*
X69664315Y-34884853D01*
X69497743Y-35211766D01*
X69366264Y-35554280D01*
X69366257Y-35554303D01*
X69271293Y-35908711D01*
X69213898Y-36271086D01*
X69213896Y-36271107D01*
X69194696Y-36637493D01*
X60300500Y-36637493D01*
X60300500Y-33002773D01*
X60300656Y-32997222D01*
X60307326Y-32878448D01*
X61145500Y-32878448D01*
X61145500Y-33121551D01*
X61177230Y-33362563D01*
X61177230Y-33362568D01*
X61240149Y-33597387D01*
X61333178Y-33821979D01*
X61442532Y-34011388D01*
X61454731Y-34032516D01*
X61602722Y-34225380D01*
X61774620Y-34397278D01*
X61967484Y-34545269D01*
X62178016Y-34666819D01*
X62178017Y-34666819D01*
X62178020Y-34666821D01*
X62397038Y-34757541D01*
X62402612Y-34759850D01*
X62637429Y-34822769D01*
X62878450Y-34854500D01*
X62878451Y-34854500D01*
X63121549Y-34854500D01*
X63121550Y-34854500D01*
X63362571Y-34822769D01*
X63597388Y-34759850D01*
X63821984Y-34666819D01*
X64032516Y-34545269D01*
X64225380Y-34397278D01*
X64397278Y-34225380D01*
X64545269Y-34032516D01*
X64666819Y-33821984D01*
X64759850Y-33597388D01*
X64822769Y-33362571D01*
X64854500Y-33121550D01*
X64854500Y-32878450D01*
X64822769Y-32637429D01*
X64759850Y-32402612D01*
X64666819Y-32178016D01*
X64545269Y-31967484D01*
X64397278Y-31774620D01*
X64225380Y-31602722D01*
X64032516Y-31454731D01*
X64032517Y-31454731D01*
X64032515Y-31454730D01*
X63821979Y-31333178D01*
X63597387Y-31240149D01*
X63437001Y-31197174D01*
X63362571Y-31177231D01*
X63362568Y-31177230D01*
X63362566Y-31177230D01*
X63121551Y-31145500D01*
X63121550Y-31145500D01*
X62878450Y-31145500D01*
X62878448Y-31145500D01*
X62637436Y-31177230D01*
X62637431Y-31177230D01*
X62402612Y-31240149D01*
X62178020Y-31333178D01*
X61967484Y-31454730D01*
X61774623Y-31602719D01*
X61602719Y-31774623D01*
X61454730Y-31967484D01*
X61333178Y-32178020D01*
X61240149Y-32402612D01*
X61177230Y-32637431D01*
X61177230Y-32637436D01*
X61145500Y-32878448D01*
X60307326Y-32878448D01*
X60313559Y-32767458D01*
X60317162Y-32703296D01*
X60318405Y-32692270D01*
X60367253Y-32404771D01*
X60369714Y-32393985D01*
X60450451Y-32113742D01*
X60454111Y-32103283D01*
X60565711Y-31833858D01*
X60570525Y-31823863D01*
X60597739Y-31774623D01*
X60711583Y-31568636D01*
X60717479Y-31559253D01*
X60886230Y-31321421D01*
X60893149Y-31312745D01*
X61087475Y-31095293D01*
X61095293Y-31087475D01*
X61312748Y-30893146D01*
X61321424Y-30886228D01*
X61559253Y-30717479D01*
X61568636Y-30711583D01*
X61823869Y-30570522D01*
X61833858Y-30565711D01*
X62103283Y-30454111D01*
X62113742Y-30450451D01*
X62393985Y-30369714D01*
X62404771Y-30367253D01*
X62692277Y-30318404D01*
X62703296Y-30317162D01*
X62997222Y-30300655D01*
X63002773Y-30300500D01*
X63047595Y-30300500D01*
X126952405Y-30300500D01*
X126997227Y-30300500D01*
X127002777Y-30300655D01*
G37*
%TD.AperFunction*%
%TA.AperFunction,Conductor*%
G36*
X127478691Y-110654407D02*
G01*
X127514655Y-110703907D01*
X127519500Y-110734500D01*
X127519500Y-123265500D01*
X127500593Y-123323691D01*
X127451093Y-123359655D01*
X127420500Y-123364500D01*
X127120788Y-123364500D01*
X127062597Y-123345593D01*
X127026633Y-123296093D01*
X127025161Y-123239877D01*
X127067341Y-123082459D01*
X127099500Y-122838189D01*
X127099500Y-122591811D01*
X127067341Y-122347541D01*
X127003574Y-122109558D01*
X126909289Y-121881935D01*
X126786100Y-121668565D01*
X126636115Y-121473100D01*
X126461900Y-121298885D01*
X126266435Y-121148900D01*
X126053065Y-121025711D01*
X126053060Y-121025708D01*
X125825441Y-120931425D01*
X125662891Y-120887871D01*
X125587459Y-120867659D01*
X125587456Y-120867658D01*
X125587454Y-120867658D01*
X125343189Y-120835500D01*
X125096811Y-120835500D01*
X125096810Y-120835500D01*
X124852548Y-120867658D01*
X124852543Y-120867658D01*
X124614558Y-120931425D01*
X124386939Y-121025708D01*
X124173561Y-121148902D01*
X123978103Y-121298882D01*
X123803885Y-121473100D01*
X123677542Y-121637754D01*
X123627117Y-121672409D01*
X123565953Y-121670807D01*
X123517411Y-121633560D01*
X123500000Y-121577486D01*
X123500000Y-112422513D01*
X123518907Y-112364322D01*
X123568407Y-112328358D01*
X123629593Y-112328358D01*
X123677542Y-112362246D01*
X123803885Y-112526900D01*
X123978100Y-112701115D01*
X124173565Y-112851100D01*
X124386935Y-112974289D01*
X124386936Y-112974289D01*
X124386939Y-112974291D01*
X124610587Y-113066929D01*
X124614558Y-113068574D01*
X124852541Y-113132341D01*
X125096811Y-113164500D01*
X125096812Y-113164500D01*
X125343188Y-113164500D01*
X125343189Y-113164500D01*
X125587459Y-113132341D01*
X125825442Y-113068574D01*
X126053065Y-112974289D01*
X126266435Y-112851100D01*
X126461900Y-112701115D01*
X126636115Y-112526900D01*
X126786100Y-112331435D01*
X126909289Y-112118065D01*
X127003574Y-111890442D01*
X127067341Y-111652459D01*
X127099500Y-111408189D01*
X127099500Y-111161811D01*
X127067341Y-110917541D01*
X127025161Y-110760122D01*
X127028364Y-110699021D01*
X127066869Y-110651471D01*
X127120788Y-110635500D01*
X127420500Y-110635500D01*
X127478691Y-110654407D01*
G37*
%TD.AperFunction*%
%TA.AperFunction,Conductor*%
G36*
X86783004Y-97783004D02*
G01*
X91971004Y-102971004D01*
X91998781Y-103025521D01*
X92000000Y-103041008D01*
X92000000Y-111816929D01*
X91981093Y-111875120D01*
X91931593Y-111911084D01*
X91870407Y-111911084D01*
X91830996Y-111886933D01*
X86642996Y-106698933D01*
X86615219Y-106644416D01*
X86614000Y-106628929D01*
X86614000Y-106600000D01*
X87653554Y-106600000D01*
X90146446Y-106600000D01*
X88900000Y-105353554D01*
X87653554Y-106600000D01*
X86614000Y-106600000D01*
X86614000Y-106431557D01*
X86632907Y-106373366D01*
X86682407Y-106337402D01*
X86743593Y-106337402D01*
X86775805Y-106355029D01*
X86863829Y-106427268D01*
X86863835Y-106427272D01*
X87030232Y-106516212D01*
X87030233Y-106516212D01*
X88546446Y-105000000D01*
X88546445Y-104999999D01*
X89253553Y-104999999D01*
X90769765Y-106516212D01*
X90769766Y-106516212D01*
X90936164Y-106427272D01*
X90936170Y-106427268D01*
X91096050Y-106296059D01*
X91096059Y-106296050D01*
X91227268Y-106136170D01*
X91227275Y-106136160D01*
X91324765Y-105953767D01*
X91324767Y-105953762D01*
X91384808Y-105755836D01*
X91384809Y-105755831D01*
X91400000Y-105601595D01*
X91400000Y-104398404D01*
X91384809Y-104244168D01*
X91384808Y-104244163D01*
X91324767Y-104046237D01*
X91324765Y-104046232D01*
X91227275Y-103863839D01*
X91227268Y-103863829D01*
X91096059Y-103703949D01*
X91096050Y-103703940D01*
X90936169Y-103572730D01*
X90769766Y-103483786D01*
X90769765Y-103483786D01*
X89253553Y-104999999D01*
X88546445Y-104999999D01*
X87030232Y-103483786D01*
X86863829Y-103572731D01*
X86863823Y-103572735D01*
X86775805Y-103644970D01*
X86718828Y-103667270D01*
X86659625Y-103651821D01*
X86620810Y-103604524D01*
X86614000Y-103568442D01*
X86614000Y-103400000D01*
X87653554Y-103400000D01*
X88900000Y-104646446D01*
X90146446Y-103400000D01*
X87653554Y-103400000D01*
X86614000Y-103400000D01*
X86614000Y-97853008D01*
X86632907Y-97794817D01*
X86682407Y-97758853D01*
X86743593Y-97758853D01*
X86783004Y-97783004D01*
G37*
%TD.AperFunction*%
%TA.AperFunction,Conductor*%
G36*
X79314210Y-101569407D02*
G01*
X79350174Y-101618907D01*
X79354396Y-101638415D01*
X79364630Y-101729249D01*
X79364633Y-101729261D01*
X79424211Y-101899522D01*
X79424211Y-101899523D01*
X79520181Y-102052258D01*
X79520184Y-102052262D01*
X79647738Y-102179816D01*
X79647740Y-102179817D01*
X79647741Y-102179818D01*
X79800474Y-102275787D01*
X79800478Y-102275789D01*
X79868657Y-102299646D01*
X79970738Y-102335366D01*
X79970742Y-102335367D01*
X79970745Y-102335368D01*
X79970746Y-102335368D01*
X79970750Y-102335369D01*
X80105029Y-102350499D01*
X80105045Y-102350499D01*
X80105046Y-102350500D01*
X80105047Y-102350500D01*
X83094953Y-102350500D01*
X83094954Y-102350500D01*
X83094955Y-102350499D01*
X83094970Y-102350499D01*
X83229249Y-102335369D01*
X83229251Y-102335368D01*
X83229255Y-102335368D01*
X83399522Y-102275789D01*
X83434328Y-102253919D01*
X83493658Y-102238968D01*
X83550446Y-102261746D01*
X83582999Y-102313553D01*
X83586000Y-102337744D01*
X83586000Y-107662255D01*
X83567093Y-107720446D01*
X83517593Y-107756410D01*
X83456407Y-107756410D01*
X83434329Y-107746081D01*
X83399523Y-107724211D01*
X83229261Y-107664633D01*
X83229249Y-107664630D01*
X83094970Y-107649500D01*
X83094954Y-107649500D01*
X80105046Y-107649500D01*
X80105029Y-107649500D01*
X79970750Y-107664630D01*
X79970738Y-107664633D01*
X79800477Y-107724211D01*
X79800476Y-107724211D01*
X79647741Y-107820181D01*
X79520181Y-107947741D01*
X79424211Y-108100476D01*
X79424211Y-108100477D01*
X79364632Y-108270742D01*
X79364226Y-108272523D01*
X79363702Y-108273399D01*
X79362795Y-108275993D01*
X79362264Y-108275807D01*
X79332848Y-108325050D01*
X79276588Y-108349101D01*
X79267707Y-108349500D01*
X79035930Y-108349500D01*
X78973093Y-108361999D01*
X78910256Y-108374499D01*
X78910255Y-108374499D01*
X78910252Y-108374500D01*
X78791874Y-108423534D01*
X78791866Y-108423538D01*
X78685331Y-108494724D01*
X78685327Y-108494727D01*
X78594727Y-108585327D01*
X78594724Y-108585331D01*
X78531815Y-108679480D01*
X78483765Y-108717359D01*
X78422627Y-108719761D01*
X78371753Y-108685768D01*
X78350576Y-108628364D01*
X78350500Y-108624478D01*
X78350500Y-101649500D01*
X78369407Y-101591309D01*
X78418907Y-101555345D01*
X78449500Y-101550500D01*
X79256019Y-101550500D01*
X79314210Y-101569407D01*
G37*
%TD.AperFunction*%
%TA.AperFunction,Conductor*%
G36*
X126465244Y-104950285D02*
G01*
X126473880Y-104959345D01*
X126504346Y-104995654D01*
X126504352Y-104995659D01*
X126504353Y-104995660D01*
X126645149Y-105113802D01*
X126645152Y-105113804D01*
X126645156Y-105113807D01*
X126804343Y-105205714D01*
X126977072Y-105268582D01*
X127158093Y-105300501D01*
X127210438Y-105300501D01*
X129243526Y-105300501D01*
X129256447Y-105301348D01*
X129271498Y-105303329D01*
X129353419Y-105314114D01*
X129378375Y-105320800D01*
X129462711Y-105355734D01*
X129485086Y-105368652D01*
X129557503Y-105424219D01*
X129575776Y-105442493D01*
X129631344Y-105514909D01*
X129644267Y-105537291D01*
X129679197Y-105621618D01*
X129685886Y-105646582D01*
X129698653Y-105743558D01*
X129699500Y-105756480D01*
X129699500Y-106920686D01*
X129680593Y-106978877D01*
X129631093Y-107014841D01*
X129581187Y-107017784D01*
X129564679Y-107014500D01*
X129564674Y-107014500D01*
X126975326Y-107014500D01*
X126975325Y-107014500D01*
X126975315Y-107014501D01*
X126902263Y-107029033D01*
X126902257Y-107029035D01*
X126819400Y-107084397D01*
X126819397Y-107084400D01*
X126764035Y-107167257D01*
X126764033Y-107167263D01*
X126749501Y-107240315D01*
X126749500Y-107240327D01*
X126749500Y-108056500D01*
X126730593Y-108114691D01*
X126681093Y-108150655D01*
X126650500Y-108155500D01*
X126409500Y-108155500D01*
X126351309Y-108136593D01*
X126315345Y-108087093D01*
X126310500Y-108056500D01*
X126310500Y-105090327D01*
X126310498Y-105090315D01*
X126300947Y-105042299D01*
X126308137Y-104981538D01*
X126349669Y-104936608D01*
X126409679Y-104924670D01*
X126465244Y-104950285D01*
G37*
%TD.AperFunction*%
%TA.AperFunction,Conductor*%
G36*
X78809191Y-88556407D02*
G01*
X78845155Y-88605907D01*
X78850000Y-88636500D01*
X78850000Y-90287499D01*
X78850001Y-90287500D01*
X78947824Y-90287500D01*
X79007370Y-90281098D01*
X79007374Y-90281097D01*
X79052402Y-90264303D01*
X79113532Y-90261682D01*
X79164527Y-90295493D01*
X79185909Y-90352820D01*
X79186000Y-90357061D01*
X79186000Y-94941341D01*
X79196385Y-94980096D01*
X79196385Y-94980097D01*
X79207398Y-95021197D01*
X79207399Y-95021200D01*
X79248737Y-95092800D01*
X83557005Y-99401068D01*
X83584781Y-99455583D01*
X83586000Y-99471070D01*
X83586000Y-99662255D01*
X83567093Y-99720446D01*
X83517593Y-99756410D01*
X83456407Y-99756410D01*
X83434329Y-99746081D01*
X83399523Y-99724211D01*
X83229261Y-99664633D01*
X83229249Y-99664630D01*
X83094970Y-99649500D01*
X83094954Y-99649500D01*
X80105046Y-99649500D01*
X80105029Y-99649500D01*
X79970750Y-99664630D01*
X79970738Y-99664633D01*
X79800477Y-99724211D01*
X79800476Y-99724211D01*
X79647741Y-99820181D01*
X79520181Y-99947741D01*
X79424211Y-100100476D01*
X79424211Y-100100477D01*
X79364633Y-100270738D01*
X79364630Y-100270750D01*
X79354396Y-100361585D01*
X79329093Y-100417293D01*
X79275877Y-100447488D01*
X79256019Y-100449500D01*
X78449500Y-100449500D01*
X78391309Y-100430593D01*
X78355345Y-100381093D01*
X78350500Y-100350500D01*
X78350500Y-88636500D01*
X78369407Y-88578309D01*
X78418907Y-88542345D01*
X78449500Y-88537500D01*
X78751000Y-88537500D01*
X78809191Y-88556407D01*
G37*
%TD.AperFunction*%
%TA.AperFunction,Conductor*%
G36*
X78283004Y-86886277D02*
G01*
X78515223Y-87118496D01*
X78543000Y-87173013D01*
X78533429Y-87233445D01*
X78490164Y-87276710D01*
X78445219Y-87287500D01*
X78252168Y-87287500D01*
X78223579Y-87290573D01*
X78163701Y-87277992D01*
X78122654Y-87232619D01*
X78114000Y-87192140D01*
X78114000Y-86956281D01*
X78132907Y-86898090D01*
X78182407Y-86862126D01*
X78243593Y-86862126D01*
X78283004Y-86886277D01*
G37*
%TD.AperFunction*%
%TA.AperFunction,Conductor*%
G36*
X127498691Y-73654407D02*
G01*
X127534655Y-73703907D01*
X127539500Y-73734500D01*
X127539500Y-86265500D01*
X127520593Y-86323691D01*
X127471093Y-86359655D01*
X127440500Y-86364500D01*
X127140788Y-86364500D01*
X127082597Y-86345593D01*
X127046633Y-86296093D01*
X127045161Y-86239877D01*
X127058488Y-86190139D01*
X127087341Y-86082459D01*
X127119500Y-85838189D01*
X127119500Y-85591811D01*
X127087341Y-85347541D01*
X127023574Y-85109558D01*
X126976158Y-84995086D01*
X126929291Y-84881939D01*
X126929289Y-84881935D01*
X126806100Y-84668565D01*
X126656115Y-84473100D01*
X126481900Y-84298885D01*
X126337402Y-84188008D01*
X126286438Y-84148902D01*
X126073060Y-84025708D01*
X125845441Y-83931425D01*
X125682891Y-83887871D01*
X125607459Y-83867659D01*
X125607456Y-83867658D01*
X125607454Y-83867658D01*
X125363189Y-83835500D01*
X125116811Y-83835500D01*
X125116810Y-83835500D01*
X124872548Y-83867658D01*
X124872543Y-83867658D01*
X124634558Y-83931425D01*
X124406939Y-84025708D01*
X124193561Y-84148902D01*
X123998103Y-84298882D01*
X123823882Y-84473103D01*
X123677542Y-84663818D01*
X123627117Y-84698474D01*
X123565953Y-84696872D01*
X123517411Y-84659625D01*
X123500000Y-84603551D01*
X123500000Y-75396448D01*
X123518907Y-75338257D01*
X123568407Y-75302293D01*
X123629593Y-75302293D01*
X123677541Y-75336180D01*
X123823885Y-75526900D01*
X123998100Y-75701115D01*
X124193565Y-75851100D01*
X124406935Y-75974289D01*
X124406936Y-75974289D01*
X124406939Y-75974291D01*
X124634558Y-76068574D01*
X124872541Y-76132341D01*
X125116811Y-76164500D01*
X125116812Y-76164500D01*
X125363188Y-76164500D01*
X125363189Y-76164500D01*
X125607459Y-76132341D01*
X125845442Y-76068574D01*
X126073065Y-75974289D01*
X126286435Y-75851100D01*
X126481900Y-75701115D01*
X126656115Y-75526900D01*
X126806100Y-75331435D01*
X126929289Y-75118065D01*
X127023574Y-74890442D01*
X127087341Y-74652459D01*
X127119500Y-74408189D01*
X127119500Y-74161811D01*
X127087341Y-73917541D01*
X127045161Y-73760122D01*
X127048364Y-73699021D01*
X127086869Y-73651471D01*
X127140788Y-73635500D01*
X127440500Y-73635500D01*
X127498691Y-73654407D01*
G37*
%TD.AperFunction*%
%TA.AperFunction,Conductor*%
G36*
X126315671Y-55097713D02*
G01*
X126349664Y-55148586D01*
X126347262Y-55209724D01*
X126340118Y-55224959D01*
X126294287Y-55304340D01*
X126231418Y-55477071D01*
X126199499Y-55658090D01*
X126199499Y-55805569D01*
X126199500Y-55805582D01*
X126199500Y-66696325D01*
X126199499Y-66696343D01*
X126199499Y-66841909D01*
X126203807Y-66866339D01*
X126231418Y-67022928D01*
X126294286Y-67195657D01*
X126294287Y-67195659D01*
X126294288Y-67195661D01*
X126386195Y-67354847D01*
X126386197Y-67354850D01*
X126504339Y-67495646D01*
X126504346Y-67495654D01*
X126504352Y-67495659D01*
X126504353Y-67495660D01*
X126645149Y-67613802D01*
X126645152Y-67613804D01*
X126645156Y-67613807D01*
X126804343Y-67705714D01*
X126977072Y-67768582D01*
X127158093Y-67800501D01*
X127210438Y-67800501D01*
X129243526Y-67800501D01*
X129256447Y-67801348D01*
X129271498Y-67803329D01*
X129353419Y-67814114D01*
X129378375Y-67820800D01*
X129462711Y-67855734D01*
X129485086Y-67868652D01*
X129557503Y-67924219D01*
X129575776Y-67942493D01*
X129631344Y-68014909D01*
X129644267Y-68037291D01*
X129679197Y-68121618D01*
X129685886Y-68146582D01*
X129698653Y-68243558D01*
X129699500Y-68256480D01*
X129699500Y-69916708D01*
X129680593Y-69974899D01*
X129631093Y-70010863D01*
X129589682Y-70013304D01*
X129589518Y-70014977D01*
X129584674Y-70014500D01*
X126995326Y-70014500D01*
X126995325Y-70014500D01*
X126995315Y-70014501D01*
X126922263Y-70029033D01*
X126922257Y-70029035D01*
X126839400Y-70084397D01*
X126839397Y-70084400D01*
X126784035Y-70167257D01*
X126784033Y-70167263D01*
X126769501Y-70240315D01*
X126769500Y-70240327D01*
X126769500Y-71056500D01*
X126750593Y-71114691D01*
X126701093Y-71150655D01*
X126670500Y-71155500D01*
X126409500Y-71155500D01*
X126351309Y-71136593D01*
X126315345Y-71087093D01*
X126310500Y-71056500D01*
X126310500Y-68090327D01*
X126310498Y-68090315D01*
X126297555Y-68025249D01*
X126295966Y-68017260D01*
X126240601Y-67934399D01*
X126240599Y-67934397D01*
X126157742Y-67879035D01*
X126157740Y-67879034D01*
X126157737Y-67879033D01*
X126157736Y-67879033D01*
X126084684Y-67864501D01*
X126084674Y-67864500D01*
X126084673Y-67864500D01*
X125639500Y-67864500D01*
X125581309Y-67845593D01*
X125545345Y-67796093D01*
X125540500Y-67765500D01*
X125540500Y-55234500D01*
X125559407Y-55176309D01*
X125608907Y-55140345D01*
X125639500Y-55135500D01*
X126084673Y-55135500D01*
X126084674Y-55135500D01*
X126157740Y-55120966D01*
X126199379Y-55093143D01*
X126258268Y-55076535D01*
X126315671Y-55097713D01*
G37*
%TD.AperFunction*%
%TA.AperFunction,Conductor*%
G36*
X127498691Y-36654407D02*
G01*
X127534655Y-36703907D01*
X127539500Y-36734500D01*
X127539500Y-49265500D01*
X127520593Y-49323691D01*
X127471093Y-49359655D01*
X127440500Y-49364500D01*
X127140788Y-49364500D01*
X127082597Y-49345593D01*
X127046633Y-49296093D01*
X127045161Y-49239877D01*
X127087341Y-49082459D01*
X127119500Y-48838189D01*
X127119500Y-48591811D01*
X127087341Y-48347541D01*
X127023574Y-48109558D01*
X126929289Y-47881935D01*
X126806100Y-47668565D01*
X126656115Y-47473100D01*
X126481900Y-47298885D01*
X126286435Y-47148900D01*
X126073065Y-47025711D01*
X126073060Y-47025708D01*
X125845441Y-46931425D01*
X125682891Y-46887871D01*
X125607459Y-46867659D01*
X125607456Y-46867658D01*
X125607454Y-46867658D01*
X125363189Y-46835500D01*
X125116811Y-46835500D01*
X125116810Y-46835500D01*
X124872548Y-46867658D01*
X124872543Y-46867658D01*
X124634558Y-46931425D01*
X124406939Y-47025708D01*
X124193561Y-47148902D01*
X123998103Y-47298882D01*
X123823882Y-47473103D01*
X123677542Y-47663818D01*
X123627117Y-47698474D01*
X123565953Y-47696872D01*
X123517411Y-47659625D01*
X123500000Y-47603551D01*
X123500000Y-38396448D01*
X123518907Y-38338257D01*
X123568407Y-38302293D01*
X123629593Y-38302293D01*
X123677541Y-38336180D01*
X123823885Y-38526900D01*
X123998100Y-38701115D01*
X124193565Y-38851100D01*
X124406935Y-38974289D01*
X124406936Y-38974289D01*
X124406939Y-38974291D01*
X124634558Y-39068574D01*
X124872541Y-39132341D01*
X125116811Y-39164500D01*
X125116812Y-39164500D01*
X125363188Y-39164500D01*
X125363189Y-39164500D01*
X125607459Y-39132341D01*
X125845442Y-39068574D01*
X126073065Y-38974289D01*
X126286435Y-38851100D01*
X126481900Y-38701115D01*
X126656115Y-38526900D01*
X126806100Y-38331435D01*
X126929289Y-38118065D01*
X127023574Y-37890442D01*
X127087341Y-37652459D01*
X127119500Y-37408189D01*
X127119500Y-37161811D01*
X127087341Y-36917541D01*
X127045161Y-36760122D01*
X127048364Y-36699021D01*
X127086869Y-36651471D01*
X127140788Y-36635500D01*
X127440500Y-36635500D01*
X127498691Y-36654407D01*
G37*
%TD.AperFunction*%
%TD*%
%TA.AperFunction,Conductor*%
%TO.N,/~{EXT_RESET}*%
G36*
X74642615Y-83233564D02*
G01*
X74649041Y-83239800D01*
X74650000Y-83244439D01*
X74650000Y-83355548D01*
X74646573Y-83363821D01*
X74642615Y-83366423D01*
X74296774Y-83503633D01*
X74287820Y-83503499D01*
X74281668Y-83497280D01*
X74225608Y-83363494D01*
X74200893Y-83304513D01*
X74200857Y-83295562D01*
X74281668Y-83102706D01*
X74288026Y-83096401D01*
X74296773Y-83096354D01*
X74642615Y-83233564D01*
G37*
%TD.AperFunction*%
%TD*%
%TA.AperFunction,Conductor*%
%TO.N,/~{EXT_RESET}*%
G36*
X74263828Y-81853427D02*
G01*
X74266430Y-81857385D01*
X74403639Y-82203225D01*
X74403505Y-82212179D01*
X74397286Y-82218331D01*
X74204522Y-82299105D01*
X74195567Y-82299142D01*
X74195478Y-82299105D01*
X74002713Y-82218331D01*
X73996407Y-82211973D01*
X73996360Y-82203226D01*
X74133570Y-81857384D01*
X74139806Y-81850959D01*
X74144445Y-81850000D01*
X74255555Y-81850000D01*
X74263828Y-81853427D01*
G37*
%TD.AperFunction*%
%TD*%
%TA.AperFunction,Conductor*%
%TO.N,/~{EXT_RESET}*%
G36*
X74112179Y-83096488D02*
G01*
X74118331Y-83102707D01*
X74199105Y-83295472D01*
X74199142Y-83304427D01*
X74199105Y-83304516D01*
X74118331Y-83497280D01*
X74111973Y-83503586D01*
X74103225Y-83503633D01*
X73757385Y-83366423D01*
X73750959Y-83360187D01*
X73750000Y-83355548D01*
X73750000Y-83244439D01*
X73753427Y-83236166D01*
X73757385Y-83233564D01*
X74103226Y-83096354D01*
X74112179Y-83096488D01*
G37*
%TD.AperFunction*%
%TD*%
%TA.AperFunction,Conductor*%
%TO.N,+3.3V*%
G36*
X70234586Y-62011932D02*
G01*
X70588767Y-62024598D01*
X70596913Y-62028319D01*
X70600049Y-62036239D01*
X70600978Y-62245102D01*
X70597588Y-62253390D01*
X70597525Y-62253453D01*
X70450103Y-62399953D01*
X70441819Y-62403354D01*
X70433557Y-62399901D01*
X70432752Y-62399003D01*
X70225083Y-62141716D01*
X70222487Y-62134367D01*
X70222487Y-62023626D01*
X70225914Y-62015353D01*
X70234187Y-62011926D01*
X70234586Y-62011932D01*
G37*
%TD.AperFunction*%
%TD*%
%TA.AperFunction,Conductor*%
%TO.N,+3.3V*%
G36*
X74642615Y-84233570D02*
G01*
X74649041Y-84239806D01*
X74650000Y-84244445D01*
X74650000Y-84355554D01*
X74646573Y-84363827D01*
X74642615Y-84366429D01*
X74296774Y-84503639D01*
X74287820Y-84503505D01*
X74281668Y-84497286D01*
X74225608Y-84363500D01*
X74200893Y-84304519D01*
X74200857Y-84295568D01*
X74281668Y-84102712D01*
X74288026Y-84096407D01*
X74296773Y-84096360D01*
X74642615Y-84233570D01*
G37*
%TD.AperFunction*%
%TD*%
M02*
